<?xml version="1.0" encoding="utf-8"?>
<!-- Generator: Adobe Illustrator 21.0.2, SVG Export Plug-In . SVG Version: 6.00 Build 0)  -->
<svg version="1.1" id="レイヤー_1" xmlns="http://www.w3.org/2000/svg" xmlns:xlink="http://www.w3.org/1999/xlink" x="0px"
	 y="0px" viewBox="0 0 10 16" style="enable-background:new 0 0 10 16;" xml:space="preserve">
<style type="text/css">
	.st0{fill:none;stroke:#FFFFFF;stroke-miterlimit:10;}
	.st1{display:none;}
	.st2{display:inline;fill:#38AD8B;}
	.st3{display:none;fill:none;}
</style>
<symbol  id="拡大アイコン" viewBox="-9 -14.1 18 28.1">
	<path class="st0" d="M0-3.4L0-3.4c-4.7,0-8.5,3.8-8.5,8.5l0,0c0,4.7,3.8,8.5,8.5,8.5l0,0c4.7,0,8.5-3.8,8.5-8.5l0,0
		C8.5,0.4,4.7-3.4,0-3.4z"/>
	<line class="st0" x1="-3" y1="5.1" x2="3" y2="5.1"/>
	<line class="st0" x1="0" y1="8.1" x2="0" y2="2.1"/>
	<line class="st0" x1="4.9" y1="-6.3" x2="7.5" y2="-13.9"/>
</symbol>
<symbol  id="見る_総合全国アク" viewBox="-55 -17 110 34">
	<g class="st1">
		<path class="st2" d="M55-14c0-1.7-1.3-3-3-3H-52c-1.7,0-3,1.3-3,3v28c0,1.7,1.3,3,3,3H52c1.7,0,3-1.3,3-3V-14z"/>
	</g>
	
		<use xlink:href="#拡大アイコン"  width="18" height="28.1" id="XMLID_1_" x="-9" y="-14.1" transform="matrix(0.5556 0 0 0.5556 -49.9995 9.1838)" style="overflow:visible;"/>
	<polygon class="st3" points="-55,17 55,17 55,-17 -55,-17 	"/>
</symbol>
<g>
	<g class="st1">
		<path class="st2" d="M55,814c0,1.7-1.3,3-3,3H-52c-1.7,0-3-1.3-3-3v-28c0-1.7,1.3-3,3-3H52c1.7,0,3,1.3,3,3V814z"/>
	</g>
	
		<use xlink:href="#拡大アイコン"  width="18" height="28.1" id="XMLID_2_" x="-9" y="-14.1" transform="matrix(0.5556 0 0 -0.5556 -49.9995 790.8162)" style="overflow:visible;"/>
	<polygon class="st3" points="-55,783 55,783 55,817 -55,817 	"/>
</g>
<use xlink:href="#見る_総合全国アク"  width="110" height="34" id="XMLID_3_" x="-55" y="-17" transform="matrix(1 0 0 -1 0 800)" style="overflow:visible;"/>
</svg>
