<?xml version="1.0" encoding="utf-8"?>
<!-- Generator: Adobe Illustrator 16.0.4, SVG Export Plug-In . SVG Version: 6.00 Build 0)  -->
<!DOCTYPE svg PUBLIC "-//W3C//DTD SVG 1.1//EN" "http://www.w3.org/Graphics/SVG/1.1/DTD/svg11.dtd">
<svg version="1.1" id="レイヤー_1" xmlns="http://www.w3.org/2000/svg" xmlns:xlink="http://www.w3.org/1999/xlink" x="0px"
	 y="0px" width="10px" height="16px" viewBox="0 0 10 16" enable-background="new 0 0 10 16" xml:space="preserve">
<symbol  id="拡大アイコン" viewBox="-9 -16.277 18 28.136">
	<path fill="none" stroke="#FFFFFF" stroke-miterlimit="10" d="M0-5.641L0-5.641c-4.675,0-8.5,3.825-8.5,8.5l0,0
		c0,4.675,3.825,8.5,8.5,8.5l0,0c4.675,0,8.5-3.825,8.5-8.5l0,0C8.5-1.816,4.675-5.641,0-5.641z"/>
	<line fill="none" stroke="#FFFFFF" stroke-miterlimit="10" x1="-3" y1="2.859" x2="3" y2="2.859"/>
	<line fill="none" stroke="#FFFFFF" stroke-miterlimit="10" x1="0" y1="5.859" x2="0" y2="-0.141"/>
	<line fill="none" stroke="#FFFFFF" stroke-miterlimit="10" x1="4.889" y1="-8.55" x2="7.493" y2="-16.114"/>
</symbol>
<symbol  id="見る_総合全国アク" viewBox="-55 -17 110 34">
	<g display="none">
		<path display="inline" fill="#38AD8B" d="M55-14c0-1.657-1.343-3-3-3H-52c-1.657,0-3,1.343-3,3v28c0,1.657,1.343,3,3,3H52
			c1.657,0,3-1.343,3-3V-14z"/>
	</g>
	
		<use xlink:href="#拡大アイコン"  width="18" height="28.136" id="XMLID_2_" x="-9" y="-16.277" transform="matrix(0.5556 0 0 0.5556 -49.9995 10.4111)" overflow="visible"/>
	<polygon display="none" fill="none" points="-55,17 55,17 55,-17 -55,-17 	"/>
</symbol>
<use xlink:href="#見る_総合全国アク"  width="110" height="34" id="XMLID_3_" x="-55" y="-17" transform="matrix(1 0 0 -1 55 17)" overflow="visible"/>
</svg>
