<?xml version="1.0" encoding="utf-8"?>
<!-- Generator: Adobe Illustrator 21.0.2, SVG Export Plug-In . SVG Version: 6.00 Build 0)  -->
<svg version="1.1" id="レイヤー_1" xmlns="http://www.w3.org/2000/svg" xmlns:xlink="http://www.w3.org/1999/xlink" x="0px"
	 y="0px" viewBox="0 0 960 750" style="enable-background:new 0 0 960 750;" xml:space="preserve">
<style type="text/css">
	.st0{display:none;}
	.st1{display:inline;fill:#3ECCC8;stroke:#FFFFFF;stroke-width:0.6;}
	.st2{fill:#2A7F38;stroke:#FFFFFF;stroke-width:0.6;}
</style>
<symbol  id="日本地図_3" viewBox="-297.9 -340.5 91.4 126.9">
	<g id="九州_6_" class="st0">
		<path class="st1" d="M-277.5-232.2c0,0-0.4,0.8,0,2.4c0.4,1.5,4.7,3.6,4.7,3.6s2.2-4.4,3.5-3.6c1.3,0.9,1.8,2.4,2.4,3.6
			c0.6,1.1,0,2.4,0,2.4l2.4,3.6c0,0-0.4,0.4,0,1.2s-0.4,1.5,2.4,2.4c2.8,0.9,3.7-0.9,4.7,0c1,0.9,1.7,1.6,2.4,2.4
			c0.6,0.8,3.9,0.8,4.7,0c0.8-0.8,3.1-2.2,3.5-1.2c0.5,1.1,0.8,0.5,1.2,0c0.4-0.5,0.8-3.6,1.2-4.7c0.3-1.2,1.2-2.1,2.4-3.6
			c1.1-1.5,0.7-3.6,2.4-3.6c1.7,0.1,2.4-1.2,2.4-1.2s0-1.8-0.3-2.6c-0.2-0.7,0.4-1.1-2.2-1c-2.6,0.1-3.3,0.4-4.1-0.1
			c-0.8-0.5-1.3-2.5-2.8-3.4c-1.6-0.9-2.6-1.6-2.7-2.6s0.7-1.5,0.4-2.1c-0.3-0.6-1.4-1.6-1.2-2.6c0.1-1,0.9-1.7,1.2-2.1
			c0.3-0.5,0.3-4.6,0-5.9c-0.1-0.5-3.7,0-4.7,1.2c-1,1.2-2.2,2.1-2.4,1.2c-0.2-0.9-3.6-0.5-4.7-2.4s-4-5.2-3.5-5.9s-1.2,3.6-1.2,3.6
			s-1.5,2.8-1.2,3.6c0.3,0.7-1.2,1.2-1.2,1.2l-1.2,1.2c0,0,0.8,1.9,1.2,2.4c0.4,0.5,1.4,2.4,2.4,2.4c0.9-0.1,0.6,0,2.4,1.2
			c1.7,1.2,2.1,0.8,2.4,2.4c0.3,1.6-1.2,3.6-1.2,3.6s-1.4,0.9-2.4,0c-0.9-0.9-2.4-2.4-2.4-2.4l-2.4,2.4l-1.2,1.2
			c0,0-2.5,1.7-2.4,1.2c0.2-0.5-1.2-1.2-1.2-1.2l-2.4-1.2c0,0-1.6,0.5-1.2,1.2C-277.1-234-277.5-232.2-277.5-232.2z"/>
		<path class="st1" d="M-230.4-229.9c0,0,4.6,1.4,4.7,2.4c0.1,1,1.5,3.9,2.4,3.6c0.9-0.3,3.3-1.7,3.5-2.4c0.2-0.7,1-2.6,1.2-3.6
			c0.2-0.9-0.4-2.8,0-3.6c0.4-0.8,1.8-2.7,0-3.6c-1.8-0.8-3.5-1.2-3.5-1.2s-0.2-1.2-1.2-1.2c-0.9,0-3.3-3-2.4-3.6
			c1-0.5,3.5-1.2,3.5-1.2l3.5,1.2c0,0,0.6-0.7,1.2-1.2c0.6-0.5,1.9-0.7,2.4,0c0.4,0.7,0.1,3.2,1.2,2.4c1.1-0.8,2.3-1.9,2.4-2.4
			c0-0.5-2.3-2.1-2.4-3.6c-0.1-1.4-0.3-1.7,1.2-2.4c1.4-0.6,1.9,1,2.4-1.2s-0.9-2,0-3.6c0.9-1.5,1.6-3.1,2.4-3.6
			c0.8-0.4,0.9-0.6,1.2-1.2c0.3-0.6-1.6-3.1-2.4-3.6c-0.7-0.4-1.1-0.7-2-1c-0.8-0.4-2.2-0.1-2.7,0.6c-0.5,0.7-0.9,1.8-1.5,1.5
			c-0.7-0.3-3.2-2.2-3.2-2.2s-4-0.6-5.9-1.2c-1.3-0.4-1.2,0.1-2,1.2c-0.3,0.4-1.5,2.9-1.5,2.4c0-0.5-2.4-2.4-2.4-2.4
			s-1.9,0.5-2.4,1.2c-0.5,0.7-0.3-0.1-1.2,2.4c-1,2.8-1.9,2-2.4,4.7c-0.4,2.8,0.7,3.6-1.2,5.9c-1,1.3-1.3,3.4-1.9,3.5
			c-0.8,0.2-4,0.1-4,0.1s-1.3,2.1-1.2,0.4s1.2-5.1,1.2-5.1s1.9-0.2,1.3-0.7c-0.6-0.4-4.1-3.8-4.9-2.9c-0.8,0.9-2.4,3.6-2.4,3.6v2.4
			v3.6c0,0-1.6,1.3-1.2,2.4c0.4,1.1,1.3,3.1,1.3,3.1s-1.5,1.4,0.6,3c2.7,2,0.9,0.4,2.9,2.2c1.2,1.1,1.8,2.7,2.6,2.5
			c0.7-0.2,4.4-0.1,4.4-0.1l0.8,0.4l0.4,3.2h4.7L-230.4-229.9z"/>
		<path class="st1" d="M-289.3-240.5c0.8,0,2.2-0.6,2.4,1.2c0.2,1.8-1.7,3.3-1.2,3.6c0.5,0.2-1.6,0.7,0,2.4c1.6,1.7,3.5,4.1,3.5,3.6
			c0.1-0.5,2.8-0.5,2.4-1.2c-0.5-0.7,0.8-2.8,1.2-3.6c0.4-0.7,0.2-2.1,1.2-1.2c1,0.9,2.2,0.9,2.2,0.9s0.6-0.7,1.4-0.9
			c0.8-0.3,2.9,1.5,2.9,1.5l0.9,0.9c0,0,2.9-1.3,3.3-2.4c0.4-1.1,1.7-2.2,2.4-2.4c0.6-0.1,2.7,2.6,2.7,2.6s2-0.3,2.6-1.4
			c0.6-1.1,0.5-1.3,0.5-2.4c0-1.1-1.7-1.5-2.9-2.6c-1.2-1.2-2.6-0.9-3.4-2.1c-0.8-1.2-1.4-2.2-1.4-2.2s-0.1-1.1-0.9-1.4
			c-0.7-0.3-0.6,0.1-1.4,0.3c-0.8,0.2-1.8,1-1.8,1s0.2,0-1.2-1.2c-1.3-1.2-2.5,0.4-2.4-1.2c0.1-1.6-0.8-1.8,0-2.4
			c0.8-0.6,1.9-0.8,2.4-2.4c0.4-1.6,0-2.4,0-2.4s-1.4,1.4-3.2,1.3c-1.8-0.2-1.2-0.4-2.7,1.1c-1.6,1.7-1.9,2.7-2.4,3.6
			c-0.4,0.9-1.5,2.6-1.5,2.6s-1.8,0.3-2.7,0.7c-1.7,0.8-3.3,3.4-3.3,3.4S-290.1-240.6-289.3-240.5z"/>
		<path class="st1" d="M-275.1-260.7c0.7,0.4,4.3-0.2,5.9-1.2c1.6-0.9,1.6-2,2.4-2.4c0.8-0.4,1-2.5,0-3.6s-5.9-3.6-5.9-3.6
			s-4.3-0.3-3.5,1.2c0.8,1.5,2.6,1,2.4,2.4c-0.2,1.4-1.2,3.6-1.2,3.6s-0.6,1.6-1.2,1.2c-0.6-0.4-0.1-1.8-2.4-2.4
			c-2.2-0.5-3.3-0.5-3.5-1.2s-3-4.7-3.5-4.7c-0.5,0-3.4-4.7-3.5-2.4c-0.1,2.4,1.1,3.3,1.2,4.7c0,1.4,1.1,3.1,0,4.7
			c-1.1,1.7-2.6,2.5-3.5,3.6c-0.9,1-4.1,3.4-3.5,3.6c0.6,0.2,2.4,3.6,2.4,3.6v2.4c0,0,1.8-1.9,2.4-2.4c0.6-0.4-0.3-0.2,1.2-2.4
			c1.4-2.1,2.8-3,2.4-3.6c-0.5-0.6,1-0.4,1.2-1.2c0.1-0.8,1.7-1.8,2.4-1.2c0.7,0.6,3.3,0,2.4,2.4c-1,2.3-2.8,2.8-2.4,3.6
			c0.5,0.8-1.2,2.4-1.2,2.4s-0.5,2.3-2.4,2.4c-1.8,0.1-2.4,1.2-2.4,1.2s-1.4,1-2.4,1.2c-0.9,0.2-2.4,1.2-2.4,1.2s-0.4-0.6-1.2,0
			c-0.7,0.6-2.6,1.9-2.4,2.4c0.3,0.5,1.2,3,1.2,3.6c0,0.5,1.2,3.6,1.2,3.6l2.4-1.2l3.5-1.2c0,0-1-2.2,0-3.6c1-1.4,2.4-2.4,2.4-2.4
			l2.3-0.8c0,0,0.7,0.1,1.2-0.4c0.5-0.5,0.9-2,1.5-3.4c0.6-1.5,3.2-3.7,3.2-3.7s1.8,0.2,2.4,0c0.6-0.2,2.4-1.2,2.4-1.2
			s-0.4-0.5,0-1.2C-273.5-257.8-275.9-261-275.1-260.7z"/>
		<path class="st1" d="M-262.2-283.2c0,0,0.2-2.3-1.2-3.6c-1.4-1.3-3.2-1-3.5-2.4c-0.3-1.4-1.2-3.6-1.2-3.6c2.8-0.3,2.6-0.4,4.7,0
			c1.7,0.4,2.4,0.7,3.5,1.2c1.1,0.5,1.7-0.8,2.4-1.2c0.4-0.2-0.6-0.3,2.4-1.2c1.9-0.5,4.2-2.3,5.9-1.2c1.7,1.2,1.3,2.6,3.5,2.7
			c2.2,0.1,3.3,0.5,3.9,1s2,3.3,2,3.3s-0.5,2.4-0.6,3.3c-0.1,0.9-0.4,1.8-1,4c-0.4,1.5-1.3,2.6-1.9,3.6c-0.4,0.7-1.3,2.2-1.3,2.2
			l2.9,2.8c0,0,1.1,1.2,2.5,2.6c1.4,1.4,1.4,2.1,1.9,3.1c0.6,1.1,2,3.3,2,3.3l1.2,2.4l-1.2,2.4c0,0-1.3,1.8-1.2,2.4
			c0.2,0.6,0.1,2,0,3.6c-0.1,1.5-0.5,1.2-1.2,2.4c-0.7,1.2-1.3,3.5-2.4,3.6c-1.3,0-3.4-0.6-3.5,0c-0.2,0.6-1.2,1.2-1.2,1.2l1.2-5.9
			c0,0,2.2,0.1,1.1-1c-1.1-1.2-1.9-1.4-2.7-1.9c-0.6-0.5-1.2-1.1-1.6-0.8c-2.1,1.8-2.1,3.7-2.7,3.8c-0.6,0.1-1.7-0.1-3.1,0.3
			c-0.8,0.2-0.8,0.2-1.6,0.9c-0.8,0.7-1,2-1.9,1.5c-1-0.5-1.8-1-2.8-1.2c-0.7-0.2-2.2-0.8-2.6-1.8c-0.4-1-0.4-0.1-1.8-2.6
			c-1.5-2.7-1.6-2.7-1.5-3c0.5-1.5,1.1-2.1,2.4-3.6c1.2-1.4,1.3-1.7,2.4-2.4c1.1-0.7,1.7-1.2,1.2-2.4s-0.3-2.7-1.2-3.6
			c-0.9-0.8-5.9-3.6-5.9-3.6s4.6-1.2,5.9,0c1.3,1.2,3.7,3.1,3.5,2.4s-0.4-1.5-1.2-2.4c-0.8-0.9-2.3-1.4-2.4-2.4c0-1-0.8-2.5-1.2-3.6
			S-262.2-283.2-262.2-283.2z"/>
		<path class="st1" d="M-271.6-279.6c0,0,0,1.4,1.2,2.4c1.2,0.9,2.4,1.2,2.4,1.2h3.5v-2.4c0,0-1.8-1.9-2.4-2.4
			c-0.6-0.5-3.5-1.2-3.5-1.2L-271.6-279.6z"/>
		<path class="st1" d="M-281-280.8c0,0-0.5,2.2,1.2,3.6s3.5,2.4,3.5,2.4s0.7-0.4,1.2,0c0.5,0.4,0.7-0.3,1.2-1.2
			c0.4-0.9,1.5-2.4,1.2-3.6s-1.2-3.6-1.2-3.6s-0.6-2.4-1.2-2.4c-0.6,0-1.4-1.1-2.4-2.4c-0.9-1.2-3.5-2.4-3.5-2.4s-1.6,1.8-1.2,2.4
			c0.4,0.6,1.2,3.6,1.2,3.6L-281-280.8L-281-280.8z"/>
		<path class="st1" d="M-228-309.2c0,0,1.4-5.2,0-5.9c-1.4-0.8-2.7-1.7-2.4-2.4c0.3-0.7,0.4-1.9,0-3.6c-0.4-1.6,0.5-2.8-1.2-3.6
			c-1.6-0.8-5.7,1.5-5.7,1.5s-0.2,0.6-0.2,3.3c0,1.3,0,5.9,0,5.9l-5.7,2.6c0,0,0.3,0.3-0.3,1.3c-0.6,1-2.8,2.2-2.8,2.2l-3-0.3
			l1.2,3.6l-4.2,4.9l-1.1,3.3l-1.8,2.5l2.4-1.2l3-0.2c0,0,2,1.8,2.9,2.6c0.9,0.8,3.6-0.2,4.7,1.2s2.9,3.1,2.4,4.7
			c-0.6,1.6-1.9,8.4-2.4,8.3c-0.4-0.1-2.4,3.6-2.4,3.6s1.7,1.9,2.4,2.4c0.7,0.5,3.5,3,3.5,3.6c0,0.5,2.1,3.1,2.4,3.6
			c0.6,1.2,1.2,2.4,1.2,2.4l1.2,2.4c0,0,1.8-3.2,2.4-3.2c0.6,0.1,1-0.7,1.6-0.2c0.5,0.5,1.9,2.2,1.9,2.2l2.3-3.7c0,0,6,1.4,7.1,1.3
			c1.1-0.1,3.3,2.6,3.5,2.4c0.2-0.3,1.6-2.4,2.4-2.4c1.2,0,2.6,0.8,2.2,0.3c-0.7-0.9-2.6-4.9-3.3-5c-0.7-0.1-2-1.7-2.4-2.4
			c-0.4-0.7-1.9-3.7-2.4-3.6c-0.5,0.2,0.7-2,0-2.4c-0.7-0.4-3.4-4.2-3.5-5.9c-0.1-1.7-0.9-2.2-1.2-4.7c-0.3-2.6-2.7-5.3-2.4-7.1
			c0.3-1.8-0.9-2-1.2-3.6C-227.2-300.2-228-309.2-228-309.2z"/>
		<path class="st1" d="M-274-330.5c-0.4,0.3-0.7,4-1.2,4.7c-0.3,0.4-2.4,2.4-2.4,2.4s-0.5,1.6,1.2,1.2l4.7-1.2c0,0-0.8,2.1,0,3.6
			c0.8,1.5,2.1,1,2.4,2.4c0.2,1.4,0,3,0,3.6c0,0.5-2.5,3-2.4,3.6c0.1,0.6-1.5,1.9-2.4,2.4c-0.9,0.4-2.4,2.4-2.4,2.4s2.1,1.5,2.4,2.4
			c0.2,0.9,0.4,3.1,0,3.6c-0.4,0.5-1.2,1.2-1.2,1.2v2.4l-1.2,2.4c0,0,1.2-0.4,2.4,0c1.1,0.4,2.8,1.3,3.5,1.2c0.7-0.1,2.4,0,2.4,0
			l2.9-0.3l3.7,0.8c0,0,2.3,1.3,2.8,0.7c1.3-1.5,3.5-2.4,3.5-2.4s0.5-0.6,1.6-2.2c0.6-0.9,0-1,0.8-2.6c0.7-1.6,1.3-2.6,2.4-3.6
			c1.1-1,2.4-2.4,2.4-2.4l-1.2-3.6c0,0,3.1,0.7,3.5,0c0.4-0.7,2.1-1.6,2.4-2.4c0.5-1.4,0.9-1.2,1.8-1.6c1.6-0.8,1.8-0.9,1.8-0.9
			l2.3-1.1v-4.7c0,0-0.1-3.4,0.2-4.4c0.2-0.5-3,0.9-3.8,0.9c-0.7,0-2.4-0.6-2.4-1.2c0.1-0.6,0-2.4,0-2.4s2.2-0.7,2.4-1.2
			c0.3-0.7,0-4.7,0-4.7s-0.1,0-1.2,0c-1.1,0-0.9,0.3-2.4-1.2c-1.4-1.5-2-2.5-3.5-3.6c-1.5-1.1-2.4,0-2.4,0l-2.4-1.2l-2.4-2.4
			c0,0-1.7-0.3-2.4,0c-0.5,0.3,2.6,5.2,2.4,4.7c0,0,0-0.1,0-0.1s1.1,1.9,1.2,2.4c0.1,0.6,1.2,3.6,1.2,3.6v4.7c0,0-0.9,1-1.2,2.4
			c-0.3,1.4,0,3.6,0,3.6h-4.7v3.6h1.2h2.4c0,0,0.4-0.9,1.2-1.2c0.8-0.3,1.2,1.2,1.2,1.2l1.2,2.4c0,0-1.8-0.3-2.4,1.2
			c-0.5,1.5-2.4,2.4-2.4,2.4l-2.4-1.2c0,0-1.4-5.2-1.2-5.9c0.2-0.7-1.2-2.4-1.2-2.4s-1.7,0.5-1.2-1.2c0.5-1.7,0.9-3,1.2-3.6
			c0.3-0.6-1.4-1,0-2.4c1.4-1.4,0.3-3.5,1.2-3.6c0.9-0.1,2.5-0.7,2.4-1.2c-0.1-0.5,0.8-1.6,0-2.4c-0.8-0.8-4.1-1.6-4.7-1.2
			c-0.6,0.4-1.2,2.4-1.2,2.4s-0.3,2.9-1.2,2.4c-0.9-0.5-5.9-1.2-5.9-1.2S-273.6-330.8-274-330.5z"/>
	</g>
	<g id="九州_3_">
		<path class="st2" d="M-277.5-232.2c0,0-0.4,0.8,0,2.4c0.4,1.5,4.7,3.6,4.7,3.6s2.2-4.4,3.5-3.6c1.3,0.9,1.8,2.4,2.4,3.6
			c0.6,1.1,0,2.4,0,2.4l2.4,3.6c0,0-0.4,0.4,0,1.2s-0.4,1.5,2.4,2.4c2.8,0.9,3.7-0.9,4.7,0c1,0.9,1.7,1.6,2.4,2.4
			c0.6,0.8,3.9,0.8,4.7,0c0.8-0.8,3.1-2.2,3.5-1.2c0.5,1.1,0.8,0.5,1.2,0c0.4-0.5,0.8-3.6,1.2-4.7c0.3-1.2,1.2-2.1,2.4-3.6
			c1.1-1.5,0.7-3.6,2.4-3.6c1.7,0.1,2.4-1.2,2.4-1.2s0-1.8-0.3-2.6c-0.2-0.7,0.4-1.1-2.2-1c-2.6,0.1-3.3,0.4-4.1-0.1
			c-0.8-0.5-1.3-2.5-2.8-3.4c-1.6-0.9-2.6-1.6-2.7-2.6s0.7-1.5,0.4-2.1c-0.3-0.6-1.4-1.6-1.2-2.6c0.1-1,0.9-1.7,1.2-2.1
			c0.3-0.5,0.3-4.6,0-5.9c-0.1-0.5-3.7,0-4.7,1.2c-1,1.2-2.2,2.1-2.4,1.2c-0.2-0.9-3.6-0.5-4.7-2.4s-4-5.2-3.5-5.9s-1.2,3.6-1.2,3.6
			s-1.5,2.8-1.2,3.6c0.3,0.7-1.2,1.2-1.2,1.2l-1.2,1.2c0,0,0.8,1.9,1.2,2.4c0.4,0.5,1.4,2.4,2.4,2.4c0.9-0.1,0.6,0,2.4,1.2
			c1.7,1.2,2.1,0.8,2.4,2.4c0.3,1.6-1.2,3.6-1.2,3.6s-1.4,0.9-2.4,0c-0.9-0.9-2.4-2.4-2.4-2.4l-2.4,2.4l-1.2,1.2
			c0,0-2.5,1.7-2.4,1.2c0.2-0.5-1.2-1.2-1.2-1.2l-2.4-1.2c0,0-1.6,0.5-1.2,1.2C-277.1-234-277.5-232.2-277.5-232.2z"/>
		<path class="st2" d="M-230.4-229.9c0,0,4.6,1.4,4.7,2.4c0.1,1,1.5,3.9,2.4,3.6c0.9-0.3,3.3-1.7,3.5-2.4c0.2-0.7,1-2.6,1.2-3.6
			c0.2-0.9-0.4-2.8,0-3.6c0.4-0.8,1.8-2.7,0-3.6c-1.8-0.8-3.5-1.2-3.5-1.2s-0.2-1.2-1.2-1.2c-0.9,0-3.3-3-2.4-3.6
			c1-0.5,3.5-1.2,3.5-1.2l3.5,1.2c0,0,0.6-0.7,1.2-1.2c0.6-0.5,1.9-0.7,2.4,0c0.4,0.7,0.1,3.2,1.2,2.4c1.1-0.8,2.3-1.9,2.4-2.4
			c0-0.5-2.3-2.1-2.4-3.6c-0.1-1.4-0.3-1.7,1.2-2.4c1.4-0.6,1.9,1,2.4-1.2s-0.9-2,0-3.6c0.9-1.5,1.6-3.1,2.4-3.6
			c0.8-0.4,0.9-0.6,1.2-1.2c0.3-0.6-1.6-3.1-2.4-3.6c-0.7-0.4-1.1-0.7-2-1c-0.8-0.4-2.2-0.1-2.7,0.6c-0.5,0.7-0.9,1.8-1.5,1.5
			c-0.7-0.3-3.2-2.2-3.2-2.2s-4-0.6-5.9-1.2c-1.3-0.4-1.2,0.1-2,1.2c-0.3,0.4-1.5,2.9-1.5,2.4c0-0.5-2.4-2.4-2.4-2.4
			s-1.9,0.5-2.4,1.2c-0.5,0.7-0.3-0.1-1.2,2.4c-1,2.8-1.9,2-2.4,4.7c-0.4,2.8,0.7,3.6-1.2,5.9c-1,1.3-1.3,3.4-1.9,3.5
			c-0.8,0.2-4,0.1-4,0.1s-1.3,2.1-1.2,0.4s1.2-5.1,1.2-5.1s1.9-0.2,1.3-0.7c-0.6-0.4-4.1-3.8-4.9-2.9c-0.8,0.9-2.4,3.6-2.4,3.6v2.4
			v3.6c0,0-1.6,1.3-1.2,2.4c0.4,1.1,1.3,3.1,1.3,3.1s-1.5,1.4,0.6,3c2.7,2,0.9,0.4,2.9,2.2c1.2,1.1,1.8,2.7,2.6,2.5
			c0.7-0.2,4.4-0.1,4.4-0.1l0.8,0.4l0.4,3.2h4.7L-230.4-229.9z"/>
		<path class="st2" d="M-289.3-240.5c0.8,0,2.2-0.6,2.4,1.2c0.2,1.8-1.7,3.3-1.2,3.6c0.5,0.2-1.6,0.7,0,2.4c1.6,1.7,3.5,4.1,3.5,3.6
			c0.1-0.5,2.8-0.5,2.4-1.2c-0.5-0.7,0.8-2.8,1.2-3.6c0.4-0.7,0.2-2.1,1.2-1.2c1,0.9,2.2,0.9,2.2,0.9s0.6-0.7,1.4-0.9
			c0.8-0.3,2.9,1.5,2.9,1.5l0.9,0.9c0,0,2.9-1.3,3.3-2.4c0.4-1.1,1.7-2.2,2.4-2.4c0.6-0.1,2.7,2.6,2.7,2.6s2-0.3,2.6-1.4
			c0.6-1.1,0.5-1.3,0.5-2.4c0-1.1-1.7-1.5-2.9-2.6c-1.2-1.2-2.6-0.9-3.4-2.1c-0.8-1.2-1.4-2.2-1.4-2.2s-0.1-1.1-0.9-1.4
			c-0.7-0.3-0.6,0.1-1.4,0.3c-0.8,0.2-1.8,1-1.8,1s0.2,0-1.2-1.2c-1.3-1.2-2.5,0.4-2.4-1.2c0.1-1.6-0.8-1.8,0-2.4
			c0.8-0.6,1.9-0.8,2.4-2.4c0.4-1.6,0-2.4,0-2.4s-1.4,1.4-3.2,1.3c-1.8-0.2-1.2-0.4-2.7,1.1c-1.6,1.7-1.9,2.7-2.4,3.6
			c-0.4,0.9-1.5,2.6-1.5,2.6s-1.8,0.3-2.7,0.7c-1.7,0.8-3.3,3.4-3.3,3.4S-290.1-240.6-289.3-240.5z"/>
		<path class="st2" d="M-275.1-260.7c0.7,0.4,4.3-0.2,5.9-1.2c1.6-0.9,1.6-2,2.4-2.4c0.8-0.4,1-2.5,0-3.6s-5.9-3.6-5.9-3.6
			s-4.3-0.3-3.5,1.2c0.8,1.5,2.6,1,2.4,2.4c-0.2,1.4-1.2,3.6-1.2,3.6s-0.6,1.6-1.2,1.2c-0.6-0.4-0.1-1.8-2.4-2.4
			c-2.2-0.5-3.3-0.5-3.5-1.2s-3-4.7-3.5-4.7c-0.5,0-3.4-4.7-3.5-2.4c-0.1,2.4,1.1,3.3,1.2,4.7c0,1.4,1.1,3.1,0,4.7
			c-1.1,1.7-2.6,2.5-3.5,3.6c-0.9,1-4.1,3.4-3.5,3.6c0.6,0.2,2.4,3.6,2.4,3.6v2.4c0,0,1.8-1.9,2.4-2.4c0.6-0.4-0.3-0.2,1.2-2.4
			c1.4-2.1,2.8-3,2.4-3.6c-0.5-0.6,1-0.4,1.2-1.2c0.1-0.8,1.7-1.8,2.4-1.2c0.7,0.6,3.3,0,2.4,2.4c-1,2.3-2.8,2.8-2.4,3.6
			c0.5,0.8-1.2,2.4-1.2,2.4s-0.5,2.3-2.4,2.4c-1.8,0.1-2.4,1.2-2.4,1.2s-1.4,1-2.4,1.2c-0.9,0.2-2.4,1.2-2.4,1.2s-0.4-0.6-1.2,0
			c-0.7,0.6-2.6,1.9-2.4,2.4c0.3,0.5,1.2,3,1.2,3.6c0,0.5,1.2,3.6,1.2,3.6l2.4-1.2l3.5-1.2c0,0-1-2.2,0-3.6c1-1.4,2.4-2.4,2.4-2.4
			l2.3-0.8c0,0,0.7,0.1,1.2-0.4c0.5-0.5,0.9-2,1.5-3.4c0.6-1.5,3.2-3.7,3.2-3.7s1.8,0.2,2.4,0c0.6-0.2,2.4-1.2,2.4-1.2
			s-0.4-0.5,0-1.2C-273.5-257.8-275.9-261-275.1-260.7z"/>
		<path class="st2" d="M-262.2-283.2c0,0,0.2-2.3-1.2-3.6c-1.4-1.3-3.2-1-3.5-2.4c-0.3-1.4-1.2-3.6-1.2-3.6c2.8-0.3,2.6-0.4,4.7,0
			c1.7,0.4,2.4,0.7,3.5,1.2c1.1,0.5,1.7-0.8,2.4-1.2c0.4-0.2-0.6-0.3,2.4-1.2c1.9-0.5,4.2-2.3,5.9-1.2c1.7,1.2,1.3,2.6,3.5,2.7
			c2.2,0.1,3.3,0.5,3.9,1s2,3.3,2,3.3s-0.5,2.4-0.6,3.3c-0.1,0.9-0.4,1.8-1,4c-0.4,1.5-1.3,2.6-1.9,3.6c-0.4,0.7-1.3,2.2-1.3,2.2
			l2.9,2.8c0,0,1.1,1.2,2.5,2.6c1.4,1.4,1.4,2.1,1.9,3.1c0.6,1.1,2,3.3,2,3.3l1.2,2.4l-1.2,2.4c0,0-1.3,1.8-1.2,2.4
			c0.2,0.6,0.1,2,0,3.6c-0.1,1.5-0.5,1.2-1.2,2.4c-0.7,1.2-1.3,3.5-2.4,3.6c-1.3,0-3.4-0.6-3.5,0c-0.2,0.6-1.2,1.2-1.2,1.2l1.2-5.9
			c0,0,2.2,0.1,1.1-1c-1.1-1.2-1.9-1.4-2.7-1.9c-0.6-0.5-1.2-1.1-1.6-0.8c-2.1,1.8-2.1,3.7-2.7,3.8c-0.6,0.1-1.7-0.1-3.1,0.3
			c-0.8,0.2-0.8,0.2-1.6,0.9c-0.8,0.7-1,2-1.9,1.5c-1-0.5-1.8-1-2.8-1.2c-0.7-0.2-2.2-0.8-2.6-1.8c-0.4-1-0.4-0.1-1.8-2.6
			c-1.5-2.7-1.6-2.7-1.5-3c0.5-1.5,1.1-2.1,2.4-3.6c1.2-1.4,1.3-1.7,2.4-2.4c1.1-0.7,1.7-1.2,1.2-2.4s-0.3-2.7-1.2-3.6
			c-0.9-0.8-5.9-3.6-5.9-3.6s4.6-1.2,5.9,0c1.3,1.2,3.7,3.1,3.5,2.4s-0.4-1.5-1.2-2.4c-0.8-0.9-2.3-1.4-2.4-2.4c0-1-0.8-2.5-1.2-3.6
			S-262.2-283.2-262.2-283.2z"/>
		<path class="st2" d="M-271.6-279.6c0,0,0,1.4,1.2,2.4c1.2,0.9,2.4,1.2,2.4,1.2h3.5v-2.4c0,0-1.8-1.9-2.4-2.4
			c-0.6-0.5-3.5-1.2-3.5-1.2L-271.6-279.6z"/>
		<path class="st2" d="M-281-280.8c0,0-0.5,2.2,1.2,3.6s3.5,2.4,3.5,2.4s0.7-0.4,1.2,0c0.5,0.4,0.7-0.3,1.2-1.2
			c0.4-0.9,1.5-2.4,1.2-3.6s-1.2-3.6-1.2-3.6s-0.6-2.4-1.2-2.4c-0.6,0-1.4-1.1-2.4-2.4c-0.9-1.2-3.5-2.4-3.5-2.4s-1.6,1.8-1.2,2.4
			c0.4,0.6,1.2,3.6,1.2,3.6L-281-280.8L-281-280.8z"/>
		<path class="st2" d="M-228-309.2c0,0,1.4-5.2,0-5.9c-1.4-0.8-2.7-1.7-2.4-2.4c0.3-0.7,0.4-1.9,0-3.6c-0.4-1.6,0.5-2.8-1.2-3.6
			c-1.6-0.8-5.7,1.5-5.7,1.5s-0.2,0.6-0.2,3.3c0,1.3,0,5.9,0,5.9l-5.7,2.6c0,0,0.3,0.3-0.3,1.3c-0.6,1-2.8,2.2-2.8,2.2l-3-0.3
			l1.2,3.6l-4.2,4.9l-1.1,3.3l-1.8,2.5l2.4-1.2l3-0.2c0,0,2,1.8,2.9,2.6c0.9,0.8,3.6-0.2,4.7,1.2s2.9,3.1,2.4,4.7
			c-0.6,1.6-1.9,8.4-2.4,8.3c-0.4-0.1-2.4,3.6-2.4,3.6s1.7,1.9,2.4,2.4c0.7,0.5,3.5,3,3.5,3.6c0,0.5,2.1,3.1,2.4,3.6
			c0.6,1.2,1.2,2.4,1.2,2.4l1.2,2.4c0,0,1.8-3.2,2.4-3.2c0.6,0.1,1-0.7,1.6-0.2c0.5,0.5,1.9,2.2,1.9,2.2l2.3-3.7c0,0,6,1.4,7.1,1.3
			c1.1-0.1,3.3,2.6,3.5,2.4c0.2-0.3,1.6-2.4,2.4-2.4c1.2,0,2.6,0.8,2.2,0.3c-0.7-0.9-2.6-4.9-3.3-5c-0.7-0.1-2-1.7-2.4-2.4
			c-0.4-0.7-1.9-3.7-2.4-3.6c-0.5,0.2,0.7-2,0-2.4c-0.7-0.4-3.4-4.2-3.5-5.9c-0.1-1.7-0.9-2.2-1.2-4.7c-0.3-2.6-2.7-5.3-2.4-7.1
			c0.3-1.8-0.9-2-1.2-3.6C-227.2-300.2-228-309.2-228-309.2z"/>
		<path class="st2" d="M-274-330.5c-0.4,0.3-0.7,4-1.2,4.7c-0.3,0.4-2.4,2.4-2.4,2.4s-0.5,1.6,1.2,1.2l4.7-1.2c0,0-0.8,2.1,0,3.6
			c0.8,1.5,2.1,1,2.4,2.4c0.2,1.4,0,3,0,3.6c0,0.5-2.5,3-2.4,3.6c0.1,0.6-1.5,1.9-2.4,2.4c-0.9,0.4-2.4,2.4-2.4,2.4s2.1,1.5,2.4,2.4
			c0.2,0.9,0.4,3.1,0,3.6c-0.4,0.5-1.2,1.2-1.2,1.2v2.4l-1.2,2.4c0,0,1.2-0.4,2.4,0c1.1,0.4,2.8,1.3,3.5,1.2c0.7-0.1,2.4,0,2.4,0
			l2.9-0.3l3.7,0.8c0,0,2.3,1.3,2.8,0.7c1.3-1.5,3.5-2.4,3.5-2.4s0.5-0.6,1.6-2.2c0.6-0.9,0-1,0.8-2.6c0.7-1.6,1.3-2.6,2.4-3.6
			c1.1-1,2.4-2.4,2.4-2.4l-1.2-3.6c0,0,3.1,0.7,3.5,0c0.4-0.7,2.1-1.6,2.4-2.4c0.5-1.4,0.9-1.2,1.8-1.6c1.6-0.8,1.8-0.9,1.8-0.9
			l2.3-1.1v-4.7c0,0-0.1-3.4,0.2-4.4c0.2-0.5-3,0.9-3.8,0.9c-0.7,0-2.4-0.6-2.4-1.2c0.1-0.6,0-2.4,0-2.4s2.2-0.7,2.4-1.2
			c0.3-0.7,0-4.7,0-4.7s-0.1,0-1.2,0c-1.1,0-0.9,0.3-2.4-1.2c-1.4-1.5-2-2.5-3.5-3.6c-1.5-1.1-2.4,0-2.4,0l-2.4-1.2l-2.4-2.4
			c0,0-1.7-0.3-2.4,0c-0.5,0.3,2.6,5.2,2.4,4.7c0,0,0-0.1,0-0.1s1.1,1.9,1.2,2.4c0.1,0.6,1.2,3.6,1.2,3.6v4.7c0,0-0.9,1-1.2,2.4
			c-0.3,1.4,0,3.6,0,3.6h-4.7v3.6h1.2h2.4c0,0,0.4-0.9,1.2-1.2c0.8-0.3,1.2,1.2,1.2,1.2l1.2,2.4c0,0-1.8-0.3-2.4,1.2
			c-0.5,1.5-2.4,2.4-2.4,2.4l-2.4-1.2c0,0-1.4-5.2-1.2-5.9c0.2-0.7-1.2-2.4-1.2-2.4s-1.7,0.5-1.2-1.2c0.5-1.7,0.9-3,1.2-3.6
			c0.3-0.6-1.4-1,0-2.4c1.4-1.4,0.3-3.5,1.2-3.6c0.9-0.1,2.5-0.7,2.4-1.2c-0.1-0.5,0.8-1.6,0-2.4c-0.8-0.8-4.1-1.6-4.7-1.2
			c-0.6,0.4-1.2,2.4-1.2,2.4s-0.3,2.9-1.2,2.4c-0.9-0.5-5.9-1.2-5.9-1.2S-273.6-330.8-274-330.5z"/>
	</g>
</symbol>
<use xlink:href="#日本地図_3"  width="91.4" height="126.9" id="XMLID_10_" x="-297.9" y="-340.5" transform="matrix(1 0 0 -1 481.0012 405.8768)" style="overflow:visible;"/>
</svg>
