<?xml version="1.0" encoding="utf-8"?>
<!-- Generator: Adobe Illustrator 21.0.2, SVG Export Plug-In . SVG Version: 6.00 Build 0)  -->
<svg version="1.1" id="レイヤー_1" xmlns="http://www.w3.org/2000/svg" xmlns:xlink="http://www.w3.org/1999/xlink" x="0px"
	 y="0px" viewBox="0 0 960 750" style="enable-background:new 0 0 960 750;" xml:space="preserve">
<style type="text/css">
	.st0{fill:#D1CB01;stroke:#FFFFFF;stroke-width:0.6;}
	.st1{fill:#349943;stroke:#FFFFFF;stroke-width:0.6;}
</style>
<symbol  id="日本地図_3" viewBox="54.4 -85.7 105.5 222.1">
	<g id="東北_5_">
		<path class="st0" d="M81.8,94.7c0,0,4,7.1,4.7,5.9c0.7-1.2,7.1,1.2,7.1,1.2l1.2,4.7c0,0,2.2,2.7,2.4,3.6s1.2,4.7,1.2,4.7l-2.4,4.7
			c0,0,1.9,2.6,2.4,3.6c0.4,0.9,3.5-2.4,3.5-2.4l4.7,2.4l1.2-4.7c0,0,1-4.5,1.2-5.9c0.2-1.5,0-8.3,0-8.3h5.9l2.4,7.1l4.7-1.2
			l4.7-3.6c0,0,2.5-0.5,2.4,2.4c-0.2,2.8,1.2,5.9,1.2,5.9l2.4,5.9l-2.4,3.6c0,0-6.1-1.9-7.1-2.4c-1-0.5-6.5-0.4-7.1-1.2
			c-0.6-0.8-2.4,3.6-2.4,3.6l1.2,4.7l3.5,7.1h3.5l3.5-1.2l3.5-5.9h2.4l5.9,3.6l-1.2-11.8c0,0-1.4-12-1.2-14.2s1.5-8.1,2.4-9.5
			c0.8-1.3,2-2.4,2.4-3.6c0.3-1.1,4.7-5.9,4.7-5.9l2.4-2.4l-2.4-2.4l-5.9-1.2l-4.4-0.9l-7-4.4c0,0-3.2-0.1-3.9-0.7
			c-0.7-0.6-5.7-1.7-5.7-1.7l1.3,5.4l2.1,4.6c0,0-3.7-1-3.5,0c0.1,1.2-1.2,3.6-1.2,3.6l-5.1-4.8c0,0-1.6,1-3.1,1.2
			c-1.6,0.2-3.5-1.2-3.5-1.2l-3.5,3.6L94.8,84c0,0-2.3,0.8-3.4,0.8c-1,0.1-4.9,1.5-4.9,1.5l-1.1-3.9L83,86.4l-1.2,4.7l-2.4,1.2
			L81.8,94.7z"/>
		<path class="st0" d="M143.1,15.3l-3.5,1.2l-1.2-5.9c0,0-2.6-3.9-2.8-3.9c-0.6-0.1-3.3,0.4-3.9,0.6c-0.6,0.2-3.9-1.5-3.9-1.5
			c0.1,0.1-0.7,1.1-0.9,1.5c-1,2.4-2.1,4.5-2.1,4.5s-0.4,0-1.7-0.1c-1-0.1-4.1-0.4-4.7,0c-0.6,0.4-2.4,2.4-2.4,2.4l-1.2,1.2
			l-0.8,0.8l-0.3,3.9l-1.2,2.4c0,0,1,3.6,0.6,4.4l-0.6,2.7l-2.4,3.6c0,0-0.6,1.7-0.3,3.4c0.2,1.1,1.1,4.1,1.1,4.1s0,3,0.4,3.2
			c0.4,0.2,2.4,2.4,2.4,2.4l0.9,3.1c0,0-0.9,1.2-0.9,2.8c0,2.2,0.7,3.2,1.2,4.7c0.3,1.1,1,1.8,1,2.6s0.2,1,0.2,3
			c0,1.2,0.2,2.3-0.1,3.7c-0.1,0.5,0,2.3,0.4,2.3s0.5,2.8,0.5,2.8s0.4,1.1,0.4,2.3c0,0.7,1.2,1.2,1.2,1.2l4.7,1.2
			c0,0,5.1,0.6,4.7,1.2c-0.4,0.6,5,3.1,5,3.1l3.4,1.2l4.9,1l3.2,0.6l2.4,2.4c0,0,6.5-6.1,5.9-7.1c-0.6-1,0.6-4.1,0-4.7
			c-0.6-0.6-0.6-5.3,0-4.7c0.6,0.6,0-1.2,0-1.2s2.4-3.6,3.5-5.9c1.2-2.4,1.2-9.7,1.2-11.8s1.4-3.8,1.2-4.7c-0.2-1,1.2-3.9,1.2-3.6
			s-0.4,0-1.2-1.2c-0.8-1.2-1.6-3-1.2-3.6c0.4-0.6-0.2-1.4-1.2-2.4c-1-1-1.4-2.8-1.2-3.6c0.2-0.8,1-2,1.2-2.4
			c0.2-0.4,0.4-1.2-1.2-2.4c-1.6-1.2-1-2.8-1.2-3.6c-0.2-0.8,1.4-2.4,0-2.4c-1.4,0-2-0.8-2.4-1.2c-0.4-0.4,0.2-2.8-1.2-2.4
			c-1.4,0.4-3.3,0.2-3.5-1.2c-0.2-1.4-2.4-2.4-2.4-2.4L143.1,15.3z"/>
		<path class="st0" d="M76,62.7c0,0,2-0.8,3.5,0c1.6,0.8,4.9,2.8,4.7,4.7c-0.2,2,0.6,3.2,1.2,4.7c0.6,1.6,1.2,4.7,1.2,4.7v2.4
			l-1.2,3.6l1.2,3.6l3.5-1.2l4.7-1.2l4.2,1.7l1.6,0.7l3.5-3.6l3.5,1.2c0,0,3.9-1.8,3.5-1.2c-0.4,0.6,2.2,1.6,2.4,2.4
			c0.2,0.8,2.4,2.4,2.4,2.4l1.2-3.6h3.5c0,0-0.6-1.5-0.9-2.1c-0.4-0.8-1.4-2.6-1.4-2.6l-1-5.3l-0.2-1.8c-0.6-0.6-1.2-5.9-1.2-5.9
			v-5.9c0,0-0.8-3.8-1.2-3.6c-0.4,0.2-1-2.4-1.2-3.6c-0.2-1.2,0.9-4.2,0.9-4.2s-1.5-3.3-1.5-3.7s-1.3-1.8-1.7-1.6
			c-0.4,0.2,0.6-2.4,0-2.4s-0.4-3.4-1.2-3.6c-0.8-0.2,0-4.7,0-4.7s2.4-3,2.4-3.6c0-0.6,0.8-4.8,0.8-4.8l-0.8-2.3l1.2-2.4l0.3-3.5
			l-4.5-3c0,0-0.2-1.1-1.1-1.5c-1.2-0.6-4.3-1.8-4.1-1.4c0.2,0.4-3.5,1.8-3.5,2.4s-2.4,4.7-2.4,4.7l-4.7,1.2l-3.8,0.3
			c-0.6,0-2.9,1.4-3.3,2.1c-0.4,0.6-3.5,0.3-3.5,0.3l-1.2,0.9l-1.2,1.2v3.6c0,0.8,1.8,4.9,2.4,4.7c0.6-0.2,2.7,2,2.4,2.4
			c-0.4,0.4,1.2,5.9,1.2,5.9v7.1c0,0,1.2,2.6,1.2,3.6s-1.2,3.6-1.2,3.6l-2.4,3.6l-2.4,1.2c0,0-3.7,0.4-3.5,0c0.2-0.4,0-2.4,0-2.4
			h-3.5l-1.2,1.2v2.4L76,62.7z"/>
		<path class="st0" d="M106.3,0c0,0-2.9-1.9-2.1-4.8c0.2-0.8,2.4-2.4,2.4-2.4l-1-3c0,0-0.6-1.1-0.9-1.3c-0.4-0.2-1.4-0.9-2-3
			c-0.6-2.4-0.6-5.9-0.8-6.9s0.1-2.3-0.9-3.3c-1.3-1.3-2.3-1.9-3.2-2.3c-0.9-0.4-2.7-0.2-3-1.5c-0.4-1.6,0.2-3.6,0-3.6h5.5
			c0,0,1.4-0.6,2-1.1c0.3-0.3,0.9-0.9,2.4-1.1c2.2-0.3,1.9,0.4,3.4-0.1c1.2-0.4,0.8,0.5,1.2-1.1c0.4-1.6,1.1-3.1,1.1-3.1l0.8-1.7
			l4.3,3.8l2.8,0.9v5.9c0,0.6,1.6,7.9,1.2,8.3c-0.4,0.4,1.8,5.5,2.4,5.9l3.5,2.4l3.5,2.4h3.5c0,0,0.4,2,2.4,0c2-2,5.9-7.1,5.9-7.1
			s1.8,1,1.2,2.4c-0.6,1.4-3.5,5.3-3.5,5.9c0,0.6,1,0.8,1.2,2.4c0.2,1.6,0,4.7,0,4.7l-1.2,1.2c0,0,1.8,2.2,1.2,2.4
			c-0.6,0.2,1.4,0.6,1.2,1.2c-0.2,0.6-1.2,2.4-1.2,2.4s2.6,3.6,2.4,3.6c-0.2,0,2.4,2.2,2.4,2.4s-0.2,1.6,0,2.4c0.2,0.8-1,2-1,2
			l-2.4,1.1l-1.3,0.1l-0.7-3.3c0,0,0.3-1.2-0.5-2.3c-0.8-1.2-2-3.3-2.4-3.6c-0.3-0.2-1.6-0.4-2.4,0c-1.2,0.6-3.5,0-3.5,0l-2.4-1.2
			l-1.9,3.5l-1.1,2.6l-6.4-0.1c0,0-1.3,2.1-1.9,1.9s-2,2.9-2.8,2.7c-0.8-0.2-1.6-1.3-1.6-1.3s-2.9-1.7-3.1-2.1
			c-0.6-1-3.8-2.8-4.4-2.4c-0.6,0.4,0.9-1.1,0.9-1.1s2.6-4.1,2.4-4.7c-0.2-0.6,0-2.4,0-2.4L106.3,0z"/>
		<path class="st0" d="M68.9-4.8c-0.2,0.6-1.2,4.5,1.2,5.9c2.4,1.4,4.5,1,4.7,2.4C75,4.8,77.5,7,77.1,8.2c-0.4,1.2,1.2,3.9,1.2,4.7
			s1,4.3,1.2,4.7c0.2,0.4,1.2,5.9,1.2,5.9s1-1.8,2.4-2.1c1-0.2,3,0,3,0l3-2.2l5.5-0.6l3.8-1l2.4-4.7l3.5-2.4l2.4-3.6l1.2-2.4
			c0,0-0.3-4.1-0.9-4.3s-2.4-2-2.6-2.8c-0.2-0.8,0-2.8,0-2.4c0,0.4,2.4-2.4,2.4-2.4l-1.2-3.6l-2.4-2.4c0,0-1.4-5.1-1.2-4.7
			c0.2,0.4,0-3.6,0-3.6v-2.4l-3-2.7l-2.4-1.2c0.2,0.1-1.7-0.1-1.7-0.9v-5.9v-4.7c0,0-2.4-2-2.4-2.4s-3.3-2-3.5-1.2
			c-0.2,0.8-5.9,3.6-5.9,3.6h-2.4H76c0,0-3.3,1.8-3.5,2.4c-0.2,0.6-1.2,5.9-1.2,5.9l1.2,4.7l1.6,2.7c0,0,1.7,1.5,2.1,1.7
			c1,0.4,3.4,2.4,3.4,2.4s1.3,2.4,1.1,2.8c-0.2,0.4-1.2,3.6-1.2,3.6H76c0,0-0.7,3.2-1.2,3.6c-0.9,0.7-1.9,1.9-1.9,1.9l-1.7,1.4
			C71.2-6.3,69.1-5.4,68.9-4.8z"/>
		<path class="st0" d="M57.1-55.8c0,0,2.9,0.9,4.1,1.1c0.8,0.1,5.8,2,5.4,1.8c-0.4-0.2,2.8,1.2,2.8,1.2s-1.2,2.9,0.1,5.3
			c0.4,0.7,1.7,3.6,1.7,3.6s1.2,1.5,1.5,2c0.5,0.9,2.1,2.1,2.1,1.5c0-0.4,4.7,0,4.7,0H83c0,0,4.5-2.1,4.7-2.4c1.2-1.4,2.1-1.4,3.1-1
			c1.2,0.5,3.3,2.8,3.3,2.8l0.7,0.8v6.9h5.9l3.5-2.4h4.7l1.2-3.6l1.2-2.4l2,1.8l2.8,2.2l2.3,0.8c0,0,3.3-5.1,3.5-5.9
			c0.2-0.8,0-6.7,0-7.1c0-0.4,1.8-9.3,1.2-11.8c-0.6-2.6-0.6-7.7-1.2-8.3c-0.6-0.6,0.6-5.3,0-5.9c-0.6-0.6-3.7-6.1-4.7-5.9
			c-1,0.2-3.3-2.8-3.5-2.4c-0.2,0.4-3.5,2.4-3.5,2.4h-3.5l-3.5-3.6l-2.4-1.2c0,0-1.4,1.2-2.4,2.4c-1,1.2-3.5,4.7-3.5,4.7
			s-1.6,1.4-2.4,2.4s-3.7,4.9-3.5,4.7c0,0,0,0,0,0c0,0-2.2,2.6-3.5,2.4C84-69,79.7-69.6,79.5-70s-1-3-3.5-3.6
			c-2.6-0.6-6.5-2.8-7.1-3.6c-0.6-0.8-4.7-2.4-4.7-2.4s-2.7-0.8-3.1-0.6c-1.3,0.5-3.9,3-3.9,3l-1.2,4.7l0.1,4.4l-1.3,3.8l2.4,2.4
			l0.2,2L57.1-55.8z"/>
	</g>
	<g id="東北_4_">
		<path class="st1" d="M81.8,94.7c0,0,4,7.1,4.7,5.9c0.7-1.2,7.1,1.2,7.1,1.2l1.2,4.7c0,0,2.2,2.7,2.4,3.6s1.2,4.7,1.2,4.7l-2.4,4.7
			c0,0,1.9,2.6,2.4,3.6c0.4,0.9,3.5-2.4,3.5-2.4l4.7,2.4l1.2-4.7c0,0,1-4.5,1.2-5.9c0.2-1.5,0-8.3,0-8.3h5.9l2.4,7.1l4.7-1.2
			l4.7-3.6c0,0,2.5-0.5,2.4,2.4c-0.2,2.8,1.2,5.9,1.2,5.9l2.4,5.9l-2.4,3.6c0,0-6.1-1.9-7.1-2.4c-1-0.5-6.5-0.4-7.1-1.2
			c-0.6-0.8-2.4,3.6-2.4,3.6l1.2,4.7l3.5,7.1h3.5l3.5-1.2l3.5-5.9h2.4l5.9,3.6l-1.2-11.8c0,0-1.4-12-1.2-14.2s1.5-8.1,2.4-9.5
			c0.8-1.3,2-2.4,2.4-3.6c0.3-1.1,4.7-5.9,4.7-5.9l2.4-2.4l-2.4-2.4l-5.9-1.2l-4.4-0.9l-7-4.4c0,0-3.2-0.1-3.9-0.7
			c-0.7-0.6-5.7-1.7-5.7-1.7l1.3,5.4l2.1,4.6c0,0-3.7-1-3.5,0c0.1,1.2-1.2,3.6-1.2,3.6l-5.1-4.8c0,0-1.6,1-3.1,1.2
			c-1.6,0.2-3.5-1.2-3.5-1.2l-3.5,3.6L94.8,84c0,0-2.3,0.8-3.4,0.8c-1,0.1-4.9,1.5-4.9,1.5l-1.1-3.9L83,86.4l-1.2,4.7l-2.4,1.2
			L81.8,94.7z"/>
		<path class="st1" d="M143.1,15.3l-3.5,1.2l-1.2-5.9c0,0-2.6-3.9-2.8-3.9c-0.6-0.1-3.3,0.4-3.9,0.6c-0.6,0.2-3.9-1.5-3.9-1.5
			c0.1,0.1-0.7,1.1-0.9,1.5c-1,2.4-2.1,4.5-2.1,4.5s-0.4,0-1.7-0.1c-1-0.1-4.1-0.4-4.7,0c-0.6,0.4-2.4,2.4-2.4,2.4l-1.2,1.2
			l-0.8,0.8l-0.3,3.9l-1.2,2.4c0,0,1,3.6,0.6,4.4l-0.6,2.7l-2.4,3.6c0,0-0.6,1.7-0.3,3.4c0.2,1.1,1.1,4.1,1.1,4.1s0,3,0.4,3.2
			c0.4,0.2,2.4,2.4,2.4,2.4l0.9,3.1c0,0-0.9,1.2-0.9,2.8c0,2.2,0.7,3.2,1.2,4.7c0.3,1.1,1,1.8,1,2.6s0.2,1,0.2,3
			c0,1.2,0.2,2.3-0.1,3.7c-0.1,0.5,0,2.3,0.4,2.3s0.5,2.8,0.5,2.8s0.4,1.1,0.4,2.3c0,0.7,1.2,1.2,1.2,1.2l4.7,1.2
			c0,0,5.1,0.6,4.7,1.2c-0.4,0.6,5,3.1,5,3.1l3.4,1.2l4.9,1l3.2,0.6l2.4,2.4c0,0,6.5-6.1,5.9-7.1c-0.6-1,0.6-4.1,0-4.7
			c-0.6-0.6-0.6-5.3,0-4.7c0.6,0.6,0-1.2,0-1.2s2.4-3.6,3.5-5.9c1.2-2.4,1.2-9.7,1.2-11.8s1.4-3.8,1.2-4.7c-0.2-1,1.2-3.9,1.2-3.6
			s-0.4,0-1.2-1.2c-0.8-1.2-1.6-3-1.2-3.6c0.4-0.6-0.2-1.4-1.2-2.4c-1-1-1.4-2.8-1.2-3.6c0.2-0.8,1-2,1.2-2.4
			c0.2-0.4,0.4-1.2-1.2-2.4c-1.6-1.2-1-2.8-1.2-3.6c-0.2-0.8,1.4-2.4,0-2.4c-1.4,0-2-0.8-2.4-1.2c-0.4-0.4,0.2-2.8-1.2-2.4
			c-1.4,0.4-3.3,0.2-3.5-1.2c-0.2-1.4-2.4-2.4-2.4-2.4L143.1,15.3z"/>
		<path class="st1" d="M76,62.7c0,0,2-0.8,3.5,0c1.6,0.8,4.9,2.8,4.7,4.7c-0.2,2,0.6,3.2,1.2,4.7c0.6,1.6,1.2,4.7,1.2,4.7v2.4
			l-1.2,3.6l1.2,3.6l3.5-1.2l4.7-1.2l4.2,1.7l1.6,0.7l3.5-3.6l3.5,1.2c0,0,3.9-1.8,3.5-1.2c-0.4,0.6,2.2,1.6,2.4,2.4
			c0.2,0.8,2.4,2.4,2.4,2.4l1.2-3.6h3.5c0,0-0.6-1.5-0.9-2.1c-0.4-0.8-1.4-2.6-1.4-2.6l-1-5.3l-0.2-1.8c-0.6-0.6-1.2-5.9-1.2-5.9
			v-5.9c0,0-0.8-3.8-1.2-3.6c-0.4,0.2-1-2.4-1.2-3.6c-0.2-1.2,0.9-4.2,0.9-4.2s-1.5-3.3-1.5-3.7s-1.3-1.8-1.7-1.6
			c-0.4,0.2,0.6-2.4,0-2.4s-0.4-3.4-1.2-3.6c-0.8-0.2,0-4.7,0-4.7s2.4-3,2.4-3.6c0-0.6,0.8-4.8,0.8-4.8l-0.8-2.3l1.2-2.4l0.3-3.5
			l-4.5-3c0,0-0.2-1.1-1.1-1.5c-1.2-0.6-4.3-1.8-4.1-1.4c0.2,0.4-3.5,1.8-3.5,2.4s-2.4,4.7-2.4,4.7l-4.7,1.2l-3.8,0.3
			c-0.6,0-2.9,1.4-3.3,2.1c-0.4,0.6-3.5,0.3-3.5,0.3l-1.2,0.9l-1.2,1.2v3.6c0,0.8,1.8,4.9,2.4,4.7c0.6-0.2,2.7,2,2.4,2.4
			c-0.4,0.4,1.2,5.9,1.2,5.9v7.1c0,0,1.2,2.6,1.2,3.6s-1.2,3.6-1.2,3.6l-2.4,3.6l-2.4,1.2c0,0-3.7,0.4-3.5,0c0.2-0.4,0-2.4,0-2.4
			h-3.5l-1.2,1.2v2.4L76,62.7z"/>
		<path class="st1" d="M106.3,0c0,0-2.9-1.9-2.1-4.8c0.2-0.8,2.4-2.4,2.4-2.4l-1-3c0,0-0.6-1.1-0.9-1.3c-0.4-0.2-1.4-0.9-2-3
			c-0.6-2.4-0.6-5.9-0.8-6.9s0.1-2.3-0.9-3.3c-1.3-1.3-2.3-1.9-3.2-2.3c-0.9-0.4-2.7-0.2-3-1.5c-0.4-1.6,0.2-3.6,0-3.6h5.5
			c0,0,1.4-0.6,2-1.1c0.3-0.3,0.9-0.9,2.4-1.1c2.2-0.3,1.9,0.4,3.4-0.1c1.2-0.4,0.8,0.5,1.2-1.1c0.4-1.6,1.1-3.1,1.1-3.1l0.8-1.7
			l4.3,3.8l2.8,0.9v5.9c0,0.6,1.6,7.9,1.2,8.3c-0.4,0.4,1.8,5.5,2.4,5.9l3.5,2.4l3.5,2.4h3.5c0,0,0.4,2,2.4,0c2-2,5.9-7.1,5.9-7.1
			s1.8,1,1.2,2.4c-0.6,1.4-3.5,5.3-3.5,5.9c0,0.6,1,0.8,1.2,2.4c0.2,1.6,0,4.7,0,4.7l-1.2,1.2c0,0,1.8,2.2,1.2,2.4
			c-0.6,0.2,1.4,0.6,1.2,1.2c-0.2,0.6-1.2,2.4-1.2,2.4s2.6,3.6,2.4,3.6c-0.2,0,2.4,2.2,2.4,2.4s-0.2,1.6,0,2.4c0.2,0.8-1,2-1,2
			l-2.4,1.1l-1.3,0.1l-0.7-3.3c0,0,0.3-1.2-0.5-2.3c-0.8-1.2-2-3.3-2.4-3.6c-0.3-0.2-1.6-0.4-2.4,0c-1.2,0.6-3.5,0-3.5,0l-2.4-1.2
			l-1.9,3.5l-1.1,2.6l-6.4-0.1c0,0-1.3,2.1-1.9,1.9s-2,2.9-2.8,2.7c-0.8-0.2-1.6-1.3-1.6-1.3s-2.9-1.7-3.1-2.1
			c-0.6-1-3.8-2.8-4.4-2.4c-0.6,0.4,0.9-1.1,0.9-1.1s2.6-4.1,2.4-4.7c-0.2-0.6,0-2.4,0-2.4L106.3,0z"/>
		<path class="st1" d="M68.9-4.8c-0.2,0.6-1.2,4.5,1.2,5.9c2.4,1.4,4.5,1,4.7,2.4C75,4.8,77.5,7,77.1,8.2c-0.4,1.2,1.2,3.9,1.2,4.7
			s1,4.3,1.2,4.7c0.2,0.4,1.2,5.9,1.2,5.9s1-1.8,2.4-2.1c1-0.2,3,0,3,0l3-2.2l5.5-0.6l3.8-1l2.4-4.7l3.5-2.4l2.4-3.6l1.2-2.4
			c0,0-0.3-4.1-0.9-4.3s-2.4-2-2.6-2.8c-0.2-0.8,0-2.8,0-2.4c0,0.4,2.4-2.4,2.4-2.4l-1.2-3.6l-2.4-2.4c0,0-1.4-5.1-1.2-4.7
			c0.2,0.4,0-3.6,0-3.6v-2.4l-3-2.7l-2.4-1.2c0.2,0.1-1.7-0.1-1.7-0.9v-5.9v-4.7c0,0-2.4-2-2.4-2.4s-3.3-2-3.5-1.2
			c-0.2,0.8-5.9,3.6-5.9,3.6h-2.4H76c0,0-3.3,1.8-3.5,2.4c-0.2,0.6-1.2,5.9-1.2,5.9l1.2,4.7l1.6,2.7c0,0,1.7,1.5,2.1,1.7
			c1,0.4,3.4,2.4,3.4,2.4s1.3,2.4,1.1,2.8c-0.2,0.4-1.2,3.6-1.2,3.6H76c0,0-0.7,3.2-1.2,3.6c-0.9,0.7-1.9,1.9-1.9,1.9l-1.7,1.4
			C71.2-6.3,69.1-5.4,68.9-4.8z"/>
		<path class="st1" d="M57.1-55.8c0,0,2.9,0.9,4.1,1.1c0.8,0.1,5.8,2,5.4,1.8c-0.4-0.2,2.8,1.2,2.8,1.2s-1.2,2.9,0.1,5.3
			c0.4,0.7,1.7,3.6,1.7,3.6s1.2,1.5,1.5,2c0.5,0.9,2.1,2.1,2.1,1.5c0-0.4,4.7,0,4.7,0H83c0,0,4.5-2.1,4.7-2.4c1.2-1.4,2.1-1.4,3.1-1
			c1.2,0.5,3.3,2.8,3.3,2.8l0.7,0.8v6.9h5.9l3.5-2.4h4.7l1.2-3.6l1.2-2.4l2,1.8l2.8,2.2l2.3,0.8c0,0,3.3-5.1,3.5-5.9
			c0.2-0.8,0-6.7,0-7.1c0-0.4,1.8-9.3,1.2-11.8c-0.6-2.6-0.6-7.7-1.2-8.3c-0.6-0.6,0.6-5.3,0-5.9c-0.6-0.6-3.7-6.1-4.7-5.9
			c-1,0.2-3.3-2.8-3.5-2.4c-0.2,0.4-3.5,2.4-3.5,2.4h-3.5l-3.5-3.6l-2.4-1.2c0,0-1.4,1.2-2.4,2.4c-1,1.2-3.5,4.7-3.5,4.7
			s-1.6,1.4-2.4,2.4s-3.7,4.9-3.5,4.7c0,0,0,0,0,0c0,0-2.2,2.6-3.5,2.4C84-69,79.7-69.6,79.5-70s-1-3-3.5-3.6
			c-2.6-0.6-6.5-2.8-7.1-3.6c-0.6-0.8-4.7-2.4-4.7-2.4s-2.7-0.8-3.1-0.6c-1.3,0.5-3.9,3-3.9,3l-1.2,4.7l0.1,4.4l-1.3,3.8l2.4,2.4
			l0.2,2L57.1-55.8z"/>
	</g>
</symbol>
<use xlink:href="#日本地図_3"  width="105.5" height="222.1" id="XMLID_10_" x="54.4" y="-85.7" transform="matrix(1 0 0 -1 481.0012 405.8768)" style="overflow:visible;"/>
</svg>
