<?xml version="1.0" encoding="utf-8"?>
<!-- Generator: Adobe Illustrator 21.0.2, SVG Export Plug-In . SVG Version: 6.00 Build 0)  -->
<svg version="1.1" id="レイヤー_1" xmlns="http://www.w3.org/2000/svg" xmlns:xlink="http://www.w3.org/1999/xlink" x="0px"
	 y="0px" viewBox="0 0 960 750" style="enable-background:new 0 0 960 750;" xml:space="preserve">
<style type="text/css">
	.st0{display:none;}
	.st1{display:inline;fill:#3ECCC8;stroke:#FFFFFF;stroke-width:0.6;}
	.st2{display:inline;fill:#3ECCC8;}
	.st3{fill:#2A7F38;stroke:#FFFFFF;stroke-width:0.6;}
	.st4{fill:#2A7F38;}
</style>
<symbol  id="日本地図_3" viewBox="-48.6 -52.1 97.2 104.1">
	<g id="近畿_2_" class="st0">
		<path class="st1" d="M37.6,9.9c0,0-2.5-2.9-2.4-3.6s0.4-3,0-3.6s-0.6-2.1,0-2.4c0.6-0.3,0.9-0.6,2.4-2.4c1.5-1.8,1.7-0.8,3.5-2.4
			C43-6,43.8-6.9,44.6-6.9s3.9-0.3,3.5-1.2c-0.4-0.9,0.6-1.1,0-2.4c-0.6-1.2-2.9-2.9-2.4-3.6c0.5-0.7,0.1-2.5,0-2.4
			c-0.1,0.1-1.5,0.7-2.4,1.2c-0.9,0.5-3.3,2-3.5,1.2c-0.2-0.9-3-2.6-4.7-3.6s-2.8-0.1-4.7-1.2c-1.9-1.1-3.4-1.4-3.5-2.4
			s-1.3-2.1-1.2-2.4c0.1-0.3,0-3.1,0-3.6s0.1-3.6-1.2-3.6c-1.3,0.1-3.5-0.3-3.5-1.2c-0.1-0.9-1.6-2-2.4-3.6
			c-0.7-1.6-0.8-3.1-1.2-3.6c-0.4-0.4,0-2.4,0-2.4s-2.1-0.9-2.4-0.9c-0.6,0,0.4,1.5-1.5,3.4c-2.2,2.2-3,1.8-3.2,2.2
			c-0.5,0.9,0,1.5,0,2.4s1.8,3.2,2.4,3.6c1.1,0.8,0.7-0.3,2.4,1.2c1.3,1.3,1.3,2.4,2.4,2.4c1,0,2.5,0.6,2.4,1.2
			c-0.1,0.6-2.1,5.4-1.2,5.9s2.7,1.9,2.4,2.4c-0.4,0.4-0.9,1.4-1.2,2.4s-1.1,2.7-1.2,3.6c-0.1,0.9-0.2,2.8,0.4,2.5
			c0.6-0.3,4.7,0,4.3,1c-0.4,1.1,0.8,1.7,0,2.4S20-4.1,19.5-3.8c-0.7,0.4-2.5,0.2-2,1.3c1.7,4,0.5,3.7,1.2,3.6
			c-0.5,0.1-2.3,1.7-2.1,2.1c0.2,0.5-0.4,1.5-0.3,2.6c0.2,1.6,2.1,2.8,2.5,3c1,0.4,2.3,0.5,3,1c0.3,0.2-0.7,1.8,3.6,0.8
			c1.6-0.4,4.6,4.1,4.6,4.1s0.7,1.2,0.7,1.9c0,1.2,0.5,2.5,0.5,3.3c0,0.7,0.3,3.7,0.4,3.6s-0.4,1-0.9,1.1s2.6,2.7,2.6,2.7l0.7-0.2
			l2.8-3c0,0,0.5,0,2.1-1.3c1.9-1.5,1.9-1.8,1.9-1.8s1.2-1.7,1.5-2.2s0-2.4,0-2.4s-1.9-1.4-2.4-1.2s-0.8-0.5-1.2-1.2
			C38.4,14,37.6,9.9,37.6,9.9z"/>
		<path class="st1" d="M8.1,18.2C8.3,19,9,21,9.3,22.9c0.3,1.9,0,3.6,0,3.6l-2.4,1.2l1.2,2.4c0,0-0.2,1.8,0,2.4
			c0.2,0.5,2.3,1.9,3.5,3.6c1.2,1.6,3.5,3.1,3.5,3.1s-0.3,0.7,2.3,1.2c1.7,0.3,3.1,1.7,3.1,1.7s2.7,1.7,0.8,4.7
			c-0.3,0.5,2.1,1.1,2.1,1.1s3.3-3.1,3.5-3.6c0.5-0.9,1.1-1.3,1.2-2.4c0.1-1.1,0.1-0.6,1.2-1.2c1.1-0.6,1.4-3.5,1.4-3.5
			s1.3-0.7,1-1.2s0-2.4,0-2.4s0-1.4-1.2-2.4s-1.2-0.2-1.4-2s0.8-3.7,1.4-3.9c0.6-0.2,1.5-0.4,1.2-2.4c-0.3-1.9-1.2-7.1-1.2-7.1
			L28.4,13l-2.6-2c0,0-3.2,0.9-3.5,0s-2.9-1.6-2.9-1.6s-1.5-0.1-2.2-0.6c-0.2-0.2-2.3,0.5-3.3,0.3c-1.8-0.3-2.3,1.4-2.3,1.4
			S9.7,10.6,9.4,11C9,11.5,10,11.9,9.6,13.6c-0.4,1.7-0.2,3.3-0.2,3.3S8,17.4,8.1,18.2z"/>
		<path class="st1" d="M-23.9,32.8c0,0,0.5,0.5,1.7,1.8s3.6,1.9,3.3,3.7c-0.3,1.8-0.4,2.6-1.7,2.1c-1.3-0.6-3.4-2.2-3.4-2.2
			l-0.8,2.5c0,0,0.3,4.1,0.1,4.1c-0.2-0.1-0.4,0.9,0.9,1.2s3.2,0.7,4.9,1.8c1.7,1.1,2.4,0.6,3.5,1.2c1.1,0.6,3.5,2.4,3.5,2.4
			S-12,50-10.7,49c1.3-1,3.6-1.5,2.4-2.4c-1.3-0.9-3.6,1-3.5-1.2c0-2.1-0.9-4,0-4.7c0.9-0.8,1.8-1.8,2.4-1.2s1.9,1.9,2.4,2.4
			s2.4,0,2.4,0s-0.6-1.1-0.3-2.1c0.2-0.5-0.4-1.9,1.7-4.1c0.9-0.9,0.8-1.7,2.1-2.1c1.2-0.4,2.9,0,3.5,0c0.7,0,1.5-2.6,1.5-2.6
			l4.4,1.4v-2.1l-1.2-2.7l2.4-1.2c0,0,0.2-1.1,0.1-3c-0.2-3-1.4-4.2-1.4-5c-0.1-1.1,0.7-0.5,1.4-1.5c0.4-0.6-0.5-1.3,0-2.4
			c0.5-1.1,0-3.6,0-3.6s1.1-0.2,2.5-1c2.6-1.5-0.3-0.2,0.8-0.7l5.7-0.5c0,0-1.6-1.1-1.8-2.4c-0.3-1.3,1.3-3.4-1.2-2.4
			c-2.4,1-4.9-1.4-5.9-1.2S8,3.1,7.3,3.9C6.6,4.7,5.5,4.8,4.9,7.5s-1.5,3.7-2.4,4.7c-0.9,1.1-1.8,1.1-1.8,1.1s-2-0.2-2.9,0.1
			s-3.5,3.4-4.3,3.9c-0.6,0.4,0.1,2.2-0.4,3.3c-0.7,1.5-1.4,1.8-2.4,2.4c-1,0.5-2.9,1.2-3.5,1.2s-0.3,0.4-1.7,0.9
			c-1.9,0.7-2.5,0.9-3.5,1.5c-3.2,1.8-5.6,5-5.6,5L-23.9,32.8z"/>
		<path class="st1" d="M4.6-4.3c0,0,0.1,0.6,0.2,1.4C4.9-1.6,5,0.3,4.6,1.6C4,3.7,4.4,5.9,4.4,5.9l0.2,1.6c0,0,0.9-3,2.8-4
			C9.9,2.2,9.8,2.8,11,3.4c1.4,0.6,2.6,0.8,2.6,0.8s2.7,0.2,3-0.5s0.3-0.7,0.6-0.9c1-1.2,1.5-1.2,1.5-1.2l-1.1-4.3
			c0,0,0.2-0.2,1.2-0.4c2-0.4,4.8-2.8,4.8-2.8L23.4-8c0,0-0.5-1.1-2.4-1.2c-1.6,0-2.4,0.9-2.4-1.2c0.1-2.1,0.8-2.9,0.8-3.7
			s1.2-3,1.2-3s0.5-0.9-0.2-1.5s-2.1-1.1-2-2.2c0.1-1.1,1.4-4.3,1.4-5.1c0-1-2.5-0.2-3.3-1.5c-1.1-2-2.9-3.1-3.8-3.2
			c-0.8-0.1-2.2-2.9-2.2-2.9L4.4-33c0,0-1.9,0.4-2.4,1.2c-0.4,0.8-0.8,2.2-1.2,4.7c-0.4,2.6-1.7,5.4-1.2,5.9C0.8-20,1-18.8,1.8-18.5
			c2.2,0.6,3.6,0.9,3.6,0.9S2.9-13.8,3-12.9c0.2,1,0.5,2,0.5,2s0.8,1.1,1,1.9C5.1-8,4.6-4.3,4.6-4.3z"/>
		<path class="st1" d="M-15.4-12.6c0,0,1.9-0.2,3.5,1.2s2.3,0.8,3.5,3.6C-7.2-5.1-6-6.1-6-4.2c0,1.9,0,3.5,0,4.7s0,3.6,0,3.6
			s-0.8,2.2-0.4,3.7s0.5,2.7,0.4,3.4s0.2,1.8,0,3.1c-0.2,1.9-1,3.2-1,3.2l1-0.4c0,0,2.6-3.7,3.5-3.6s3.5,0,3.5,0S3.5,11,3.9,9.7
			s0.4-4.3,0.4-4.3s-0.2-2,0.1-3c0.3-0.9,0.5-0.8,0.4-2.6C4.7-1.9,4.5-3.5,4.6-4.3c0-0.8,0.3-4.4,0.3-4.4l-1.5-2.7c0,0-4.2,0-4.7,0
			c-1,0-2.1-0.3-2.1-0.3s-2.2-2-3.1-1.9c-0.6,0-2.7-0.3-2.7-0.3s-2.2-0.2-3.4,0c-1.7,0.3-3-0.8-3.5-1c-0.5-0.3-1.8,1.1-1.8,1.1
			L-15.4-12.6z"/>
		<path class="st1" d="M-10.7-37.5c0,0,2.8-1.5,3.5-2.4c0.7-0.8-0.5-4.1,0-4.7c0.5-0.6,3.2-1.6,3.5-2.4c0.3-0.7,1.7-2.7,2.4-2.4
			c0.6,0.3,0.5-1.1,2.4-1.2c1.8-0.1,4.2-1.1,4.7-1.2c0.5,0,0.9-0.1,2.4,1.2s2.4,1,3.5,2.4s1.8,0.9,2.4,2.4c0.5,1.5,1,4.7,1,4.7
			l-1.3,2.6L10.5-36l0.1,2.8c0,0-6.8,0.2-8,1.4C1.8-31,1.8-30,1.8-30l-0.7,3.6l-1,3.3l-0.4,1.9c0,0,0.6,0.6,1.5,2.1
			c0.8,1.4,4.7,1.7,4.7,1.7s-0.6,1-1.1,1.7c-2,2.8-1.3,4.2-1.3,4.2l-4.1,0.2c-3.2,0-5.1-2.7-5-2.5c0,0-1.8,0.2-2.7-0.1
			c-0.8-0.3-5.9,0-5.9,0l-3.5-2.4c0,0,0.7-2.5,1.2-2.4c0.5,0.1,0.3-0.5,1.2-1.2c0.9-0.7,2.9-2.4,2.4-2.4c-0.6,0.1-2.4-1.2-2.4-1.2
			s-0.9-1.7,0-2.4c0.9-0.7,1.2-2.4,1.2-2.4s-1.5-0.9-2.4-1.2c-0.9-0.2-1.3,0.4-1.2-1.2c0.1-1.5,2.4-3.1,2.4-3.6s2.5-1.6,2.4-2.4
			C-13.2-37.1-10.7-37.5-10.7-37.5z"/>
		<path class="st2" d="M14,27.6c0,0,3.9,2.5,3.5,3.6c-0.3,1,0,1.2,0,1.2s-0.4,1.7,0,2.4c0.4,0.6,2.1,0.6,2.4,1.2
			c0.2,0.6,1.2,1.2,1.2,1.2s1.8,0.3,2.4-1.2c0.5-1.4,0.5-2.2,1.2-2.4s1.7-1.4,1.2-2.4s0.2-1.9-1.2-2.4c-1.3-0.4-3.1-1.8-3.5-2.4
			c-0.5-0.5-2-1.5-2.4-2.4s-2.4-2.4-2.4-2.4H14v-2.4l-1.2-3.6l-1.2,1.2l-0.2,3.8l1.4,4.5L14,27.6z"/>
		<path class="st1" d="M-42.5,41.9c0,0,1.8,3.2,2.4,3.6c0.5,0.3,2.4-0.8,2.4,0s10.7-0.3,10.6,0s2.1,0.6,2.4,0c0.2-0.6,0-4,0-4.7
			c0-0.8,0.3-3.1,1.2-2.4s3.5,2.4,3.5,2.4s1.1-0.7,1.2-2.4c0-0.6,0.2-1.4-1.2-2.4c-1.4-1-2.9-1.7-3-2.3s-1.9-0.8-0.6-2.4
			c1.3-1.7,2.4-3,3.5-3.6s2.1-1.5,3.5-1.9c1.2-0.4,2.6-1.2,3.6-1.6c1-0.4,3-0.8,3.5-1.2c0.6-0.4,1.9-1.7,2.4-2.4s0-1.4,0-2.4
			s1.2-3.6,1.2-3.6s-0.2-2.4,0-3.6c0.2-1.1-0.5-4.9-1.2-5.9C-7.8,4-7.6,3.2-9.5,2.7s-4.4,0.1-4.7-1.2c-0.3-1.3-2.7-2.7-3.5-2.4
			c-0.8,0.4-2.9,0.7-3.5,1.2s-2.4,0.6-3.5,2.4c-1.1,1.8-3.5,3.6-3.5,3.6h-4.7c0,0-6.8-0.6-8.2-1.2c-1.4-0.6-2.5-2.7-3.5-1.2
			S-47,8.6-47,8.6s-1.1,1.7-1.3,5.3c-0.1,1.5,0.5,3.5,2.5,5.4c1.7,1.6,3.3,3.6,3.5,4.7c0.3,1.7,0,3,0.7,4.2c0.5,0.9,1.4,1,1.9,2.2
			c0.7,1.4,1.4,2.5-0.2,4.2c-1.5,1.5-3.2,3.2-3,3.9C-43,39.3-42.5,41.9-42.5,41.9z"/>
		<path class="st1" d="M-33.1-13.8c0,0,1.2,2,2.4,3.6c1.2,1.5,2.1,2.4,3.5,3.6c1.5,1.1,4.7,3.6,4.7,3.6l2.4,1.2c0,0-2-2.6-2.4-3.6
			c-0.3-1-2.4-3.6-2.4-3.6v-2.4c0-0.9,0.1-1.8,1.2-2.4c1.1-0.6,1.2-2.4,1.2-2.4s-1.2-0.3-2.4-1.2c-1.1-0.8-2.7-0.6-2.4-1.2
			c0.3-0.6-1.7-2-2.4-1.2c-0.7,0.9-2.4,3.6-2.4,3.6h-1.2L-33.1-13.8L-33.1-13.8z"/>
	</g>
	<g id="近畿_1_">
		<path class="st3" d="M37.6,9.9c0,0-2.5-2.9-2.4-3.6s0.4-3,0-3.6s-0.6-2.1,0-2.4c0.6-0.3,0.9-0.6,2.4-2.4c1.5-1.8,1.7-0.8,3.5-2.4
			C43-6,43.8-6.9,44.6-6.9s3.9-0.3,3.5-1.2c-0.4-0.9,0.6-1.1,0-2.4c-0.6-1.2-2.9-2.9-2.4-3.6c0.5-0.7,0.1-2.5,0-2.4
			c-0.1,0.1-1.5,0.7-2.4,1.2c-0.9,0.5-3.3,2-3.5,1.2c-0.2-0.9-3-2.6-4.7-3.6s-2.8-0.1-4.7-1.2c-1.9-1.1-3.4-1.4-3.5-2.4
			s-1.3-2.1-1.2-2.4c0.1-0.3,0-3.1,0-3.6s0.1-3.6-1.2-3.6c-1.3,0.1-3.5-0.3-3.5-1.2c-0.1-0.9-1.6-2-2.4-3.6
			c-0.7-1.6-0.8-3.1-1.2-3.6c-0.4-0.4,0-2.4,0-2.4s-2.1-0.9-2.4-0.9c-0.6,0,0.4,1.5-1.5,3.4c-2.2,2.2-3,1.8-3.2,2.2
			c-0.5,0.9,0,1.5,0,2.4s1.8,3.2,2.4,3.6c1.1,0.8,0.7-0.3,2.4,1.2c1.3,1.3,1.3,2.4,2.4,2.4c1,0,2.5,0.6,2.4,1.2
			c-0.1,0.6-2.1,5.4-1.2,5.9s2.7,1.9,2.4,2.4c-0.4,0.4-0.9,1.4-1.2,2.4s-1.1,2.7-1.2,3.6c-0.1,0.9-0.2,2.8,0.4,2.5
			c0.6-0.3,4.7,0,4.3,1c-0.4,1.1,0.8,1.7,0,2.4S20-4.1,19.5-3.8c-0.7,0.4-2.5,0.2-2,1.3c1.7,4,0.5,3.7,1.2,3.6
			c-0.5,0.1-2.3,1.7-2.1,2.1c0.2,0.5-0.4,1.5-0.3,2.6c0.2,1.6,2.1,2.8,2.5,3c1,0.4,2.3,0.5,3,1c0.3,0.2-0.7,1.8,3.6,0.8
			c1.6-0.4,4.6,4.1,4.6,4.1s0.7,1.2,0.7,1.9c0,1.2,0.5,2.5,0.5,3.3c0,0.7,0.3,3.7,0.4,3.6s-0.4,1-0.9,1.1s2.6,2.7,2.6,2.7l0.7-0.2
			l2.8-3c0,0,0.5,0,2.1-1.3c1.9-1.5,1.9-1.8,1.9-1.8s1.2-1.7,1.5-2.2s0-2.4,0-2.4s-1.9-1.4-2.4-1.2s-0.8-0.5-1.2-1.2
			C38.4,14,37.6,9.9,37.6,9.9z"/>
		<path class="st3" d="M8.1,18.2C8.3,19,9,21,9.3,22.9c0.3,1.9,0,3.6,0,3.6l-2.4,1.2l1.2,2.4c0,0-0.2,1.8,0,2.4
			c0.2,0.5,2.3,1.9,3.5,3.6c1.2,1.6,3.5,3.1,3.5,3.1s-0.3,0.7,2.3,1.2c1.7,0.3,3.1,1.7,3.1,1.7s2.7,1.7,0.8,4.7
			c-0.3,0.5,2.1,1.1,2.1,1.1s3.3-3.1,3.5-3.6c0.5-0.9,1.1-1.3,1.2-2.4c0.1-1.1,0.1-0.6,1.2-1.2c1.1-0.6,1.4-3.5,1.4-3.5
			s1.3-0.7,1-1.2s0-2.4,0-2.4s0-1.4-1.2-2.4s-1.2-0.2-1.4-2s0.8-3.7,1.4-3.9c0.6-0.2,1.5-0.4,1.2-2.4c-0.3-1.9-1.2-7.1-1.2-7.1
			L28.4,13l-2.6-2c0,0-3.2,0.9-3.5,0s-2.9-1.6-2.9-1.6s-1.5-0.1-2.2-0.6c-0.2-0.2-2.3,0.5-3.3,0.3c-1.8-0.3-2.3,1.4-2.3,1.4
			S9.7,10.6,9.4,11C9,11.5,10,11.9,9.6,13.6c-0.4,1.7-0.2,3.3-0.2,3.3S8,17.4,8.1,18.2z"/>
		<path class="st3" d="M-23.9,32.8c0,0,0.5,0.5,1.7,1.8s3.6,1.9,3.3,3.7c-0.3,1.8-0.4,2.6-1.7,2.1c-1.3-0.6-3.4-2.2-3.4-2.2
			l-0.8,2.5c0,0,0.3,4.1,0.1,4.1c-0.2-0.1-0.4,0.9,0.9,1.2s3.2,0.7,4.9,1.8c1.7,1.1,2.4,0.6,3.5,1.2c1.1,0.6,3.5,2.4,3.5,2.4
			S-12,50-10.7,49c1.3-1,3.6-1.5,2.4-2.4c-1.3-0.9-3.6,1-3.5-1.2c0-2.1-0.9-4,0-4.7c0.9-0.8,1.8-1.8,2.4-1.2s1.9,1.9,2.4,2.4
			s2.4,0,2.4,0s-0.6-1.1-0.3-2.1c0.2-0.5-0.4-1.9,1.7-4.1c0.9-0.9,0.8-1.7,2.1-2.1c1.2-0.4,2.9,0,3.5,0c0.7,0,1.5-2.6,1.5-2.6
			l4.4,1.4v-2.1l-1.2-2.7l2.4-1.2c0,0,0.2-1.1,0.1-3c-0.2-3-1.4-4.2-1.4-5c-0.1-1.1,0.7-0.5,1.4-1.5c0.4-0.6-0.5-1.3,0-2.4
			c0.5-1.1,0-3.6,0-3.6s1.1-0.2,2.5-1c2.6-1.5-0.3-0.2,0.8-0.7l5.7-0.5c0,0-1.6-1.1-1.8-2.4c-0.3-1.3,1.3-3.4-1.2-2.4
			c-2.4,1-4.9-1.4-5.9-1.2S8,3.1,7.3,3.9C6.6,4.7,5.5,4.8,4.9,7.5s-1.5,3.7-2.4,4.7c-0.9,1.1-1.8,1.1-1.8,1.1s-2-0.2-2.9,0.1
			s-3.5,3.4-4.3,3.9c-0.6,0.4,0.1,2.2-0.4,3.3c-0.7,1.5-1.4,1.8-2.4,2.4c-1,0.5-2.9,1.2-3.5,1.2s-0.3,0.4-1.7,0.9
			c-1.9,0.7-2.5,0.9-3.5,1.5c-3.2,1.8-5.6,5-5.6,5L-23.9,32.8z"/>
		<path class="st3" d="M4.6-4.3c0,0,0.1,0.6,0.2,1.4C4.9-1.6,5,0.3,4.6,1.6C4,3.7,4.4,5.9,4.4,5.9l0.2,1.6c0,0,0.9-3,2.8-4
			C9.9,2.2,9.8,2.8,11,3.4c1.4,0.6,2.6,0.8,2.6,0.8s2.7,0.2,3-0.5s0.3-0.7,0.6-0.9c1-1.2,1.5-1.2,1.5-1.2l-1.1-4.3
			c0,0,0.2-0.2,1.2-0.4c2-0.4,4.8-2.8,4.8-2.8L23.4-8c0,0-0.5-1.1-2.4-1.2c-1.6,0-2.4,0.9-2.4-1.2c0.1-2.1,0.8-2.9,0.8-3.7
			s1.2-3,1.2-3s0.5-0.9-0.2-1.5s-2.1-1.1-2-2.2c0.1-1.1,1.4-4.3,1.4-5.1c0-1-2.5-0.2-3.3-1.5c-1.1-2-2.9-3.1-3.8-3.2
			c-0.8-0.1-2.2-2.9-2.2-2.9L4.4-33c0,0-1.9,0.4-2.4,1.2c-0.4,0.8-0.8,2.2-1.2,4.7c-0.4,2.6-1.7,5.4-1.2,5.9C0.8-20,1-18.8,1.8-18.5
			c2.2,0.6,3.6,0.9,3.6,0.9S2.9-13.8,3-12.9c0.2,1,0.5,2,0.5,2s0.8,1.1,1,1.9C5.1-8,4.6-4.3,4.6-4.3z"/>
		<path class="st3" d="M-15.4-12.6c0,0,1.9-0.2,3.5,1.2s2.3,0.8,3.5,3.6C-7.2-5.1-6-6.1-6-4.2c0,1.9,0,3.5,0,4.7s0,3.6,0,3.6
			s-0.8,2.2-0.4,3.7s0.5,2.7,0.4,3.4s0.2,1.8,0,3.1c-0.2,1.9-1,3.2-1,3.2l1-0.4c0,0,2.6-3.7,3.5-3.6s3.5,0,3.5,0S3.5,11,3.9,9.7
			s0.4-4.3,0.4-4.3s-0.2-2,0.1-3c0.3-0.9,0.5-0.8,0.4-2.6C4.7-1.9,4.5-3.5,4.6-4.3c0-0.8,0.3-4.4,0.3-4.4l-1.5-2.7c0,0-4.2,0-4.7,0
			c-1,0-2.1-0.3-2.1-0.3s-2.2-2-3.1-1.9c-0.6,0-2.7-0.3-2.7-0.3s-2.2-0.2-3.4,0c-1.7,0.3-3-0.8-3.5-1c-0.5-0.3-1.8,1.1-1.8,1.1
			L-15.4-12.6z"/>
		<path class="st3" d="M-10.7-37.5c0,0,2.8-1.5,3.5-2.4c0.7-0.8-0.5-4.1,0-4.7c0.5-0.6,3.2-1.6,3.5-2.4c0.3-0.7,1.7-2.7,2.4-2.4
			c0.6,0.3,0.5-1.1,2.4-1.2c1.8-0.1,4.2-1.1,4.7-1.2c0.5,0,0.9-0.1,2.4,1.2s2.4,1,3.5,2.4s1.8,0.9,2.4,2.4c0.5,1.5,1,4.7,1,4.7
			l-1.3,2.6L10.5-36l0.1,2.8c0,0-6.8,0.2-8,1.4C1.8-31,1.8-30,1.8-30l-0.7,3.6l-1,3.3l-0.4,1.9c0,0,0.6,0.6,1.5,2.1
			c0.8,1.4,4.7,1.7,4.7,1.7s-0.6,1-1.1,1.7c-2,2.8-1.3,4.2-1.3,4.2l-4.1,0.2c-3.2,0-5.1-2.7-5-2.5c0,0-1.8,0.2-2.7-0.1
			c-0.8-0.3-5.9,0-5.9,0l-3.5-2.4c0,0,0.7-2.5,1.2-2.4c0.5,0.1,0.3-0.5,1.2-1.2c0.9-0.7,2.9-2.4,2.4-2.4c-0.6,0.1-2.4-1.2-2.4-1.2
			s-0.9-1.7,0-2.4c0.9-0.7,1.2-2.4,1.2-2.4s-1.5-0.9-2.4-1.2c-0.9-0.2-1.3,0.4-1.2-1.2c0.1-1.5,2.4-3.1,2.4-3.6s2.5-1.6,2.4-2.4
			C-13.2-37.1-10.7-37.5-10.7-37.5z"/>
		<path class="st4" d="M14,27.6c0,0,3.9,2.5,3.5,3.6c-0.3,1,0,1.2,0,1.2s-0.4,1.7,0,2.4c0.4,0.6,2.1,0.6,2.4,1.2
			c0.2,0.6,1.2,1.2,1.2,1.2s1.8,0.3,2.4-1.2c0.5-1.4,0.5-2.2,1.2-2.4s1.7-1.4,1.2-2.4s0.2-1.9-1.2-2.4c-1.3-0.4-3.1-1.8-3.5-2.4
			c-0.5-0.5-2-1.5-2.4-2.4s-2.4-2.4-2.4-2.4H14v-2.4l-1.2-3.6l-1.2,1.2l-0.2,3.8l1.4,4.5L14,27.6z"/>
		<path class="st3" d="M-42.5,41.9c0,0,1.8,3.2,2.4,3.6c0.5,0.3,2.4-0.8,2.4,0s10.7-0.3,10.6,0s2.1,0.6,2.4,0c0.2-0.6,0-4,0-4.7
			c0-0.8,0.3-3.1,1.2-2.4s3.5,2.4,3.5,2.4s1.1-0.7,1.2-2.4c0-0.6,0.2-1.4-1.2-2.4c-1.4-1-2.9-1.7-3-2.3s-1.9-0.8-0.6-2.4
			c1.3-1.7,2.4-3,3.5-3.6s2.1-1.5,3.5-1.9c1.2-0.4,2.6-1.2,3.6-1.6c1-0.4,3-0.8,3.5-1.2c0.6-0.4,1.9-1.7,2.4-2.4s0-1.4,0-2.4
			s1.2-3.6,1.2-3.6s-0.2-2.4,0-3.6c0.2-1.1-0.5-4.9-1.2-5.9C-7.8,4-7.6,3.2-9.5,2.7s-4.4,0.1-4.7-1.2c-0.3-1.3-2.7-2.7-3.5-2.4
			c-0.8,0.4-2.9,0.7-3.5,1.2s-2.4,0.6-3.5,2.4c-1.1,1.8-3.5,3.6-3.5,3.6h-4.7c0,0-6.8-0.6-8.2-1.2c-1.4-0.6-2.5-2.7-3.5-1.2
			S-47,8.6-47,8.6s-1.1,1.7-1.3,5.3c-0.1,1.5,0.5,3.5,2.5,5.4c1.7,1.6,3.3,3.6,3.5,4.7c0.3,1.7,0,3,0.7,4.2c0.5,0.9,1.4,1,1.9,2.2
			c0.7,1.4,1.4,2.5-0.2,4.2c-1.5,1.5-3.2,3.2-3,3.9C-43,39.3-42.5,41.9-42.5,41.9z"/>
		<path class="st3" d="M-33.1-13.8c0,0,1.2,2,2.4,3.6c1.2,1.5,2.1,2.4,3.5,3.6c1.5,1.1,4.7,3.6,4.7,3.6l2.4,1.2c0,0-2-2.6-2.4-3.6
			c-0.3-1-2.4-3.6-2.4-3.6v-2.4c0-0.9,0.1-1.8,1.2-2.4c1.1-0.6,1.2-2.4,1.2-2.4s-1.2-0.3-2.4-1.2c-1.1-0.8-2.7-0.6-2.4-1.2
			c0.3-0.6-1.7-2-2.4-1.2c-0.7,0.9-2.4,3.6-2.4,3.6h-1.2L-33.1-13.8L-33.1-13.8z"/>
	</g>
</symbol>
<use xlink:href="#日本地図_3"  width="97.2" height="104.1" id="XMLID_10_" x="-48.6" y="-52.1" transform="matrix(0.9987 0 0 -0.9987 403.8512 588.7768)" style="overflow:visible;"/>
</svg>
