<?xml version="1.0" encoding="utf-8"?>
<!-- Generator: Adobe Illustrator 21.0.2, SVG Export Plug-In . SVG Version: 6.00 Build 0)  -->
<svg version="1.1" id="レイヤー_1" xmlns="http://www.w3.org/2000/svg" xmlns:xlink="http://www.w3.org/1999/xlink" x="0px"
	 y="0px" viewBox="0 0 960 750" style="enable-background:new 0 0 960 750;" xml:space="preserve">
<style type="text/css">
	.st0{fill:#3ECCC8;stroke:#FFFFFF;stroke-width:0.6;}
	.st1{fill:#349943;stroke:#FFFFFF;stroke-width:0.6;}
</style>
<symbol  id="日本地図_3" viewBox="-204.9 -267.3 97.5 73.3">
	<g id="四国_5_">
		<path class="st0" d="M-204.5-238.2l5.9,4.7l4.7,1.2c0,0,2.6,2.9,2.4,2.4c-0.3-0.5,1.4,2.3,2.4,2.4c1,0.1,2.3,0.3,3.5,1.2
			c1.2,0.9,3.6,0.9,3.5,2.4c-0.1,1.5-0.8,8.1,0,8.3c0.8,0.2,2.5-0.3,2.4,1.2c-0.2,1.4,1.2,3.2,1.2,3.6c0,0.4,2.4,1.2,2.4,1.2
			l2.4,4.7c0,0,0.1-0.2,1.2-1.2c1-1,4.6-5.2,4.7-5.9c0.1-0.7,1.3-2.5,3.5-2.4c2.2,0.1,4.1,2.6,4.7,2.4c0.6-0.2,4.9-1.4,5.9-1.2
			c1,0.3,4.7,3.6,4.7,3.6l2.2-1.1c0.8-3.7,1.1-3.6,1.7-5.4c0.4-1.1-3.2-0.6-3.2-0.6s-3.7,0.2-6.6-0.8c-2.9-1-6.6-1.5-8.4-1.5
			c-1.5-0.1-1.1-0.8-2.1-2.4c-1.2-1.9-2.5-4.8-2.8-6.1c-0.3-1.3-0.8-2-1.5-3c-1.2-1.7-2.1-1.8-2.7-2.7c-0.5-0.8-1.4-1.5-2.7-1.2
			s-2,0.1-2,0.1s0.7-2.6,1-3.3c0.4-0.8,0.9-2.7,0.2-3.8c-0.7-1.1-2.3-0.5-2.7-1.5c-0.5-1-0.6-0.7-1.4-2.1c-0.9-1.5-3.4-2.1-4.1-2.3
			c-0.7-0.3-0.9-3.3-0.6-4.2c0.5-1.1,2.7-0.1,2.9-0.7c0.2-0.6-1.2-4.6-1.2-4.6s-2.9-0.6-4.7,0c-1.8,0.6-3.5,3.6-3.5,3.6
			s-0.4,0.6,0,1.2c0.4,0.6-1.2,3.6-1.2,3.6l1.2,2.4l2.4,2.4l-1.2,2.4c0,0-1.9-2.9-2.4-1.2c-0.4,1.7-1.2,3.6-1.2,3.6v2.4l1.2,2.4
			h-1.2c0,0-1.4,1.2-2.4,0c-0.9-1.2-3-3.9-3.5-3.6c-0.5,0.4-3.5-1.2-3.5-1.2L-204.5-238.2z"/>
		<path class="st0" d="M-182.1-264.2h-3.5l2.4,3.6v3.6c0,0,0.5,1.1,0.8,2c0.1,0.5,0.4,2.7,0.4,2.7s-3.2-0.2-3.2,1
			c0.1,1.3,0.1,4.1,0.8,3.8c0.7-0.3,3.5,1.2,3.5,1.2s1.3,2.9,2.4,3.6c1.1,0.6,1.6,0.6,2.4,1.2c0.8,0.5,0.1,3.9,0,3.6
			c-0.1-0.3-1.2,3.6-1.2,3.6h3.5l2.4,2.4l2.4,2.4l1.2,3.6c0,0,1.9,3.8,2.4,4.7c0.5,0.9,1.3,2.5,2.4,2.4c1-0.1,6.6,0.7,7.1,1.2
			c0.4,0.5,7.1,1.2,7.1,1.2h3.5c0,0,2.9-0.1,3.5-1.2c0.6-1.1,4.7-3.6,4.7-3.6l2.4,2.4h2.4c0,0-0.3-3.9,1.2-4.7s3.8-0.5,3.5-1.2
			c-0.3-0.7-0.2-2.5-0.3-3.9c-0.1-1.3-0.7-1.7,1.8-1.8c3,0,4.6-0.2,4.6-0.2s-1.8-2.4-2.5-3.6c-0.7-1.2-1.8-3.8-2.4-4.7
			c-0.6-0.9-1.3-2.8-1.2-3.6c0.2-0.7-1.2-1.2-1.2-1.2s-0.7-0.4-2.4,2.4c-1.7,2.8-0.6,2.9-2.4,4.7c-1.8,1.9-3,1.7-3.5,2.4
			c-0.5,0.6-1.2,2.5-3.5,2.4c-2.3-0.2-4.7,1.2-4.7,1.2s-3.4-1.5-3.5-1.2c-0.1,0.3-2-0.2-3.5-1.2c-1.5-1-2.5-1.7-2.4-2.4
			c0.2-0.6-0.7-0.6-1.2-1.2c-0.5-0.6-4.7-1.2-4.7-1.2s-0.8-1.7-1.2-2.4c-0.2-0.4-0.4,0-0.3,0c0,0,0.1-0.2,0.3-1.2
			c0.5-2.2,0-3-1.2-4.7c-1.2-1.7-2.9-2.5-3.5-3.6c-0.6-1.1-1.1,0.5-1.2-1.2c-0.1-1.7,0.6-3.4-1.2-3.6c-1.8-0.2-2.7-1.2-2.4-2.4
			s0.4-1.8,0-2.4c-0.4-0.6-1.2-1.2-1.2-1.2s-0.8-1.7,0-2.4c0.8-0.7,4.7-3.3,3.5-3.6c-1.2-0.2-6.4,1-5.9,1.2c0,0-1.8-0.3-2.4-1.2
			c-0.5-0.9-3.5,0-3.5,0L-182.1-264.2z"/>
		<path class="st0" d="M-149.1-200.3c0,0,4.2,0.5,4.7,1.2s3.5,1.7,4.7,3.6c1.2,1.9,1.4-0.1,3.5,0s3.7-1.2,4.7,0
			c1,1.2,2.4,1.2,2.4,1.2s4.3-3.1,4.7-3.6s2.6-2.2,3.5-2.4c0.9-0.2,3.5-1.2,3.5-1.2l-1.2-3.6c0,0-0.8,1-2.3,2.3
			c-0.4,0.3-4.4-0.9-5.7-1c-2.1-0.1-2.5,0.1-3.4-1.5c-0.7-1.2-1.6-2.2-1.6-2.2l-3.1,0.8l-1.2,0.7l-4.7-0.6c0,0-1-1.1-2.1-1.8
			c-1-0.6-3.5-1.8-3.5-1.8l-0.7-0.9l-2.4,1.2c0,0-1.4,2.3,0,3.6c1.4,1.3,2.8,3.6,2.4,3.6C-147.2-202.7-149.1-200.3-149.1-200.3z"/>
		<path class="st0" d="M-111.4-203.8c-0.4-1.3-3.4-3.4-2.4-4.7c1-1.3,1.7-1.4,2.4-2.4s1-2.7,1.2-3.6c0.2-0.8,0.6-3.6,1.2-3.6
			c0.6,0,1.2-1.2,1.2-1.2s-4.9-0.8-5.9-2.4c-1-1.6-1-3.3-2.4-3.6c-1.3-0.3-2.8-2-3.5-2.4c-0.7-0.4-1.8-3.8-2.4-3.6
			c-0.6,0.2-6.2,0.3-6.2,0.3c0,1,0,0.9,0,3.1c0,1.7,0.2,2.8,0.2,2.8s-3,0.5-3.5,0.9c-0.7,0.7-1,4.3-1.2,4.4
			c-1.1,0.5-2.3,0.4-2.3,0.4s-1.9-2.5-2.4-2.4c-0.5,0.2-3.6,2.1-4.2,2.9c-0.3,0.4-1.5,1.3-1.5,1.3l-2.2,0.9l-1.7,5.5
			c0,0,1.4,1.3,3.7,2.4c2.3,1.1,2.1,2.2,3.5,2.4c1.4,0.1,4.2,0.8,4.7,0c0.5-0.8,3-1.2,3.5-1.2c0.6,0,2.4,3.6,2.4,3.6s2.1-0.1,2.4,0
			c0.9,0.3,5.9,1.2,5.9,1.2l2.4-2.4l1.2,3.6l1.2,1.2l4.7-2.4C-111.4-202.6-111-202.5-111.4-203.8z"/>
	</g>
	<g id="四国_4_">
		<path class="st1" d="M-204.5-238.2l5.9,4.7l4.7,1.2c0,0,2.6,2.9,2.4,2.4c-0.3-0.5,1.4,2.3,2.4,2.4c1,0.1,2.3,0.3,3.5,1.2
			c1.2,0.9,3.6,0.9,3.5,2.4c-0.1,1.5-0.8,8.1,0,8.3c0.8,0.2,2.5-0.3,2.4,1.2c-0.2,1.4,1.2,3.2,1.2,3.6c0,0.4,2.4,1.2,2.4,1.2
			l2.4,4.7c0,0,0.1-0.2,1.2-1.2c1-1,4.6-5.2,4.7-5.9c0.1-0.7,1.3-2.5,3.5-2.4c2.2,0.1,4.1,2.6,4.7,2.4c0.6-0.2,4.9-1.4,5.9-1.2
			c1,0.3,4.7,3.6,4.7,3.6l2.2-1.1c0.8-3.7,1.1-3.6,1.7-5.4c0.4-1.1-3.2-0.6-3.2-0.6s-3.7,0.2-6.6-0.8c-2.9-1-6.6-1.5-8.4-1.5
			c-1.5-0.1-1.1-0.8-2.1-2.4c-1.2-1.9-2.5-4.8-2.8-6.1c-0.3-1.3-0.8-2-1.5-3c-1.2-1.7-2.1-1.8-2.7-2.7c-0.5-0.8-1.4-1.5-2.7-1.2
			s-2,0.1-2,0.1s0.7-2.6,1-3.3c0.4-0.8,0.9-2.7,0.2-3.8c-0.7-1.1-2.3-0.5-2.7-1.5c-0.5-1-0.6-0.7-1.4-2.1c-0.9-1.5-3.4-2.1-4.1-2.3
			c-0.7-0.3-0.9-3.3-0.6-4.2c0.5-1.1,2.7-0.1,2.9-0.7c0.2-0.6-1.2-4.6-1.2-4.6s-2.9-0.6-4.7,0c-1.8,0.6-3.5,3.6-3.5,3.6
			s-0.4,0.6,0,1.2c0.4,0.6-1.2,3.6-1.2,3.6l1.2,2.4l2.4,2.4l-1.2,2.4c0,0-1.9-2.9-2.4-1.2c-0.4,1.7-1.2,3.6-1.2,3.6v2.4l1.2,2.4
			h-1.2c0,0-1.4,1.2-2.4,0c-0.9-1.2-3-3.9-3.5-3.6c-0.5,0.4-3.5-1.2-3.5-1.2L-204.5-238.2z"/>
		<path class="st1" d="M-182.1-264.2h-3.5l2.4,3.6v3.6c0,0,0.5,1.1,0.8,2c0.1,0.5,0.4,2.7,0.4,2.7s-3.2-0.2-3.2,1
			c0.1,1.3,0.1,4.1,0.8,3.8c0.7-0.3,3.5,1.2,3.5,1.2s1.3,2.9,2.4,3.6c1.1,0.6,1.6,0.6,2.4,1.2c0.8,0.5,0.1,3.9,0,3.6
			c-0.1-0.3-1.2,3.6-1.2,3.6h3.5l2.4,2.4l2.4,2.4l1.2,3.6c0,0,1.9,3.8,2.4,4.7c0.5,0.9,1.3,2.5,2.4,2.4c1-0.1,6.6,0.7,7.1,1.2
			c0.4,0.5,7.1,1.2,7.1,1.2h3.5c0,0,2.9-0.1,3.5-1.2c0.6-1.1,4.7-3.6,4.7-3.6l2.4,2.4h2.4c0,0-0.3-3.9,1.2-4.7s3.8-0.5,3.5-1.2
			c-0.3-0.7-0.2-2.5-0.3-3.9c-0.1-1.3-0.7-1.7,1.8-1.8c3,0,4.6-0.2,4.6-0.2s-1.8-2.4-2.5-3.6c-0.7-1.2-1.8-3.8-2.4-4.7
			c-0.6-0.9-1.3-2.8-1.2-3.6c0.2-0.7-1.2-1.2-1.2-1.2s-0.7-0.4-2.4,2.4c-1.7,2.8-0.6,2.9-2.4,4.7c-1.8,1.9-3,1.7-3.5,2.4
			c-0.5,0.6-1.2,2.5-3.5,2.4c-2.3-0.2-4.7,1.2-4.7,1.2s-3.4-1.5-3.5-1.2c-0.1,0.3-2-0.2-3.5-1.2c-1.5-1-2.5-1.7-2.4-2.4
			c0.2-0.6-0.7-0.6-1.2-1.2c-0.5-0.6-4.7-1.2-4.7-1.2s-0.8-1.7-1.2-2.4c-0.2-0.4-0.4,0-0.3,0c0,0,0.1-0.2,0.3-1.2
			c0.5-2.2,0-3-1.2-4.7c-1.2-1.7-2.9-2.5-3.5-3.6c-0.6-1.1-1.1,0.5-1.2-1.2c-0.1-1.7,0.6-3.4-1.2-3.6c-1.8-0.2-2.7-1.2-2.4-2.4
			s0.4-1.8,0-2.4c-0.4-0.6-1.2-1.2-1.2-1.2s-0.8-1.7,0-2.4c0.8-0.7,4.7-3.3,3.5-3.6c-1.2-0.2-6.4,1-5.9,1.2c0,0-1.8-0.3-2.4-1.2
			c-0.5-0.9-3.5,0-3.5,0L-182.1-264.2z"/>
		<path class="st1" d="M-149.1-200.3c0,0,4.2,0.5,4.7,1.2s3.5,1.7,4.7,3.6c1.2,1.9,1.4-0.1,3.5,0s3.7-1.2,4.7,0
			c1,1.2,2.4,1.2,2.4,1.2s4.3-3.1,4.7-3.6s2.6-2.2,3.5-2.4c0.9-0.2,3.5-1.2,3.5-1.2l-1.2-3.6c0,0-0.8,1-2.3,2.3
			c-0.4,0.3-4.4-0.9-5.7-1c-2.1-0.1-2.5,0.1-3.4-1.5c-0.7-1.2-1.6-2.2-1.6-2.2l-3.1,0.8l-1.2,0.7l-4.7-0.6c0,0-1-1.1-2.1-1.8
			c-1-0.6-3.5-1.8-3.5-1.8l-0.7-0.9l-2.4,1.2c0,0-1.4,2.3,0,3.6c1.4,1.3,2.8,3.6,2.4,3.6C-147.2-202.7-149.1-200.3-149.1-200.3z"/>
		<path class="st1" d="M-111.4-203.8c-0.4-1.3-3.4-3.4-2.4-4.7c1-1.3,1.7-1.4,2.4-2.4s1-2.7,1.2-3.6c0.2-0.8,0.6-3.6,1.2-3.6
			c0.6,0,1.2-1.2,1.2-1.2s-4.9-0.8-5.9-2.4c-1-1.6-1-3.3-2.4-3.6c-1.3-0.3-2.8-2-3.5-2.4c-0.7-0.4-1.8-3.8-2.4-3.6
			c-0.6,0.2-6.2,0.3-6.2,0.3c0,1,0,0.9,0,3.1c0,1.7,0.2,2.8,0.2,2.8s-3,0.5-3.5,0.9c-0.7,0.7-1,4.3-1.2,4.4
			c-1.1,0.5-2.3,0.4-2.3,0.4s-1.9-2.5-2.4-2.4c-0.5,0.2-3.6,2.1-4.2,2.9c-0.3,0.4-1.5,1.3-1.5,1.3l-2.2,0.9l-1.7,5.5
			c0,0,1.4,1.3,3.7,2.4c2.3,1.1,2.1,2.2,3.5,2.4c1.4,0.1,4.2,0.8,4.7,0c0.5-0.8,3-1.2,3.5-1.2c0.6,0,2.4,3.6,2.4,3.6s2.1-0.1,2.4,0
			c0.9,0.3,5.9,1.2,5.9,1.2l2.4-2.4l1.2,3.6l1.2,1.2l4.7-2.4C-111.4-202.6-111-202.5-111.4-203.8z"/>
	</g>
</symbol>
<use xlink:href="#日本地図_3"  width="97.5" height="73.3" id="XMLID_10_" x="-204.9" y="-267.3" transform="matrix(1 0 0 -1 481.0012 405.8768)" style="overflow:visible;"/>
</svg>
