<?xml version="1.0" encoding="utf-8"?>
<!-- Generator: Adobe Illustrator 21.0.2, SVG Export Plug-In . SVG Version: 6.00 Build 0)  -->
<svg version="1.1" id="レイヤー_1" xmlns="http://www.w3.org/2000/svg" xmlns:xlink="http://www.w3.org/1999/xlink" x="0px"
	 y="0px" viewBox="0 0 960 750" style="enable-background:new 0 0 960 750;" xml:space="preserve">
<style type="text/css">
	.st0{display:none;fill:#B4B4B5;stroke:#FFFFFF;stroke-width:0.6;}
	.st1{display:none;}
	.st2{display:inline;fill:#A82A2A;stroke:#FFFFFF;stroke-width:0.6;}
	.st3{fill:#43CC5F;stroke:#FFFFFF;stroke-width:0.6;}
	.st4{display:inline;fill:#A82A2A;}
	.st5{display:inline;}
	.st6{fill:#A82A2A;stroke:#FFFFFF;stroke-width:0.6;}
	.st7{display:inline;fill:#FFFFFF;stroke:#B4B4B5;stroke-width:0.6;}
	.st8{display:none;fill:#F4B8FF;}
</style>
<symbol  id="日本地図_3" viewBox="-297.8 -340.4 595.5 680.9">
	<path id="北海道_1_" class="st0" d="M86.4,149c0,0,3,5.1,3.5,7.1s1.7,4.6,0,5.9c-1.7,1.3-2.2,0.9-4.7,3.6
		c-2.5,2.6-2.7,1.9-3.5,3.6c-0.9,1.7-2.1,2.3-3.5,2.4c-1.4,0-1.2,4.7-1.2,4.7s2,1.4,2.4,3.6c0.4,2.2,0,14.2,0,14.2s1.9,1,3.5,1.2
		c1.7,0.2,4.7,0,4.7,0l2.4,3.6c0,0,2.5,3.6,3.5,2.4c1.1-1.2,2.4-1.2,2.4-1.2l3.5,7.1c0,0,3.4,1.5,3.5,2.4c0.2,0.9,0,3.6,0,3.6
		s-3.5,3.2-3.5,4.7c0,1.6-2.4,7.1-2.4,7.1s1.6,2.8,2.4,2.4c0.7-0.5,4.7,0,4.7,0l4.7-4.7c0,0,1.3-2.4,3.5-3.6
		c2.2-1.1,8.2,1.2,8.2,1.2s3.6,0.3,4.7-1.2s5.5-1.5,5.9,0s5,7.6,5.9,8.3c0.8,0.6,1.2,7.1,1.2,7.1s-2.5,4.5-2.4,5.9
		c0.2,1.4-2.4,7.1-2.4,7.1s2.7,4,3.5,4.7s7.1,3.6,7.1,3.6s2.8,6.2,2.4,7.1s-2.3,13.4-1.2,14.2c1.1,0.8,3,3.8,3.5,4.7
		c0.6,0.9,1.2,9.5,1.2,9.5V302c0,0-4.1,10.4-5.9,14.2c-1.8,3.8-2.2,5.2-2.4,7.1c-0.2,2,3.5,7.1,3.5,7.1l1.2,5.9l2.4-1.2h4.7l2.4,4.7
		c0,0,2.5-4.7,3.5-5.9c1.1-1.2,5.3-4.3,7.1-5.9c1.8-1.7,8.3-13.2,10.6-16.6c2.3-3.3,4.7-7.8,5.9-9.5s11-13.3,13-14.2
		c2-0.9,9.4-8.3,9.4-8.3s8.9-3.1,9.4-4.7c0.6-1.6,4.8-2.5,4.7-3.6s1.2-3.6,1.2-3.6l5.9-1.2c0,0,1.5-1.1,2.4,0s3.5,2.4,3.5,2.4
		l3.5-2.4l-1.2-3.6c0,0,3.2-3.8,3.5-2.4s2.4,5.9,2.4,5.9s3.2-5.1,3.5-5.9c0.4-0.8,6.8-4,8.2-3.6c1.4,0.5,7.1,1.2,7.1,1.2l8.2,8.3
		c0,0,6.1,2.7,5.9,3.6s7.1,7.1,7.1,7.1s1.8-1.1,1.2-2.4c-0.6-1.3-4.7-9.5-4.7-9.5l-2.4-7.1l-4.7-7.1l1.2-3.6l3.5-4.7l2.4-2.4
		l3.5-2.4l-4.7-1.2l1.2-4.7l1.2-3.6l2.4-3.6l2.4-1.2l7.1,5.9h5.9l1.2-2.4l-7.1-2.4l-2.4-5.6c0,0-5.2-0.9-8.2-1.2
		c-3.1-0.3-5.9-1.2-5.9-1.2l-2.4-3.6c0,0-6-3-7.1-3.6s-3.5,2.4-3.5,2.4s-3.4,0.5-2.4-2.4c1.1-2.8,1.5-1.9,0-2.4s-9.1-1.8-11.8,0
		s-3.5,3.6-3.5,3.6s-6.9-1.5-8.2-2.4s-8.4-6.7-10.6-8.3c-2.2-1.6-16-17.7-16.5-18.9s-1.2-9.5-1.2-9.5v-8.3l-3.5-2.4v-3.6
		c0,0-10.7,9.8-10.6,10.5c0,0.7-11.6,3-15.6,6.3c-3.9,3.3-8.4,5.4-10.3,6.8c-1.9,1.4-8.2,3.6-8.2,3.6l-4.7,4.7c0,0-8.4,2.3-9.4,2.4
		c-1,0-6.2-2.7-8.2-3.6c-2.1-0.9-7.4-3-8.2-4.7s-4.7-4.7-4.7-4.7l-1.2-2.4c0,0-1.4,2.6-3.5,4.7c-2.2,2.1-2.7,3.6-3.5,4.7
		c-0.9,1.1-2.4,3.6-2.4,3.6s-5.1,0.9-5.9,0s-3.5,1.2-3.5,1.2l-5.9-7.1c0,0-2.1-5-1.2-7.1s2.4-2.9,3.5-4.7s3.9-3.1,4.7-3.6
		c0.8-0.5,3.8-1.5,4.7-1.2c1,0.3,5.9-2.4,5.9-2.4s2.4-2.8,3.5-4.7c1.2-1.9,3.5-3.6,3.5-3.6l4.7-2.4c0,0,2.3-5.4,0-5.9
		s-5.6-3.5-7.1-2.4s-7.1,4.7-7.1,4.7l-2.4,2.4l-3.5-3.6c0,0-5.1-4.8-5.9-4.7s1.7-4.9,1.2-5.9c-0.5-1.1-8.2-4.7-8.2-4.7l-2.4-2.4
		l-4.7,2.4c0,0-2.5,3.6-2.4,4.7s-0.9,5.5,0,5.9C84.9,144.8,86.4,149,86.4,149z"/>
	<g id="東北_1_" class="st1">
		<path class="st2" d="M81.6,94.6c0,0,4,7.1,4.7,5.9s7.1,1.2,7.1,1.2l1.2,4.7c0,0,2.2,2.7,2.4,3.6s1.2,4.7,1.2,4.7l-2.4,4.7
			c0,0,1.9,2.6,2.4,3.6c0.4,0.9,3.5-2.4,3.5-2.4l4.7,2.4l1.2-4.7c0,0,1-4.5,1.2-5.9c0.2-1.5,0-8.3,0-8.3h5.9l2.4,7.1l4.7-1.2
			l4.7-3.6c0,0,2.5-0.5,2.4,2.4c-0.2,2.8,1.2,5.9,1.2,5.9l2.4,5.9l-2.4,3.6c0,0-6.1-1.9-7.1-2.4s-6.5-0.4-7.1-1.2
			c-0.6-0.8-2.4,3.6-2.4,3.6l1.2,4.7l3.5,7.1h3.5l3.5-1.2l3.5-5.9h2.4l5.9,3.6l-1.2-11.8c0,0-1.4-12-1.2-14.2s1.5-8.1,2.4-9.5
			c0.8-1.3,2-2.4,2.4-3.6c0.3-1.1,4.7-5.9,4.7-5.9l2.4-2.4l-2.4-2.4l-5.9-1.2l-4.4-0.9l-7-4.4c0,0-3.2-0.1-3.9-0.7
			c-0.7-0.6-5.7-1.7-5.7-1.7l1.3,5.4l2.1,4.6c0,0-3.7-1-3.5,0c0.1,1.2-1.2,3.6-1.2,3.6l-5.1-4.8c0,0-1.6,1-3.1,1.2
			c-1.6,0.2-3.5-1.2-3.5-1.2l-3.5,3.6l-6.1-2.3c0,0-2.3,0.8-3.4,0.8c-1,0.1-4.9,1.5-4.9,1.5l-1.1-3.9l-2.4,4L81.6,91l-2.4,1.2
			L81.6,94.6z"/>
		<path class="st2" d="M142.9,15.2l-3.5,1.2l-1.2-5.9c0,0-2.6-3.9-2.8-3.9c-0.6-0.1-3.3,0.4-3.9,0.6c-0.6,0.2-3.9-1.5-3.9-1.5
			c0.1,0.1-0.7,1.1-0.9,1.5c-1,2.4-2.1,4.5-2.1,4.5s-0.4,0-1.7-0.1c-1-0.1-4.1-0.4-4.7,0s-2.4,2.4-2.4,2.4l-1.2,1.2l-0.8,0.8
			l-0.3,3.9l-1.2,2.4c0,0,1,3.6,0.6,4.4l-0.6,2.7l-2.4,3.6c0,0-0.6,1.7-0.3,3.4c0.2,1.1,1.1,4.1,1.1,4.1s0,3,0.4,3.2
			s2.4,2.4,2.4,2.4l0.9,3.1c0,0-0.9,1.2-0.9,2.8c0,2.2,0.7,3.2,1.2,4.7c0.3,1.1,1,1.8,1,2.6s0.2,1,0.2,3c0,1.2,0.2,2.3-0.1,3.7
			c-0.1,0.5,0,2.3,0.4,2.3s0.5,2.8,0.5,2.8s0.4,1.1,0.4,2.3c0,0.7,1.2,1.2,1.2,1.2l4.7,1.2c0,0,5.1,0.6,4.7,1.2s5,3.1,5,3.1l3.4,1.2
			l4.9,1l3.2,0.6l2.4,2.4c0,0,6.5-6.1,5.9-7.1s0.6-4.1,0-4.7s-0.6-5.3,0-4.7c0.6,0.6,0-1.2,0-1.2s2.4-3.6,3.5-5.9
			c1.2-2.4,1.2-9.7,1.2-11.8s1.4-3.8,1.2-4.7c-0.2-1,1.2-3.9,1.2-3.6s-0.4,0-1.2-1.2s-1.6-3-1.2-3.6c0.4-0.6-0.2-1.4-1.2-2.4
			s-1.4-2.8-1.2-3.6c0.2-0.8,1-2,1.2-2.4s0.4-1.2-1.2-2.4c-1.6-1.2-1-2.8-1.2-3.6c-0.2-0.8,1.4-2.4,0-2.4s-2-0.8-2.4-1.2
			c-0.4-0.4,0.2-2.8-1.2-2.4s-3.3,0.2-3.5-1.2s-2.4-2.4-2.4-2.4L142.9,15.2z"/>
		<path class="st2" d="M75.8,62.6c0,0,2-0.8,3.5,0c1.6,0.8,4.9,2.8,4.7,4.7c-0.2,2,0.6,3.2,1.2,4.7c0.6,1.6,1.2,4.7,1.2,4.7v2.4
			l-1.2,3.6l1.2,3.6l3.5-1.2l4.7-1.2l4.2,1.7l1.6,0.7l3.5-3.6l3.5,1.2c0,0,3.9-1.8,3.5-1.2c-0.4,0.6,2.2,1.6,2.4,2.4
			c0.2,0.8,2.4,2.4,2.4,2.4l1.2-3.6h3.5c0,0-0.6-1.5-0.9-2.1c-0.4-0.8-1.4-2.6-1.4-2.6l-1-5.3l-0.2-1.8c-0.6-0.6-1.2-5.9-1.2-5.9
			v-5.9c0,0-0.8-3.8-1.2-3.6c-0.4,0.2-1-2.4-1.2-3.6c-0.2-1.2,0.9-4.2,0.9-4.2s-1.5-3.3-1.5-3.7s-1.3-1.8-1.7-1.6
			c-0.4,0.2,0.6-2.4,0-2.4s-0.4-3.4-1.2-3.6c-0.8-0.2,0-4.7,0-4.7s2.4-3,2.4-3.6s0.8-4.8,0.8-4.8l-0.8-2.3l1.2-2.4l0.3-3.5l-4.5-3
			c0,0-0.2-1.1-1.1-1.5c-1.2-0.6-4.3-1.8-4.1-1.4c0.2,0.4-3.5,1.8-3.5,2.4s-2.4,4.7-2.4,4.7l-4.7,1.2L89.6,19
			c-0.6,0-2.9,1.4-3.3,2.1c-0.4,0.6-3.5,0.3-3.5,0.3l-1.2,0.9l-1.2,1.2v3.6c0,0.8,1.8,4.9,2.4,4.7s2.7,2,2.4,2.4
			c-0.4,0.4,1.2,5.9,1.2,5.9v7.1c0,0,1.2,2.6,1.2,3.6s-1.2,3.6-1.2,3.6L84,58l-2.4,1.2c0,0-3.7,0.4-3.5,0s0-2.4,0-2.4h-3.5L73.4,58
			v2.4L75.8,62.6z"/>
		<path class="st2" d="M106.1-0.1c0,0-2.9-1.9-2.1-4.8c0.2-0.8,2.4-2.4,2.4-2.4l-1-3c0,0-0.6-1.1-0.9-1.3c-0.4-0.2-1.4-0.9-2-3
			c-0.6-2.4-0.6-5.9-0.8-6.9s0.1-2.3-0.9-3.3c-1.3-1.3-2.3-1.9-3.2-2.3c-0.9-0.4-2.7-0.2-3-1.5c-0.4-1.6,0.2-3.6,0-3.6h5.5
			c0,0,1.4-0.6,2-1.1c0.3-0.3,0.9-0.9,2.4-1.1c2.2-0.3,1.9,0.4,3.4-0.1c1.2-0.4,0.8,0.5,1.2-1.1c0.4-1.6,1.1-3.1,1.1-3.1l0.8-1.7
			l4.3,3.8l2.8,0.9v5.9c0,0.6,1.6,7.9,1.2,8.3c-0.4,0.4,1.8,5.5,2.4,5.9l3.5,2.4l3.5,2.4h3.5c0,0,0.4,2,2.4,0s5.9-7.1,5.9-7.1
			s1.8,1,1.2,2.4s-3.5,5.3-3.5,5.9c0,0.6,1,0.8,1.2,2.4s0,4.7,0,4.7l-1.2,1.2c0,0,1.8,2.2,1.2,2.4s1.4,0.6,1.2,1.2s-1.2,2.4-1.2,2.4
			s2.6,3.6,2.4,3.6c-0.2,0,2.4,2.2,2.4,2.4s-0.2,1.6,0,2.4c0.2,0.8-1,2-1,2l-2.4,1.1l-1.3,0.1l-0.7-3.3c0,0,0.3-1.2-0.5-2.3
			c-0.8-1.2-2-3.3-2.4-3.6c-0.3-0.2-1.6-0.4-2.4,0c-1.2,0.6-3.5,0-3.5,0l-2.4-1.2l-1.9,3.5l-1.1,2.6l-6.4-0.1c0,0-1.3,2.1-1.9,1.9
			s-2,2.9-2.8,2.7c-0.8-0.2-1.6-1.3-1.6-1.3s-2.9-1.7-3.1-2.1c-0.6-1-3.8-2.8-4.4-2.4c-0.6,0.4,0.9-1.1,0.9-1.1s2.6-4.1,2.4-4.7
			s0-2.4,0-2.4L106.1-0.1z"/>
		<path class="st2" d="M68.7-4.9c-0.2,0.6-1.2,4.5,1.2,5.9c2.4,1.4,4.5,1,4.7,2.4c0.2,1.3,2.7,3.5,2.3,4.7s1.2,3.9,1.2,4.7
			s1,4.3,1.2,4.7c0.2,0.4,1.2,5.9,1.2,5.9s1-1.8,2.4-2.1c1-0.2,3,0,3,0l3-2.2l5.5-0.6l3.8-1l2.4-4.7l3.5-2.4l2.4-3.6l1.2-2.4
			c0,0-0.3-4.1-0.9-4.3s-2.4-2-2.6-2.8s0-2.8,0-2.4s2.4-2.4,2.4-2.4l-1.2-3.6l-2.4-2.4c0,0-1.4-5.1-1.2-4.7c0.2,0.4,0-3.6,0-3.6
			v-2.4l-3-2.7l-2.4-1.2c0.2,0.1-1.7-0.1-1.7-0.9v-5.9v-4.7c0,0-2.4-2-2.4-2.4s-3.3-2-3.5-1.2s-5.9,3.6-5.9,3.6h-2.4h-4.7
			c0,0-3.3,1.8-3.5,2.4c-0.2,0.6-1.2,5.9-1.2,5.9l1.2,4.7l1.6,2.7c0,0,1.7,1.5,2.1,1.7c1,0.4,3.4,2.4,3.4,2.4s1.3,2.4,1.1,2.8
			c-0.2,0.4-1.2,3.6-1.2,3.6h-3.5c0,0-0.7,3.2-1.2,3.6c-0.9,0.7-1.9,1.9-1.9,1.9L71-6.5C71-6.4,68.9-5.5,68.7-4.9z"/>
		<path class="st2" d="M56.9-55.9c0,0,2.9,0.9,4.1,1.1c0.8,0.1,5.8,2,5.4,1.8s2.8,1.2,2.8,1.2s-1.2,2.9,0.1,5.3
			c0.4,0.7,1.7,3.6,1.7,3.6s1.2,1.5,1.5,2c0.5,0.9,2.1,2.1,2.1,1.5c0-0.4,4.7,0,4.7,0h3.5c0,0,4.5-2.1,4.7-2.4
			c1.2-1.4,2.1-1.4,3.1-1c1.2,0.5,3.3,2.8,3.3,2.8l0.7,0.8v6.9h5.9l3.5-2.4h4.7l1.2-3.6l1.2-2.4l2,1.8l2.8,2.2l2.3,0.8
			c0,0,3.3-5.1,3.5-5.9c0.2-0.8,0-6.7,0-7.1c0-0.4,1.8-9.3,1.2-11.8c-0.6-2.6-0.6-7.7-1.2-8.3c-0.6-0.6,0.6-5.3,0-5.9
			S118-81,117-80.8s-3.3-2.8-3.5-2.4s-3.5,2.4-3.5,2.4h-3.5l-3.5-3.6l-2.4-1.2c0,0-1.4,1.2-2.4,2.4c-1,1.2-3.5,4.7-3.5,4.7
			s-1.6,1.4-2.4,2.4s-3.7,4.9-3.5,4.7l0,0c0,0-2.2,2.6-3.5,2.4c-1.5-0.1-5.8-0.7-6-1.1s-1-3-3.5-3.6c-2.6-0.6-6.5-2.8-7.1-3.6
			c-0.6-0.8-4.7-2.4-4.7-2.4s-2.7-0.8-3.1-0.6c-1.3,0.5-3.9,3-3.9,3l-1.2,4.7l0.1,4.4l-1.3,3.8L57-62l0.2,2L56.9-55.9z"/>
	</g>
	<g id="首都_1_">
		<path class="st3" d="M64-106.8c0,0-1.8,2.2-1.2,3.6s0.8,5.7,1.2,5.9c0.4,0.2,0,2.4,0,2.4l-3.2,4v2.3l0.8,2v3.6v3l4.7,1.7
			c0,0,5.1,3.4,5.9,3.6s4,1.3,4.4,1.5s1.8,1.7,1.8,1.7l0.8,1.6l5.9,1.2l1.6-0.6l7.8-8.9c0,0-0.3-0.6-0.1-2.8c0.2-2.9,0-4.3-1-5.5
			c-0.3-0.3-1.2-1.2-1.2-1.2v-2.4v-3.6c0,0,0.9-4.5,0.8-5.7c0-0.8-0.8-3.7-0.8-3.7s-3.7-1-4.7-1.2c-1.2-0.2-3.3-1.5-4.7-2.4
			c-0.6-0.4-3-2.6-3.7-3c-0.4-0.2,0,0-1-0.6s-4.7-1.8-4.7-2.4c0-0.4-1,1-2,1.7c-2.3,1.6-4.7,1.9-5.1,1.9S64-106.8,64-106.8z"/>
		<path class="st3" d="M45.7-81.7c0,0,1.4,2.1,2,3.6c0.6,1.6,0.5,1.8,2.9,2.7c1.6,0.6,5.3,2.6,5.3,2.6l0.7-3l0.8-1.8l4.3-3.3
			c0,0,0.4-4.3,0-5.9s-1-2.8-0.8-3.8s1.4-2.3,1.4-2.3l1.8-2.7c0,0-0.2-4.1-0.7-5.3c-0.3-0.8-1.3-3.6-0.1-5c0.9-1.1,2.3-2.4,2.5-3.1
			s1.8-0.4,1.8-0.4l4.9-2.6c0,0-5.3-0.8-6-1c-0.8-0.2-2.4-0.8-3.5,0c-1.2,0.8-3.7,2.3-4.7,2.4c-1.8,0.2-1.7,0.3-4.7,1.2
			c0,0-1.1-2.6-1.7-3.4c-0.6-0.8-1.4-4.7-3-4.9c-1.9-0.2-2.9-1-3.5-1.2s-4.1-1.8-4.7-2.4c-0.6-0.6-3.5-1.2-3.5-1.2s-2.6,1.6-2.4,2.4
			c0.2,0.8-0.4,3.8-0.2,4.2c0.2,0.4-1,1.9-1,2.1s0.7,4.3,1.1,5.5c0.4,1.2-0.4,3,0,3.6s-2.4,2.4-2.4,2.4l-1.4-2.4
			c0,0-0.9,0.2-2.1,1.2s-2.9,2.3-3.5,3.6c-0.2,0.4,1.2,5.9,1.2,5.9s4.5,3,4.7,3.6s5.1,2.6,4.7,2.4c-0.4-0.2,1.6-0.3,2,0.1
			s2.5,0.7,2.5,0.7l1.5,2.1l2,1.6L45.7-81.7z"/>
		<path class="st3" d="M105.2-103.2c0,0-0.2-8.9,0-9.5s0.6-4.1,1.2-4.7s1.2-3.6,1.2-3.6s2-4.7,2.4-4.7s2.6-5.3,3.5-5.9
			c1-0.6,3.2-2.9,3.2-2.9l-5.6,4l-5.5,4.4l-2.7,1.6c0,0-2.8-1.4-4.3-3.2c-0.8-1.1-6.5-0.7-7.5-0.3c-1,0.4-8.4,2-8.2,2.4
			c0.2,0.4-1.6,1.9-2.4,3.6c-0.5,1.1-3.5,3.6-3.5,3.6s-3.9,0.4-3.5,1.2c0.4,0.8,0,2.4,0,2.4v2.4c0,0.6,6.4,3.3,6.4,3.3
			s2.4,2.1,1.9,1.7c-0.6-0.4,2.4,1.2,2.8,1.8c0.4,0.6,4.2,1.5,4.2,1.5l3.5,1.2l0.7,2.5v3.3c0,0-0.6,2.7-0.6,4.9c0,2.2-0.6,4.5,0,4.7
			s2.1,1.8,2.4,3.6c0.1,0.9,0,5.9,0,5.9s3.7-5.1,4.2-5.5c1.2-0.9,1.7-1.6,1.7-1.6s1.9,0.6,3.2,2c1.5,1.6,2.7,2.7,3.3,2.7
			c0.6,0,2.7,0.4,2.9,0c0.2-0.4,3.5-2.4,3.5-2.4s0-4.5-1.2-5.9s-3.3-5.1-3.5-5.9s-0.6-4.9-1.2-4.7C107-99.5,105.2-103.2,105.2-103.2
			z"/>
		<path class="st3" d="M37.5-122.2c0.6,0,4.1,1.8,5.3,2.4s4.3,2.6,4.7,2.4s1.4-0.8,2.4,1.2l2.4,4.7c0.6,1.2,0.4,2.6,1.2,2.4
			s5.9-1.1,6.4-1.7c0.6-0.6,3-2.1,3.8-2.2c2.1-0.2,3.4,0.3,5.3,0.6c0.4,0.1,2.4,0.8,2.8,0.6c0.4-0.2,1.7-0.9,1.7-0.9v-4.7
			c0,0-0.3-0.9,1.5-0.9c2.4,0,3.5-2,3-2.4s-0.6-1.3,0.2-2.7c0.8-1.4,2.5-4.3,2.1-4.9c-0.4-0.6,0.7-3,0.3-3.4
			c-0.4-0.4-4.7,0.6-5.6,0.2c-2.8-1.2-4.9,0.9-6.9-0.7c-2-1.6-3.8-1.3-5.2-0.7c-1.4,0.6-4.3,3-5.9,3.6c-1.6,0.6-5.5,2.4-5.9,2.4
			c-2.3,0-3.9-2-3.5-1.2l-1.6-1c0.7,0.1-3.7-0.4-5.5,1c-1.2,0.9-2.4,2.4-2.4,2.4S36.9-122.2,37.5-122.2z"/>
		<path class="st3" d="M107.6-136.4c0,0-4.5-4.9-5.9-5.9s-2.2-3.2-2.4-3.6c-0.2-0.4-0.6-2.6,0-3.6s0.4-8.5,0-8.3s-0.2-1.2-2.4-2.4
			c-2.2-1.2-8-2.4-8.2-2.4s-2.2-1.6-3.5-3.6c-1.4-2-2.4-3.6-2.4-3.6l-2.4-2.4l-3.5,2.4c0,0-1.5,2.1-1.2,2.4c0.5,0.5,1.6,0.6,2.4,1.2
			c0.8,0.6,1.8,3.2,1.2,5.9c-0.6,2.8-0.8,2.2,0,3.6c0.8,1.4,0,2.4,0,2.4s-2.7,1-2.4,1.2s1.4,1.6,2.4,2.4c1,0.8,1.8,3.2,2.4,3.6
			c0.6,0.4,2.2,1.2,3.5,2.4c1.4,1.2,3.9,2,3.5,3.6s-3.5,3.6-3.5,3.6h-2.4l-1.2-2.4l-1.2,5.9c-0.2,1,0.5,2.9,0.1,2.7
			s-0.6,5.1-0.6,5.1l0.2-0.9c0,0-0.1,1.6-1.6,3.1l-1.1,2.9l1.2,1.1l4.2-5.7c0,0,5.5-1.8,6.9-2c0.7-0.1,1.8-1.1,3.8-0.7
			s3.3-0.8,4.6,0.3c1.4,1.2,4.7,3.6,4.7,3.6l2.4-1.2c-0.4,0.2,5.7-4.9,5.9-4.7c0.2,0.2,4.7-3.6,4.7-3.6v-1.2h-1.2
			c-1.2,0-4.5-1.8-4.7-1.2C109.7-135.8,107.6-136.4,107.6-136.4z"/>
		<path class="st3" d="M46.7-128.6c0,0,3,1.9,4.3,1.7c1.3-0.3,5.1-1.9,5.9-2.4c0.8-0.5,3.5-2.1,3.9-2.4c1.2-0.8,2.3-1.3,3-1.6
			c0.9-0.5,1.9,0.2,2.5,0.5c0.6,0.2,1.9,0.6,2.4,1.2c0.4,0.6,4.4-1,5.9,0s3.5,0,3.5,0h2.4c0,0-0.1-3.4,0.5-4.7
			c0.6-1.2-2.8-2.4-2.8-2.4s-0.7-0.9-1.2-1.2c-0.4-0.3-0.2-5-1.2-4.5s-0.8,1.8-2.7,2.7c-1.9,0.9-3.2,1.8-3.2,1.8s-4.8-0.4-4.7,0
			c0.1,0.4,0.1-1.3-0.4-1.8c-0.6-0.5-0.1-1.4-1.9-0.6c-1.9,0.8-1.7,0.3-4.7,1.2s-4.5,2.5-4.7,3.6s-0.8-0.2-2.4,1.2
			c-1.5,1.4-1.7,0.6-2.3,1.9c-0.5,1.1-2.4,2.9-2.4,2.9L46.7-128.6z"/>
		<path class="st3" d="M52.2-143.5l1.2,3.6l-0.3,2.8c0,0,0.7-2.4,5.4-4.2c0.4-0.2,3.2-0.4,3.2-0.4l2.4-1.1l1,2.9c0,0,3.5,0,4-0.3
			c0.4-0.3,1.6,0.5,3.1-0.9l2.4-1.9l1.2-1.7c0,0-3-0.5-3.5-1.2c-0.5-0.6-2.1-2.8-1.2-3.6s0.8-3.9,1.2-4.7c0.4-0.8,2.4-2.4,2.4-2.4
			s-1,0-1.2-1.2s-0.3-3.3-1.2-3.6c-0.9-0.2-2.4,2.4-2.4,2.4s-1,2.5-1.2,3.6c-0.2,1-2.4,2.4-2.4,2.4s-1.9-0.2-2.4,0s-3.6-0.1-4.7-1.2
			c-1.1-1-4.2-1.5-4.7-2.4c-0.5-0.8-1.2-3.6-1.2-3.6l-2.4-1.2c0,0-2.3,0.4-2.4,2.4c0,2-1.1,4.2-0.2,5.7c0.9,1.5,0.2,2.6,0.2,2.6
			s-0.6,1.7-1.5,2s-1.8,1.6-1.8,1.6l3.3,2.4L52.2-143.5z"/>
	</g>
	<g id="中部_1_" class="st1">
		<path class="st2" d="M64-18c0.2-0.4,0.6,5.5,1.2,5.9s0.5,2.9,0.5,2.9l3,4.2c0,0,3.1-1.9,3.5-2.4c0.3-0.3,2.5-1.9,3.3-4.8
			c0.4-1.3,1-1.2,2.1-1.1c0.6,0.1,1.6,0,1.6,0l1.2-3.6c0,0-1.6-3.9-3.5-4.7s-3.5-2.6-3.5-2.4s-1.5-3.9-1.7-4.4
			c-1-2.7-0.4-4.1-0.4-4.1s0.3-3.9,0.9-4.5c0.7-0.6,3.6-2.3,3-2.1S70.8-42.2,71-43c0.2-0.8-2.7-4.5-2.4-5.9c0.4-1.4,1.2-3.4,0-3.6
			c-1.2-0.2-7.1-2.4-7.1-2.4s-4.9-0.8-4.7-1.2s0.4-5.3,0-5.9c-0.4-0.6-2.5-1.8-2.4-2.4c0.3-1.8,0.4-2.4,1.2-3.6s0-4.3,0-4.7
			c0-0.4-0.8-0.8-1.2-1.2s-5.9-2.4-5.9-2.4L46.1-81c0,0,0-0.6-2.4-2.4S40.4-86,40.2-87s-5.1-1.4-4.7-1.2c0.4,0.2-0.5,1.7-0.4,3.2
			c0,0.3-0.4,1-0.4,1s-1,1.1-1.6,2.8s-1.2,2-1.2,3.6s-0.2,3-1.2,2.4s-4.3-1.2-4.7-2.4c-0.4-1.2-2.6-2.7-3.5-3.6
			c-1.7-1.7-2.8-3.8-3.5-3.6c-0.8,0.2-3.5,1.6-3.5,1.2c0-0.5-2.4-1.6-2.4-1.2s-1.2,2.4-1.2,2.4l-2.1,1.7l-1.2,1.2l-2.7-3.3l-3.2-5
			c0,0-0.6,0.8-1.2,2.4c-1,2.7-0.6,5.4-0.6,5.4l-1.7,1.7L-2-77.1c0,0,3.7,2,4.7,2.4s6.9,1.6,7.1,2.4s3.5,3.6,3.5,3.6l3.5,1.2
			c0.6,0.2,5.1-1,5.9,0s2.4,3.8,4.7,5.9c2.4,2.2,5.7,2.4,5.9,3.6s0.4,2.8,2.4,4.7c2,2,2.6,4.1,3.5,4.7c1,0.6,1.6,3.2,1.2,3.6
			c-0.4,0.4,1.2,7.1,1.2,7.1s4.7,3.8,7.1,4.7c2.4,1,5.3,0.4,7.1,2.4s4.9,3.2,5.9,4.7c0.7,1.2,2.5,3.1,2.4,3.6
			C63.6-21.1,63.8-17.6,64-18z"/>
		<path class="st2" d="M20.4-25.1c0,0,3.5,2.4,3.5,3.6s2.2,2.6,2.4,3.6c0.2,1,2.4,3.6,2.4,3.6s1-4.9,0-7.1s-1.4-4.7-1.2-4.7
			s1.2-0.8,1.2-1.2s3.3,1.8,3.5,1.2s0-3.6,0-3.6s-2-0.2-2.4-1.2s-0.8-3.4-2.4-4.7c-1.6-1.4-3.9-3.9-4.7-3.6
			c-0.8,0.4-3.5,1.2-3.5,1.2s2.2,2.4,2.4,3.6c0.2,1.2,0.6,1,1.2,2.4c0.6,1.4-0.2,3.9,0,3.6c0.2-0.4-2.4-2.4-2.4-2.4s-0.6-1.2-1.2,0
			c-0.6,1.2,1.6,3.6,1.2,3.6C20-27.4,20.4-25.1,20.4-25.1z"/>
		<path class="st2" d="M2.7-87.8c0,0,2.5,3,2.4,3.6s3.5,4.7,3.5,4.7s4.1-2.7,4.4-3.9c0.4-1.8,2.2,0.5,3.8-0.2
			c0.8-0.4,2.7-0.6,2.7-0.6l3.7,3.9c0,0,1.9,0.9,2.6,2.5c0.9,2.2,4.7,2.8,4.7,2.8s1.6,0.9,1.5-0.5c-0.1-1.7,0.8-4,0.8-4
			s0.5-2.7,1.7-3.6c1.1-0.9,0.8-2.8,1.2-3.6c0.4-0.8,0.9-1.5,0-1.2s-3.7-1.6-5-2.8c-2.2-1.8-3.4-2.3-4.4-3.2c-0.9-0.8-0.3-1.9-0.9-4
			s-0.2-1.5,0.3-2.9c0.5-1.3,3.3-3,3.3-3s2.2-1.3,1.9-0.8c-0.3,0.5,0.4,2,1.2,2.4c1,0.5,2.4-2.4,2.4-2.4v-4.7c0,0-0.7-2.3-1.2-3.6
			c-0.5-1.2,0.8-0.4,1-2.9c0.2-3,0.2-4.5,0.2-4.5l2.6-2.1l0.3-1.5c0,0,0.8-1.7-0.9-2.2c-2-0.7-2.9-1.4-4.4,0.2
			c-1.5,1.6-1.1,1.5-2.4,1.2c-1.3-0.4-1.3,0.2-2.4,0s-2.4-0.6-2.4-0.6s0,0.5-2.7-1.3c-2.4-1.6-2-1.6-2-1.6s0-3-1.2-4.7
			c-1.5-2.2-0.9-1-0.8-3.5c0.1-2.4-0.2-5.1-0.7-6.6c-0.5-1.3-1.2-3.2-1.7-5.4c-0.4-1.9-0.5-1.5-3.8-2.8c-1.7-0.7-1.5-2.3-3.3-3.7
			c-1.6-1.2-3.4-2-4.4-2.8c-1.2-0.9-4.9,1-5.4,1.1c-0.5,0-1.4-0.9-2.4-1.2s-2.3,2.9-2.3,2.9s0.4,3.4,1.1,4.2
			c3.5,3.5,3.5,2.2,1.8,5.5c-0.6,1.1-4.4,1.8-3.5,3.2c0.9,1.5,1.8,2.7,0.5,4.3c-0.6,0.7-1.2,0.4-2,2.6c-0.8,2.2-0.9,2.1-2.7,3.4
			c-1.9,1.2-1.2,3.2-1.2,3.2s0,0.9,0.3,1.6c0.4,0.9,1,0.3,2.7,1.2c1.2,0.6,3.8,2.9,3.8,2.9s1.5,2.2,1.2,3.2
			c-0.1,0.6-1.6,1.5-1.6,1.5s-0.6-0.3-0.7,1.6c-0.1,1.1,0.7,1.8,1.4,3.8s0.6,3.1,1.2,3.6c0.6,0.4,1.6,1.5,1.2,2.4s-1.2,2.4-1.2,2.4
			l-0.8,1.5l1.9,3.7l3.9,3c0,0,0.7,2.2,0.8,3.4C2.5-91.8,2.7-87.8,2.7-87.8z"/>
		<path class="st2" d="M25-152.7c0,0,0.1-3.4,1.3-5.1c1.2-1.6,2.9-1.2,3.5-1.2s1.3,6.4,1.2,7.1c-0.1,0.7,2.7,3.1,2.4,3.6
			c-0.3,0.4,0.7-2.1,1.2-2.4c0.5-0.2,3.7-0.8,3.7-0.8s0.7,1.3,1,2s3.5,0,3.5,0l5.5,0.2c0,0-3.5,1.7-2.8,2.4c0.9,0.9,2.7,2,3.6,2.3
			c4.6,1.3,3,1.6,3.9,3.3c0.2,0.4,0.2,4.2,0.2,4.2s-3.1,0.7-4,2c-1.7,2.4-2.8,3.5-2.8,3.5s0.7,3.3,0.1,2.9c-1.6-1-6,0.6-6,0.6
			l-2.5,2.7l-4.2-1.5l-1.6,1.2c0,0-0.6,1.6-2.4,1.2c-1.7-0.5-3.5,0-3.5,0l-4.7-2.4c0,0-1,0-1.2-1.2c-0.3-2.7-0.6-3.6-1.2-4.7
			c-0.2-0.4-1.3-1.7-1.2-2.4c0.1-0.7,0-1.9,0.5-2.3c0.4-0.5,2-2.3,2-2.3s-1.1-2.6-0.1-4.9c1-2.3,1.4-6.2,1.8-6.8
			C23.3-153.3,25-152.7,25-152.7z"/>
		<path class="st2" d="M-30.3-84.3l0.1,3.3c0,0,0.2,0.7,2.2,2.7c2,1.9,4.7,1.2,4.7,1.2l-1.2-4.7c0,0-0.2-1.2,0-2.4
			c0.2-1.2,2.6-2.7,3.5-3.6c1-0.9,3.3-1.5,4.7-1.2s2.6,1,3.5,2.4s2.3,1.8,2.4,3.6c0.1,1.8-0.3,3,1.2,3.6S-5.7-77-5.7-77h3.5
			c0,0,1.5-1.9,2.4-2.4c0.7-0.5,0.6-2.8,0.6-2.8S0.5-84,1.5-85.5c1.1-1.5,1.2-2.3,1.2-3.6c0-3.9-1.2-7.2-1.6-7.5
			c-0.5-0.3-3.4-2.7-3.9-4.3c-0.5-1.6-0.6-2.6-2.7-2.4c-2,0.2-3.9-0.1-5.1,0.9c-1.2,0.9-2.9,1.3-4.3,1.5c-1.5,0.2-4,0.9-4.4,0.2
			c-0.3-0.7-1.1-0.7-1.2-1.3c-0.1-0.6-1.1-4.1-3.2-6.5c-1.1-1.3-1.4-1.4-3,0.6c-1.1,1.4-2.4,2.4-2.4,2.4s-3.5-4-3.5-3.6
			s-0.3,4.6-0.3,5.1c-0.4,4.3-1.1,7.9-0.9,9.1c0.2,1.2,0.8,3.3,0.8,3.3c0.4,0.5,1.1,3.1,1.1,3.1l1.6,1.3L-30.3-84.3z"/>
		<path class="st2" d="M-3.1-144.6c1.3-2,2.3-2.8,1.1-3.6c-1.3-0.9-1.3-1.5-1.9-2.1c-0.8-0.9-1.3-2.7-1.5-3.9s-0.3-0.7-1.9-1.4
			c-2.5-1.1-1.8-0.7-3.6-0.6c-1.1,0.1-0.7,1-2.9,0.9s-4.1-2.2-4.8-1.6c-0.7,0.7-1.1,1.2-2.3,2.7s-2.2,4.4-3.5,4.7s-5.3-0.5-6.3-1.2
			c-1.2-0.7-2.6,0.1-3.1-1.2c-0.5-1.1-3.1-1.8-2.7-3.4c1-3.7-0.8-4.9-0.8-4.9s-1,0.3-2.4,1.2s-2.4,2.4-2.4,2.4s-1.8,2.1-2.4,1.2
			c-0.5-0.9-2.4-2.4-2.4-2.4s-2,3.5-1.2,4.7c0.8,1.3,2.6,2.4,2.4,3.6c-0.2,1.2,0.3,2.2,0,2.9c-0.3,0.8-1.2,0.8-1.2,1.8
			c0.1,1-0.5,1.7-0.5,1.7s-1.5,1-1.9,1.9s-1.2,3.6-1.2,3.6s-0.6,1.8,0.5,2.8c0.5,0.5,0.7,0.7,1.9,1.9c1.4,1.4,1.3,1.9,3.8,1.6
			c2.5-0.3,2.5-0.7,4.1-0.2c1.3,0.5,1.7,0.7,3.9,1c2.2,0.2,3.1,0.4,3.5,1.2s1.7,1.1,1.2,2.4c-0.5,1.3-2.4,3.6-2.4,3.6
			s-2.4,1.2-1.8,1.4c0.5,0.2-0.9,3.2-0.5,3.3c0.4,0.1,1.4,0.5,1.4,0.5s1.3,2.4,1,3.1s1.2,5.9,1.2,5.9l3.5,3.6c0,0,0.9-1.1,2.4-2.4
			c0.8-0.7,0.9-2.7,2.4-1.2s1.6,1.5,2.4,3.6c0.9,2.6,1.7,4.1,2.4,4.7c0.6,0.6,3.5,0,3.5,0s2.8-0.4,4.7-1.2c1.9-0.8,2.3-0.9,3.5-1.2
			s4,0.4,4,0.4l2.2-4.3l-0.9-1.5c0,0-1.2-0.2-1.2-1.6s0-1.7-0.9-3.1c-0.8-1.3-1.5-3.2-0.9-4s2.1-2.1,2.1-2.1l-0.9-2.6
			c0,0-0.4-1-2.4-2.4c-1.9-1.3-4.5-1.9-4.5-1.9s0,0-0.2-1.7c-0.2-1.7,0.2-2.8,1.2-3.6c1-0.7,1.8-1,2.4-2.4c0.5-1.4,0.5-1.9,2-3.1
			c2.1-1.7,0.6-3.6,0.6-3.6s-1.6-1.7-0.2-2.3L-3.1-144.6z"/>
		<path class="st2" d="M-52.7-108c0,0,6.6,5.2,7.1,5.9c0.4,0.7,3.2,4,3.5,4.7c0.4,0.8,3,7.2,3.5,7.1c0.5,0,1.2,2.4,2.4,4.7
			c1.2,2.4,2.7,2.8,2.4,3.6c-0.3,0.8-1.2,5.9-1.2,5.9s0.2,1.2,0,2.4c-0.2,1.2-2.7,4.2-2.4,4.7c0.4,0.6,1.1,3.9,1.2,4.7
			c0.1,0.8,1.4,3.9,1.2,3.6c0-0.1-0.1-0.1-0.1-0.1s0.4,0.6,2.5,1.3c2.6,0.9,2.5,0.4,4.7,1.2s3.3,1.8,4.7,2.4
			c1.4,0.6,4.3,3.1,5.9,3.6c1.5,0.5,2.9,1.6,3.5,1.2c0.6-0.5,2.4-2.4,2.4-2.4s0-1.6-1.2-2.4c-1.2-0.7-3.5-2.4-3.5-2.4s0.3-1.6,0-2.4
			c-0.3-0.8-1.6-2-2.4-2.4c-0.7-0.4-2.4,0-2.4,0s0.4-1.8-1.2-2.4c-1.5-0.6-2.4-2.4-2.4-2.4H-28l-1.2-1.2l-1.2-2.4l1.2-1.2
			c0,0,4.1-0.7,3.5,0s0,2.4,0,2.4l2.4-1.2v-2.4l1.2-2.4l-1.2-1.2h-2.4c0,0-2.4-0.6-3.5-2.4c-1.2-1.8-1-2.3-1.2-3.6
			c-0.2-1.3,0-4.2,0-4.2s0,0-1.2-0.5c-0.5-0.2-2.7-6.1-2.4-7.1s1.2-13,1.2-13s0-1.4-0.2-1.9s-1.3-4-1-4.7s0-3.3,0-3.3l-2.3-0.8
			c0,0-2.6-1-3.5,1.2s-1.2,2.4-1.2,2.4s-7.3,0.6-7.1,0s-1.4,0.1-2.4,1.2c-1,1.2-2.4,3.6-2.4,3.6L-52.7-108z"/>
		<path class="st2" d="M1.5-164.8c0-1.7,0.5,7,1,7s1.8,0,3.7,1.3c0.4,0.3,3.5,2.4,3.5,2.4s1.9,3.4,3.5,3.6c1.6,0.2,2,0.2,2.4,1.2
			c0.4,1,1.2,3.1,1.2,3.6s1.2,3.6,1.2,3.6s0.4,4.9,0.9,4.4c0.4-0.5,1.6-1.8,1.3-2.9c-0.9-2.9,0.3-3.7,0.6-5.2c0.4-1.5,0.9-3.9,1-4.4
			c0.3-1.2,1-2,1.5-2.2c0.9-0.3,1.6,0.5,1.8-0.5c0.2-0.9,0.1-4,0.8-4.3c0.7-0.3,0.2-1.1,1.7-1.5c1.2-0.3,1.4-0.8,2.4,0.3
			c0.9,0.9,0.9,6.7,0.9,6.7l2.4,3.6c0,0,0.1-1.7,1.2-2.4c1.1-0.7,1.5-0.4,3.1-0.7c1-0.2,1.1,1.4,1.6,1.9s3.1-0.1,3.5,0s3-0.3,3.5,0
			c0.6,0.3,2,0.2,2,0.2s1.1-2.8,0.4-3.8c-0.7-0.9-0.5-1.7-0.5-2.4s0.6-3.9,0.6-3.9l1-1.4c0,0,1.3-0.5,2.5-5.3
			c0.2-0.8,2.4-3.6,2.4-3.6s-0.5-3.2-1.2-3.6c-0.7-0.3-1.7-2-2.4-2.4s-1.2-2.8-2.4-3.6c-1.1-0.7-1.2-1-2.4-2.4s-2.9-4.2-3.5-3.6
			c-0.6,0.7-3.8,3.2-3.5,3.6c0.3,0.4-1.8,4.1-1.2,4.7c0.6,0.6,1.1,5.4,1.2,5.9c0.1,0.6,1.2,3.6,1.2,3.6l2.4,1.2v3.6
			c0,0,2.2,1-1.2,1.2c-3.3,0.2-7.1,0-7.1,0s-2.4-0.4-2.4-1.2s-1.9-0.5-1.2-2.4c0.8-1.9-1.2-3.6-1.2-3.6l-4.7-1.2l-1.2-2.4
			c0,0,0.4-0.6-1.2-2.4c-1.6-1.8-3.6-2.3-3.5-4.7s2.1-4,1.2-4.7c-0.9-0.8-2.9,0.9-3.5,1.2c-0.6,0.2-5.7,0.6-7.1,1.2
			c-1.4,0.6-3.1-1.6-4.7-1.2c-1.6,0.4-3.7,0.8-4.7,1.2s-2.4,1.2-2.4,1.2s-1.3,1.2-1.2,2.4c0.2,1.1,0,2.4,0,2.4s-3.1-0.1-2.4-1.2
			c0.8-1.1-0.3-6.1-1.2-4.7c-0.9,1.6-1.5,3.4-1.5,3.4l0.6,5.2c0,0,1.4,0.3,4.5,2c3,1.7,4.7,2.9,4.7,3.6
			C1.5-166.5,1.5-164.4,1.5-164.8z"/>
		<path class="st2" d="M-33.8-164.8c0,0-0.6-0.2-1.2,1.2c-0.6,1.4-2.9,3.7-2.4,3.6c0.5-0.1,1.2,1.8,1.2,2.4s-0.7,3.3,0.1,3.8
			c0.8,0.6,1,1.2,2.3,2.1c1.4,1,3.3,1.3,3.5,1.2c0.3-0.1,2.3,1.2,2.4,1.2c0,0,1.8,0.4,2.4,0s1.6,0.2,2.2-0.8s3.5-6.1,4-5.9
			c0.5,0.2,0.6-1.4,2.1-0.4s3.8,1.2,4.7,1.2s1.7-1.2,2.4-1.2c0.6,0.1,4.2,1.2,4.8,1.7c0.5,0.5,1.8-3.3,2.3-2.9
			c0.5,0.4,1.5,1.1,2.4,1.2c0.7,0.1,3.3-1.3,3.3-1.3l-0.3-0.7c-0.3-3-0.2-2.3-0.3-3c-0.3-3-0.2-3.1-0.4-5.8c0-0.2-1.6-1.1-2.3-1.7
			c-1.6-1.3-2.6-1.8-3.4-2.4s-3.8-1-3.7-1.6s0.2-1.3,0-2.4c-0.2-1.1-0.6-2.6,0-3.6s1.4-2.6,1.4-2.6s-3.7,0.8-5,0.2
			c-1.3-0.5-4.4-1.9-5.9-2.4s-5.9-1.2-5.9-1.2s0.4,1.8,1.2,2.4c0.8,0.6,5.5,1.9,5.9,2.4c0.4,0.4,2.4-0.2,2.4,1.2s1.4,1.5,0,2.4
			s-2.4,2.4-2.4,2.4s-2.6-0.6-2.4-1.2s-0.3-3.1-2.4-2.4c-2.1,0.7-4.7-0.1-4.7,1.2s-1,4-1.2,3.6s-1.2-1.2-1.2-1.2s-0.6-1.1,0-2.4
			c0.6-1.2,2.9-1.1,2.4-2.4c-0.5-1.3-2.1-1.4-2.4-1.2c-0.2,0.2-2.3,1.5-2.4,2.4s-1.3,2.8-1.2,3.6c0.1,0.8,1.7,1.8,1.2,2.4
			c-0.5,0.6-2.7,3.3-2.4,3.6c0.4,0.3,1,0.1,1.2,1.2c0.2,1.1,1.2,2.4,1.2,2.4L-33.8-164.8L-33.8-164.8z"/>
		<path class="st2" d="M-58.6-113.9c0,0,0,1.3,1.2,2.4c1.1,1.1,4.7,3.6,4.7,3.6s-0.2-1.3,0-2.4c0.2-1,1.5-2.6,2.4-3.6
			c1.5-1.7,1.6-1.1,3.5-1.2c2-0.1,4.7,0,4.7,0s1.1,0.4,1.7-0.9c0.7-1.5,1.8-2.7,1.8-2.7h2.4l0.5-3.3l2.4-2.1c0,0,0.4-1.3,1.3-1.8
			c0.9-0.5,0.4-1.9,0.4-1.9s0-1.8-2-2.3c-1.5-0.4-5.4-0.9-5.4-0.9s-2-1.2-2.9-0.7c-1,0.5-4.4,0.6-4.7,0s-2.9-2.3-2.4-2.4
			c0.1,0,0.1,0,0.1,0s-1,0.2-1.3-1.2c-0.3-1.6,0.8-5,0.2-3.2c-0.2,0.6-3.3,2.3-3.5,3s-2.6-1-2.6-1s1.4-1.9,1.2-2.4
			c-0.5-1-1.8-2.8-3.5-3.6s-3.8-0.5-3.5-1.2c0.2-0.7-0.4-0.5-1.2-1.2s-1.7-1.4-2.4-2.4s-1.6-1.7-2.4-2.4s-1.4-1.7-1.6-1.3
			s-3.7-2.1-4.3-1.1c-0.5,1-0.6,2.8-2.4,2.4s-2.4,0-2.4,0l-2.4,2.4c0,0-1.8,1.9-1.4,2.8c0.5,0.9-0.8,1.2,0.2,2s2.9-2.6,3.5-2.4
			s2.1,2.9,2.4,2.4c0.3-0.6,3.5-1.2,3.5-1.2s-0.9-0.5,1.2,1.2s2.5,0.7,3.5,1.2s-1.1,2.4,1.2,2.4c2.3-0.1,3.2-1.1,3.5,0s-0.8,5,0,4.7
			c0.8-0.3,3.4-0.3,3.5-1.2s0.7-3.7,1.2-1.2s1.2,3.8,1.2,4.7s-2,3-2.4,3.6c-0.3,0.5-2.2-1.1-2.4,1.2s-0.4,2.6-1.2,3.6
			s-1.6,1.7,0,2.4c1.7,0.6,2.7,0.7,3.5,2.4C-59-117-58.6-113.9-58.6-113.9z"/>
	</g>
	<g id="近畿_1_" class="st1">
		<path class="st2" d="M-39.7-173.1c0,0-2.5-2.9-2.4-3.6s0.4-3,0-3.6s-0.6-2.1,0-2.4c0.6-0.3,0.9-0.6,2.4-2.4
			c1.5-1.8,1.7-0.8,3.5-2.4c1.9-1.5,2.7-2.4,3.5-2.4c0.8,0,3.9-0.3,3.5-1.2s0.6-1.1,0-2.4c-0.6-1.2-2.9-2.9-2.4-3.6
			c0.5-0.7,0.1-2.5,0-2.4s-1.5,0.7-2.4,1.2c-0.9,0.5-3.3,2-3.5,1.2c-0.2-0.9-3-2.6-4.7-3.6s-2.8-0.1-4.7-1.2
			c-1.9-1.1-3.4-1.4-3.5-2.4s-1.3-2.1-1.2-2.4c0.1-0.3,0-3.1,0-3.6s0.1-3.6-1.2-3.6c-1.3,0.1-3.5-0.3-3.5-1.2
			c-0.1-0.9-1.6-2-2.4-3.6c-0.7-1.6-0.8-3.1-1.2-3.6c-0.4-0.4,0-2.4,0-2.4s-2.1-0.9-2.4-0.9c-0.6,0,0.4,1.5-1.5,3.4
			c-2.2,2.2-3,1.8-3.2,2.2c-0.5,0.9,0,1.5,0,2.4s1.8,3.2,2.4,3.6c1.1,0.8,0.7-0.3,2.4,1.2c1.3,1.3,1.3,2.4,2.4,2.4
			c1,0,2.5,0.6,2.4,1.2c-0.1,0.6-2.1,5.4-1.2,5.9s2.7,1.9,2.4,2.4c-0.4,0.4-0.9,1.4-1.2,2.4s-1.1,2.7-1.2,3.6
			c-0.1,0.9-0.2,2.8,0.4,2.5c0.6-0.3,4.7,0,4.3,1c-0.4,1.1,0.8,1.7,0,2.4s-3.4,1.9-3.9,2.2c-0.7,0.4-2.5,0.2-2,1.3
			c1.7,4,0.5,3.7,1.2,3.6c-0.5,0.1-2.3,1.7-2.1,2.1c0.2,0.5-0.4,1.5-0.3,2.6c0.2,1.6,2.1,2.8,2.5,3c1,0.4,2.3,0.5,3,1
			c0.3,0.2-0.7,1.8,3.6,0.8c1.6-0.4,4.6,4.1,4.6,4.1s0.7,1.2,0.7,1.9c0,1.2,0.5,2.5,0.5,3.3c0,0.7,0.3,3.7,0.4,3.6s-0.4,1-0.9,1.1
			s2.6,2.7,2.6,2.7l0.7-0.2l2.8-3c0,0,0.5,0,2.1-1.3c1.9-1.5,1.9-1.8,1.9-1.8s1.2-1.7,1.5-2.2s0-2.4,0-2.4s-1.9-1.4-2.4-1.2
			s-0.8-0.5-1.2-1.2C-38.9-169-39.7-173.1-39.7-173.1z"/>
		<path class="st2" d="M-69.2-164.8c0.2,0.8,0.9,2.8,1.2,4.7c0.3,1.9,0,3.6,0,3.6l-2.4,1.2l1.2,2.4c0,0-0.2,1.8,0,2.4
			c0.2,0.5,2.3,1.9,3.5,3.6c1.2,1.6,3.5,3.1,3.5,3.1s-0.3,0.7,2.3,1.2c1.7,0.3,3.1,1.7,3.1,1.7s2.7,1.7,0.8,4.7
			c-0.3,0.5,2.1,1.1,2.1,1.1s3.3-3.1,3.5-3.6c0.5-0.9,1.1-1.3,1.2-2.4c0.1-1.1,0.1-0.6,1.2-1.2c1.1-0.6,1.4-3.5,1.4-3.5
			s1.3-0.7,1-1.2s0-2.4,0-2.4s0-1.4-1.2-2.4s-1.2-0.2-1.4-2s0.8-3.7,1.4-3.9c0.6-0.2,1.5-0.4,1.2-2.4c-0.3-1.9-1.2-7.1-1.2-7.1
			l-2.1-2.8l-2.6-2c0,0-3.2,0.9-3.5,0s-2.9-1.6-2.9-1.6s-1.5-0.1-2.2-0.6c-0.2-0.2-2.3,0.5-3.3,0.3c-1.8-0.3-2.3,1.4-2.3,1.4
			s-1.9,0.1-2.2,0.5c-0.4,0.5,0.6,0.9,0.2,2.6c-0.4,1.7-0.2,3.3-0.2,3.3S-69.3-165.6-69.2-164.8z"/>
		<path class="st2" d="M-101.2-150.2c0,0,0.5,0.5,1.7,1.8s3.6,1.9,3.3,3.7c-0.3,1.8-0.4,2.6-1.7,2.1c-1.3-0.6-3.4-2.2-3.4-2.2
			l-0.8,2.5c0,0,0.3,4.1,0.1,4.1c-0.2-0.1-0.4,0.9,0.9,1.2s3.2,0.7,4.9,1.8c1.7,1.1,2.4,0.6,3.5,1.2c1.1,0.6,3.5,2.4,3.5,2.4
			s-0.1-1.4,1.2-2.4c1.3-1,3.6-1.5,2.4-2.4c-1.3-0.9-3.6,1-3.5-1.2c0-2.1-0.9-4,0-4.7c0.9-0.8,1.8-1.8,2.4-1.2s1.9,1.9,2.4,2.4
			s2.4,0,2.4,0s-0.6-1.1-0.3-2.1c0.2-0.5-0.4-1.9,1.7-4.1c0.9-0.9,0.8-1.7,2.1-2.1c1.2-0.4,2.9,0,3.5,0c0.7,0,1.5-2.6,1.5-2.6
			l4.4,1.4v-2.1l-1.2-2.7l2.4-1.2c0,0,0.2-1.1,0.1-3c-0.2-3-1.4-4.2-1.4-5c-0.1-1.1,0.7-0.5,1.4-1.5c0.4-0.6-0.5-1.3,0-2.4
			c0.5-1.1,0-3.6,0-3.6s1.1-0.2,2.5-1c2.6-1.5-0.3-0.2,0.8-0.7l5.7-0.5c0,0-1.6-1.1-1.8-2.4c-0.3-1.3,1.3-3.4-1.2-2.4
			c-2.4,1-4.9-1.4-5.9-1.2s-1.7,0.4-2.4,1.2c-0.7,0.8-1.8,0.9-2.4,3.6s-1.5,3.7-2.4,4.7c-0.9,1.1-1.8,1.1-1.8,1.1s-2-0.2-2.9,0.1
			s-3.5,3.4-4.3,3.9c-0.6,0.4,0.1,2.2-0.4,3.3c-0.7,1.5-1.4,1.8-2.4,2.4c-1,0.5-2.9,1.2-3.5,1.2s-0.3,0.4-1.7,0.9
			c-1.9,0.7-2.5,0.9-3.5,1.5c-3.2,1.8-5.6,5-5.6,5L-101.2-150.2z"/>
		<path class="st2" d="M-72.7-187.3c0,0,0.1,0.6,0.2,1.4c0.1,1.3,0.2,3.2-0.2,4.5c-0.6,2.1-0.2,4.3-0.2,4.3l0.2,1.6c0,0,0.9-3,2.8-4
			c2.5-1.3,2.4-0.7,3.6-0.1c1.4,0.6,2.6,0.8,2.6,0.8s2.7,0.2,3-0.5s0.3-0.7,0.6-0.9c1-1.2,1.5-1.2,1.5-1.2l-1.1-4.3
			c0,0,0.2-0.2,1.2-0.4c2-0.4,4.8-2.8,4.8-2.8l-0.2-2.1c0,0-0.5-1.1-2.4-1.2c-1.6,0-2.4,0.9-2.4-1.2c0.1-2.1,0.8-2.9,0.8-3.7
			s1.2-3,1.2-3s0.5-0.9-0.2-1.5s-2.1-1.1-2-2.2c0.1-1.1,1.4-4.3,1.4-5.1c0-1-2.5-0.2-3.3-1.5c-1.1-2-2.9-3.1-3.8-3.2
			c-0.8-0.1-2.2-2.9-2.2-2.9l-6.1,0.5c0,0-1.9,0.4-2.4,1.2c-0.4,0.8-0.8,2.2-1.2,4.7c-0.4,2.6-1.7,5.4-1.2,5.9
			c1.2,1.2,1.4,2.4,2.2,2.7c2.2,0.6,3.6,0.9,3.6,0.9s-2.5,3.8-2.4,4.7c0.2,1,0.5,2,0.5,2s0.8,1.1,1,1.9
			C-72.2-191-72.7-187.3-72.7-187.3z"/>
		<path class="st2" d="M-92.7-195.6c0,0,1.9-0.2,3.5,1.2s2.3,0.8,3.5,3.6c1.2,2.7,2.4,1.7,2.4,3.6c0,1.9,0,3.5,0,4.7s0,3.6,0,3.6
			s-0.8,2.2-0.4,3.7s0.5,2.7,0.4,3.4s0.2,1.8,0,3.1c-0.2,1.9-1,3.2-1,3.2l1-0.4c0,0,2.6-3.7,3.5-3.6s3.5,0,3.5,0s2.5-2.5,2.9-3.8
			s0.4-4.3,0.4-4.3s-0.2-2,0.1-3c0.3-0.9,0.5-0.8,0.4-2.6c-0.1-1.7-0.3-3.3-0.2-4.1c0-0.8,0.3-4.4,0.3-4.4l-1.5-2.7c0,0-4.2,0-4.7,0
			c-1,0-2.1-0.3-2.1-0.3s-2.2-2-3.1-1.9c-0.6,0-2.7-0.3-2.7-0.3s-2.2-0.2-3.4,0c-1.7,0.3-3-0.8-3.5-1c-0.5-0.3-1.8,1.1-1.8,1.1
			L-92.7-195.6z"/>
		<path class="st2" d="M-88-220.5c0,0,2.8-1.5,3.5-2.4c0.7-0.8-0.5-4.1,0-4.7c0.5-0.6,3.2-1.6,3.5-2.4c0.3-0.7,1.7-2.7,2.4-2.4
			c0.6,0.3,0.5-1.1,2.4-1.2c1.8-0.1,4.2-1.1,4.7-1.2c0.5,0,0.9-0.1,2.4,1.2s2.4,1,3.5,2.4s1.8,0.9,2.4,2.4c0.5,1.5,1,4.7,1,4.7
			l-1.3,2.6l-3.3,2.5l0.1,2.8c0,0-6.8,0.2-8,1.4c-0.8,0.8-0.8,1.8-0.8,1.8l-0.7,3.6l-1,3.3l-0.4,1.9c0,0,0.6,0.6,1.5,2.1
			c0.8,1.4,4.7,1.7,4.7,1.7s-0.6,1-1.1,1.7c-2,2.8-1.3,4.2-1.3,4.2l-4.1,0.2c-3.2,0-5.1-2.7-5-2.5c0,0-1.8,0.2-2.7-0.1
			c-0.8-0.3-5.9,0-5.9,0l-3.5-2.4c0,0,0.7-2.5,1.2-2.4s0.3-0.5,1.2-1.2c0.9-0.7,2.9-2.4,2.4-2.4c-0.6,0.1-2.4-1.2-2.4-1.2
			s-0.9-1.7,0-2.4s1.2-2.4,1.2-2.4s-1.5-0.9-2.4-1.2c-0.9-0.2-1.3,0.4-1.2-1.2c0.1-1.5,2.4-3.1,2.4-3.6s2.5-1.6,2.4-2.4
			C-90.5-220.1-88-220.5-88-220.5z"/>
		<path class="st4" d="M-63.3-155.4c0,0,3.9,2.5,3.5,3.6c-0.3,1,0,1.2,0,1.2s-0.4,1.7,0,2.4c0.4,0.6,2.1,0.6,2.4,1.2
			c0.2,0.6,1.2,1.2,1.2,1.2s1.8,0.3,2.4-1.2c0.5-1.4,0.5-2.2,1.2-2.4s1.7-1.4,1.2-2.4s0.2-1.9-1.2-2.4c-1.3-0.4-3.1-1.8-3.5-2.4
			c-0.5-0.5-2-1.5-2.4-2.4s-2.4-2.4-2.4-2.4h-2.4v-2.4l-1.2-3.6l-1.2,1.2l-0.2,3.8l1.4,4.5L-63.3-155.4z"/>
		<path class="st2" d="M-119.8-141.1c0,0,1.8,3.2,2.4,3.6c0.5,0.3,2.4-0.8,2.4,0s10.7-0.3,10.6,0s2.1,0.6,2.4,0c0.2-0.6,0-4,0-4.7
			c0-0.8,0.3-3.1,1.2-2.4s3.5,2.4,3.5,2.4s1.1-0.7,1.2-2.4c0-0.6,0.2-1.4-1.2-2.4c-1.4-1-2.9-1.7-3-2.3s-1.9-0.8-0.6-2.4
			c1.3-1.7,2.4-3,3.5-3.6s2.1-1.5,3.5-1.9c1.2-0.4,2.6-1.2,3.6-1.6c1-0.4,3-0.8,3.5-1.2c0.6-0.4,1.9-1.7,2.4-2.4s0-1.4,0-2.4
			s1.2-3.6,1.2-3.6s-0.2-2.4,0-3.6c0.2-1.1-0.5-4.9-1.2-5.9c-0.7-1.1-0.5-1.9-2.4-2.4s-4.4,0.1-4.7-1.2c-0.3-1.3-2.7-2.7-3.5-2.4
			c-0.8,0.4-2.9,0.7-3.5,1.2s-2.4,0.6-3.5,2.4c-1.1,1.8-3.5,3.6-3.5,3.6h-4.7c0,0-6.8-0.6-8.2-1.2c-1.4-0.6-2.5-2.7-3.5-1.2
			s-2.4,4.7-2.4,4.7s-1.1,1.7-1.3,5.3c-0.1,1.5,0.5,3.5,2.5,5.4c1.7,1.6,3.3,3.6,3.5,4.7c0.3,1.7,0,3,0.7,4.2c0.5,0.9,1.4,1,1.9,2.2
			c0.7,1.4,1.4,2.5-0.2,4.2c-1.5,1.5-3.2,3.2-3,3.9C-120.3-143.7-119.8-141.1-119.8-141.1z"/>
		<path class="st2" d="M-110.4-196.8c0,0,1.2,2,2.4,3.6c1.2,1.5,2.1,2.4,3.5,3.6c1.5,1.1,4.7,3.6,4.7,3.6l2.4,1.2c0,0-2-2.6-2.4-3.6
			c-0.3-1-2.4-3.6-2.4-3.6v-2.4c0-0.9,0.1-1.8,1.2-2.4c1.1-0.6,1.2-2.4,1.2-2.4s-1.2-0.3-2.4-1.2c-1.1-0.8-2.7-0.6-2.4-1.2
			c0.3-0.6-1.7-2-2.4-1.2c-0.7,0.9-2.4,3.6-2.4,3.6h-1.2L-110.4-196.8L-110.4-196.8z"/>
	</g>
	<g id="中国_1_" class="st1">
		<path class="st2" d="M-161.1-145.9c0,0,6.3-1.2,7.1,0s1.2,1.2,1.2,1.2h7.1c0,0,0.3-1,2.4-1.2c2-0.2,5.3-0.7,5.9,0
			c0.6,0.7-0.7,2.2,1.2,2.4s3.3-1.4,4.7-1.2s3.3,0.3,4.7,1.2c1.4,0.9,3.9,3.6,4.7,3.6s3.9,1.4,3.9,1.4c-1.1-2.6-1.2-2.5-1.6-3.8
			c-0.2-0.8-1.3-2.3,0-3.6s3.5-3.6,3.5-3.6s-0.8-3.1-1.2-3.6c-0.4-0.5-1.9-1.6-2.4-2.4s-2.7-1.2-4.7-2.4c-2-1.1-4.5-0.9-4.7,0
			c-0.2,0.9-0.7,2.9-2.4,3.6c-1.7,0.7-4,2.7-3.5,2.4c0,0-1.9-0.9-2.4-1.2s-1.8-2-2.4-2.4c-0.6-0.4-3.6-0.5-3.5,0
			c0,0.5-0.5,2.9-2.4,2.4s-2.5,0.1-3.5-1.2s-1.8-0.7-3.5-2.4c-1.8-1.7-3.5-2.4-3.5-2.4s-0.7-1.1-1.4-1.9c-0.5-0.6-2.3-1.8-2.3-1.8
			s-0.1-0.7-1-1c-1.2-0.5-6.4,0.2-5.9,0s-0.1,0.9,0,2.4s0.4,1.6,2.4,3.6s3.5,1.5,3.5,3.6s-0.4,2.3,0,3.6
			C-160.6-149.4-161.1-145.9-161.1-145.9z"/>
		<path class="st2" d="M-153.1-189.1l-2.7,5.5c0,0-0.4,0.9-1.8,3.4c-1.6,3.1-0.9,4.2-1,5.3s-1.3,3-1.3,3s-1.3,2.8-1.2,3.6
			c0.3,1.9,0,4.7,0,4.7l4.7,4.7c0,0,1.2,0.4,2.4,1.2c1.8,1.2,5,3.7,5.5,4c0.8,0.5,2.5,0.7,2.8,0.7c1.7,0.3,2.5-2.6,2.5-2.6h3
			l2.4,2.3l2.6,1.4l2.3-1.7c0,0,1.9-0.9,2.4-1.5s1-2,1.2-2.7s1-0.9,2.1-0.8c1.4,0.2,4,1.3,5,1.9c1,0.6,2.6,1.6,2.6,1.6
			c0-1.5-0.3-3.9-0.3-3.9s-1.7-3-2.4-3.6c-2.3-1.8-3.5-4.7-3.5-4.7s-0.5-0.8,0-3.1c0.5-2.4,0.7-3.2,1.2-4s-0.2,0.2,0.6-1.5
			c0.8-1.6,1.7-3.3,1.7-3.3s-2.5,1.2-3.5,0c-1.1-1.2-2.4-2.5-3.5-3.6c-1.1-1-1.9-1.2-3.5-2.4c-1.6-1.1-3.9-3-3.5-3.6
			s-0.7-2.4-3.5-2.4s-5.9,0-5.9,0l-1.2,2.4l-1.2-2.4l-2.6,0.6L-153.1-189.1z"/>
		<path class="st2" d="M-217.7-182.1c0,0,3.6,1.4,4.8,3.1c1.2,1.7,6,7.4,7.1,8.3c1.1,0.9,3.4,3.4,4.7,4.7s3.5,2.4,3.5,2.4l2.4,1.2
			c0,0,4.1,4.1,4.7,4.7c0.6,0.7,2.7,1.8,3.5,2.4c0.8,0.5,1.9,0.9,2.4,1.2s-0.7,4.3,0,4.7c0.7,0.5,2.4,2,2.4,2.4
			c-0.1,0.4,4.7,2.4,4.7,2.4s2,2.5,3.5,2.4s4.1-1.5,4.7,0c0.6,1.5,9.4,0,9.4,0l-1.2-3.6c0,0,0.4-2.9,0.1-4.4
			c-0.5-2.7,0.8-3.7-0.6-5.3c-1-1.2-3.2-2.3-3.6-2.7c-0.8-0.8-1.8-2.4-1.8-2.4s0.3-2.6-0.1-2.7c-1.6-0.3-5.8-0.1-7-0.3
			c-1.9-0.3-3.2,0.9-3.5,0s-1.3-2.2-2.4-3.6c-0.7-0.9-0.9-0.1-2.2-1.1c-1.2-1-1.1-1.5-1.1-1.5s3.2-1.6,2.7-2.7
			c-0.2-0.3-4.4-2.7-4.4-2.7s-1.6-1.1-3.8-1.5s-5.8,1-7.1,0.7c-0.7-0.2-1.9,0.2-2.9-0.7s-2.1-1.6-2.5-2.1c-0.3-0.4-0.6-0.1-1-1.4
			c-0.8-2.3,0-3-0.7-4.1c-0.9-1.2-2-2-3.1-3.6c-0.9-1.4,0-3.9-0.9-5.3c-0.7-1.2-1.4-3.3-2.4-3.6c-1.2-0.3-6.7,0.3-6.7,0.3
			s-2.3,0.6-1.6,1.5s1.2,2.1,1.2,2.1s-0.6,0.3-1.2,0.9c-0.5,0.6-1.1,1.1-1.7,2.4c-0.7,1.6-1,3-0.3,3.7
			C-219.1-185.3-217.7-182.1-217.7-182.1z"/>
		<path class="st2" d="M-201.2-201.2c0,0,3.2,2.6,3.6,3.2c0.5,0.6,3.5,3.6,3.5,3.6h2.4l2.4-2.4c0,0-0.7-4.6,0-4.7s2.5-1.4,3.5-1.2
			s5.1,2.3,4.7,2.4c-0.1,0-0.1,0-0.1,0s0.5,0.1,1.3,1.2c0.9,1.4,3.9,2.9,3.5,2.4c-0.4-0.6-0.6,0.6,1.2,0s4-0.3,4.7,0
			s1.8,1.9,2.4,2.4c0.6,0.4,1.2,1.2,1.2,1.2s3,1.1,3.5,1.2c0.6,0.1,1.5-0.2,2.4-1.2s1.4-1.6,2.4-1.2c1,0.4,2.7,2,3.5,2.4
			c0.8,0.3,2.4,2.8,2.4,2.8l-2,3.8c0,0-1.1,1.7-1.5,2.9c-0.2,0.8-1.1,1.5-1.2,2.4c-0.2,2.2-0.9,1.2-1.2,3.6c-0.1,0.5,0.4,1.3,0,2.4
			c-0.9,2.6-1.6,2.8-2,3.9c-0.5,1.3-0.5,2.2-0.4,3.2c0.1,0.9,0,3.6,0,3.6h-5.4l-1.4,0.3l-7.8-0.3c0,0-1.2,0.9-1.9,0
			c-0.8-0.9-1.5-3.1-2.4-3.6s-4-1.8-3.5-2.4c0.4-0.6,4.3-2.5,2.4-3.6s-3.5-1.9-4.7-2.4s-3.5-1.6-4.7-1.2s-3.4,0.8-3.4,0.8l-4.2-0.2
			c0,0-1-0.9-1.7-1.5s-1.6-1.2-2.5-2.7c-0.7-1.1-0.4-4.5-1.2-4.7s-1.7-1.8-2.4-2.4c-0.7-0.6-0.7-2.8-0.8-3.9c-0.1-1.3-0.2-1-0.1-2.2
			c0.2-1.7,3.4-2.4,3.2-3.4s-0.5-2.3,0-3.6C-202.8-202.2-201.2-201.2-201.2-201.2z"/>
		<path class="st2" d="M-247.1-201.5c0,0-3.1,4.8-2.4,4.7c0.8-0.1,2.2-0.7,3.5,1.2s1.6,4.1,2.4,3.6c0.7-0.6,4.7-2.4,4.7-2.4
			s0.4-2.8,2.4-1.2c1.9,1.6,2.2,1.5,3.5,2.4c1.3,0.8,2.6,2.9,3.5,3.6c0.9,0.7,2.4,2.4,2.4,2.4s2.3,0.2,2.4,1.2
			c0,0.9-0.4,1.9,1.2,3.6s5,0.7,4.7,1.2s1.3-0.1,1.2-1.2c-0.1-1-2.6-3-2.4-4.7c0.2-1.7,0.8-2.7,1.2-3.6c0.4-0.9,2.5-1.2,2.4-2.4
			c-0.2-1.2-1.7-1.1-1.2-2.4c0.6-1.3,4.7-1.2,4.7-1.2l3.8,0.1l2.1,3.4c0,0,0.5-0.7,1.2-1.2c0.6-0.4,2.3-1.8,2.4-2.4
			c0.1-0.6-0.4-3.3,0-3.6c0.3-0.2,0.5-1.3,1.2-1.2s1,0.7,1.3-0.3c0.3-1.4,0.6-1.3-0.1-3.3c-0.7-2,1.5-2.2,1.2-3.6
			c-0.3-1.3,1.2-3.1,0-3.6s-1.9-0.5-2.4-1.2c-0.4-0.6-1.9-1.6-1.2-2.4s3.1-2.4,2.4-2.4c-0.7,0-4.7,2.4-4.7,2.4l-3.5,1.2
			c0,0,0.1-0.1-2.4,2.4c-2.4,2.4-4.9,2.9-5.9,3.6c-1,0.7-1.9,0.9-2.4,0s-1.4-0.4-2.4-1.2s-5.9,0-5.9,0s0.7-2.1,0-2.4
			c-0.7-0.2-3.5,2.4-3.5,2.4v-2.4c0,0-0.3-0.8-1.2-1.2s-3.4-1.4-4.7,0c-1.4,1.4-0.9,1.6-2.4,2.4s-1.7,2.3-2.4,2.4s-0.3-0.8-1.2-1.2
			c-0.8-0.4-2.5-0.2-2.4-1.2c0.2-1,0.7-2,0-2.4s-2.2,1.8-2.4,2.4c-0.2,0.6-0.2,2-1.2,3.6c-1,1.5-1,1.8,0,2.4
			C-248.4-204.6-247.3-201.4-247.1-201.5z"/>
	</g>
	<g id="四国_1_" class="st1">
		<path class="st2" d="M-204.7-238.3l5.9,4.7l4.7,1.2c0,0,2.6,2.9,2.4,2.4c-0.3-0.5,1.4,2.3,2.4,2.4c1,0.1,2.3,0.3,3.5,1.2
			s3.6,0.9,3.5,2.4s-0.8,8.1,0,8.3s2.5-0.3,2.4,1.2c-0.2,1.4,1.2,3.2,1.2,3.6c0,0.4,2.4,1.2,2.4,1.2l2.4,4.7c0,0,0.1-0.2,1.2-1.2
			c1-1,4.6-5.2,4.7-5.9c0.1-0.7,1.3-2.5,3.5-2.4s4.1,2.6,4.7,2.4c0.6-0.2,4.9-1.4,5.9-1.2c1,0.3,4.7,3.6,4.7,3.6l2.2-1.1
			c0.8-3.7,1.1-3.6,1.7-5.4c0.4-1.1-3.2-0.6-3.2-0.6s-3.7,0.2-6.6-0.8c-2.9-1-6.6-1.5-8.4-1.5c-1.5-0.1-1.1-0.8-2.1-2.4
			c-1.2-1.9-2.5-4.8-2.8-6.1s-0.8-2-1.5-3c-1.2-1.7-2.1-1.8-2.7-2.7c-0.5-0.8-1.4-1.5-2.7-1.2s-2,0.1-2,0.1s0.7-2.6,1-3.3
			c0.4-0.8,0.9-2.7,0.2-3.8s-2.3-0.5-2.7-1.5c-0.5-1-0.6-0.7-1.4-2.1c-0.9-1.5-3.4-2.1-4.1-2.3c-0.7-0.3-0.9-3.3-0.6-4.2
			c0.5-1.1,2.7-0.1,2.9-0.7c0.2-0.6-1.2-4.6-1.2-4.6s-2.9-0.6-4.7,0s-3.5,3.6-3.5,3.6s-0.4,0.6,0,1.2c0.4,0.6-1.2,3.6-1.2,3.6
			l1.2,2.4l2.4,2.4l-1.2,2.4c0,0-1.9-2.9-2.4-1.2c-0.4,1.7-1.2,3.6-1.2,3.6v2.4l1.2,2.4h-1.2c0,0-1.4,1.2-2.4,0
			c-0.9-1.2-3-3.9-3.5-3.6c-0.5,0.4-3.5-1.2-3.5-1.2L-204.7-238.3z"/>
		<path class="st2" d="M-182.3-264.3h-3.5l2.4,3.6v3.6c0,0,0.5,1.1,0.8,2c0.1,0.5,0.4,2.7,0.4,2.7s-3.2-0.2-3.2,1
			c0.1,1.3,0.1,4.1,0.8,3.8s3.5,1.2,3.5,1.2s1.3,2.9,2.4,3.6c1.1,0.6,1.6,0.6,2.4,1.2c0.8,0.5,0.1,3.9,0,3.6
			c-0.1-0.3-1.2,3.6-1.2,3.6h3.5l2.4,2.4l2.4,2.4l1.2,3.6c0,0,1.9,3.8,2.4,4.7s1.3,2.5,2.4,2.4c1-0.1,6.6,0.7,7.1,1.2
			c0.4,0.5,7.1,1.2,7.1,1.2h3.5c0,0,2.9-0.1,3.5-1.2c0.6-1.1,4.7-3.6,4.7-3.6l2.4,2.4h2.4c0,0-0.3-3.9,1.2-4.7s3.8-0.5,3.5-1.2
			s-0.2-2.5-0.3-3.9c-0.1-1.3-0.7-1.7,1.8-1.8c3,0,4.6-0.2,4.6-0.2s-1.8-2.4-2.5-3.6c-0.7-1.2-1.8-3.8-2.4-4.7s-1.3-2.8-1.2-3.6
			c0.2-0.7-1.2-1.2-1.2-1.2s-0.7-0.4-2.4,2.4c-1.7,2.8-0.6,2.9-2.4,4.7c-1.8,1.9-3,1.7-3.5,2.4c-0.5,0.6-1.2,2.5-3.5,2.4
			c-2.3-0.2-4.7,1.2-4.7,1.2s-3.4-1.5-3.5-1.2s-2-0.2-3.5-1.2s-2.5-1.7-2.4-2.4c0.2-0.6-0.7-0.6-1.2-1.2c-0.5-0.6-4.7-1.2-4.7-1.2
			s-0.8-1.7-1.2-2.4c-0.2-0.4-0.4,0-0.3,0c0,0,0.1-0.2,0.3-1.2c0.5-2.2,0-3-1.2-4.7s-2.9-2.5-3.5-3.6s-1.1,0.5-1.2-1.2
			c-0.1-1.7,0.6-3.4-1.2-3.6c-1.8-0.2-2.7-1.2-2.4-2.4c0.3-1.2,0.4-1.8,0-2.4s-1.2-1.2-1.2-1.2s-0.8-1.7,0-2.4
			c0.8-0.7,4.7-3.3,3.5-3.6c-1.2-0.2-6.4,1-5.9,1.2c0,0-1.8-0.3-2.4-1.2c-0.5-0.9-3.5,0-3.5,0L-182.3-264.3z"/>
		<path class="st2" d="M-149.3-200.4c0,0,4.2,0.5,4.7,1.2s3.5,1.7,4.7,3.6c1.2,1.9,1.4-0.1,3.5,0s3.7-1.2,4.7,0s2.4,1.2,2.4,1.2
			s4.3-3.1,4.7-3.6s2.6-2.2,3.5-2.4s3.5-1.2,3.5-1.2l-1.2-3.6c0,0-0.8,1-2.3,2.3c-0.4,0.3-4.4-0.9-5.7-1c-2.1-0.1-2.5,0.1-3.4-1.5
			c-0.7-1.2-1.6-2.2-1.6-2.2l-3.1,0.8l-1.2,0.7l-4.7-0.6c0,0-1-1.1-2.1-1.8c-1-0.6-3.5-1.8-3.5-1.8l-0.7-0.9l-2.4,1.2
			c0,0-1.4,2.3,0,3.6s2.8,3.6,2.4,3.6C-147.4-202.8-149.3-200.4-149.3-200.4z"/>
		<path class="st2" d="M-111.6-203.9c-0.4-1.3-3.4-3.4-2.4-4.7s1.7-1.4,2.4-2.4s1-2.7,1.2-3.6c0.2-0.8,0.6-3.6,1.2-3.6
			s1.2-1.2,1.2-1.2s-4.9-0.8-5.9-2.4c-1-1.6-1-3.3-2.4-3.6c-1.3-0.3-2.8-2-3.5-2.4s-1.8-3.8-2.4-3.6s-6.2,0.3-6.2,0.3
			c0,1,0,0.9,0,3.1c0,1.7,0.2,2.8,0.2,2.8s-3,0.5-3.5,0.9c-0.7,0.7-1,4.3-1.2,4.4c-1.1,0.5-2.3,0.4-2.3,0.4s-1.9-2.5-2.4-2.4
			c-0.5,0.2-3.6,2.1-4.2,2.9c-0.3,0.4-1.5,1.3-1.5,1.3l-2.2,0.9l-1.7,5.5c0,0,1.4,1.3,3.7,2.4c2.3,1.1,2.1,2.2,3.5,2.4
			c1.4,0.1,4.2,0.8,4.7,0s3-1.2,3.5-1.2c0.6,0,2.4,3.6,2.4,3.6s2.1-0.1,2.4,0c0.9,0.3,5.9,1.2,5.9,1.2l2.4-2.4l1.2,3.6l1.2,1.2
			l4.7-2.4C-111.6-202.7-111.2-202.6-111.6-203.9z"/>
	</g>
	<g id="九州_1_" class="st1">
		<path class="st2" d="M-277.7-232.3c0,0-0.4,0.8,0,2.4c0.4,1.5,4.7,3.6,4.7,3.6s2.2-4.4,3.5-3.6c1.3,0.9,1.8,2.4,2.4,3.6
			c0.6,1.1,0,2.4,0,2.4l2.4,3.6c0,0-0.4,0.4,0,1.2s-0.4,1.5,2.4,2.4s3.7-0.9,4.7,0s1.7,1.6,2.4,2.4c0.6,0.8,3.9,0.8,4.7,0
			s3.1-2.2,3.5-1.2c0.5,1.1,0.8,0.5,1.2,0s0.8-3.6,1.2-4.7c0.3-1.2,1.2-2.1,2.4-3.6c1.1-1.5,0.7-3.6,2.4-3.6
			c1.7,0.1,2.4-1.2,2.4-1.2s0-1.8-0.3-2.6c-0.2-0.7,0.4-1.1-2.2-1c-2.6,0.1-3.3,0.4-4.1-0.1s-1.3-2.5-2.8-3.4
			c-1.6-0.9-2.6-1.6-2.7-2.6s0.7-1.5,0.4-2.1s-1.4-1.6-1.2-2.6c0.1-1,0.9-1.7,1.2-2.1c0.3-0.5,0.3-4.6,0-5.9c-0.1-0.5-3.7,0-4.7,1.2
			s-2.2,2.1-2.4,1.2c-0.2-0.9-3.6-0.5-4.7-2.4s-4-5.2-3.5-5.9s-1.2,3.6-1.2,3.6s-1.5,2.8-1.2,3.6c0.3,0.7-1.2,1.2-1.2,1.2l-1.2,1.2
			c0,0,0.8,1.9,1.2,2.4c0.4,0.5,1.4,2.4,2.4,2.4c0.9-0.1,0.6,0,2.4,1.2c1.7,1.2,2.1,0.8,2.4,2.4c0.3,1.6-1.2,3.6-1.2,3.6
			s-1.4,0.9-2.4,0c-0.9-0.9-2.4-2.4-2.4-2.4l-2.4,2.4l-1.2,1.2c0,0-2.5,1.7-2.4,1.2c0.2-0.5-1.2-1.2-1.2-1.2l-2.4-1.2
			c0,0-1.6,0.5-1.2,1.2C-277.3-234.1-277.7-232.3-277.7-232.3z"/>
		<path class="st2" d="M-230.6-230c0,0,4.6,1.4,4.7,2.4c0.1,1,1.5,3.9,2.4,3.6c0.9-0.3,3.3-1.7,3.5-2.4s1-2.6,1.2-3.6
			c0.2-0.9-0.4-2.8,0-3.6s1.8-2.7,0-3.6c-1.8-0.8-3.5-1.2-3.5-1.2s-0.2-1.2-1.2-1.2c-0.9,0-3.3-3-2.4-3.6c1-0.5,3.5-1.2,3.5-1.2
			l3.5,1.2c0,0,0.6-0.7,1.2-1.2c0.6-0.5,1.9-0.7,2.4,0c0.4,0.7,0.1,3.2,1.2,2.4c1.1-0.8,2.3-1.9,2.4-2.4c0-0.5-2.3-2.1-2.4-3.6
			c-0.1-1.4-0.3-1.7,1.2-2.4c1.4-0.6,1.9,1,2.4-1.2s-0.9-2,0-3.6c0.9-1.5,1.6-3.1,2.4-3.6c0.8-0.4,0.9-0.6,1.2-1.2s-1.6-3.1-2.4-3.6
			c-0.7-0.4-1.1-0.7-2-1c-0.8-0.4-2.2-0.1-2.7,0.6s-0.9,1.8-1.5,1.5c-0.7-0.3-3.2-2.2-3.2-2.2s-4-0.6-5.9-1.2
			c-1.3-0.4-1.2,0.1-2,1.2c-0.3,0.4-1.5,2.9-1.5,2.4s-2.4-2.4-2.4-2.4s-1.9,0.5-2.4,1.2s-0.3-0.1-1.2,2.4c-1,2.8-1.9,2-2.4,4.7
			c-0.4,2.8,0.7,3.6-1.2,5.9c-1,1.3-1.3,3.4-1.9,3.5c-0.8,0.2-4,0.1-4,0.1s-1.3,2.1-1.2,0.4s1.2-5.1,1.2-5.1s1.9-0.2,1.3-0.7
			c-0.6-0.4-4.1-3.8-4.9-2.9c-0.8,0.9-2.4,3.6-2.4,3.6v2.4v3.6c0,0-1.6,1.3-1.2,2.4c0.4,1.1,1.3,3.1,1.3,3.1s-1.5,1.4,0.6,3
			c2.7,2,0.9,0.4,2.9,2.2c1.2,1.1,1.8,2.7,2.6,2.5c0.7-0.2,4.4-0.1,4.4-0.1l0.8,0.4l0.4,3.2h4.7L-230.6-230z"/>
		<path class="st2" d="M-289.5-240.6c0.8,0,2.2-0.6,2.4,1.2c0.2,1.8-1.7,3.3-1.2,3.6c0.5,0.2-1.6,0.7,0,2.4s3.5,4.1,3.5,3.6
			c0.1-0.5,2.8-0.5,2.4-1.2c-0.5-0.7,0.8-2.8,1.2-3.6c0.4-0.7,0.2-2.1,1.2-1.2c1,0.9,2.2,0.9,2.2,0.9s0.6-0.7,1.4-0.9
			c0.8-0.3,2.9,1.5,2.9,1.5l0.9,0.9c0,0,2.9-1.3,3.3-2.4c0.4-1.1,1.7-2.2,2.4-2.4c0.6-0.1,2.7,2.6,2.7,2.6s2-0.3,2.6-1.4
			c0.6-1.1,0.5-1.3,0.5-2.4c0-1.1-1.7-1.5-2.9-2.6c-1.2-1.2-2.6-0.9-3.4-2.1c-0.8-1.2-1.4-2.2-1.4-2.2s-0.1-1.1-0.9-1.4
			c-0.7-0.3-0.6,0.1-1.4,0.3s-1.8,1-1.8,1s0.2,0-1.2-1.2c-1.3-1.2-2.5,0.4-2.4-1.2c0.1-1.6-0.8-1.8,0-2.4c0.8-0.6,1.9-0.8,2.4-2.4
			c0.4-1.6,0-2.4,0-2.4s-1.4,1.4-3.2,1.3c-1.8-0.2-1.2-0.4-2.7,1.1c-1.6,1.7-1.9,2.7-2.4,3.6c-0.4,0.9-1.5,2.6-1.5,2.6
			s-1.8,0.3-2.7,0.7c-1.7,0.8-3.3,3.4-3.3,3.4S-290.3-240.7-289.5-240.6z"/>
		<path class="st2" d="M-275.3-260.8c0.7,0.4,4.3-0.2,5.9-1.2c1.6-0.9,1.6-2,2.4-2.4s1-2.5,0-3.6s-5.9-3.6-5.9-3.6s-4.3-0.3-3.5,1.2
			s2.6,1,2.4,2.4s-1.2,3.6-1.2,3.6s-0.6,1.6-1.2,1.2s-0.1-1.8-2.4-2.4c-2.2-0.5-3.3-0.5-3.5-1.2s-3-4.7-3.5-4.7s-3.4-4.7-3.5-2.4
			c-0.1,2.4,1.1,3.3,1.2,4.7c0,1.4,1.1,3.1,0,4.7c-1.1,1.7-2.6,2.5-3.5,3.6c-0.9,1-4.1,3.4-3.5,3.6s2.4,3.6,2.4,3.6v2.4
			c0,0,1.8-1.9,2.4-2.4c0.6-0.4-0.3-0.2,1.2-2.4c1.4-2.1,2.8-3,2.4-3.6c-0.5-0.6,1-0.4,1.2-1.2c0.1-0.8,1.7-1.8,2.4-1.2
			c0.7,0.6,3.3,0,2.4,2.4c-1,2.3-2.8,2.8-2.4,3.6c0.5,0.8-1.2,2.4-1.2,2.4s-0.5,2.3-2.4,2.4c-1.8,0.1-2.4,1.2-2.4,1.2
			s-1.4,1-2.4,1.2c-0.9,0.2-2.4,1.2-2.4,1.2s-0.4-0.6-1.2,0c-0.7,0.6-2.6,1.9-2.4,2.4c0.3,0.5,1.2,3,1.2,3.6c0,0.5,1.2,3.6,1.2,3.6
			l2.4-1.2l3.5-1.2c0,0-1-2.2,0-3.6c1-1.4,2.4-2.4,2.4-2.4l2.3-0.8c0,0,0.7,0.1,1.2-0.4s0.9-2,1.5-3.4c0.6-1.5,3.2-3.7,3.2-3.7
			s1.8,0.2,2.4,0s2.4-1.2,2.4-1.2s-0.4-0.5,0-1.2C-273.7-257.9-276.1-261.1-275.3-260.8z"/>
		<path class="st2" d="M-262.4-283.3c0,0,0.2-2.3-1.2-3.6c-1.4-1.3-3.2-1-3.5-2.4s-1.2-3.6-1.2-3.6c2.8-0.3,2.6-0.4,4.7,0
			c1.7,0.4,2.4,0.7,3.5,1.2s1.7-0.8,2.4-1.2c0.4-0.2-0.6-0.3,2.4-1.2c1.9-0.5,4.2-2.3,5.9-1.2c1.7,1.2,1.3,2.6,3.5,2.7
			s3.3,0.5,3.9,1s2,3.3,2,3.3s-0.5,2.4-0.6,3.3s-0.4,1.8-1,4c-0.4,1.5-1.3,2.6-1.9,3.6c-0.4,0.7-1.3,2.2-1.3,2.2l2.9,2.8
			c0,0,1.1,1.2,2.5,2.6s1.4,2.1,1.9,3.1c0.6,1.1,2,3.3,2,3.3l1.2,2.4l-1.2,2.4c0,0-1.3,1.8-1.2,2.4c0.2,0.6,0.1,2,0,3.6
			c-0.1,1.5-0.5,1.2-1.2,2.4s-1.3,3.5-2.4,3.6c-1.3,0-3.4-0.6-3.5,0c-0.2,0.6-1.2,1.2-1.2,1.2l1.2-5.9c0,0,2.2,0.1,1.1-1
			c-1.1-1.2-1.9-1.4-2.7-1.9c-0.6-0.5-1.2-1.1-1.6-0.8c-2.1,1.8-2.1,3.7-2.7,3.8c-0.6,0.1-1.7-0.1-3.1,0.3c-0.8,0.2-0.8,0.2-1.6,0.9
			s-1,2-1.9,1.5c-1-0.5-1.8-1-2.8-1.2c-0.7-0.2-2.2-0.8-2.6-1.8s-0.4-0.1-1.8-2.6c-1.5-2.7-1.6-2.7-1.5-3c0.5-1.5,1.1-2.1,2.4-3.6
			c1.2-1.4,1.3-1.7,2.4-2.4c1.1-0.7,1.7-1.2,1.2-2.4s-0.3-2.7-1.2-3.6c-0.9-0.8-5.9-3.6-5.9-3.6s4.6-1.2,5.9,0s3.7,3.1,3.5,2.4
			s-0.4-1.5-1.2-2.4c-0.8-0.9-2.3-1.4-2.4-2.4c0-1-0.8-2.5-1.2-3.6S-262.4-283.3-262.4-283.3z"/>
		<path class="st2" d="M-271.8-279.7c0,0,0,1.4,1.2,2.4c1.2,0.9,2.4,1.2,2.4,1.2h3.5v-2.4c0,0-1.8-1.9-2.4-2.4s-3.5-1.2-3.5-1.2
			L-271.8-279.7z"/>
		<path class="st2" d="M-281.2-280.9c0,0-0.5,2.2,1.2,3.6s3.5,2.4,3.5,2.4s0.7-0.4,1.2,0s0.7-0.3,1.2-1.2c0.4-0.9,1.5-2.4,1.2-3.6
			s-1.2-3.6-1.2-3.6s-0.6-2.4-1.2-2.4s-1.4-1.1-2.4-2.4c-0.9-1.2-3.5-2.4-3.5-2.4s-1.6,1.8-1.2,2.4s1.2,3.6,1.2,3.6L-281.2-280.9
			L-281.2-280.9z"/>
		<path class="st2" d="M-228.2-309.3c0,0,1.4-5.2,0-5.9c-1.4-0.8-2.7-1.7-2.4-2.4c0.3-0.7,0.4-1.9,0-3.6c-0.4-1.6,0.5-2.8-1.2-3.6
			c-1.6-0.8-5.7,1.5-5.7,1.5s-0.2,0.6-0.2,3.3c0,1.3,0,5.9,0,5.9l-5.7,2.6c0,0,0.3,0.3-0.3,1.3s-2.8,2.2-2.8,2.2l-3-0.3l1.2,3.6
			l-4.2,4.9l-1.1,3.3l-1.8,2.5l2.4-1.2l3-0.2c0,0,2,1.8,2.9,2.6c0.9,0.8,3.6-0.2,4.7,1.2s2.9,3.1,2.4,4.7c-0.6,1.6-1.9,8.4-2.4,8.3
			c-0.4-0.1-2.4,3.6-2.4,3.6s1.7,1.9,2.4,2.4s3.5,3,3.5,3.6c0,0.5,2.1,3.1,2.4,3.6c0.6,1.2,1.2,2.4,1.2,2.4l1.2,2.4
			c0,0,1.8-3.2,2.4-3.2c0.6,0.1,1-0.7,1.6-0.2c0.5,0.5,1.9,2.2,1.9,2.2l2.3-3.7c0,0,6,1.4,7.1,1.3s3.3,2.6,3.5,2.4
			c0.2-0.3,1.6-2.4,2.4-2.4c1.2,0,2.6,0.8,2.2,0.3c-0.7-0.9-2.6-4.9-3.3-5s-2-1.7-2.4-2.4c-0.4-0.7-1.9-3.7-2.4-3.6
			c-0.5,0.2,0.7-2,0-2.4s-3.4-4.2-3.5-5.9c-0.1-1.7-0.9-2.2-1.2-4.7c-0.3-2.6-2.7-5.3-2.4-7.1c0.3-1.8-0.9-2-1.2-3.6
			C-227.4-300.3-228.2-309.3-228.2-309.3z"/>
		<path class="st2" d="M-274.2-330.6c-0.4,0.3-0.7,4-1.2,4.7c-0.3,0.4-2.4,2.4-2.4,2.4s-0.5,1.6,1.2,1.2l4.7-1.2c0,0-0.8,2.1,0,3.6
			s2.1,1,2.4,2.4c0.2,1.4,0,3,0,3.6c0,0.5-2.5,3-2.4,3.6s-1.5,1.9-2.4,2.4c-0.9,0.4-2.4,2.4-2.4,2.4s2.1,1.5,2.4,2.4
			c0.2,0.9,0.4,3.1,0,3.6s-1.2,1.2-1.2,1.2v2.4l-1.2,2.4c0,0,1.2-0.4,2.4,0c1.1,0.4,2.8,1.3,3.5,1.2c0.7-0.1,2.4,0,2.4,0l2.9-0.3
			l3.7,0.8c0,0,2.3,1.3,2.8,0.7c1.3-1.5,3.5-2.4,3.5-2.4s0.5-0.6,1.6-2.2c0.6-0.9,0-1,0.8-2.6c0.7-1.6,1.3-2.6,2.4-3.6
			c1.1-1,2.4-2.4,2.4-2.4l-1.2-3.6c0,0,3.1,0.7,3.5,0s2.1-1.6,2.4-2.4c0.5-1.4,0.9-1.2,1.8-1.6c1.6-0.8,1.8-0.9,1.8-0.9l2.3-1.1
			v-4.7c0,0-0.1-3.4,0.2-4.4c0.2-0.5-3,0.9-3.8,0.9c-0.7,0-2.4-0.6-2.4-1.2c0.1-0.6,0-2.4,0-2.4s2.2-0.7,2.4-1.2
			c0.3-0.7,0-4.7,0-4.7s-0.1,0-1.2,0c-1.1,0-0.9,0.3-2.4-1.2c-1.4-1.5-2-2.5-3.5-3.6s-2.4,0-2.4,0l-2.4-1.2l-2.4-2.4
			c0,0-1.7-0.3-2.4,0c-0.5,0.3,2.6,5.2,2.4,4.7v-0.1c0,0,1.1,1.9,1.2,2.4c0.1,0.6,1.2,3.6,1.2,3.6v4.7c0,0-0.9,1-1.2,2.4
			s0,3.6,0,3.6h-4.7v3.6h1.2h2.4c0,0,0.4-0.9,1.2-1.2c0.8-0.3,1.2,1.2,1.2,1.2l1.2,2.4c0,0-1.8-0.3-2.4,1.2
			c-0.5,1.5-2.4,2.4-2.4,2.4l-2.4-1.2c0,0-1.4-5.2-1.2-5.9c0.2-0.7-1.2-2.4-1.2-2.4s-1.7,0.5-1.2-1.2s0.9-3,1.2-3.6
			c0.3-0.6-1.4-1,0-2.4s0.3-3.5,1.2-3.6c0.9-0.1,2.5-0.7,2.4-1.2s0.8-1.6,0-2.4s-4.1-1.6-4.7-1.2s-1.2,2.4-1.2,2.4s-0.3,2.9-1.2,2.4
			c-0.9-0.5-5.9-1.2-5.9-1.2S-273.8-330.9-274.2-330.6z"/>
	</g>
	<g id="沖縄_1_" class="st1">
		<g class="st5">
			<path class="st6" d="M237.1-305.3c-0.6-1.4-2.1-1.8-3.3-2.5c-1.6-0.9-2.2-2.7-3.4-4c-0.6-0.7-1.4-1-2-0.3
				c-0.7,0.8-0.2,3.1-1.3,3.2c-0.5,0-1-0.1-1.4-0.1c-0.5,0-1,0.2-1.5,0.2c-1.3,0.1-2.1-1.9-1.6-3c0.8-1.6,3-1.5,3.6-3.5
				c0.4-1.4-0.5-1.9-1.6-1.7c-1.4,0.2-2,0.1-3-1c-1.4-1.4-2.8-2.7-4.5-3.9c-1.1-0.9-0.9-2.2-0.5-3.5c0.2-0.6,0.6-1.1,0.5-1.8
				c-0.2-0.7-0.7-1.3-1.2-1.8c-0.9-0.8-2.2-1.1-2.7-2.3c-0.6-1.2-0.5-2.5-0.2-3.8c0.9-3.4,3.4-2,5.1-0.1c0.5,0.5,1.1,0.8,1.6,1.4
				c0.8,0.9,0.2,2.5,0.1,3.6c-0.1,1.8,1.1,3.2,1.9,4.7c0.1,0.2,0.6,0.8,0.4,1.1c-0.8,1.1-1.6,2.1-0.5,3.3c0.6,0.7,1.2,0.5,2.1,0.6
				c0.6,0,1.3,0.1,1.9,0.4c0.8,0.4,1.3,1.2,2.1,1.5c0.7,0.3,1.4,0.7,2,1.1c0.7,0.4,1.6,0.7,2.3,1.2c0.5,0.4,0.8,0.9,1,1.4
				c0,0.1,0.2,0.8,0.3,0.8c1,0.1,2.2,0.1,3.2,0.3c0.9,0.3,1.7,1.9,2.1,2.7c0.6,1,3.4,7.4,0.6,7.3
				C238.4-303.5,237.5-304.4,237.1-305.3"/>
			<path class="st6" d="M267-261.7c-0.8,0.8-1.1,2.3-2.1,2.9s-1.8-0.5-1.7-1.5c0.1-1,0.7-2,0.7-3c0-1.1-0.9-2.9-0.1-3.8
				c0.6-0.7,1.1-1.4,1.7-2.1c0.4-0.5,0.7,0,1.2,0.4c1,0.8,2.2,2,2.4,3.4C269.4-263.9,268-262.7,267-261.7"/>
			<path class="st6" d="M251.9-280.1c-0.4-0.4-0.6-0.2-0.9,0c-0.6,0.5-1.1,0.1-1.5-0.4c-1-1.1-0.9-2.7-0.3-3.9
				c2,1.6,4.1,3.4,5.8,5.4c0.2,0.2,1.7,2.4,0.5,1.9C254.1-277.6,252.9-279,251.9-280.1"/>
			<path class="st6" d="M294.8-232.2c-0.7-0.7-1.4-1.9-2.4-2c-1.6-0.1-3-0.3-4.3-1.4c-1.4-1.2-2.5-2.3-4.1-3.1
				c-1.3-0.6-2.4-1.3-3.7-2c-1.2-0.7-2.7-1.4-4.1-1.4c-1.2,0-1.1-1.5-0.6-2.3s1.1-0.4,1.6-1.1c0.6-0.8,0.9-1.9,1.1-2.8
				c0.2-0.6,1.1-1,1.6-1.1c1.4-0.3,2.5,1.1,3.7,1.7c1.2,0.6,3,0.9,1.4,2.4c-0.3,0.3-1,0.6-0.8,1.2c0.3,0.7,1.1,1.2,1.7,1.6
				c1.4,0.8,2.7,1.2,3.3,2.9c0.4,1.1,0.3,2.3,1.6,2.5c0.7,0.1,1.5,0,2.1-0.4c0.5-0.2,0.5-0.6,1-0.3c1.2,0.6,2.7,1.8,3,3.2
				C297.5-233.3,295.9-231,294.8-232.2"/>
		</g>
		<polyline class="st7" points="297.2,-218.4 205.1,-244.7 182.3,-337 		"/>
	</g>
</symbol>
<rect class="st8" width="960" height="750"/>
<use xlink:href="#日本地図_3"  width="595.5" height="680.9" id="XMLID_10_" x="-297.8" y="-340.4" transform="matrix(1.0002 0 0 -1.0002 480.9512 405.8768)" style="overflow:visible;"/>
</svg>
