<?xml version="1.0" encoding="utf-8"?>
<!-- Generator: Adobe Illustrator 21.0.2, SVG Export Plug-In . SVG Version: 6.00 Build 0)  -->
<svg version="1.1" id="レイヤー_1" xmlns="http://www.w3.org/2000/svg" xmlns:xlink="http://www.w3.org/1999/xlink" x="0px"
	 y="0px" viewBox="0 0 960 750" style="enable-background:new 0 0 960 750;" xml:space="preserve">
<style type="text/css">
	.st0{fill:#3ECCC8;stroke:#FFFFFF;stroke-width:0.6;}
	.st1{fill:#2A7F38;stroke:#FFFFFF;stroke-width:0.6;}
</style>
<symbol  id="日本地図_3" viewBox="-67.3 -40.4 134.7 80.8">
	<g id="中国_2_">
		<path class="st0" d="M22.2,32.4c0,0,6.3-1.2,7.1,0s1.2,1.2,1.2,1.2h7.1c0,0,0.3-1,2.4-1.2c2-0.2,5.3-0.7,5.9,0
			c0.6,0.7-0.7,2.2,1.2,2.4s3.3-1.4,4.7-1.2s3.3,0.3,4.7,1.2c1.4,0.9,3.9,3.6,4.7,3.6s3.9,1.4,3.9,1.4c-1.1-2.6-1.2-2.5-1.6-3.8
			c-0.2-0.8-1.3-2.3,0-3.6c1.3-1.3,3.5-3.6,3.5-3.6s-0.8-3.1-1.2-3.6c-0.4-0.5-1.9-1.6-2.4-2.4s-2.7-1.2-4.7-2.4
			c-2-1.1-4.5-0.9-4.7,0c-0.2,0.9-0.7,2.9-2.4,3.6c-1.7,0.7-4,2.7-3.5,2.4c0,0-1.9-0.9-2.4-1.2s-1.8-2-2.4-2.4
			c-0.6-0.4-3.6-0.5-3.5,0c0,0.5-0.5,2.9-2.4,2.4s-2.5,0.1-3.5-1.2s-1.8-0.7-3.5-2.4c-1.8-1.7-3.5-2.4-3.5-2.4s-0.7-1.1-1.4-1.9
			c-0.5-0.6-2.3-1.8-2.3-1.8s-0.1-0.7-1-1c-1.2-0.5-6.4,0.2-5.9,0c0.5-0.2-0.1,0.9,0,2.4s0.4,1.6,2.4,3.6s3.5,1.5,3.5,3.6
			s-0.4,2.3,0,3.6C22.7,28.9,22.2,32.4,22.2,32.4z"/>
		<path class="st0" d="M30.2-10.8l-2.7,5.5c0,0-0.4,0.9-1.8,3.4c-1.6,3.1-0.9,4.2-1,5.3s-1.3,3-1.3,3s-1.3,2.8-1.2,3.6
			c0.3,1.9,0,4.7,0,4.7l4.7,4.7c0,0,1.2,0.4,2.4,1.2c1.8,1.2,5,3.7,5.5,4c0.8,0.5,2.5,0.7,2.8,0.7c1.7,0.3,2.5-2.6,2.5-2.6h3
			l2.4,2.3l2.6,1.4l2.3-1.7c0,0,1.9-0.9,2.4-1.5s1-2,1.2-2.7s1-0.9,2.1-0.8c1.4,0.2,4,1.3,5,1.9c1,0.6,2.6,1.6,2.6,1.6
			c0-1.5-0.3-3.9-0.3-3.9s-1.7-3-2.4-3.6c-2.3-1.8-3.5-4.7-3.5-4.7s-0.5-0.8,0-3.1c0.5-2.4,0.7-3.2,1.2-4s-0.2,0.2,0.6-1.5
			C60.1,0.8,61-0.9,61-0.9s-2.5,1.2-3.5,0c-1.1-1.2-2.4-2.5-3.5-3.6c-1.1-1-1.9-1.2-3.5-2.4c-1.6-1.1-3.9-3-3.5-3.6
			s-0.7-2.4-3.5-2.4s-5.9,0-5.9,0l-1.2,2.4l-1.2-2.4l-2.6,0.6L30.2-10.8z"/>
		<path class="st0" d="M-34.4-3.8c0,0,3.6,1.4,4.8,3.1c1.2,1.7,6,7.4,7.1,8.3c1.1,0.9,3.4,3.4,4.7,4.7s3.5,2.4,3.5,2.4l2.4,1.2
			c0,0,4.1,4.1,4.7,4.7c0.6,0.7,2.7,1.8,3.5,2.4c0.8,0.5,1.9,0.9,2.4,1.2s-0.7,4.3,0,4.7c0.7,0.5,2.4,2,2.4,2.4
			c-0.1,0.4,4.7,2.4,4.7,2.4s2,2.5,3.5,2.4s4.1-1.5,4.7,0c0.6,1.5,9.4,0,9.4,0l-1.2-3.6c0,0,0.4-2.9,0.1-4.4
			c-0.5-2.7,0.8-3.7-0.6-5.3c-1-1.2-3.2-2.3-3.6-2.7c-0.8-0.8-1.8-2.4-1.8-2.4s0.3-2.6-0.1-2.7c-1.6-0.3-5.8-0.1-7-0.3
			c-1.9-0.3-3.2,0.9-3.5,0s-1.3-2.2-2.4-3.6C2.6,10.2,2.4,11,1.1,10C-0.1,9,0,8.5,0,8.5s3.2-1.6,2.7-2.7C2.5,5.5-1.7,3.1-1.7,3.1
			S-3.3,2-5.5,1.6s-5.8,1-7.1,0.7c-0.7-0.2-1.9,0.2-2.9-0.7S-17.6,0-18-0.5c-0.3-0.4-0.6-0.1-1-1.4c-0.8-2.3,0-3-0.7-4.1
			c-0.9-1.2-2-2-3.1-3.6c-0.9-1.4,0-3.9-0.9-5.3c-0.7-1.2-1.4-3.3-2.4-3.6c-1.2-0.3-6.7,0.3-6.7,0.3s-2.3,0.6-1.6,1.5
			c0.7,0.9,1.2,2.1,1.2,2.1s-0.6,0.3-1.2,0.9c-0.5,0.6-1.1,1.1-1.7,2.4c-0.7,1.6-1,3-0.3,3.7C-35.8-7-34.4-3.8-34.4-3.8z"/>
		<path class="st0" d="M-17.9-22.9c0,0,3.2,2.6,3.6,3.2c0.5,0.6,3.5,3.6,3.5,3.6h2.4l2.4-2.4c0,0-0.7-4.6,0-4.7s2.5-1.4,3.5-1.2
			s5.1,2.3,4.7,2.4c-0.1,0-0.1,0-0.1,0s0.5,0.1,1.3,1.2c0.9,1.4,3.9,2.9,3.5,2.4c-0.4-0.6-0.6,0.6,1.2,0s4-0.3,4.7,0
			s1.8,1.9,2.4,2.4c0.6,0.4,1.2,1.2,1.2,1.2s3,1.1,3.5,1.2c0.6,0.1,1.5-0.2,2.4-1.2s1.4-1.6,2.4-1.2c1,0.4,2.7,2,3.5,2.4
			c0.8,0.3,2.4,2.8,2.4,2.8l-2,3.8c0,0-1.1,1.7-1.5,2.9c-0.2,0.8-1.1,1.5-1.2,2.4c-0.2,2.2-0.9,1.2-1.2,3.6c-0.1,0.5,0.4,1.3,0,2.4
			c-0.9,2.6-1.6,2.8-2,3.9c-0.5,1.3-0.5,2.2-0.4,3.2c0.1,0.9,0,3.6,0,3.6h-5.4l-1.4,0.3L7.7,15c0,0-1.2,0.9-1.9,0
			c-0.8-0.9-1.5-3.1-2.4-3.6s-4-1.8-3.5-2.4c0.4-0.6,4.3-2.5,2.4-3.6S-1.2,3.5-2.4,3s-3.5-1.6-4.7-1.2s-3.4,0.8-3.4,0.8l-4.2-0.2
			c0,0-1-0.9-1.7-1.5c-0.7-0.6-1.6-1.2-2.5-2.7c-0.7-1.1-0.4-4.5-1.2-4.7s-1.7-1.8-2.4-2.4c-0.7-0.6-0.7-2.8-0.8-3.9
			c-0.1-1.3-0.2-1-0.1-2.2c0.2-1.7,3.4-2.4,3.2-3.4s-0.5-2.3,0-3.6C-19.5-23.9-17.9-22.9-17.9-22.9z"/>
		<path class="st0" d="M-63.8-23.2c0,0-3.1,4.8-2.4,4.7c0.8-0.1,2.2-0.7,3.5,1.2s1.6,4.1,2.4,3.6c0.7-0.6,4.7-2.4,4.7-2.4
			s0.4-2.8,2.4-1.2c1.9,1.6,2.2,1.5,3.5,2.4c1.3,0.8,2.6,2.9,3.5,3.6c0.9,0.7,2.4,2.4,2.4,2.4s2.3,0.2,2.4,1.2
			c0,0.9-0.4,1.9,1.2,3.6s5,0.7,4.7,1.2s1.3-0.1,1.2-1.2c-0.1-1-2.6-3-2.4-4.7c0.2-1.7,0.8-2.7,1.2-3.6c0.4-0.9,2.5-1.2,2.4-2.4
			c-0.2-1.2-1.7-1.1-1.2-2.4c0.6-1.3,4.7-1.2,4.7-1.2l3.8,0.1l2.1,3.4c0,0,0.5-0.7,1.2-1.2c0.6-0.4,2.3-1.8,2.4-2.4
			c0.1-0.6-0.4-3.3,0-3.6c0.3-0.2,0.5-1.3,1.2-1.2s1,0.7,1.3-0.3c0.3-1.4,0.6-1.3-0.1-3.3c-0.7-2,1.5-2.2,1.2-3.6
			c-0.3-1.3,1.2-3.1,0-3.6s-1.9-0.5-2.4-1.2c-0.4-0.6-1.9-1.6-1.2-2.4s3.1-2.4,2.4-2.4c-0.7,0-4.7,2.4-4.7,2.4l-3.5,1.2
			c0,0,0.1-0.1-2.4,2.4c-2.4,2.4-4.9,2.9-5.9,3.6c-1,0.7-1.9,0.9-2.4,0s-1.4-0.4-2.4-1.2s-5.9,0-5.9,0s0.7-2.1,0-2.4
			c-0.7-0.2-3.5,2.4-3.5,2.4v-2.4c0,0-0.3-0.8-1.2-1.2s-3.4-1.4-4.7,0c-1.4,1.4-0.9,1.6-2.4,2.4s-1.7,2.3-2.4,2.4s-0.3-0.8-1.2-1.2
			c-0.8-0.4-2.5-0.2-2.4-1.2c0.2-1,0.7-2,0-2.4s-2.2,1.8-2.4,2.4c-0.2,0.6-0.2,2-1.2,3.6c-1,1.5-1,1.8,0,2.4
			C-65.1-26.3-64-23.1-63.8-23.2z"/>
	</g>
	<g id="中国_1_">
		<path class="st1" d="M22.2,32.4c0,0,6.3-1.2,7.1,0s1.2,1.2,1.2,1.2h7.1c0,0,0.3-1,2.4-1.2c2-0.2,5.3-0.7,5.9,0
			c0.6,0.7-0.7,2.2,1.2,2.4s3.3-1.4,4.7-1.2s3.3,0.3,4.7,1.2c1.4,0.9,3.9,3.6,4.7,3.6s3.9,1.4,3.9,1.4c-1.1-2.6-1.2-2.5-1.6-3.8
			c-0.2-0.8-1.3-2.3,0-3.6c1.3-1.3,3.5-3.6,3.5-3.6s-0.8-3.1-1.2-3.6c-0.4-0.5-1.9-1.6-2.4-2.4s-2.7-1.2-4.7-2.4
			c-2-1.1-4.5-0.9-4.7,0c-0.2,0.9-0.7,2.9-2.4,3.6c-1.7,0.7-4,2.7-3.5,2.4c0,0-1.9-0.9-2.4-1.2s-1.8-2-2.4-2.4
			c-0.6-0.4-3.6-0.5-3.5,0c0,0.5-0.5,2.9-2.4,2.4s-2.5,0.1-3.5-1.2s-1.8-0.7-3.5-2.4c-1.8-1.7-3.5-2.4-3.5-2.4s-0.7-1.1-1.4-1.9
			c-0.5-0.6-2.3-1.8-2.3-1.8s-0.1-0.7-1-1c-1.2-0.5-6.4,0.2-5.9,0c0.5-0.2-0.1,0.9,0,2.4s0.4,1.6,2.4,3.6s3.5,1.5,3.5,3.6
			s-0.4,2.3,0,3.6C22.7,28.9,22.2,32.4,22.2,32.4z"/>
		<path class="st1" d="M30.2-10.8l-2.7,5.5c0,0-0.4,0.9-1.8,3.4c-1.6,3.1-0.9,4.2-1,5.3s-1.3,3-1.3,3s-1.3,2.8-1.2,3.6
			c0.3,1.9,0,4.7,0,4.7l4.7,4.7c0,0,1.2,0.4,2.4,1.2c1.8,1.2,5,3.7,5.5,4c0.8,0.5,2.5,0.7,2.8,0.7c1.7,0.3,2.5-2.6,2.5-2.6h3
			l2.4,2.3l2.6,1.4l2.3-1.7c0,0,1.9-0.9,2.4-1.5s1-2,1.2-2.7s1-0.9,2.1-0.8c1.4,0.2,4,1.3,5,1.9c1,0.6,2.6,1.6,2.6,1.6
			c0-1.5-0.3-3.9-0.3-3.9s-1.7-3-2.4-3.6c-2.3-1.8-3.5-4.7-3.5-4.7s-0.5-0.8,0-3.1c0.5-2.4,0.7-3.2,1.2-4s-0.2,0.2,0.6-1.5
			C60.1,0.8,61-0.9,61-0.9s-2.5,1.2-3.5,0c-1.1-1.2-2.4-2.5-3.5-3.6c-1.1-1-1.9-1.2-3.5-2.4c-1.6-1.1-3.9-3-3.5-3.6
			s-0.7-2.4-3.5-2.4s-5.9,0-5.9,0l-1.2,2.4l-1.2-2.4l-2.6,0.6L30.2-10.8z"/>
		<path class="st1" d="M-34.4-3.8c0,0,3.6,1.4,4.8,3.1c1.2,1.7,6,7.4,7.1,8.3c1.1,0.9,3.4,3.4,4.7,4.7s3.5,2.4,3.5,2.4l2.4,1.2
			c0,0,4.1,4.1,4.7,4.7c0.6,0.7,2.7,1.8,3.5,2.4c0.8,0.5,1.9,0.9,2.4,1.2s-0.7,4.3,0,4.7c0.7,0.5,2.4,2,2.4,2.4
			c-0.1,0.4,4.7,2.4,4.7,2.4s2,2.5,3.5,2.4s4.1-1.5,4.7,0c0.6,1.5,9.4,0,9.4,0l-1.2-3.6c0,0,0.4-2.9,0.1-4.4
			c-0.5-2.7,0.8-3.7-0.6-5.3c-1-1.2-3.2-2.3-3.6-2.7c-0.8-0.8-1.8-2.4-1.8-2.4s0.3-2.6-0.1-2.7c-1.6-0.3-5.8-0.1-7-0.3
			c-1.9-0.3-3.2,0.9-3.5,0s-1.3-2.2-2.4-3.6C2.6,10.2,2.4,11,1.1,10C-0.1,9,0,8.5,0,8.5s3.2-1.6,2.7-2.7C2.5,5.5-1.7,3.1-1.7,3.1
			S-3.3,2-5.5,1.6s-5.8,1-7.1,0.7c-0.7-0.2-1.9,0.2-2.9-0.7S-17.6,0-18-0.5c-0.3-0.4-0.6-0.1-1-1.4c-0.8-2.3,0-3-0.7-4.1
			c-0.9-1.2-2-2-3.1-3.6c-0.9-1.4,0-3.9-0.9-5.3c-0.7-1.2-1.4-3.3-2.4-3.6c-1.2-0.3-6.7,0.3-6.7,0.3s-2.3,0.6-1.6,1.5
			c0.7,0.9,1.2,2.1,1.2,2.1s-0.6,0.3-1.2,0.9c-0.5,0.6-1.1,1.1-1.7,2.4c-0.7,1.6-1,3-0.3,3.7C-35.8-7-34.4-3.8-34.4-3.8z"/>
		<path class="st1" d="M-17.9-22.9c0,0,3.2,2.6,3.6,3.2c0.5,0.6,3.5,3.6,3.5,3.6h2.4l2.4-2.4c0,0-0.7-4.6,0-4.7s2.5-1.4,3.5-1.2
			s5.1,2.3,4.7,2.4c-0.1,0-0.1,0-0.1,0s0.5,0.1,1.3,1.2c0.9,1.4,3.9,2.9,3.5,2.4c-0.4-0.6-0.6,0.6,1.2,0s4-0.3,4.7,0
			s1.8,1.9,2.4,2.4c0.6,0.4,1.2,1.2,1.2,1.2s3,1.1,3.5,1.2c0.6,0.1,1.5-0.2,2.4-1.2s1.4-1.6,2.4-1.2c1,0.4,2.7,2,3.5,2.4
			c0.8,0.3,2.4,2.8,2.4,2.8l-2,3.8c0,0-1.1,1.7-1.5,2.9c-0.2,0.8-1.1,1.5-1.2,2.4c-0.2,2.2-0.9,1.2-1.2,3.6c-0.1,0.5,0.4,1.3,0,2.4
			c-0.9,2.6-1.6,2.8-2,3.9c-0.5,1.3-0.5,2.2-0.4,3.2c0.1,0.9,0,3.6,0,3.6h-5.4l-1.4,0.3L7.7,15c0,0-1.2,0.9-1.9,0
			c-0.8-0.9-1.5-3.1-2.4-3.6s-4-1.8-3.5-2.4c0.4-0.6,4.3-2.5,2.4-3.6S-1.2,3.5-2.4,3s-3.5-1.6-4.7-1.2s-3.4,0.8-3.4,0.8l-4.2-0.2
			c0,0-1-0.9-1.7-1.5c-0.7-0.6-1.6-1.2-2.5-2.7c-0.7-1.1-0.4-4.5-1.2-4.7s-1.7-1.8-2.4-2.4c-0.7-0.6-0.7-2.8-0.8-3.9
			c-0.1-1.3-0.2-1-0.1-2.2c0.2-1.7,3.4-2.4,3.2-3.4s-0.5-2.3,0-3.6C-19.5-23.9-17.9-22.9-17.9-22.9z"/>
		<path class="st1" d="M-63.8-23.2c0,0-3.1,4.8-2.4,4.7c0.8-0.1,2.2-0.7,3.5,1.2s1.6,4.1,2.4,3.6c0.7-0.6,4.7-2.4,4.7-2.4
			s0.4-2.8,2.4-1.2c1.9,1.6,2.2,1.5,3.5,2.4c1.3,0.8,2.6,2.9,3.5,3.6c0.9,0.7,2.4,2.4,2.4,2.4s2.3,0.2,2.4,1.2
			c0,0.9-0.4,1.9,1.2,3.6s5,0.7,4.7,1.2s1.3-0.1,1.2-1.2c-0.1-1-2.6-3-2.4-4.7c0.2-1.7,0.8-2.7,1.2-3.6c0.4-0.9,2.5-1.2,2.4-2.4
			c-0.2-1.2-1.7-1.1-1.2-2.4c0.6-1.3,4.7-1.2,4.7-1.2l3.8,0.1l2.1,3.4c0,0,0.5-0.7,1.2-1.2c0.6-0.4,2.3-1.8,2.4-2.4
			c0.1-0.6-0.4-3.3,0-3.6c0.3-0.2,0.5-1.3,1.2-1.2s1,0.7,1.3-0.3c0.3-1.4,0.6-1.3-0.1-3.3c-0.7-2,1.5-2.2,1.2-3.6
			c-0.3-1.3,1.2-3.1,0-3.6s-1.9-0.5-2.4-1.2c-0.4-0.6-1.9-1.6-1.2-2.4s3.1-2.4,2.4-2.4c-0.7,0-4.7,2.4-4.7,2.4l-3.5,1.2
			c0,0,0.1-0.1-2.4,2.4c-2.4,2.4-4.9,2.9-5.9,3.6c-1,0.7-1.9,0.9-2.4,0s-1.4-0.4-2.4-1.2s-5.9,0-5.9,0s0.7-2.1,0-2.4
			c-0.7-0.2-3.5,2.4-3.5,2.4v-2.4c0,0-0.3-0.8-1.2-1.2s-3.4-1.4-4.7,0c-1.4,1.4-0.9,1.6-2.4,2.4s-1.7,2.3-2.4,2.4s-0.3-0.8-1.2-1.2
			c-0.8-0.4-2.5-0.2-2.4-1.2c0.2-1,0.7-2,0-2.4s-2.2,1.8-2.4,2.4c-0.2,0.6-0.2,2-1.2,3.6c-1,1.5-1,1.8,0,2.4
			C-65.1-26.3-64-23.1-63.8-23.2z"/>
	</g>
</symbol>
<use xlink:href="#日本地図_3"  width="134.7" height="80.8" id="XMLID_10_" x="-67.3" y="-40.4" transform="matrix(0.9964 0 0 -0.9964 297.9512 583.9268)" style="overflow:visible;"/>
</svg>
