<?xml version="1.0" encoding="utf-8"?>
<!-- Generator: Adobe Illustrator 21.0.2, SVG Export Plug-In . SVG Version: 6.00 Build 0)  -->
<svg version="1.1" id="レイヤー_1" xmlns="http://www.w3.org/2000/svg" xmlns:xlink="http://www.w3.org/1999/xlink" x="0px"
	 y="0px" viewBox="0 0 960 750" style="enable-background:new 0 0 960 750;" xml:space="preserve">
<style type="text/css">
	.st0{fill:#3ECCC8;stroke:#FFFFFF;stroke-width:0.6;}
	.st1{display:none;fill:#FFFFFF;stroke:#B4B4B5;stroke-width:0.6;}
	.st2{fill:#2A7F38;stroke:#FFFFFF;stroke-width:0.6;}
</style>
<g id="日本地図_3">
	<g id="沖縄_2_">
		<g>
			<path class="st0" d="M718.3,711.1c-0.7,1.4-2.1,1.8-3.3,2.5c-1.6,0.9-2.2,2.7-3.4,4c-0.6,0.7-1.4,1-2,0.3
				c-0.7-0.8-0.2-3.1-1.3-3.2c-0.5,0-1,0.1-1.4,0.1c-0.5,0-1-0.2-1.5-0.2c-1.3-0.1-2.2,1.9-1.6,3c0.8,1.6,3,1.5,3.6,3.5
				c0.4,1.4-0.5,1.9-1.6,1.7c-1.4-0.2-2-0.1-3,1c-1.4,1.4-2.8,2.7-4.5,3.9c-1.1,0.9-0.9,2.2-0.5,3.5c0.2,0.6,0.6,1.1,0.5,1.8
				c-0.2,0.7-0.7,1.3-1.2,1.8c-0.9,0.8-2.2,1.1-2.7,2.3c-0.6,1.2-0.5,2.5-0.2,3.8c0.8,3.4,3.4,2,5.1,0.1c0.5-0.5,1.1-0.8,1.6-1.4
				c0.8-0.9,0.2-2.5,0.1-3.6c-0.1-1.8,1.1-3.2,1.9-4.7c0.1-0.2,0.6-0.8,0.4-1.1c-0.8-1.1-1.6-2.1-0.5-3.3c0.6-0.7,1.2-0.5,2.1-0.6
				c0.6,0,1.3-0.1,1.9-0.4c0.8-0.4,1.3-1.2,2.1-1.5c0.7-0.3,1.4-0.7,2-1.1c0.7-0.4,1.6-0.7,2.3-1.2c0.5-0.4,0.8-0.9,1-1.4
				c0-0.1,0.2-0.8,0.3-0.8c1-0.1,2.2-0.1,3.2-0.3c0.9-0.3,1.7-1.9,2.1-2.7c0.6-1,3.4-7.4,0.6-7.3
				C719.6,709.3,718.7,710.2,718.3,711.1"/>
			<path class="st0" d="M748.2,667.5c-0.8-0.8-1.1-2.3-2.1-2.9c-1-0.6-1.8,0.5-1.7,1.5c0.1,1,0.7,2,0.7,3c0,1.1-0.9,2.9-0.1,3.8
				c0.6,0.7,1.1,1.4,1.7,2.1c0.4,0.5,0.7,0,1.2-0.4c1-0.8,2.2-2,2.4-3.4C750.6,669.7,749.2,668.5,748.2,667.5"/>
			<path class="st0" d="M733.1,685.8c-0.4,0.4-0.6,0.2-0.9,0c-0.6-0.5-1.1-0.1-1.5,0.4c-1,1.1-0.9,2.7-0.3,3.9
				c2-1.6,4.1-3.4,5.8-5.4c0.2-0.2,1.7-2.4,0.5-1.9C735.3,683.4,734.1,684.8,733.1,685.8"/>
			<path class="st0" d="M776,638c-0.7,0.7-1.4,1.9-2.4,2c-1.6,0.1-3,0.3-4.3,1.4c-1.4,1.2-2.5,2.3-4.1,3.1c-1.3,0.6-2.4,1.3-3.7,2
				c-1.2,0.7-2.7,1.4-4.1,1.4c-1.2,0-1.1,1.5-0.6,2.3c0.5,0.8,1.1,0.4,1.6,1.1c0.6,0.8,0.9,1.9,1.1,2.8c0.2,0.6,1.1,1,1.6,1.1
				c1.4,0.3,2.5-1.1,3.7-1.7c1.2-0.6,3-0.9,1.4-2.4c-0.3-0.3-1-0.6-0.8-1.2c0.3-0.7,1.1-1.2,1.7-1.6c1.4-0.8,2.7-1.2,3.3-2.9
				c0.4-1.1,0.3-2.3,1.6-2.5c0.7-0.1,1.5,0,2.1,0.4c0.5,0.2,0.5,0.6,1,0.3c1.2-0.6,2.7-1.8,3-3.2C778.7,639.1,777.1,636.8,776,638"
				/>
		</g>
		<polyline class="st1" points="778.4,624.2 686.3,650.5 663.5,742.7 		"/>
	</g>
	<g id="沖縄_3_">
		<g>
			<path class="st2" d="M718.3,711.1c-0.7,1.4-2.1,1.8-3.3,2.5c-1.6,0.9-2.2,2.7-3.4,4c-0.6,0.7-1.4,1-2,0.3
				c-0.7-0.8-0.2-3.1-1.3-3.2c-0.5,0-1,0.1-1.4,0.1c-0.5,0-1-0.2-1.5-0.2c-1.3-0.1-2.2,1.9-1.6,3c0.8,1.6,3,1.5,3.6,3.5
				c0.4,1.4-0.5,1.9-1.6,1.7c-1.4-0.2-2-0.1-3,1c-1.4,1.4-2.8,2.7-4.5,3.9c-1.1,0.9-0.9,2.2-0.5,3.5c0.2,0.6,0.6,1.1,0.5,1.8
				c-0.2,0.7-0.7,1.3-1.2,1.8c-0.9,0.8-2.2,1.1-2.7,2.3c-0.6,1.2-0.5,2.5-0.2,3.8c0.8,3.4,3.4,2,5.1,0.1c0.5-0.5,1.1-0.8,1.6-1.4
				c0.8-0.9,0.2-2.5,0.1-3.6c-0.1-1.8,1.1-3.2,1.9-4.7c0.1-0.2,0.6-0.8,0.4-1.1c-0.8-1.1-1.6-2.1-0.5-3.3c0.6-0.7,1.2-0.5,2.1-0.6
				c0.6,0,1.3-0.1,1.9-0.4c0.8-0.4,1.3-1.2,2.1-1.5c0.7-0.3,1.4-0.7,2-1.1c0.7-0.4,1.6-0.7,2.3-1.2c0.5-0.4,0.8-0.9,1-1.4
				c0-0.1,0.2-0.8,0.3-0.8c1-0.1,2.2-0.1,3.2-0.3c0.9-0.3,1.7-1.9,2.1-2.7c0.6-1,3.4-7.4,0.6-7.3
				C719.6,709.3,718.7,710.2,718.3,711.1"/>
			<path class="st2" d="M748.2,667.5c-0.8-0.8-1.1-2.3-2.1-2.9c-1-0.6-1.8,0.5-1.7,1.5c0.1,1,0.7,2,0.7,3c0,1.1-0.9,2.9-0.1,3.8
				c0.6,0.7,1.1,1.4,1.7,2.1c0.4,0.5,0.7,0,1.2-0.4c1-0.8,2.2-2,2.4-3.4C750.6,669.7,749.2,668.5,748.2,667.5"/>
			<path class="st2" d="M733.1,685.8c-0.4,0.4-0.6,0.2-0.9,0c-0.6-0.5-1.1-0.1-1.5,0.4c-1,1.1-0.9,2.7-0.3,3.9
				c2-1.6,4.1-3.4,5.8-5.4c0.2-0.2,1.7-2.4,0.5-1.9C735.3,683.4,734.1,684.8,733.1,685.8"/>
			<path class="st2" d="M776,638c-0.7,0.7-1.4,1.9-2.4,2c-1.6,0.1-3,0.3-4.3,1.4c-1.4,1.2-2.5,2.3-4.1,3.1c-1.3,0.6-2.4,1.3-3.7,2
				c-1.2,0.7-2.7,1.4-4.1,1.4c-1.2,0-1.1,1.5-0.6,2.3c0.5,0.8,1.1,0.4,1.6,1.1c0.6,0.8,0.9,1.9,1.1,2.8c0.2,0.6,1.1,1,1.6,1.1
				c1.4,0.3,2.5-1.1,3.7-1.7c1.2-0.6,3-0.9,1.4-2.4c-0.3-0.3-1-0.6-0.8-1.2c0.3-0.7,1.1-1.2,1.7-1.6c1.4-0.8,2.7-1.2,3.3-2.9
				c0.4-1.1,0.3-2.3,1.6-2.5c0.7-0.1,1.5,0,2.1,0.4c0.5,0.2,0.5,0.6,1,0.3c1.2-0.6,2.7-1.8,3-3.2C778.7,639.1,777.1,636.8,776,638"
				/>
		</g>
		<polyline class="st1" points="778.4,624.2 686.3,650.5 663.5,742.7 		"/>
	</g>
</g>
</svg>
