<?xml version="1.0" encoding="utf-8"?>
<!-- Generator: Adobe Illustrator 21.0.2, SVG Export Plug-In . SVG Version: 6.00 Build 0)  -->
<svg version="1.1" id="レイヤー_1" xmlns="http://www.w3.org/2000/svg" xmlns:xlink="http://www.w3.org/1999/xlink" x="0px"
	 y="0px" viewBox="0 0 960 750" style="enable-background:new 0 0 960 750;" xml:space="preserve">
<style type="text/css">
	.st0{display:none;}
	.st1{display:inline;fill:#D1CB01;stroke:#FFFFFF;stroke-width:0.6;}
	.st2{fill:#349943;stroke:#FFFFFF;stroke-width:0.6;}
</style>
<g id="日本地図_3">
	<g id="首都_2_" class="st0">
		<path class="st1" d="M545.2,512.6c0,0-1.8-2.2-1.2-3.6c0.6-1.4,0.8-5.7,1.2-5.9c0.4-0.2,0-2.4,0-2.4l-3.2-4v-2.3l0.8-2v-3.6l0-3
			l4.7-1.7c0,0,5.1-3.4,5.9-3.6c0.8-0.2,4-1.3,4.4-1.5c0.4-0.2,1.8-1.7,1.8-1.7l0.8-1.6l5.9-1.2l1.6,0.6l7.8,8.9
			c0,0-0.3,0.6-0.1,2.8c0.2,2.9,0,4.3-1,5.5c-0.3,0.3-1.2,1.2-1.2,1.2v2.4v3.6c0,0,0.9,4.5,0.8,5.7c0,0.8-0.8,3.7-0.8,3.7
			s-3.7,1-4.7,1.2c-1.2,0.2-3.3,1.5-4.7,2.4c-0.6,0.4-3,2.6-3.7,3c-0.4,0.2,0,0-1,0.6c-1,0.6-4.7,1.8-4.7,2.4c0,0.4-1-1-2-1.7
			c-2.3-1.6-4.7-1.9-5.1-1.9C547.1,514.9,545.2,512.6,545.2,512.6z"/>
		<path class="st1" d="M526.9,487.4c0,0,1.4-2.1,2-3.6c0.6-1.6,0.5-1.8,2.9-2.7c1.6-0.6,5.3-2.6,5.3-2.6l0.7,3l0.8,1.8l4.3,3.3
			c0,0,0.4,4.3,0,5.9c-0.4,1.6-1,2.8-0.8,3.8c0.2,1,1.4,2.3,1.4,2.3l1.8,2.7c0,0-0.2,4.1-0.7,5.3c-0.3,0.8-1.3,3.6-0.1,5
			c0.9,1.1,2.3,2.4,2.5,3.1c0.2,0.7,1.8,0.4,1.8,0.4l4.9,2.6c0,0-5.3,0.8-6,1c-0.8,0.2-2.4,0.8-3.5,0c-1.2-0.8-3.7-2.3-4.7-2.4
			c-1.8-0.2-1.7-0.3-4.7-1.2c0,0-1.1,2.6-1.7,3.4c-0.6,0.8-1.4,4.7-3,4.9c-1.9,0.2-2.9,1-3.5,1.2c-0.6,0.2-4.1,1.8-4.7,2.4
			c-0.6,0.6-3.5,1.2-3.5,1.2s-2.6-1.6-2.4-2.4c0.2-0.8-0.4-3.8-0.2-4.2c0.2-0.4-1-1.9-1-2.1c0-0.2,0.7-4.3,1.1-5.5
			c0.4-1.2-0.4-3,0-3.6c0.4-0.6-2.4-2.4-2.4-2.4l-1.4,2.4c0,0-0.9-0.2-2.1-1.2c-1.2-1-2.9-2.3-3.5-3.6c-0.2-0.4,1.2-5.9,1.2-5.9
			s4.5-3,4.7-3.6c0.2-0.6,5.1-2.6,4.7-2.4c-0.4,0.2,1.6,0.3,2-0.1c0.4-0.4,2.5-0.7,2.5-0.7l1.5-2.1l2-1.6L526.9,487.4z"/>
		<path class="st1" d="M586.4,509c0,0-0.2,8.9,0,9.5c0.2,0.6,0.6,4.1,1.2,4.7c0.6,0.6,1.2,3.6,1.2,3.6s2,4.7,2.4,4.7
			c0.4,0,2.6,5.3,3.5,5.9c1,0.6,3.2,2.9,3.2,2.9l-5.6-4l-5.5-4.4l-2.7-1.6c0,0-2.8,1.4-4.3,3.2c-0.8,1.1-6.5,0.7-7.5,0.3
			c-1-0.4-8.4-2-8.2-2.4c0.2-0.4-1.6-1.9-2.4-3.6c-0.5-1.1-3.5-3.6-3.5-3.6s-3.9-0.4-3.5-1.2c0.4-0.8,0-2.4,0-2.4v-2.4
			c0-0.6,6.4-3.3,6.4-3.3s2.4-2.1,1.9-1.7c-0.6,0.4,2.4-1.2,2.8-1.8c0.4-0.6,4.2-1.5,4.2-1.5l3.5-1.2l0.7-2.5l0-3.3
			c0,0-0.6-2.7-0.6-4.9c0-2.2-0.6-4.5,0-4.7c0.6-0.2,2.1-1.8,2.4-3.6c0.1-0.9,0-5.9,0-5.9s3.7,5.1,4.2,5.5c1.2,0.9,1.7,1.6,1.7,1.6
			s1.9-0.6,3.2-2c1.5-1.6,2.7-2.7,3.3-2.7c0.6,0,2.7-0.4,2.9,0c0.2,0.4,3.5,2.4,3.5,2.4s0,4.5-1.2,5.9c-1.2,1.4-3.3,5.1-3.5,5.9
			c-0.2,0.8-0.6,4.9-1.2,4.7C588.2,505.3,586.4,509,586.4,509z"/>
		<path class="st1" d="M518.7,528c0.6,0,4.1-1.8,5.3-2.4c1.2-0.6,4.3-2.6,4.7-2.4c0.4,0.2,1.4,0.8,2.4-1.2l2.4-4.7
			c0.6-1.2,0.4-2.6,1.2-2.4c0.8,0.2,5.9,1.1,6.4,1.7c0.6,0.6,3,2.1,3.8,2.2c2.1,0.2,3.4-0.3,5.3-0.6c0.4-0.1,2.4-0.8,2.8-0.6
			c0.4,0.2,1.7,0.9,1.7,0.9v4.7c0,0-0.3,0.9,1.5,0.9c2.4,0,3.5,2,3,2.4c-0.5,0.4-0.6,1.3,0.2,2.7c0.8,1.4,2.5,4.3,2.1,4.9
			c-0.4,0.6,0.7,3,0.3,3.4c-0.4,0.4-4.7-0.6-5.6-0.2c-2.8,1.2-4.9-0.9-6.9,0.7c-2,1.6-3.8,1.3-5.2,0.7c-1.4-0.6-4.3-3-5.9-3.6
			c-1.6-0.6-5.5-2.4-5.9-2.4c-2.3,0-3.9,2-3.5,1.2l-1.6,1c0.7-0.1-3.7,0.3-5.5-1c-1.2-0.9-2.4-2.4-2.4-2.4S518.1,528,518.7,528z"/>
		<path class="st1" d="M588.8,542.2c0,0-4.5,4.9-5.9,5.9c-1.4,1-2.2,3.2-2.4,3.6c-0.2,0.4-0.6,2.6,0,3.6c0.6,1,0.4,8.5,0,8.3
			c-0.4-0.2-0.2,1.2-2.4,2.4c-2.2,1.2-8,2.4-8.2,2.4c-0.2,0-2.2,1.6-3.5,3.6c-1.4,2-2.4,3.6-2.4,3.6l-2.4,2.4l-3.5-2.4
			c0,0-1.5-2.1-1.2-2.4c0.5-0.5,1.6-0.6,2.4-1.2c0.8-0.6,1.8-3.2,1.2-5.9c-0.6-2.8-0.8-2.2,0-3.6c0.8-1.4,0-2.4,0-2.4
			s-2.7-1-2.4-1.2c0.4-0.2,1.4-1.6,2.4-2.4c1-0.8,1.8-3.2,2.4-3.6c0.6-0.4,2.2-1.2,3.5-2.4c1.4-1.2,3.9-2,3.5-3.6
			c-0.4-1.6-3.5-3.6-3.5-3.6H564l-1.2,2.4l-1.2-5.9c-0.2-1,0.5-2.9,0.1-2.7c-0.4,0.2-0.6-5.1-0.6-5.1l0.2,0.9c0,0-0.1-1.6-1.6-3.1
			l-1.1-2.9l1.2-1.1l4.2,5.7c0,0,5.5,1.8,6.9,2c0.7,0.1,1.8,1.1,3.8,0.7c2-0.4,3.3,0.8,4.6-0.3c1.4-1.2,4.7-3.6,4.7-3.6l2.4,1.2
			c-0.4-0.2,5.7,4.9,5.9,4.7c0.2-0.2,4.7,3.6,4.7,3.6v1.2h-1.2c-1.2,0-4.5,1.8-4.7,1.2C590.9,541.6,588.8,542.2,588.8,542.2z"/>
		<path class="st1" d="M527.9,534.4c0,0,3-1.9,4.3-1.7c1.3,0.3,5.1,1.9,5.9,2.4c0.8,0.5,3.5,2.1,3.9,2.4c1.2,0.8,2.3,1.3,3,1.7
			c0.9,0.5,1.9-0.2,2.5-0.5c0.6-0.2,1.9-0.6,2.4-1.2c0.4-0.6,4.4,1,5.9,0c1.5-1,3.5,0,3.5,0h2.4c0,0-0.1,3.4,0.5,4.7
			c0.6,1.2-2.8,2.4-2.8,2.4s-0.7,0.9-1.2,1.2c-0.4,0.3-0.2,5-1.2,4.5c-1-0.5-0.8-1.8-2.7-2.7c-1.9-0.9-3.2-1.8-3.2-1.8
			s-4.8,0.4-4.7,0c0.1-0.4,0.1,1.3-0.4,1.8c-0.6,0.5-0.1,1.4-1.9,0.6c-1.9-0.8-1.7-0.3-4.7-1.2c-3-0.9-4.5-2.5-4.7-3.6
			c-0.2-1.1-0.8,0.2-2.4-1.2c-1.5-1.4-1.7-0.6-2.3-1.9c-0.5-1.1-2.4-2.9-2.4-2.9L527.9,534.4z"/>
		<path class="st1" d="M533.4,549.3l1.2-3.6l-0.3-2.8c0,0,0.7,2.4,5.4,4.2c0.4,0.2,3.2,0.4,3.2,0.4l2.4,1.1l1-2.9c0,0,3.5,0,4,0.3
			c0.4,0.3,1.6-0.5,3.1,0.9l2.4,1.9l1.2,1.7c0,0-3,0.5-3.5,1.2c-0.5,0.6-2.1,2.8-1.2,3.6c0.9,0.8,0.8,3.9,1.2,4.7
			c0.4,0.8,2.4,2.4,2.4,2.4s-1,0-1.2,1.2c-0.2,1.2-0.3,3.3-1.2,3.6c-0.9,0.2-2.4-2.4-2.4-2.4s-1-2.5-1.2-3.6c-0.2-1-2.4-2.4-2.4-2.4
			s-1.9,0.2-2.4,0c-0.5-0.2-3.6,0.1-4.7,1.2c-1.1,1-4.2,1.5-4.7,2.4c-0.5,0.8-1.2,3.6-1.2,3.6l-2.4,1.2c0,0-2.3-0.4-2.4-2.4
			c0-2-1.1-4.2-0.2-5.7c0.9-1.5,0.2-2.6,0.2-2.6s-0.6-1.7-1.5-2c-0.8-0.2-1.8-1.6-1.8-1.6l3.3-2.4L533.4,549.3z"/>
	</g>
	<g id="首都_3_">
		<path class="st2" d="M545.2,512.6c0,0-1.8-2.2-1.2-3.6c0.6-1.4,0.8-5.7,1.2-5.9c0.4-0.2,0-2.4,0-2.4l-3.2-4v-2.3l0.8-2v-3.6l0-3
			l4.7-1.7c0,0,5.1-3.4,5.9-3.6c0.8-0.2,4-1.3,4.4-1.5c0.4-0.2,1.8-1.7,1.8-1.7l0.8-1.6l5.9-1.2l1.6,0.6l7.8,8.9
			c0,0-0.3,0.6-0.1,2.8c0.2,2.9,0,4.3-1,5.5c-0.3,0.3-1.2,1.2-1.2,1.2v2.4v3.6c0,0,0.9,4.5,0.8,5.7c0,0.8-0.8,3.7-0.8,3.7
			s-3.7,1-4.7,1.2c-1.2,0.2-3.3,1.5-4.7,2.4c-0.6,0.4-3,2.6-3.7,3c-0.4,0.2,0,0-1,0.6c-1,0.6-4.7,1.8-4.7,2.4c0,0.4-1-1-2-1.7
			c-2.3-1.6-4.7-1.9-5.1-1.9C547.1,514.9,545.2,512.6,545.2,512.6z"/>
		<path class="st2" d="M526.9,487.4c0,0,1.4-2.1,2-3.6c0.6-1.6,0.5-1.8,2.9-2.7c1.6-0.6,5.3-2.6,5.3-2.6l0.7,3l0.8,1.8l4.3,3.3
			c0,0,0.4,4.3,0,5.9c-0.4,1.6-1,2.8-0.8,3.8c0.2,1,1.4,2.3,1.4,2.3l1.8,2.7c0,0-0.2,4.1-0.7,5.3c-0.3,0.8-1.3,3.6-0.1,5
			c0.9,1.1,2.3,2.4,2.5,3.1c0.2,0.7,1.8,0.4,1.8,0.4l4.9,2.6c0,0-5.3,0.8-6,1c-0.8,0.2-2.4,0.8-3.5,0c-1.2-0.8-3.7-2.3-4.7-2.4
			c-1.8-0.2-1.7-0.3-4.7-1.2c0,0-1.1,2.6-1.7,3.4c-0.6,0.8-1.4,4.7-3,4.9c-1.9,0.2-2.9,1-3.5,1.2c-0.6,0.2-4.1,1.8-4.7,2.4
			c-0.6,0.6-3.5,1.2-3.5,1.2s-2.6-1.6-2.4-2.4c0.2-0.8-0.4-3.8-0.2-4.2c0.2-0.4-1-1.9-1-2.1c0-0.2,0.7-4.3,1.1-5.5
			c0.4-1.2-0.4-3,0-3.6c0.4-0.6-2.4-2.4-2.4-2.4l-1.4,2.4c0,0-0.9-0.2-2.1-1.2c-1.2-1-2.9-2.3-3.5-3.6c-0.2-0.4,1.2-5.9,1.2-5.9
			s4.5-3,4.7-3.6c0.2-0.6,5.1-2.6,4.7-2.4c-0.4,0.2,1.6,0.3,2-0.1c0.4-0.4,2.5-0.7,2.5-0.7l1.5-2.1l2-1.6L526.9,487.4z"/>
		<path class="st2" d="M586.4,509c0,0-0.2,8.9,0,9.5c0.2,0.6,0.6,4.1,1.2,4.7c0.6,0.6,1.2,3.6,1.2,3.6s2,4.7,2.4,4.7
			c0.4,0,2.6,5.3,3.5,5.9c1,0.6,3.2,2.9,3.2,2.9l-5.6-4l-5.5-4.4l-2.7-1.6c0,0-2.8,1.4-4.3,3.2c-0.8,1.1-6.5,0.7-7.5,0.3
			c-1-0.4-8.4-2-8.2-2.4c0.2-0.4-1.6-1.9-2.4-3.6c-0.5-1.1-3.5-3.6-3.5-3.6s-3.9-0.4-3.5-1.2c0.4-0.8,0-2.4,0-2.4v-2.4
			c0-0.6,6.4-3.3,6.4-3.3s2.4-2.1,1.9-1.7c-0.6,0.4,2.4-1.2,2.8-1.8c0.4-0.6,4.2-1.5,4.2-1.5l3.5-1.2l0.7-2.5l0-3.3
			c0,0-0.6-2.7-0.6-4.9c0-2.2-0.6-4.5,0-4.7c0.6-0.2,2.1-1.8,2.4-3.6c0.1-0.9,0-5.9,0-5.9s3.7,5.1,4.2,5.5c1.2,0.9,1.7,1.6,1.7,1.6
			s1.9-0.6,3.2-2c1.5-1.6,2.7-2.7,3.3-2.7c0.6,0,2.7-0.4,2.9,0c0.2,0.4,3.5,2.4,3.5,2.4s0,4.5-1.2,5.9c-1.2,1.4-3.3,5.1-3.5,5.9
			c-0.2,0.8-0.6,4.9-1.2,4.7C588.2,505.3,586.4,509,586.4,509z"/>
		<path class="st2" d="M518.7,528c0.6,0,4.1-1.8,5.3-2.4c1.2-0.6,4.3-2.6,4.7-2.4c0.4,0.2,1.4,0.8,2.4-1.2l2.4-4.7
			c0.6-1.2,0.4-2.6,1.2-2.4c0.8,0.2,5.9,1.1,6.4,1.7c0.6,0.6,3,2.1,3.8,2.2c2.1,0.2,3.4-0.3,5.3-0.6c0.4-0.1,2.4-0.8,2.8-0.6
			c0.4,0.2,1.7,0.9,1.7,0.9v4.7c0,0-0.3,0.9,1.5,0.9c2.4,0,3.5,2,3,2.4c-0.5,0.4-0.6,1.3,0.2,2.7c0.8,1.4,2.5,4.3,2.1,4.9
			c-0.4,0.6,0.7,3,0.3,3.4c-0.4,0.4-4.7-0.6-5.6-0.2c-2.8,1.2-4.9-0.9-6.9,0.7c-2,1.6-3.8,1.3-5.2,0.7c-1.4-0.6-4.3-3-5.9-3.6
			c-1.6-0.6-5.5-2.4-5.9-2.4c-2.3,0-3.9,2-3.5,1.2l-1.6,1c0.7-0.1-3.7,0.3-5.5-1c-1.2-0.9-2.4-2.4-2.4-2.4S518.1,528,518.7,528z"/>
		<path class="st2" d="M588.8,542.2c0,0-4.5,4.9-5.9,5.9c-1.4,1-2.2,3.2-2.4,3.6c-0.2,0.4-0.6,2.6,0,3.6c0.6,1,0.4,8.5,0,8.3
			c-0.4-0.2-0.2,1.2-2.4,2.4c-2.2,1.2-8,2.4-8.2,2.4c-0.2,0-2.2,1.6-3.5,3.6c-1.4,2-2.4,3.6-2.4,3.6l-2.4,2.4l-3.5-2.4
			c0,0-1.5-2.1-1.2-2.4c0.5-0.5,1.6-0.6,2.4-1.2c0.8-0.6,1.8-3.2,1.2-5.9c-0.6-2.8-0.8-2.2,0-3.6c0.8-1.4,0-2.4,0-2.4
			s-2.7-1-2.4-1.2c0.4-0.2,1.4-1.6,2.4-2.4c1-0.8,1.8-3.2,2.4-3.6c0.6-0.4,2.2-1.2,3.5-2.4c1.4-1.2,3.9-2,3.5-3.6
			c-0.4-1.6-3.5-3.6-3.5-3.6H564l-1.2,2.4l-1.2-5.9c-0.2-1,0.5-2.9,0.1-2.7c-0.4,0.2-0.6-5.1-0.6-5.1l0.2,0.9c0,0-0.1-1.6-1.6-3.1
			l-1.1-2.9l1.2-1.1l4.2,5.7c0,0,5.5,1.8,6.9,2c0.7,0.1,1.8,1.1,3.8,0.7c2-0.4,3.3,0.8,4.6-0.3c1.4-1.2,4.7-3.6,4.7-3.6l2.4,1.2
			c-0.4-0.2,5.7,4.9,5.9,4.7c0.2-0.2,4.7,3.6,4.7,3.6v1.2h-1.2c-1.2,0-4.5,1.8-4.7,1.2C590.9,541.6,588.8,542.2,588.8,542.2z"/>
		<path class="st2" d="M527.9,534.4c0,0,3-1.9,4.3-1.7c1.3,0.3,5.1,1.9,5.9,2.4c0.8,0.5,3.5,2.1,3.9,2.4c1.2,0.8,2.3,1.3,3,1.7
			c0.9,0.5,1.9-0.2,2.5-0.5c0.6-0.2,1.9-0.6,2.4-1.2c0.4-0.6,4.4,1,5.9,0c1.5-1,3.5,0,3.5,0h2.4c0,0-0.1,3.4,0.5,4.7
			c0.6,1.2-2.8,2.4-2.8,2.4s-0.7,0.9-1.2,1.2c-0.4,0.3-0.2,5-1.2,4.5c-1-0.5-0.8-1.8-2.7-2.7c-1.9-0.9-3.2-1.8-3.2-1.8
			s-4.8,0.4-4.7,0c0.1-0.4,0.1,1.3-0.4,1.8c-0.6,0.5-0.1,1.4-1.9,0.6c-1.9-0.8-1.7-0.3-4.7-1.2c-3-0.9-4.5-2.5-4.7-3.6
			c-0.2-1.1-0.8,0.2-2.4-1.2c-1.5-1.4-1.7-0.6-2.3-1.9c-0.5-1.1-2.4-2.9-2.4-2.9L527.9,534.4z"/>
		<path class="st2" d="M533.4,549.3l1.2-3.6l-0.3-2.8c0,0,0.7,2.4,5.4,4.2c0.4,0.2,3.2,0.4,3.2,0.4l2.4,1.1l1-2.9c0,0,3.5,0,4,0.3
			c0.4,0.3,1.6-0.5,3.1,0.9l2.4,1.9l1.2,1.7c0,0-3,0.5-3.5,1.2c-0.5,0.6-2.1,2.8-1.2,3.6c0.9,0.8,0.8,3.9,1.2,4.7
			c0.4,0.8,2.4,2.4,2.4,2.4s-1,0-1.2,1.2c-0.2,1.2-0.3,3.3-1.2,3.6c-0.9,0.2-2.4-2.4-2.4-2.4s-1-2.5-1.2-3.6c-0.2-1-2.4-2.4-2.4-2.4
			s-1.9,0.2-2.4,0c-0.5-0.2-3.6,0.1-4.7,1.2c-1.1,1-4.2,1.5-4.7,2.4c-0.5,0.8-1.2,3.6-1.2,3.6l-2.4,1.2c0,0-2.3-0.4-2.4-2.4
			c0-2-1.1-4.2-0.2-5.7c0.9-1.5,0.2-2.6,0.2-2.6s-0.6-1.7-1.5-2c-0.8-0.2-1.8-1.6-1.8-1.6l3.3-2.4L533.4,549.3z"/>
	</g>
</g>
</svg>
