<?xml version="1.0" encoding="utf-8"?>
<!-- Generator: Adobe Illustrator 21.0.2, SVG Export Plug-In . SVG Version: 6.00 Build 0)  -->
<svg version="1.1" id="レイヤー_1" xmlns="http://www.w3.org/2000/svg" xmlns:xlink="http://www.w3.org/1999/xlink" x="0px"
	 y="0px" viewBox="0 0 960 750" style="enable-background:new 0 0 960 750;" xml:space="preserve">
<style type="text/css">
	.st0{fill:#3ECCC8;stroke:#FFFFFF;stroke-width:0.6;}
	.st1{fill:#2A7F38;stroke:#FFFFFF;stroke-width:0.6;}
</style>
<symbol  id="日本地図_3" viewBox="-82.6 -185.3 163.6 180.8">
	<g id="中部_6_">
		<path class="st0" d="M64.2-17.9c0.2-0.4,0.6,5.5,1.2,5.9c0.6,0.4,0.5,2.9,0.5,2.9l3,4.2c0,0,3.1-1.9,3.5-2.4
			c0.3-0.3,2.5-1.9,3.3-4.8c0.4-1.3,1-1.2,2.1-1.1c0.6,0.1,1.6,0,1.6,0l1.2-3.6c0,0-1.6-3.9-3.5-4.7s-3.5-2.6-3.5-2.4
			c0,0.2-1.5-3.9-1.7-4.4c-1-2.7-0.4-4.1-0.4-4.1s0.3-3.9,0.9-4.5c0.7-0.6,3.6-2.3,3-2.1c-0.6,0.2-4.4-3.1-4.2-3.9
			c0.2-0.8-2.7-4.5-2.4-5.9c0.4-1.4,1.2-3.4,0-3.6c-1.2-0.2-7.1-2.4-7.1-2.4s-4.9-0.8-4.7-1.2c0.2-0.4,0.4-5.3,0-5.9
			c-0.4-0.6-2.5-1.8-2.4-2.4c0.3-1.8,0.4-2.4,1.2-3.6c0.8-1.2,0-4.3,0-4.7c0-0.4-0.8-0.8-1.2-1.2s-5.9-2.4-5.9-2.4l-2.4-4.7
			c0,0,0-0.6-2.4-2.4c-2.4-1.8-3.3-2.6-3.5-3.6s-5.1-1.4-4.7-1.2c0.4,0.2-0.5,1.7-0.4,3.2c0,0.3-0.4,1-0.4,1s-1,1.1-1.6,2.8
			s-1.2,2-1.2,3.6c0,1.6-0.2,3-1.2,2.4c-1-0.6-4.3-1.2-4.7-2.4c-0.4-1.2-2.6-2.7-3.5-3.6c-1.7-1.7-2.8-3.8-3.5-3.6
			c-0.8,0.2-3.5,1.6-3.5,1.2c0-0.5-2.4-1.6-2.4-1.2c0,0.4-1.2,2.4-1.2,2.4L10-80.6l-1.2,1.2l-2.7-3.3l-3.2-5c0,0-0.6,0.8-1.2,2.4
			c-1,2.7-0.6,5.4-0.6,5.4l-1.7,1.7l-1.2,1.2c0,0,3.7,2,4.7,2.4c1,0.4,6.9,1.6,7.1,2.4c0.2,0.8,3.5,3.6,3.5,3.6l3.5,1.2
			c0.6,0.2,5.1-1,5.9,0c0.8,1,2.4,3.8,4.7,5.9c2.4,2.2,5.7,2.4,5.9,3.6s0.4,2.8,2.4,4.7c2,2,2.6,4.1,3.5,4.7c1,0.6,1.6,3.2,1.2,3.6
			c-0.4,0.4,1.2,7.1,1.2,7.1s4.7,3.8,7.1,4.7c2.4,1,5.3,0.4,7.1,2.4c1.8,2,4.9,3.2,5.9,4.7c0.7,1.2,2.5,3.1,2.4,3.6
			C63.8-21,64-17.5,64.2-17.9z"/>
		<path class="st0" d="M20.6-25c0,0,3.5,2.4,3.5,3.6c0,1.2,2.2,2.6,2.4,3.6c0.2,1,2.4,3.6,2.4,3.6s1-4.9,0-7.1
			c-1-2.2-1.4-4.7-1.2-4.7s1.2-0.8,1.2-1.2s3.3,1.8,3.5,1.2s0-3.6,0-3.6s-2-0.2-2.4-1.2c-0.4-1-0.8-3.4-2.4-4.7
			c-1.6-1.4-3.9-3.9-4.7-3.6c-0.8,0.4-3.5,1.2-3.5,1.2s2.2,2.4,2.4,3.6c0.2,1.2,0.6,1,1.2,2.4c0.6,1.4-0.2,3.9,0,3.6
			c0.2-0.4-2.4-2.4-2.4-2.4s-0.6-1.2-1.2,0c-0.6,1.2,1.6,3.6,1.2,3.6C20.2-27.3,20.6-25,20.6-25z"/>
		<path class="st0" d="M2.9-87.7c0,0,2.5,3,2.4,3.6s3.5,4.7,3.5,4.7s4.1-2.7,4.4-3.9c0.4-1.8,2.2,0.5,3.8-0.2
			c0.8-0.4,2.7-0.6,2.7-0.6l3.7,3.9c0,0,1.9,0.9,2.6,2.5c0.9,2.2,4.7,2.8,4.7,2.8s1.6,0.9,1.5-0.5c-0.1-1.7,0.8-4,0.8-4
			s0.5-2.7,1.7-3.6c1.1-0.9,0.8-2.8,1.2-3.6c0.4-0.8,0.9-1.5,0-1.2s-3.7-1.6-5-2.8c-2.2-1.8-3.4-2.3-4.4-3.2c-0.9-0.8-0.3-1.9-0.9-4
			c-0.6-2.1-0.2-1.5,0.3-2.9c0.5-1.3,3.3-3,3.3-3s2.2-1.3,1.9-0.8c-0.3,0.5,0.4,2,1.2,2.4c1,0.5,2.4-2.4,2.4-2.4v-4.7
			c0,0-0.7-2.3-1.2-3.6c-0.5-1.2,0.8-0.4,1-2.9c0.2-3,0.2-4.5,0.2-4.5l2.6-2.1l0.3-1.5c0,0,0.8-1.7-0.9-2.2c-2-0.7-2.9-1.4-4.4,0.2
			c-1.5,1.6-1.1,1.5-2.4,1.2c-1.3-0.4-1.3,0.2-2.4,0c-1.1-0.2-2.4-0.6-2.4-0.6s0,0.5-2.7-1.3c-2.4-1.6-2-1.6-2-1.6s0-3-1.2-4.7
			c-1.5-2.2-0.9-1-0.8-3.5c0.1-2.4-0.2-5.1-0.7-6.6c-0.5-1.3-1.2-3.2-1.7-5.4c-0.4-1.9-0.5-1.5-3.8-2.8c-1.7-0.7-1.5-2.3-3.3-3.7
			c-1.6-1.2-3.4-2-4.4-2.8c-1.2-0.9-4.9,1-5.4,1.1c-0.5,0-1.4-0.9-2.4-1.2s-2.3,2.9-2.3,2.9s0.4,3.4,1.1,4.2
			c3.5,3.5,3.5,2.2,1.8,5.5c-0.6,1.1-4.4,1.8-3.5,3.2c0.9,1.5,1.8,2.7,0.5,4.3c-0.6,0.7-1.2,0.4-2,2.6c-0.8,2.2-0.9,2.1-2.7,3.4
			c-1.9,1.2-1.2,3.2-1.2,3.2s0,0.9,0.3,1.6c0.4,0.9,1,0.3,2.7,1.2c1.2,0.6,3.8,2.9,3.8,2.9s1.5,2.2,1.2,3.2
			c-0.1,0.6-1.6,1.5-1.6,1.5s-0.6-0.3-0.7,1.6c-0.1,1.1,0.7,1.8,1.4,3.8c0.7,2,0.6,3.1,1.2,3.6c0.6,0.4,1.6,1.5,1.2,2.4
			c-0.4,0.9-1.2,2.4-1.2,2.4l-0.8,1.5l1.9,3.7L1.7-96c0,0,0.7,2.2,0.8,3.4C2.7-91.7,2.9-87.7,2.9-87.7z"/>
		<path class="st0" d="M25.2-152.6c0,0,0.1-3.4,1.3-5.1c1.2-1.6,2.9-1.2,3.5-1.2c0.6,0,1.3,6.4,1.2,7.1c-0.1,0.7,2.7,3.1,2.4,3.6
			c-0.3,0.4,0.7-2.1,1.2-2.4c0.5-0.2,3.7-0.8,3.7-0.8s0.7,1.3,1,2c0.3,0.7,3.5,0,3.5,0l5.5,0.2c0,0-3.5,1.7-2.8,2.4
			c0.9,0.9,2.7,2,3.6,2.3c4.6,1.3,3,1.6,3.9,3.3c0.2,0.4,0.2,4.2,0.2,4.2s-3.1,0.7-4,2c-1.7,2.4-2.8,3.5-2.8,3.5s0.7,3.3,0.1,2.9
			c-1.6-1-6,0.6-6,0.6l-2.5,2.7l-4.2-1.5l-1.6,1.2c0,0-0.6,1.6-2.4,1.2c-1.7-0.5-3.5,0-3.5,0l-4.7-2.4c0,0-1,0-1.2-1.2
			c-0.3-2.7-0.6-3.6-1.2-4.7c-0.2-0.4-1.3-1.7-1.2-2.4c0.1-0.7,0-1.9,0.5-2.3c0.4-0.5,2-2.3,2-2.3s-1.1-2.6-0.1-4.9
			c1-2.3,1.4-6.2,1.8-6.8C23.5-153.2,25.2-152.6,25.2-152.6z"/>
		<path class="st0" d="M-30.1-84.2l0.1,3.3c0,0,0.2,0.7,2.2,2.7c2,1.9,4.7,1.2,4.7,1.2l-1.2-4.7c0,0-0.2-1.2,0-2.4
			c0.2-1.2,2.6-2.7,3.5-3.6c1-0.9,3.3-1.5,4.7-1.2c1.4,0.3,2.6,1,3.5,2.4c0.9,1.4,2.3,1.8,2.4,3.6c0.1,1.8-0.3,3,1.2,3.6
			c1.5,0.6,3.5,2.4,3.5,2.4h3.5c0,0,1.5-1.9,2.4-2.4C1.1-79.8,1-82.1,1-82.1s-0.3-1.8,0.7-3.3c1.1-1.5,1.2-2.3,1.2-3.6
			c0-3.9-1.2-7.2-1.6-7.5c-0.5-0.3-3.4-2.7-3.9-4.3c-0.5-1.6-0.6-2.6-2.7-2.4c-2,0.2-3.9-0.1-5.1,0.9c-1.2,0.9-2.9,1.3-4.3,1.5
			c-1.5,0.2-4,0.9-4.4,0.2c-0.3-0.7-1.1-0.7-1.2-1.3c-0.1-0.6-1.1-4.1-3.2-6.5c-1.1-1.3-1.4-1.4-3,0.6c-1.1,1.4-2.4,2.4-2.4,2.4
			s-3.5-4-3.5-3.6c0,0.4-0.3,4.6-0.3,5.1c-0.4,4.3-1.1,7.9-0.9,9.1c0.2,1.2,0.8,3.3,0.8,3.3c0.4,0.5,1.1,3.1,1.1,3.1l1.6,1.3
			L-30.1-84.2z"/>
		<path class="st0" d="M-2.9-144.5c1.3-2,2.3-2.8,1.1-3.6c-1.3-0.9-1.3-1.5-1.9-2.1c-0.8-0.9-1.3-2.7-1.5-3.9
			c-0.2-1.2-0.3-0.7-1.9-1.4c-2.5-1.1-1.8-0.7-3.6-0.6c-1.1,0.1-0.7,1-2.9,0.9c-2.2-0.1-4.1-2.2-4.8-1.6c-0.7,0.7-1.1,1.2-2.3,2.7
			s-2.2,4.4-3.5,4.7c-1.3,0.3-5.3-0.5-6.3-1.2c-1.2-0.7-2.6,0.1-3.1-1.2c-0.5-1.1-3.1-1.8-2.7-3.4c1-3.7-0.8-4.9-0.8-4.9
			s-1,0.3-2.4,1.2c-1.4,0.9-2.4,2.4-2.4,2.4s-1.8,2.1-2.4,1.2c-0.5-0.9-2.4-2.4-2.4-2.4s-2,3.5-1.2,4.7c0.8,1.3,2.6,2.4,2.4,3.6
			c-0.2,1.2,0.3,2.2,0,2.9c-0.3,0.8-1.2,0.8-1.2,1.8c0.1,1-0.5,1.7-0.5,1.7s-1.5,1-1.9,1.9c-0.4,0.9-1.2,3.6-1.2,3.6
			s-0.6,1.8,0.5,2.8c0.5,0.5,0.7,0.7,1.9,1.9c1.4,1.4,1.3,1.9,3.8,1.6c2.5-0.3,2.5-0.7,4.1-0.2c1.3,0.5,1.7,0.7,3.9,1
			c2.2,0.2,3.1,0.4,3.5,1.2c0.4,0.8,1.7,1.1,1.2,2.4c-0.5,1.3-2.4,3.6-2.4,3.6s-2.4,1.2-1.8,1.4c0.5,0.2-0.9,3.2-0.5,3.3
			c0.4,0.1,1.4,0.5,1.4,0.5s1.3,2.4,1,3.1c-0.3,0.7,1.2,5.9,1.2,5.9l3.5,3.6c0,0,0.9-1.1,2.4-2.4c0.8-0.7,0.9-2.7,2.4-1.2
			c1.5,1.5,1.6,1.5,2.4,3.6c0.9,2.6,1.7,4.1,2.4,4.7c0.6,0.6,3.5,0,3.5,0s2.8-0.4,4.7-1.2c1.9-0.8,2.3-0.9,3.5-1.2s4,0.4,4,0.4
			l2.2-4.3l-0.9-1.5c0,0-1.2-0.2-1.2-1.6c0-1.4,0-1.7-0.9-3.1c-0.8-1.3-1.5-3.2-0.9-4c0.6-0.8,2.1-2.1,2.1-2.1l-0.9-2.6
			c0,0-0.4-1-2.4-2.4c-1.9-1.3-4.5-1.9-4.5-1.9s0,0-0.2-1.7c-0.2-1.7,0.2-2.8,1.2-3.6c1-0.7,1.8-1,2.4-2.4c0.5-1.4,0.5-1.9,2-3.1
			c2.1-1.7,0.6-3.6,0.6-3.6s-1.6-1.7-0.2-2.3L-2.9-144.5z"/>
		<path class="st0" d="M-52.5-107.9c0,0,6.6,5.2,7.1,5.9c0.4,0.7,3.2,4,3.5,4.7c0.4,0.8,3,7.2,3.5,7.1c0.5,0,1.2,2.4,2.4,4.7
			c1.2,2.4,2.7,2.8,2.4,3.6c-0.3,0.8-1.2,5.9-1.2,5.9s0.2,1.2,0,2.4c-0.2,1.2-2.7,4.2-2.4,4.7c0.4,0.6,1.1,3.9,1.2,4.7
			c0.1,0.8,1.4,3.9,1.2,3.6c0-0.1-0.1-0.1-0.1-0.1c0,0,0.4,0.6,2.5,1.3c2.6,0.9,2.5,0.4,4.7,1.2c2.2,0.8,3.3,1.8,4.7,2.4
			c1.4,0.6,4.3,3.1,5.9,3.6c1.5,0.5,2.9,1.6,3.5,1.2c0.6-0.5,2.4-2.4,2.4-2.4s0-1.6-1.2-2.4c-1.2-0.7-3.5-2.4-3.5-2.4s0.3-1.6,0-2.4
			c-0.3-0.8-1.6-2-2.4-2.4c-0.7-0.4-2.4,0-2.4,0s0.4-1.8-1.2-2.4c-1.5-0.6-2.4-2.4-2.4-2.4h-3.5l-1.2-1.2l-1.2-2.4l1.2-1.2
			c0,0,4.1-0.7,3.5,0s0,2.4,0,2.4l2.4-1.2v-2.4l1.2-2.4l-1.2-1.2h-2.4c0,0-2.4-0.6-3.5-2.4c-1.2-1.8-1-2.3-1.2-3.6
			c-0.2-1.3,0-4.2,0-4.2s0,0-1.2-0.5c-0.5-0.2-2.7-6.1-2.4-7.1c0.3-1,1.2-13,1.2-13s0-1.4-0.2-1.9c-0.2-0.5-1.3-4-1-4.7
			c0.3-0.7,0-3.3,0-3.3l-2.3-0.8c0,0-2.6-1-3.5,1.2c-0.9,2.2-1.2,2.4-1.2,2.4s-7.3,0.6-7.1,0c0.2-0.6-1.4,0.1-2.4,1.2
			c-1,1.2-2.4,3.6-2.4,3.6S-52.5-107.9-52.5-107.9z"/>
		<path class="st0" d="M1.7-164.7c0-1.7,0.5,7,1,7s1.8,0,3.7,1.3c0.4,0.3,3.5,2.4,3.5,2.4s1.9,3.4,3.5,3.6c1.6,0.2,2,0.2,2.4,1.2
			s1.2,3.1,1.2,3.6s1.2,3.6,1.2,3.6s0.4,4.9,0.9,4.4c0.4-0.5,1.6-1.8,1.3-2.9c-0.9-2.9,0.3-3.7,0.6-5.2c0.4-1.5,0.9-3.9,1-4.4
			c0.3-1.2,1-2,1.5-2.2c0.9-0.3,1.6,0.5,1.8-0.5c0.2-0.9,0.1-4,0.8-4.3c0.7-0.3,0.2-1.1,1.7-1.5c1.2-0.3,1.4-0.8,2.4,0.3
			c0.9,0.9,0.9,6.7,0.9,6.7l2.4,3.6c0,0,0.1-1.7,1.2-2.4c1.1-0.7,1.5-0.4,3.1-0.7c1-0.2,1.1,1.4,1.6,1.9c0.5,0.5,3.1-0.1,3.5,0
			c0.4,0.1,3-0.3,3.5,0c0.6,0.3,2,0.2,2,0.2s1.1-2.8,0.4-3.8c-0.7-0.9-0.5-1.7-0.5-2.4c0-0.7,0.6-3.9,0.6-3.9l1-1.4
			c0,0,1.3-0.5,2.5-5.3c0.2-0.8,2.4-3.6,2.4-3.6s-0.5-3.2-1.2-3.6c-0.7-0.3-1.7-2-2.4-2.4c-0.7-0.4-1.2-2.8-2.4-3.6
			c-1.1-0.7-1.2-1-2.4-2.4c-1.2-1.4-2.9-4.2-3.5-3.6c-0.6,0.7-3.8,3.2-3.5,3.6c0.3,0.4-1.8,4.1-1.2,4.7c0.6,0.6,1.1,5.4,1.2,5.9
			c0.1,0.6,1.2,3.6,1.2,3.6l2.4,1.2v3.6c0,0,2.2,1-1.2,1.2c-3.3,0.2-7.1,0-7.1,0s-2.4-0.4-2.4-1.2c0-0.8-1.9-0.5-1.2-2.4
			c0.8-1.9-1.2-3.6-1.2-3.6l-4.7-1.2l-1.2-2.4c0,0,0.4-0.6-1.2-2.4c-1.6-1.8-3.6-2.3-3.5-4.7s2.1-4,1.2-4.7
			c-0.9-0.8-2.9,0.9-3.5,1.2c-0.6,0.2-5.7,0.6-7.1,1.2c-1.4,0.6-3.1-1.6-4.7-1.2c-1.6,0.4-3.7,0.8-4.7,1.2c-1,0.4-2.4,1.2-2.4,1.2
			s-1.3,1.2-1.2,2.4c0.2,1.1,0,2.4,0,2.4s-3.1-0.1-2.4-1.2c0.8-1.1-0.3-6.1-1.2-4.7c-0.9,1.6-1.5,3.4-1.5,3.4l0.6,5.2
			c0,0,1.4,0.3,4.5,2c3,1.7,4.7,2.9,4.7,3.6C1.7-166.4,1.7-164.3,1.7-164.7z"/>
		<path class="st0" d="M-33.6-164.7c0,0-0.6-0.2-1.2,1.2c-0.6,1.4-2.9,3.7-2.4,3.6c0.5-0.1,1.2,1.8,1.2,2.4s-0.7,3.3,0.1,3.8
			c0.8,0.6,1,1.2,2.3,2.1c1.4,1,3.3,1.3,3.5,1.2c0.3-0.1,2.3,1.2,2.4,1.2c0,0,1.8,0.4,2.4,0c0.6-0.4,1.6,0.2,2.2-0.8
			c0.6-1,3.5-6.1,4-5.9c0.5,0.2,0.6-1.4,2.1-0.4c1.5,1,3.8,1.2,4.7,1.2s1.7-1.2,2.4-1.2c0.6,0.1,4.2,1.2,4.8,1.7
			c0.5,0.5,1.8-3.3,2.3-2.9c0.5,0.4,1.5,1.1,2.4,1.2c0.7,0.1,3.3-1.3,3.3-1.3l-0.3-0.7c-0.3-3-0.2-2.3-0.3-3c-0.3-3-0.2-3.1-0.4-5.8
			c0-0.2-1.6-1.1-2.3-1.7c-1.6-1.3-2.6-1.8-3.4-2.4s-3.8-1-3.7-1.6s0.2-1.3,0-2.4c-0.2-1.1-0.6-2.6,0-3.6s1.4-2.6,1.4-2.6
			s-3.7,0.8-5,0.2c-1.3-0.5-4.4-1.9-5.9-2.4c-1.5-0.5-5.9-1.2-5.9-1.2s0.4,1.8,1.2,2.4c0.8,0.6,5.5,1.9,5.9,2.4
			c0.4,0.4,2.4-0.2,2.4,1.2c0,1.4,1.4,1.5,0,2.4c-1.4,0.9-2.4,2.4-2.4,2.4s-2.6-0.6-2.4-1.2s-0.3-3.1-2.4-2.4
			c-2.1,0.7-4.7-0.1-4.7,1.2c0,1.3-1,4-1.2,3.6c-0.2-0.4-1.2-1.2-1.2-1.2s-0.6-1.1,0-2.4c0.6-1.2,2.9-1.1,2.4-2.4
			c-0.5-1.3-2.1-1.4-2.4-1.2c-0.2,0.2-2.3,1.5-2.4,2.4c-0.1,0.9-1.3,2.8-1.2,3.6c0.1,0.8,1.7,1.8,1.2,2.4c-0.5,0.6-2.7,3.3-2.4,3.6
			c0.4,0.3,1,0.1,1.2,1.2c0.2,1.1,1.2,2.4,1.2,2.4L-33.6-164.7L-33.6-164.7z"/>
		<path class="st0" d="M-58.4-113.8c0,0,0,1.3,1.2,2.4c1.1,1.1,4.7,3.6,4.7,3.6s-0.2-1.3,0-2.4c0.2-1,1.5-2.6,2.4-3.6
			c1.5-1.7,1.6-1.1,3.5-1.2c2-0.1,4.7,0,4.7,0s1.1,0.4,1.7-0.9c0.7-1.5,1.8-2.7,1.8-2.7h2.4l0.5-3.3l2.4-2.1c0,0,0.4-1.3,1.3-1.8
			s0.4-1.9,0.4-1.9s0-1.8-2-2.3c-1.5-0.4-5.4-0.9-5.4-0.9s-2-1.2-2.9-0.7c-1,0.5-4.4,0.6-4.7,0c-0.3-0.6-2.9-2.3-2.4-2.4
			c0.1,0,0.1,0,0.1,0c0,0-1,0.2-1.3-1.2c-0.3-1.6,0.8-5,0.2-3.2c-0.2,0.6-3.3,2.3-3.5,3c-0.2,0.7-2.6-1-2.6-1s1.4-1.9,1.2-2.4
			c-0.5-1-1.8-2.8-3.5-3.6c-1.7-0.8-3.8-0.5-3.5-1.2c0.2-0.7-0.4-0.5-1.2-1.2c-0.8-0.7-1.7-1.4-2.4-2.4c-0.7-1-1.6-1.7-2.4-2.4
			c-0.8-0.7-1.4-1.7-1.6-1.3c-0.2,0.4-3.7-2.1-4.3-1.1c-0.5,1-0.6,2.8-2.4,2.4s-2.4,0-2.4,0l-2.4,2.4c0,0-1.8,1.9-1.4,2.8
			c0.5,0.9-0.8,1.2,0.2,2c1,0.8,2.9-2.6,3.5-2.4s2.1,2.9,2.4,2.4c0.3-0.6,3.5-1.2,3.5-1.2s-0.9-0.5,1.2,1.2c2.1,1.7,2.5,0.7,3.5,1.2
			c1,0.5-1.1,2.4,1.2,2.4c2.3-0.1,3.2-1.1,3.5,0c0.3,1.1-0.8,5,0,4.7c0.8-0.3,3.4-0.3,3.5-1.2s0.7-3.7,1.2-1.2
			c0.5,2.5,1.2,3.8,1.2,4.7c0,0.9-2,3-2.4,3.6c-0.3,0.5-2.2-1.1-2.4,1.2c-0.2,2.3-0.4,2.6-1.2,3.6c-0.8,1-1.6,1.7,0,2.4
			c1.7,0.6,2.7,0.7,3.5,2.4C-58.8-116.9-58.4-113.8-58.4-113.8z"/>
	</g>
	<g id="中部_3_">
		<path class="st1" d="M64.2-17.9c0.2-0.4,0.6,5.5,1.2,5.9c0.6,0.4,0.5,2.9,0.5,2.9l3,4.2c0,0,3.1-1.9,3.5-2.4
			c0.3-0.3,2.5-1.9,3.3-4.8c0.4-1.3,1-1.2,2.1-1.1c0.6,0.1,1.6,0,1.6,0l1.2-3.6c0,0-1.6-3.9-3.5-4.7s-3.5-2.6-3.5-2.4
			c0,0.2-1.5-3.9-1.7-4.4c-1-2.7-0.4-4.1-0.4-4.1s0.3-3.9,0.9-4.5c0.7-0.6,3.6-2.3,3-2.1c-0.6,0.2-4.4-3.1-4.2-3.9
			c0.2-0.8-2.7-4.5-2.4-5.9c0.4-1.4,1.2-3.4,0-3.6c-1.2-0.2-7.1-2.4-7.1-2.4s-4.9-0.8-4.7-1.2c0.2-0.4,0.4-5.3,0-5.9
			c-0.4-0.6-2.5-1.8-2.4-2.4c0.3-1.8,0.4-2.4,1.2-3.6c0.8-1.2,0-4.3,0-4.7c0-0.4-0.8-0.8-1.2-1.2s-5.9-2.4-5.9-2.4l-2.4-4.7
			c0,0,0-0.6-2.4-2.4c-2.4-1.8-3.3-2.6-3.5-3.6s-5.1-1.4-4.7-1.2c0.4,0.2-0.5,1.7-0.4,3.2c0,0.3-0.4,1-0.4,1s-1,1.1-1.6,2.8
			s-1.2,2-1.2,3.6c0,1.6-0.2,3-1.2,2.4c-1-0.6-4.3-1.2-4.7-2.4c-0.4-1.2-2.6-2.7-3.5-3.6c-1.7-1.7-2.8-3.8-3.5-3.6
			c-0.8,0.2-3.5,1.6-3.5,1.2c0-0.5-2.4-1.6-2.4-1.2c0,0.4-1.2,2.4-1.2,2.4L10-80.6l-1.2,1.2l-2.7-3.3l-3.2-5c0,0-0.6,0.8-1.2,2.4
			c-1,2.7-0.6,5.4-0.6,5.4l-1.7,1.7l-1.2,1.2c0,0,3.7,2,4.7,2.4c1,0.4,6.9,1.6,7.1,2.4c0.2,0.8,3.5,3.6,3.5,3.6l3.5,1.2
			c0.6,0.2,5.1-1,5.9,0c0.8,1,2.4,3.8,4.7,5.9c2.4,2.2,5.7,2.4,5.9,3.6s0.4,2.8,2.4,4.7c2,2,2.6,4.1,3.5,4.7c1,0.6,1.6,3.2,1.2,3.6
			c-0.4,0.4,1.2,7.1,1.2,7.1s4.7,3.8,7.1,4.7c2.4,1,5.3,0.4,7.1,2.4c1.8,2,4.9,3.2,5.9,4.7c0.7,1.2,2.5,3.1,2.4,3.6
			C63.8-21,64-17.5,64.2-17.9z"/>
		<path class="st1" d="M20.6-25c0,0,3.5,2.4,3.5,3.6c0,1.2,2.2,2.6,2.4,3.6c0.2,1,2.4,3.6,2.4,3.6s1-4.9,0-7.1
			c-1-2.2-1.4-4.7-1.2-4.7s1.2-0.8,1.2-1.2s3.3,1.8,3.5,1.2s0-3.6,0-3.6s-2-0.2-2.4-1.2c-0.4-1-0.8-3.4-2.4-4.7
			c-1.6-1.4-3.9-3.9-4.7-3.6c-0.8,0.4-3.5,1.2-3.5,1.2s2.2,2.4,2.4,3.6c0.2,1.2,0.6,1,1.2,2.4c0.6,1.4-0.2,3.9,0,3.6
			c0.2-0.4-2.4-2.4-2.4-2.4s-0.6-1.2-1.2,0c-0.6,1.2,1.6,3.6,1.2,3.6C20.2-27.3,20.6-25,20.6-25z"/>
		<path class="st1" d="M2.9-87.7c0,0,2.5,3,2.4,3.6s3.5,4.7,3.5,4.7s4.1-2.7,4.4-3.9c0.4-1.8,2.2,0.5,3.8-0.2
			c0.8-0.4,2.7-0.6,2.7-0.6l3.7,3.9c0,0,1.9,0.9,2.6,2.5c0.9,2.2,4.7,2.8,4.7,2.8s1.6,0.9,1.5-0.5c-0.1-1.7,0.8-4,0.8-4
			s0.5-2.7,1.7-3.6c1.1-0.9,0.8-2.8,1.2-3.6c0.4-0.8,0.9-1.5,0-1.2s-3.7-1.6-5-2.8c-2.2-1.8-3.4-2.3-4.4-3.2c-0.9-0.8-0.3-1.9-0.9-4
			c-0.6-2.1-0.2-1.5,0.3-2.9c0.5-1.3,3.3-3,3.3-3s2.2-1.3,1.9-0.8c-0.3,0.5,0.4,2,1.2,2.4c1,0.5,2.4-2.4,2.4-2.4v-4.7
			c0,0-0.7-2.3-1.2-3.6c-0.5-1.2,0.8-0.4,1-2.9c0.2-3,0.2-4.5,0.2-4.5l2.6-2.1l0.3-1.5c0,0,0.8-1.7-0.9-2.2c-2-0.7-2.9-1.4-4.4,0.2
			c-1.5,1.6-1.1,1.5-2.4,1.2c-1.3-0.4-1.3,0.2-2.4,0c-1.1-0.2-2.4-0.6-2.4-0.6s0,0.5-2.7-1.3c-2.4-1.6-2-1.6-2-1.6s0-3-1.2-4.7
			c-1.5-2.2-0.9-1-0.8-3.5c0.1-2.4-0.2-5.1-0.7-6.6c-0.5-1.3-1.2-3.2-1.7-5.4c-0.4-1.9-0.5-1.5-3.8-2.8c-1.7-0.7-1.5-2.3-3.3-3.7
			c-1.6-1.2-3.4-2-4.4-2.8c-1.2-0.9-4.9,1-5.4,1.1c-0.5,0-1.4-0.9-2.4-1.2s-2.3,2.9-2.3,2.9s0.4,3.4,1.1,4.2
			c3.5,3.5,3.5,2.2,1.8,5.5c-0.6,1.1-4.4,1.8-3.5,3.2c0.9,1.5,1.8,2.7,0.5,4.3c-0.6,0.7-1.2,0.4-2,2.6c-0.8,2.2-0.9,2.1-2.7,3.4
			c-1.9,1.2-1.2,3.2-1.2,3.2s0,0.9,0.3,1.6c0.4,0.9,1,0.3,2.7,1.2c1.2,0.6,3.8,2.9,3.8,2.9s1.5,2.2,1.2,3.2
			c-0.1,0.6-1.6,1.5-1.6,1.5s-0.6-0.3-0.7,1.6c-0.1,1.1,0.7,1.8,1.4,3.8c0.7,2,0.6,3.1,1.2,3.6c0.6,0.4,1.6,1.5,1.2,2.4
			c-0.4,0.9-1.2,2.4-1.2,2.4l-0.8,1.5l1.9,3.7L1.7-96c0,0,0.7,2.2,0.8,3.4C2.7-91.7,2.9-87.7,2.9-87.7z"/>
		<path class="st1" d="M25.2-152.6c0,0,0.1-3.4,1.3-5.1c1.2-1.6,2.9-1.2,3.5-1.2c0.6,0,1.3,6.4,1.2,7.1c-0.1,0.7,2.7,3.1,2.4,3.6
			c-0.3,0.4,0.7-2.1,1.2-2.4c0.5-0.2,3.7-0.8,3.7-0.8s0.7,1.3,1,2c0.3,0.7,3.5,0,3.5,0l5.5,0.2c0,0-3.5,1.7-2.8,2.4
			c0.9,0.9,2.7,2,3.6,2.3c4.6,1.3,3,1.6,3.9,3.3c0.2,0.4,0.2,4.2,0.2,4.2s-3.1,0.7-4,2c-1.7,2.4-2.8,3.5-2.8,3.5s0.7,3.3,0.1,2.9
			c-1.6-1-6,0.6-6,0.6l-2.5,2.7l-4.2-1.5l-1.6,1.2c0,0-0.6,1.6-2.4,1.2c-1.7-0.5-3.5,0-3.5,0l-4.7-2.4c0,0-1,0-1.2-1.2
			c-0.3-2.7-0.6-3.6-1.2-4.7c-0.2-0.4-1.3-1.7-1.2-2.4c0.1-0.7,0-1.9,0.5-2.3c0.4-0.5,2-2.3,2-2.3s-1.1-2.6-0.1-4.9
			c1-2.3,1.4-6.2,1.8-6.8C23.5-153.2,25.2-152.6,25.2-152.6z"/>
		<path class="st1" d="M-30.1-84.2l0.1,3.3c0,0,0.2,0.7,2.2,2.7c2,1.9,4.7,1.2,4.7,1.2l-1.2-4.7c0,0-0.2-1.2,0-2.4
			c0.2-1.2,2.6-2.7,3.5-3.6c1-0.9,3.3-1.5,4.7-1.2c1.4,0.3,2.6,1,3.5,2.4c0.9,1.4,2.3,1.8,2.4,3.6c0.1,1.8-0.3,3,1.2,3.6
			c1.5,0.6,3.5,2.4,3.5,2.4h3.5c0,0,1.5-1.9,2.4-2.4C1.1-79.8,1-82.1,1-82.1s-0.3-1.8,0.7-3.3c1.1-1.5,1.2-2.3,1.2-3.6
			c0-3.9-1.2-7.2-1.6-7.5c-0.5-0.3-3.4-2.7-3.9-4.3c-0.5-1.6-0.6-2.6-2.7-2.4c-2,0.2-3.9-0.1-5.1,0.9c-1.2,0.9-2.9,1.3-4.3,1.5
			c-1.5,0.2-4,0.9-4.4,0.2c-0.3-0.7-1.1-0.7-1.2-1.3c-0.1-0.6-1.1-4.1-3.2-6.5c-1.1-1.3-1.4-1.4-3,0.6c-1.1,1.4-2.4,2.4-2.4,2.4
			s-3.5-4-3.5-3.6c0,0.4-0.3,4.6-0.3,5.1c-0.4,4.3-1.1,7.9-0.9,9.1c0.2,1.2,0.8,3.3,0.8,3.3c0.4,0.5,1.1,3.1,1.1,3.1l1.6,1.3
			L-30.1-84.2z"/>
		<path class="st1" d="M-2.9-144.5c1.3-2,2.3-2.8,1.1-3.6c-1.3-0.9-1.3-1.5-1.9-2.1c-0.8-0.9-1.3-2.7-1.5-3.9
			c-0.2-1.2-0.3-0.7-1.9-1.4c-2.5-1.1-1.8-0.7-3.6-0.6c-1.1,0.1-0.7,1-2.9,0.9c-2.2-0.1-4.1-2.2-4.8-1.6c-0.7,0.7-1.1,1.2-2.3,2.7
			s-2.2,4.4-3.5,4.7c-1.3,0.3-5.3-0.5-6.3-1.2c-1.2-0.7-2.6,0.1-3.1-1.2c-0.5-1.1-3.1-1.8-2.7-3.4c1-3.7-0.8-4.9-0.8-4.9
			s-1,0.3-2.4,1.2c-1.4,0.9-2.4,2.4-2.4,2.4s-1.8,2.1-2.4,1.2c-0.5-0.9-2.4-2.4-2.4-2.4s-2,3.5-1.2,4.7c0.8,1.3,2.6,2.4,2.4,3.6
			c-0.2,1.2,0.3,2.2,0,2.9c-0.3,0.8-1.2,0.8-1.2,1.8c0.1,1-0.5,1.7-0.5,1.7s-1.5,1-1.9,1.9c-0.4,0.9-1.2,3.6-1.2,3.6
			s-0.6,1.8,0.5,2.8c0.5,0.5,0.7,0.7,1.9,1.9c1.4,1.4,1.3,1.9,3.8,1.6c2.5-0.3,2.5-0.7,4.1-0.2c1.3,0.5,1.7,0.7,3.9,1
			c2.2,0.2,3.1,0.4,3.5,1.2c0.4,0.8,1.7,1.1,1.2,2.4c-0.5,1.3-2.4,3.6-2.4,3.6s-2.4,1.2-1.8,1.4c0.5,0.2-0.9,3.2-0.5,3.3
			c0.4,0.1,1.4,0.5,1.4,0.5s1.3,2.4,1,3.1c-0.3,0.7,1.2,5.9,1.2,5.9l3.5,3.6c0,0,0.9-1.1,2.4-2.4c0.8-0.7,0.9-2.7,2.4-1.2
			c1.5,1.5,1.6,1.5,2.4,3.6c0.9,2.6,1.7,4.1,2.4,4.7c0.6,0.6,3.5,0,3.5,0s2.8-0.4,4.7-1.2c1.9-0.8,2.3-0.9,3.5-1.2s4,0.4,4,0.4
			l2.2-4.3l-0.9-1.5c0,0-1.2-0.2-1.2-1.6c0-1.4,0-1.7-0.9-3.1c-0.8-1.3-1.5-3.2-0.9-4c0.6-0.8,2.1-2.1,2.1-2.1l-0.9-2.6
			c0,0-0.4-1-2.4-2.4c-1.9-1.3-4.5-1.9-4.5-1.9s0,0-0.2-1.7c-0.2-1.7,0.2-2.8,1.2-3.6c1-0.7,1.8-1,2.4-2.4c0.5-1.4,0.5-1.9,2-3.1
			c2.1-1.7,0.6-3.6,0.6-3.6s-1.6-1.7-0.2-2.3L-2.9-144.5z"/>
		<path class="st1" d="M-52.5-107.9c0,0,6.6,5.2,7.1,5.9c0.4,0.7,3.2,4,3.5,4.7c0.4,0.8,3,7.2,3.5,7.1c0.5,0,1.2,2.4,2.4,4.7
			c1.2,2.4,2.7,2.8,2.4,3.6c-0.3,0.8-1.2,5.9-1.2,5.9s0.2,1.2,0,2.4c-0.2,1.2-2.7,4.2-2.4,4.7c0.4,0.6,1.1,3.9,1.2,4.7
			c0.1,0.8,1.4,3.9,1.2,3.6c0-0.1-0.1-0.1-0.1-0.1c0,0,0.4,0.6,2.5,1.3c2.6,0.9,2.5,0.4,4.7,1.2c2.2,0.8,3.3,1.8,4.7,2.4
			c1.4,0.6,4.3,3.1,5.9,3.6c1.5,0.5,2.9,1.6,3.5,1.2c0.6-0.5,2.4-2.4,2.4-2.4s0-1.6-1.2-2.4c-1.2-0.7-3.5-2.4-3.5-2.4s0.3-1.6,0-2.4
			c-0.3-0.8-1.6-2-2.4-2.4c-0.7-0.4-2.4,0-2.4,0s0.4-1.8-1.2-2.4c-1.5-0.6-2.4-2.4-2.4-2.4h-3.5l-1.2-1.2l-1.2-2.4l1.2-1.2
			c0,0,4.1-0.7,3.5,0s0,2.4,0,2.4l2.4-1.2v-2.4l1.2-2.4l-1.2-1.2h-2.4c0,0-2.4-0.6-3.5-2.4c-1.2-1.8-1-2.3-1.2-3.6
			c-0.2-1.3,0-4.2,0-4.2s0,0-1.2-0.5c-0.5-0.2-2.7-6.1-2.4-7.1c0.3-1,1.2-13,1.2-13s0-1.4-0.2-1.9c-0.2-0.5-1.3-4-1-4.7
			c0.3-0.7,0-3.3,0-3.3l-2.3-0.8c0,0-2.6-1-3.5,1.2c-0.9,2.2-1.2,2.4-1.2,2.4s-7.3,0.6-7.1,0c0.2-0.6-1.4,0.1-2.4,1.2
			c-1,1.2-2.4,3.6-2.4,3.6S-52.5-107.9-52.5-107.9z"/>
		<path class="st1" d="M1.7-164.7c0-1.7,0.5,7,1,7s1.8,0,3.7,1.3c0.4,0.3,3.5,2.4,3.5,2.4s1.9,3.4,3.5,3.6c1.6,0.2,2,0.2,2.4,1.2
			s1.2,3.1,1.2,3.6s1.2,3.6,1.2,3.6s0.4,4.9,0.9,4.4c0.4-0.5,1.6-1.8,1.3-2.9c-0.9-2.9,0.3-3.7,0.6-5.2c0.4-1.5,0.9-3.9,1-4.4
			c0.3-1.2,1-2,1.5-2.2c0.9-0.3,1.6,0.5,1.8-0.5c0.2-0.9,0.1-4,0.8-4.3c0.7-0.3,0.2-1.1,1.7-1.5c1.2-0.3,1.4-0.8,2.4,0.3
			c0.9,0.9,0.9,6.7,0.9,6.7l2.4,3.6c0,0,0.1-1.7,1.2-2.4c1.1-0.7,1.5-0.4,3.1-0.7c1-0.2,1.1,1.4,1.6,1.9c0.5,0.5,3.1-0.1,3.5,0
			c0.4,0.1,3-0.3,3.5,0c0.6,0.3,2,0.2,2,0.2s1.1-2.8,0.4-3.8c-0.7-0.9-0.5-1.7-0.5-2.4c0-0.7,0.6-3.9,0.6-3.9l1-1.4
			c0,0,1.3-0.5,2.5-5.3c0.2-0.8,2.4-3.6,2.4-3.6s-0.5-3.2-1.2-3.6c-0.7-0.3-1.7-2-2.4-2.4c-0.7-0.4-1.2-2.8-2.4-3.6
			c-1.1-0.7-1.2-1-2.4-2.4c-1.2-1.4-2.9-4.2-3.5-3.6c-0.6,0.7-3.8,3.2-3.5,3.6c0.3,0.4-1.8,4.1-1.2,4.7c0.6,0.6,1.1,5.4,1.2,5.9
			c0.1,0.6,1.2,3.6,1.2,3.6l2.4,1.2v3.6c0,0,2.2,1-1.2,1.2c-3.3,0.2-7.1,0-7.1,0s-2.4-0.4-2.4-1.2c0-0.8-1.9-0.5-1.2-2.4
			c0.8-1.9-1.2-3.6-1.2-3.6l-4.7-1.2l-1.2-2.4c0,0,0.4-0.6-1.2-2.4c-1.6-1.8-3.6-2.3-3.5-4.7s2.1-4,1.2-4.7
			c-0.9-0.8-2.9,0.9-3.5,1.2c-0.6,0.2-5.7,0.6-7.1,1.2c-1.4,0.6-3.1-1.6-4.7-1.2c-1.6,0.4-3.7,0.8-4.7,1.2c-1,0.4-2.4,1.2-2.4,1.2
			s-1.3,1.2-1.2,2.4c0.2,1.1,0,2.4,0,2.4s-3.1-0.1-2.4-1.2c0.8-1.1-0.3-6.1-1.2-4.7c-0.9,1.6-1.5,3.4-1.5,3.4l0.6,5.2
			c0,0,1.4,0.3,4.5,2c3,1.7,4.7,2.9,4.7,3.6C1.7-166.4,1.7-164.3,1.7-164.7z"/>
		<path class="st1" d="M-33.6-164.7c0,0-0.6-0.2-1.2,1.2c-0.6,1.4-2.9,3.7-2.4,3.6c0.5-0.1,1.2,1.8,1.2,2.4s-0.7,3.3,0.1,3.8
			c0.8,0.6,1,1.2,2.3,2.1c1.4,1,3.3,1.3,3.5,1.2c0.3-0.1,2.3,1.2,2.4,1.2c0,0,1.8,0.4,2.4,0c0.6-0.4,1.6,0.2,2.2-0.8
			c0.6-1,3.5-6.1,4-5.9c0.5,0.2,0.6-1.4,2.1-0.4c1.5,1,3.8,1.2,4.7,1.2s1.7-1.2,2.4-1.2c0.6,0.1,4.2,1.2,4.8,1.7
			c0.5,0.5,1.8-3.3,2.3-2.9c0.5,0.4,1.5,1.1,2.4,1.2c0.7,0.1,3.3-1.3,3.3-1.3l-0.3-0.7c-0.3-3-0.2-2.3-0.3-3c-0.3-3-0.2-3.1-0.4-5.8
			c0-0.2-1.6-1.1-2.3-1.7c-1.6-1.3-2.6-1.8-3.4-2.4s-3.8-1-3.7-1.6s0.2-1.3,0-2.4c-0.2-1.1-0.6-2.6,0-3.6s1.4-2.6,1.4-2.6
			s-3.7,0.8-5,0.2c-1.3-0.5-4.4-1.9-5.9-2.4c-1.5-0.5-5.9-1.2-5.9-1.2s0.4,1.8,1.2,2.4c0.8,0.6,5.5,1.9,5.9,2.4
			c0.4,0.4,2.4-0.2,2.4,1.2c0,1.4,1.4,1.5,0,2.4c-1.4,0.9-2.4,2.4-2.4,2.4s-2.6-0.6-2.4-1.2s-0.3-3.1-2.4-2.4
			c-2.1,0.7-4.7-0.1-4.7,1.2c0,1.3-1,4-1.2,3.6c-0.2-0.4-1.2-1.2-1.2-1.2s-0.6-1.1,0-2.4c0.6-1.2,2.9-1.1,2.4-2.4
			c-0.5-1.3-2.1-1.4-2.4-1.2c-0.2,0.2-2.3,1.5-2.4,2.4c-0.1,0.9-1.3,2.8-1.2,3.6c0.1,0.8,1.7,1.8,1.2,2.4c-0.5,0.6-2.7,3.3-2.4,3.6
			c0.4,0.3,1,0.1,1.2,1.2c0.2,1.1,1.2,2.4,1.2,2.4L-33.6-164.7L-33.6-164.7z"/>
		<path class="st1" d="M-58.4-113.8c0,0,0,1.3,1.2,2.4c1.1,1.1,4.7,3.6,4.7,3.6s-0.2-1.3,0-2.4c0.2-1,1.5-2.6,2.4-3.6
			c1.5-1.7,1.6-1.1,3.5-1.2c2-0.1,4.7,0,4.7,0s1.1,0.4,1.7-0.9c0.7-1.5,1.8-2.7,1.8-2.7h2.4l0.5-3.3l2.4-2.1c0,0,0.4-1.3,1.3-1.8
			s0.4-1.9,0.4-1.9s0-1.8-2-2.3c-1.5-0.4-5.4-0.9-5.4-0.9s-2-1.2-2.9-0.7c-1,0.5-4.4,0.6-4.7,0c-0.3-0.6-2.9-2.3-2.4-2.4
			c0.1,0,0.1,0,0.1,0c0,0-1,0.2-1.3-1.2c-0.3-1.6,0.8-5,0.2-3.2c-0.2,0.6-3.3,2.3-3.5,3c-0.2,0.7-2.6-1-2.6-1s1.4-1.9,1.2-2.4
			c-0.5-1-1.8-2.8-3.5-3.6c-1.7-0.8-3.8-0.5-3.5-1.2c0.2-0.7-0.4-0.5-1.2-1.2c-0.8-0.7-1.7-1.4-2.4-2.4c-0.7-1-1.6-1.7-2.4-2.4
			c-0.8-0.7-1.4-1.7-1.6-1.3c-0.2,0.4-3.7-2.1-4.3-1.1c-0.5,1-0.6,2.8-2.4,2.4s-2.4,0-2.4,0l-2.4,2.4c0,0-1.8,1.9-1.4,2.8
			c0.5,0.9-0.8,1.2,0.2,2c1,0.8,2.9-2.6,3.5-2.4s2.1,2.9,2.4,2.4c0.3-0.6,3.5-1.2,3.5-1.2s-0.9-0.5,1.2,1.2c2.1,1.7,2.5,0.7,3.5,1.2
			c1,0.5-1.1,2.4,1.2,2.4c2.3-0.1,3.2-1.1,3.5,0c0.3,1.1-0.8,5,0,4.7c0.8-0.3,3.4-0.3,3.5-1.2s0.7-3.7,1.2-1.2
			c0.5,2.5,1.2,3.8,1.2,4.7c0,0.9-2,3-2.4,3.6c-0.3,0.5-2.2-1.1-2.4,1.2c-0.2,2.3-0.4,2.6-1.2,3.6c-0.8,1-1.6,1.7,0,2.4
			c1.7,0.6,2.7,0.7,3.5,2.4C-58.8-116.9-58.4-113.8-58.4-113.8z"/>
	</g>
</symbol>
<use xlink:href="#日本地図_3"  width="163.6" height="180.8" id="XMLID_1_" x="-82.6" y="-185.3" transform="matrix(1 0 0 -1 481.0012 405.8768)" style="overflow:visible;"/>
</svg>
