<?xml version="1.0" encoding="utf-8"?>
<!-- Generator: Adobe Illustrator 21.0.2, SVG Export Plug-In . SVG Version: 6.00 Build 0)  -->
<svg version="1.1" id="レイヤー_1" xmlns="http://www.w3.org/2000/svg" xmlns:xlink="http://www.w3.org/1999/xlink" x="0px"
	 y="0px" viewBox="0 0 960 750" style="enable-background:new 0 0 960 750;" xml:space="preserve">
<style type="text/css">
	.st0{display:none;fill:#3ECCC8;stroke:#FFFFFF;stroke-width:0.6;}
	.st1{fill:#2A7F38;stroke:#FFFFFF;stroke-width:0.6;}
</style>
<symbol  id="日本地図_3" viewBox="-110.5 -105 221 209.9">
	<path id="北海道_2_" class="st0" d="M-100.8-86.5c0,0,3,5.1,3.5,7.1s1.7,4.6,0,5.9c-1.7,1.3-2.2,0.9-4.7,3.6
		c-2.5,2.6-2.7,1.9-3.5,3.6c-0.9,1.7-2.1,2.3-3.5,2.4c-1.4,0-1.2,4.7-1.2,4.7s2,1.4,2.4,3.6c0.4,2.2,0,14.2,0,14.2s1.9,1,3.5,1.2
		c1.7,0.2,4.7,0,4.7,0l2.4,3.6c0,0,2.5,3.6,3.5,2.4c1.1-1.2,2.4-1.2,2.4-1.2l3.5,7.1c0,0,3.4,1.5,3.5,2.4c0.2,0.9,0,3.6,0,3.6
		s-3.5,3.2-3.5,4.7c0,1.6-2.4,7.1-2.4,7.1s1.6,2.8,2.4,2.4c0.7-0.5,4.7,0,4.7,0l4.7-4.7c0,0,1.3-2.4,3.5-3.6
		c2.2-1.1,8.2,1.2,8.2,1.2s3.6,0.3,4.7-1.2s5.5-1.5,5.9,0s5,7.6,5.9,8.3C-49.4-7.5-49-1-49-1s-2.5,4.5-2.4,5.9
		c0.2,1.4-2.4,7.1-2.4,7.1s2.7,4,3.5,4.7s7.1,3.6,7.1,3.6s2.8,6.2,2.4,7.1s-2.3,13.4-1.2,14.2c1.1,0.8,3,3.8,3.5,4.7
		c0.6,0.9,1.2,9.5,1.2,9.5v10.7c0,0-4.1,10.4-5.9,14.2c-1.8,3.8-2.2,5.2-2.4,7.1c-0.2,2,3.5,7.1,3.5,7.1l1.2,5.9l2.4-1.2h4.7
		l2.4,4.7c0,0,2.5-4.7,3.5-5.9c1.1-1.2,5.3-4.3,7.1-5.9c1.8-1.7,8.3-13.2,10.6-16.6c2.3-3.3,4.7-7.8,5.9-9.5s11-13.3,13-14.2
		c2-0.9,9.4-8.3,9.4-8.3s8.9-3.1,9.4-4.7c0.6-1.6,4.8-2.5,4.7-3.6s1.2-3.6,1.2-3.6l5.9-1.2c0,0,1.5-1.1,2.4,0s3.5,2.4,3.5,2.4
		l3.5-2.4l-1.2-3.6c0,0,3.2-3.8,3.5-2.4s2.4,5.9,2.4,5.9s3.2-5.1,3.5-5.9c0.4-0.8,6.8-4,8.2-3.6c1.4,0.5,7.1,1.2,7.1,1.2l8.2,8.3
		c0,0,6.1,2.7,5.9,3.6s7.1,7.1,7.1,7.1s1.8-1.1,1.2-2.4c-0.6-1.3-4.7-9.5-4.7-9.5l-2.4-7.1l-4.7-7.1l1.2-3.6L87.5,7l2.4-2.4l3.5-2.4
		L88.7,1l1.2-4.7l1.2-3.6l2.4-3.6l2.4-1.2l7.1,5.9h5.9l1.2-2.4L103-11l-2.4-5.6c0,0-5.2-0.9-8.2-1.2c-3.1-0.3-5.9-1.2-5.9-1.2
		l-2.4-3.6c0,0-6-3-7.1-3.6s-3.5,2.4-3.5,2.4s-3.4,0.5-2.4-2.4c1.1-2.8,1.5-1.9,0-2.4s-9.1-1.8-11.8,0S55.8-25,55.8-25
		s-6.9-1.5-8.2-2.4s-8.4-6.7-10.6-8.3c-2.2-1.6-16-17.7-16.5-18.9s-1.2-9.5-1.2-9.5v-8.3l-3.5-2.4v-3.6c0,0-10.7,9.8-10.6,10.5
		c0,0.7-11.6,3-15.6,6.3c-3.9,3.3-8.4,5.4-10.3,6.8c-1.9,1.4-8.2,3.6-8.2,3.6l-4.7,4.7c0,0-8.4,2.3-9.4,2.4c-1,0-6.2-2.7-8.2-3.6
		c-2.1-0.9-7.4-3-8.2-4.7s-4.7-4.7-4.7-4.7l-1.2-2.4c0,0-1.4,2.6-3.5,4.7c-2.2,2.1-2.7,3.6-3.5,4.7c-0.9,1.1-2.4,3.6-2.4,3.6
		s-5.1,0.9-5.9,0s-3.5,1.2-3.5,1.2l-5.9-7.1c0,0-2.1-5-1.2-7.1s2.4-2.9,3.5-4.7s3.9-3.1,4.7-3.6c0.8-0.5,3.8-1.5,4.7-1.2
		c1,0.3,5.9-2.4,5.9-2.4s2.4-2.8,3.5-4.7c1.2-1.9,3.5-3.6,3.5-3.6l4.7-2.4c0,0,2.3-5.4,0-5.9s-5.6-3.5-7.1-2.4s-7.1,4.7-7.1,4.7
		l-2.4,2.4l-3.5-3.6c0,0-5.1-4.8-5.9-4.7s1.7-4.9,1.2-5.9c-0.5-1.1-8.2-4.7-8.2-4.7l-2.4-2.4l-4.7,2.4c0,0-2.5,3.6-2.4,4.7
		s-0.9,5.5,0,5.9C-102.3-90.7-100.8-86.5-100.8-86.5z"/>
	<path id="北海道_1_" class="st1" d="M-100.8-86.5c0,0,3,5.1,3.5,7.1s1.7,4.6,0,5.9c-1.7,1.3-2.2,0.9-4.7,3.6
		c-2.5,2.6-2.7,1.9-3.5,3.6c-0.9,1.7-2.1,2.3-3.5,2.4c-1.4,0-1.2,4.7-1.2,4.7s2,1.4,2.4,3.6c0.4,2.2,0,14.2,0,14.2s1.9,1,3.5,1.2
		c1.7,0.2,4.7,0,4.7,0l2.4,3.6c0,0,2.5,3.6,3.5,2.4c1.1-1.2,2.4-1.2,2.4-1.2l3.5,7.1c0,0,3.4,1.5,3.5,2.4c0.2,0.9,0,3.6,0,3.6
		s-3.5,3.2-3.5,4.7c0,1.6-2.4,7.1-2.4,7.1s1.6,2.8,2.4,2.4c0.7-0.5,4.7,0,4.7,0l4.7-4.7c0,0,1.3-2.4,3.5-3.6
		c2.2-1.1,8.2,1.2,8.2,1.2s3.6,0.3,4.7-1.2s5.5-1.5,5.9,0s5,7.6,5.9,8.3C-49.4-7.5-49-1-49-1s-2.5,4.5-2.4,5.9
		c0.2,1.4-2.4,7.1-2.4,7.1s2.7,4,3.5,4.7s7.1,3.6,7.1,3.6s2.8,6.2,2.4,7.1s-2.3,13.4-1.2,14.2c1.1,0.8,3,3.8,3.5,4.7
		c0.6,0.9,1.2,9.5,1.2,9.5v10.7c0,0-4.1,10.4-5.9,14.2c-1.8,3.8-2.2,5.2-2.4,7.1c-0.2,2,3.5,7.1,3.5,7.1l1.2,5.9l2.4-1.2h4.7
		l2.4,4.7c0,0,2.5-4.7,3.5-5.9c1.1-1.2,5.3-4.3,7.1-5.9c1.8-1.7,8.3-13.2,10.6-16.6c2.3-3.3,4.7-7.8,5.9-9.5s11-13.3,13-14.2
		c2-0.9,9.4-8.3,9.4-8.3s8.9-3.1,9.4-4.7c0.6-1.6,4.8-2.5,4.7-3.6s1.2-3.6,1.2-3.6l5.9-1.2c0,0,1.5-1.1,2.4,0s3.5,2.4,3.5,2.4
		l3.5-2.4l-1.2-3.6c0,0,3.2-3.8,3.5-2.4s2.4,5.9,2.4,5.9s3.2-5.1,3.5-5.9c0.4-0.8,6.8-4,8.2-3.6c1.4,0.5,7.1,1.2,7.1,1.2l8.2,8.3
		c0,0,6.1,2.7,5.9,3.6s7.1,7.1,7.1,7.1s1.8-1.1,1.2-2.4c-0.6-1.3-4.7-9.5-4.7-9.5l-2.4-7.1l-4.7-7.1l1.2-3.6L87.5,7l2.4-2.4l3.5-2.4
		L88.7,1l1.2-4.7l1.2-3.6l2.4-3.6l2.4-1.2l7.1,5.9h5.9l1.2-2.4L103-11l-2.4-5.6c0,0-5.2-0.9-8.2-1.2c-3.1-0.3-5.9-1.2-5.9-1.2
		l-2.4-3.6c0,0-6-3-7.1-3.6s-3.5,2.4-3.5,2.4s-3.4,0.5-2.4-2.4c1.1-2.8,1.5-1.9,0-2.4s-9.1-1.8-11.8,0S55.8-25,55.8-25
		s-6.9-1.5-8.2-2.4s-8.4-6.7-10.6-8.3c-2.2-1.6-16-17.7-16.5-18.9s-1.2-9.5-1.2-9.5v-8.3l-3.5-2.4v-3.6c0,0-10.7,9.8-10.6,10.5
		c0,0.7-11.6,3-15.6,6.3c-3.9,3.3-8.4,5.4-10.3,6.8c-1.9,1.4-8.2,3.6-8.2,3.6l-4.7,4.7c0,0-8.4,2.3-9.4,2.4c-1,0-6.2-2.7-8.2-3.6
		c-2.1-0.9-7.4-3-8.2-4.7s-4.7-4.7-4.7-4.7l-1.2-2.4c0,0-1.4,2.6-3.5,4.7c-2.2,2.1-2.7,3.6-3.5,4.7c-0.9,1.1-2.4,3.6-2.4,3.6
		s-5.1,0.9-5.9,0s-3.5,1.2-3.5,1.2l-5.9-7.1c0,0-2.1-5-1.2-7.1s2.4-2.9,3.5-4.7s3.9-3.1,4.7-3.6c0.8-0.5,3.8-1.5,4.7-1.2
		c1,0.3,5.9-2.4,5.9-2.4s2.4-2.8,3.5-4.7c1.2-1.9,3.5-3.6,3.5-3.6l4.7-2.4c0,0,2.3-5.4,0-5.9s-5.6-3.5-7.1-2.4s-7.1,4.7-7.1,4.7
		l-2.4,2.4l-3.5-3.6c0,0-5.1-4.8-5.9-4.7s1.7-4.9,1.2-5.9c-0.5-1.1-8.2-4.7-8.2-4.7l-2.4-2.4l-4.7,2.4c0,0-2.5,3.6-2.4,4.7
		s-0.9,5.5,0,5.9C-102.3-90.7-100.8-86.5-100.8-86.5z"/>
</symbol>
<use xlink:href="#日本地図_3"  width="221" height="209.9" id="XMLID_10_" x="-110.5" y="-105" transform="matrix(0.998 0 0 -0.998 668.3012 170.1268)" style="overflow:visible;"/>
</svg>
