<?xml version="1.0" encoding="utf-8"?>
<!-- Generator: Adobe Illustrator 21.0.2, SVG Export Plug-In . SVG Version: 6.00 Build 0)  -->
<svg version="1.1" id="レイヤー_1" xmlns="http://www.w3.org/2000/svg" xmlns:xlink="http://www.w3.org/1999/xlink" x="0px"
	 y="0px" viewBox="0 0 960 750" style="enable-background:new 0 0 960 750;" xml:space="preserve">
<style type="text/css">
	.st0{display:none;}
	.st1{display:inline;fill:#3ECCC8;stroke:#FFFFFF;stroke-width:0.6;}
	.st2{fill:#2A7F38;stroke:#FFFFFF;stroke-width:0.6;}
</style>
<symbol  id="日本地図_3" viewBox="-45.6 -63.5 91.2 127">
	<g id="九州_2_" class="st0">
		<path class="st1" d="M-25.5,44.6c0,0-0.4,0.8,0,2.4c0.4,1.5,4.7,3.6,4.7,3.6s2.2-4.4,3.5-3.6c1.3,0.9,1.8,2.4,2.4,3.6
			c0.6,1.1,0,2.4,0,2.4l2.4,3.6c0,0-0.4,0.4,0,1.2s-0.4,1.5,2.4,2.4s3.7-0.9,4.7,0s1.7,1.6,2.4,2.4c0.6,0.8,3.9,0.8,4.7,0
			s3.1-2.2,3.5-1.2c0.5,1.1,0.8,0.5,1.2,0s0.8-3.6,1.2-4.7c0.3-1.2,1.2-2.1,2.4-3.6c1.1-1.5,0.7-3.6,2.4-3.6
			c1.7,0.1,2.4-1.2,2.4-1.2s0-1.8-0.3-2.6c-0.2-0.7,0.4-1.1-2.2-1c-2.6,0.1-3.3,0.4-4.1-0.1s-1.3-2.5-2.8-3.4
			c-1.6-0.9-2.6-1.6-2.7-2.6s0.7-1.5,0.4-2.1s-1.4-1.6-1.2-2.6c0.1-1,0.9-1.7,1.2-2.1c0.3-0.5,0.3-4.6,0-5.9c-0.1-0.5-3.7,0-4.7,1.2
			s-2.2,2.1-2.4,1.2c-0.2-0.9-3.6-0.5-4.7-2.4s-4-5.2-3.5-5.9s-1.2,3.6-1.2,3.6s-1.5,2.8-1.2,3.6c0.3,0.7-1.2,1.2-1.2,1.2l-1.2,1.2
			c0,0,0.8,1.9,1.2,2.4c0.4,0.5,1.4,2.4,2.4,2.4c0.9-0.1,0.6,0,2.4,1.2c1.7,1.2,2.1,0.8,2.4,2.4c0.3,1.6-1.2,3.6-1.2,3.6
			s-1.4,0.9-2.4,0c-0.9-0.9-2.4-2.4-2.4-2.4l-2.4,2.4l-1.2,1.2c0,0-2.5,1.7-2.4,1.2c0.2-0.5-1.2-1.2-1.2-1.2l-2.4-1.2
			c0,0-1.6,0.5-1.2,1.2C-25.1,42.8-25.5,44.6-25.5,44.6z"/>
		<path class="st1" d="M21.6,46.9c0,0,4.6,1.4,4.7,2.4c0.1,1,1.5,3.9,2.4,3.6c0.9-0.3,3.3-1.7,3.5-2.4s1-2.6,1.2-3.6
			c0.2-0.9-0.4-2.8,0-3.6s1.8-2.7,0-3.6c-1.8-0.8-3.5-1.2-3.5-1.2s-0.2-1.2-1.2-1.2c-0.9,0-3.3-3-2.4-3.6c1-0.5,3.5-1.2,3.5-1.2
			l3.5,1.2c0,0,0.6-0.7,1.2-1.2c0.6-0.5,1.9-0.7,2.4,0c0.4,0.7,0.1,3.2,1.2,2.4c1.1-0.8,2.3-1.9,2.4-2.4c0-0.5-2.3-2.1-2.4-3.6
			c-0.1-1.4-0.3-1.7,1.2-2.4c1.4-0.6,1.9,1,2.4-1.2s-0.9-2,0-3.6c0.9-1.5,1.6-3.1,2.4-3.6c0.8-0.4,0.9-0.6,1.2-1.2s-1.6-3.1-2.4-3.6
			c-0.7-0.4-1.1-0.7-2-1c-0.8-0.4-2.2-0.1-2.7,0.6s-0.9,1.8-1.5,1.5c-0.7-0.3-3.2-2.2-3.2-2.2s-4-0.6-5.9-1.2
			c-1.3-0.4-1.2,0.1-2,1.2c-0.3,0.4-1.5,2.9-1.5,2.4s-2.4-2.4-2.4-2.4s-1.9,0.5-2.4,1.2s-0.3-0.1-1.2,2.4c-1,2.8-1.9,2-2.4,4.7
			c-0.4,2.8,0.7,3.6-1.2,5.9c-1,1.3-1.3,3.4-1.9,3.5c-0.8,0.2-4,0.1-4,0.1s-1.3,2.1-1.2,0.4s1.2-5.1,1.2-5.1s1.9-0.2,1.3-0.7
			c-0.6-0.4-4.1-3.8-4.9-2.9c-0.8,0.9-2.4,3.6-2.4,3.6v2.4v3.6c0,0-1.6,1.3-1.2,2.4c0.4,1.1,1.3,3.1,1.3,3.1s-1.5,1.4,0.6,3
			c2.7,2,0.9,0.4,2.9,2.2c1.2,1.1,1.8,2.7,2.6,2.5c0.7-0.2,4.4-0.1,4.4-0.1l0.8,0.4l0.4,3.2h4.7L21.6,46.9z"/>
		<path class="st1" d="M-37.3,36.3c0.8,0,2.2-0.6,2.4,1.2c0.2,1.8-1.7,3.3-1.2,3.6c0.5,0.2-1.6,0.7,0,2.4s3.5,4.1,3.5,3.6
			c0.1-0.5,2.8-0.5,2.4-1.2c-0.5-0.7,0.8-2.8,1.2-3.6c0.4-0.7,0.2-2.1,1.2-1.2c1,0.9,2.2,0.9,2.2,0.9s0.6-0.7,1.4-0.9
			c0.8-0.3,2.9,1.5,2.9,1.5l0.9,0.9c0,0,2.9-1.3,3.3-2.4c0.4-1.1,1.7-2.2,2.4-2.4c0.6-0.1,2.7,2.6,2.7,2.6s2-0.3,2.6-1.4
			c0.6-1.1,0.5-1.3,0.5-2.4c0-1.1-1.7-1.5-2.9-2.6c-1.2-1.2-2.6-0.9-3.4-2.1c-0.8-1.2-1.4-2.2-1.4-2.2s-0.1-1.1-0.9-1.4
			c-0.7-0.3-0.6,0.1-1.4,0.3s-1.8,1-1.8,1s0.2,0-1.2-1.2c-1.3-1.2-2.5,0.4-2.4-1.2c0.1-1.6-0.8-1.8,0-2.4c0.8-0.6,1.9-0.8,2.4-2.4
			c0.4-1.6,0-2.4,0-2.4s-1.4,1.4-3.2,1.3c-1.8-0.2-1.2-0.4-2.7,1.1c-1.6,1.7-1.9,2.7-2.4,3.6c-0.4,0.9-1.5,2.6-1.5,2.6
			s-1.8,0.3-2.7,0.7c-1.7,0.8-3.3,3.4-3.3,3.4S-38.1,36.2-37.3,36.3z"/>
		<path class="st1" d="M-23.1,16.1c0.7,0.4,4.3-0.2,5.9-1.2c1.6-0.9,1.6-2,2.4-2.4s1-2.5,0-3.6s-5.9-3.6-5.9-3.6S-25,5-24.2,6.5
			s2.6,1,2.4,2.4s-1.2,3.6-1.2,3.6s-0.6,1.6-1.2,1.2s-0.1-1.8-2.4-2.4c-2.2-0.5-3.3-0.5-3.5-1.2s-3-4.7-3.5-4.7S-37,0.7-37.1,3
			c-0.1,2.4,1.1,3.3,1.2,4.7c0,1.4,1.1,3.1,0,4.7c-1.1,1.7-2.6,2.5-3.5,3.6c-0.9,1-4.1,3.4-3.5,3.6s2.4,3.6,2.4,3.6v2.4
			c0,0,1.8-1.9,2.4-2.4c0.6-0.4-0.3-0.2,1.2-2.4c1.4-2.1,2.8-3,2.4-3.6c-0.5-0.6,1-0.4,1.2-1.2c0.1-0.8,1.7-1.8,2.4-1.2
			c0.7,0.6,3.3,0,2.4,2.4c-1,2.3-2.8,2.8-2.4,3.6c0.5,0.8-1.2,2.4-1.2,2.4s-0.5,2.3-2.4,2.4c-1.8,0.1-2.4,1.2-2.4,1.2
			s-1.4,1-2.4,1.2c-0.9,0.2-2.4,1.2-2.4,1.2s-0.4-0.6-1.2,0c-0.7,0.6-2.6,1.9-2.4,2.4c0.3,0.5,1.2,3,1.2,3.6c0,0.5,1.2,3.6,1.2,3.6
			l2.4-1.2l3.5-1.2c0,0-1-2.2,0-3.6c1-1.4,2.4-2.4,2.4-2.4l2.3-0.8c0,0,0.7,0.1,1.2-0.4s0.9-2,1.5-3.4c0.6-1.5,3.2-3.7,3.2-3.7
			s1.8,0.2,2.4,0s2.4-1.2,2.4-1.2s-0.4-0.5,0-1.2C-21.5,19-23.9,15.8-23.1,16.1z"/>
		<path class="st1" d="M-10.2-6.4c0,0,0.2-2.3-1.2-3.6c-1.4-1.3-3.2-1-3.5-2.4s-1.2-3.6-1.2-3.6c2.8-0.3,2.6-0.4,4.7,0
			c1.7,0.4,2.4,0.7,3.5,1.2s1.7-0.8,2.4-1.2c0.4-0.2-0.6-0.3,2.4-1.2c1.9-0.5,4.2-2.3,5.9-1.2c1.7,1.2,1.3,2.6,3.5,2.7
			s3.3,0.5,3.9,1s2,3.3,2,3.3S11.7-9,11.6-8.1s-0.4,1.8-1,4c-0.4,1.5-1.3,2.6-1.9,3.6C8.3,0.2,7.4,1.7,7.4,1.7l2.9,2.8
			c0,0,1.1,1.2,2.5,2.6s1.4,2.1,1.9,3.1c0.6,1.1,2,3.3,2,3.3l1.2,2.4l-1.2,2.4c0,0-1.3,1.8-1.2,2.4c0.2,0.6,0.1,2,0,3.6
			c-0.1,1.5-0.5,1.2-1.2,2.4s-1.3,3.5-2.4,3.6c-1.3,0-3.4-0.6-3.5,0c-0.2,0.6-1.2,1.2-1.2,1.2l1.2-5.9c0,0,2.2,0.1,1.1-1
			c-1.1-1.2-1.9-1.4-2.7-1.9c-0.6-0.5-1.2-1.1-1.6-0.8c-2.1,1.8-2.1,3.7-2.7,3.8c-0.6,0.1-1.7-0.1-3.1,0.3c-0.8,0.2-0.8,0.2-1.6,0.9
			s-1,2-1.9,1.5c-1-0.5-1.8-1-2.8-1.2c-0.7-0.2-2.2-0.8-2.6-1.8s-0.4-0.1-1.8-2.6c-1.5-2.7-1.6-2.7-1.5-3c0.5-1.5,1.1-2.1,2.4-3.6
			c1.2-1.4,1.3-1.7,2.4-2.4c1.1-0.7,1.7-1.2,1.2-2.4S-7.1,8.7-8,7.8c-0.9-0.8-5.9-3.6-5.9-3.6S-9.3,3-8,4.2s3.7,3.1,3.5,2.4
			s-0.4-1.5-1.2-2.4C-6.5,3.3-8,2.8-8.1,1.8c0-1-0.8-2.5-1.2-3.6S-10.2-6.4-10.2-6.4z"/>
		<path class="st1" d="M-19.6-2.8c0,0,0,1.4,1.2,2.4c1.2,0.9,2.4,1.2,2.4,1.2h3.5v-2.4c0,0-1.8-1.9-2.4-2.4s-3.5-1.2-3.5-1.2
			L-19.6-2.8z"/>
		<path class="st1" d="M-29-4c0,0-0.5,2.2,1.2,3.6S-24.3,2-24.3,2s0.7-0.4,1.2,0s0.7-0.3,1.2-1.2c0.4-0.9,1.5-2.4,1.2-3.6
			s-1.2-3.6-1.2-3.6s-0.6-2.4-1.2-2.4s-1.4-1.1-2.4-2.4c-0.9-1.2-3.5-2.4-3.5-2.4s-1.6,1.8-1.2,2.4S-29-7.6-29-7.6L-29-4L-29-4z"/>
		<path class="st1" d="M24-32.4c0,0,1.4-5.2,0-5.9c-1.4-0.8-2.7-1.7-2.4-2.4c0.3-0.7,0.4-1.9,0-3.6c-0.4-1.6,0.5-2.8-1.2-3.6
			c-1.6-0.8-5.7,1.5-5.7,1.5s-0.2,0.6-0.2,3.3c0,1.3,0,5.9,0,5.9l-5.7,2.6c0,0,0.3,0.3-0.3,1.3s-2.8,2.2-2.8,2.2l-3-0.3l1.2,3.6
			l-4.2,4.9l-1.1,3.3l-1.8,2.5l2.4-1.2l3-0.2c0,0,2,1.8,2.9,2.6c0.9,0.8,3.6-0.2,4.7,1.2s2.9,3.1,2.4,4.7c-0.6,1.6-1.9,8.4-2.4,8.3
			C9.4-1.8,7.4,1.9,7.4,1.9s1.7,1.9,2.4,2.4s3.5,3,3.5,3.6c0,0.5,2.1,3.1,2.4,3.6c0.6,1.2,1.2,2.4,1.2,2.4l1.2,2.4
			c0,0,1.8-3.2,2.4-3.2c0.6,0.1,1-0.7,1.6-0.2c0.5,0.5,1.9,2.2,1.9,2.2l2.3-3.7c0,0,6,1.4,7.1,1.3s3.3,2.6,3.5,2.4
			c0.2-0.3,1.6-2.4,2.4-2.4c1.2,0,2.6,0.8,2.2,0.3c-0.7-0.9-2.6-4.9-3.3-5s-2-1.7-2.4-2.4c-0.4-0.7-1.9-3.7-2.4-3.6
			c-0.5,0.2,0.7-2,0-2.4S30-4.6,29.9-6.3C29.8-8,29-8.5,28.7-11c-0.3-2.6-2.7-5.3-2.4-7.1c0.3-1.8-0.9-2-1.2-3.6
			C24.8-23.4,24-32.4,24-32.4z"/>
		<path class="st1" d="M-22-53.7c-0.4,0.3-0.7,4-1.2,4.7c-0.3,0.4-2.4,2.4-2.4,2.4s-0.5,1.6,1.2,1.2l4.7-1.2c0,0-0.8,2.1,0,3.6
			s2.1,1,2.4,2.4c0.2,1.4,0,3,0,3.6c0,0.5-2.5,3-2.4,3.6s-1.5,1.9-2.4,2.4c-0.9,0.4-2.4,2.4-2.4,2.4s2.1,1.5,2.4,2.4
			c0.2,0.9,0.4,3.1,0,3.6s-1.2,1.2-1.2,1.2v2.4l-1.2,2.4c0,0,1.2-0.4,2.4,0c1.1,0.4,2.8,1.3,3.5,1.2c0.7-0.1,2.4,0,2.4,0l2.9-0.3
			l3.7,0.8c0,0,2.3,1.3,2.8,0.7c1.3-1.5,3.5-2.4,3.5-2.4s0.5-0.6,1.6-2.2c0.6-0.9,0-1,0.8-2.6C-0.2-23,0.4-24,1.5-25
			c1.1-1,2.4-2.4,2.4-2.4L2.7-31c0,0,3.1,0.7,3.5,0s2.1-1.6,2.4-2.4c0.5-1.4,0.9-1.2,1.8-1.6c1.6-0.8,1.8-0.9,1.8-0.9l2.3-1.1v-4.7
			c0,0-0.1-3.4,0.2-4.4c0.2-0.5-3,0.9-3.8,0.9c-0.7,0-2.4-0.6-2.4-1.2c0.1-0.6,0-2.4,0-2.4s2.2-0.7,2.4-1.2c0.3-0.7,0-4.7,0-4.7
			s-0.1,0-1.2,0c-1.1,0-0.9,0.3-2.4-1.2c-1.4-1.5-2-2.5-3.5-3.6s-2.4,0-2.4,0L-1-60.7l-2.4-2.4c0,0-1.7-0.3-2.4,0
			c-0.5,0.3,2.6,5.2,2.4,4.7v-0.1c0,0,1.1,1.9,1.2,2.4c0.1,0.6,1.2,3.6,1.2,3.6v4.7c0,0-0.9,1-1.2,2.4s0,3.6,0,3.6h-4.7v3.6h1.2h2.4
			c0,0,0.4-0.9,1.2-1.2c0.8-0.3,1.2,1.2,1.2,1.2l1.2,2.4c0,0-1.8-0.3-2.4,1.2c-0.5,1.5-2.4,2.4-2.4,2.4l-2.4-1.2
			c0,0-1.4-5.2-1.2-5.9c0.2-0.7-1.2-2.4-1.2-2.4s-1.7,0.5-1.2-1.2s0.9-3,1.2-3.6c0.3-0.6-1.4-1,0-2.4s0.3-3.5,1.2-3.6
			c0.9-0.1,2.5-0.7,2.4-1.2s0.8-1.6,0-2.4s-4.1-1.6-4.7-1.2s-1.2,2.4-1.2,2.4s-0.3,2.9-1.2,2.4c-0.9-0.5-5.9-1.2-5.9-1.2
			S-21.6-54-22-53.7z"/>
	</g>
	<g id="九州_1_">
		<path class="st2" d="M-25.5,44.6c0,0-0.4,0.8,0,2.4c0.4,1.5,4.7,3.6,4.7,3.6s2.2-4.4,3.5-3.6c1.3,0.9,1.8,2.4,2.4,3.6
			c0.6,1.1,0,2.4,0,2.4l2.4,3.6c0,0-0.4,0.4,0,1.2s-0.4,1.5,2.4,2.4s3.7-0.9,4.7,0s1.7,1.6,2.4,2.4c0.6,0.8,3.9,0.8,4.7,0
			s3.1-2.2,3.5-1.2c0.5,1.1,0.8,0.5,1.2,0s0.8-3.6,1.2-4.7c0.3-1.2,1.2-2.1,2.4-3.6c1.1-1.5,0.7-3.6,2.4-3.6
			c1.7,0.1,2.4-1.2,2.4-1.2s0-1.8-0.3-2.6c-0.2-0.7,0.4-1.1-2.2-1c-2.6,0.1-3.3,0.4-4.1-0.1s-1.3-2.5-2.8-3.4
			c-1.6-0.9-2.6-1.6-2.7-2.6s0.7-1.5,0.4-2.1s-1.4-1.6-1.2-2.6c0.1-1,0.9-1.7,1.2-2.1c0.3-0.5,0.3-4.6,0-5.9c-0.1-0.5-3.7,0-4.7,1.2
			s-2.2,2.1-2.4,1.2c-0.2-0.9-3.6-0.5-4.7-2.4s-4-5.2-3.5-5.9s-1.2,3.6-1.2,3.6s-1.5,2.8-1.2,3.6c0.3,0.7-1.2,1.2-1.2,1.2l-1.2,1.2
			c0,0,0.8,1.9,1.2,2.4c0.4,0.5,1.4,2.4,2.4,2.4c0.9-0.1,0.6,0,2.4,1.2c1.7,1.2,2.1,0.8,2.4,2.4c0.3,1.6-1.2,3.6-1.2,3.6
			s-1.4,0.9-2.4,0c-0.9-0.9-2.4-2.4-2.4-2.4l-2.4,2.4l-1.2,1.2c0,0-2.5,1.7-2.4,1.2c0.2-0.5-1.2-1.2-1.2-1.2l-2.4-1.2
			c0,0-1.6,0.5-1.2,1.2C-25.1,42.8-25.5,44.6-25.5,44.6z"/>
		<path class="st2" d="M21.6,46.9c0,0,4.6,1.4,4.7,2.4c0.1,1,1.5,3.9,2.4,3.6c0.9-0.3,3.3-1.7,3.5-2.4s1-2.6,1.2-3.6
			c0.2-0.9-0.4-2.8,0-3.6s1.8-2.7,0-3.6c-1.8-0.8-3.5-1.2-3.5-1.2s-0.2-1.2-1.2-1.2c-0.9,0-3.3-3-2.4-3.6c1-0.5,3.5-1.2,3.5-1.2
			l3.5,1.2c0,0,0.6-0.7,1.2-1.2c0.6-0.5,1.9-0.7,2.4,0c0.4,0.7,0.1,3.2,1.2,2.4c1.1-0.8,2.3-1.9,2.4-2.4c0-0.5-2.3-2.1-2.4-3.6
			c-0.1-1.4-0.3-1.7,1.2-2.4c1.4-0.6,1.9,1,2.4-1.2s-0.9-2,0-3.6c0.9-1.5,1.6-3.1,2.4-3.6c0.8-0.4,0.9-0.6,1.2-1.2s-1.6-3.1-2.4-3.6
			c-0.7-0.4-1.1-0.7-2-1c-0.8-0.4-2.2-0.1-2.7,0.6s-0.9,1.8-1.5,1.5c-0.7-0.3-3.2-2.2-3.2-2.2s-4-0.6-5.9-1.2
			c-1.3-0.4-1.2,0.1-2,1.2c-0.3,0.4-1.5,2.9-1.5,2.4s-2.4-2.4-2.4-2.4s-1.9,0.5-2.4,1.2s-0.3-0.1-1.2,2.4c-1,2.8-1.9,2-2.4,4.7
			c-0.4,2.8,0.7,3.6-1.2,5.9c-1,1.3-1.3,3.4-1.9,3.5c-0.8,0.2-4,0.1-4,0.1s-1.3,2.1-1.2,0.4s1.2-5.1,1.2-5.1s1.9-0.2,1.3-0.7
			c-0.6-0.4-4.1-3.8-4.9-2.9c-0.8,0.9-2.4,3.6-2.4,3.6v2.4v3.6c0,0-1.6,1.3-1.2,2.4c0.4,1.1,1.3,3.1,1.3,3.1s-1.5,1.4,0.6,3
			c2.7,2,0.9,0.4,2.9,2.2c1.2,1.1,1.8,2.7,2.6,2.5c0.7-0.2,4.4-0.1,4.4-0.1l0.8,0.4l0.4,3.2h4.7L21.6,46.9z"/>
		<path class="st2" d="M-37.3,36.3c0.8,0,2.2-0.6,2.4,1.2c0.2,1.8-1.7,3.3-1.2,3.6c0.5,0.2-1.6,0.7,0,2.4s3.5,4.1,3.5,3.6
			c0.1-0.5,2.8-0.5,2.4-1.2c-0.5-0.7,0.8-2.8,1.2-3.6c0.4-0.7,0.2-2.1,1.2-1.2c1,0.9,2.2,0.9,2.2,0.9s0.6-0.7,1.4-0.9
			c0.8-0.3,2.9,1.5,2.9,1.5l0.9,0.9c0,0,2.9-1.3,3.3-2.4c0.4-1.1,1.7-2.2,2.4-2.4c0.6-0.1,2.7,2.6,2.7,2.6s2-0.3,2.6-1.4
			c0.6-1.1,0.5-1.3,0.5-2.4c0-1.1-1.7-1.5-2.9-2.6c-1.2-1.2-2.6-0.9-3.4-2.1c-0.8-1.2-1.4-2.2-1.4-2.2s-0.1-1.1-0.9-1.4
			c-0.7-0.3-0.6,0.1-1.4,0.3s-1.8,1-1.8,1s0.2,0-1.2-1.2c-1.3-1.2-2.5,0.4-2.4-1.2c0.1-1.6-0.8-1.8,0-2.4c0.8-0.6,1.9-0.8,2.4-2.4
			c0.4-1.6,0-2.4,0-2.4s-1.4,1.4-3.2,1.3c-1.8-0.2-1.2-0.4-2.7,1.1c-1.6,1.7-1.9,2.7-2.4,3.6c-0.4,0.9-1.5,2.6-1.5,2.6
			s-1.8,0.3-2.7,0.7c-1.7,0.8-3.3,3.4-3.3,3.4S-38.1,36.2-37.3,36.3z"/>
		<path class="st2" d="M-23.1,16.1c0.7,0.4,4.3-0.2,5.9-1.2c1.6-0.9,1.6-2,2.4-2.4s1-2.5,0-3.6s-5.9-3.6-5.9-3.6S-25,5-24.2,6.5
			s2.6,1,2.4,2.4s-1.2,3.6-1.2,3.6s-0.6,1.6-1.2,1.2s-0.1-1.8-2.4-2.4c-2.2-0.5-3.3-0.5-3.5-1.2s-3-4.7-3.5-4.7S-37,0.7-37.1,3
			c-0.1,2.4,1.1,3.3,1.2,4.7c0,1.4,1.1,3.1,0,4.7c-1.1,1.7-2.6,2.5-3.5,3.6c-0.9,1-4.1,3.4-3.5,3.6s2.4,3.6,2.4,3.6v2.4
			c0,0,1.8-1.9,2.4-2.4c0.6-0.4-0.3-0.2,1.2-2.4c1.4-2.1,2.8-3,2.4-3.6c-0.5-0.6,1-0.4,1.2-1.2c0.1-0.8,1.7-1.8,2.4-1.2
			c0.7,0.6,3.3,0,2.4,2.4c-1,2.3-2.8,2.8-2.4,3.6c0.5,0.8-1.2,2.4-1.2,2.4s-0.5,2.3-2.4,2.4c-1.8,0.1-2.4,1.2-2.4,1.2
			s-1.4,1-2.4,1.2c-0.9,0.2-2.4,1.2-2.4,1.2s-0.4-0.6-1.2,0c-0.7,0.6-2.6,1.9-2.4,2.4c0.3,0.5,1.2,3,1.2,3.6c0,0.5,1.2,3.6,1.2,3.6
			l2.4-1.2l3.5-1.2c0,0-1-2.2,0-3.6c1-1.4,2.4-2.4,2.4-2.4l2.3-0.8c0,0,0.7,0.1,1.2-0.4s0.9-2,1.5-3.4c0.6-1.5,3.2-3.7,3.2-3.7
			s1.8,0.2,2.4,0s2.4-1.2,2.4-1.2s-0.4-0.5,0-1.2C-21.5,19-23.9,15.8-23.1,16.1z"/>
		<path class="st2" d="M-10.2-6.4c0,0,0.2-2.3-1.2-3.6c-1.4-1.3-3.2-1-3.5-2.4s-1.2-3.6-1.2-3.6c2.8-0.3,2.6-0.4,4.7,0
			c1.7,0.4,2.4,0.7,3.5,1.2s1.7-0.8,2.4-1.2c0.4-0.2-0.6-0.3,2.4-1.2c1.9-0.5,4.2-2.3,5.9-1.2c1.7,1.2,1.3,2.6,3.5,2.7
			s3.3,0.5,3.9,1s2,3.3,2,3.3S11.7-9,11.6-8.1s-0.4,1.8-1,4c-0.4,1.5-1.3,2.6-1.9,3.6C8.3,0.2,7.4,1.7,7.4,1.7l2.9,2.8
			c0,0,1.1,1.2,2.5,2.6s1.4,2.1,1.9,3.1c0.6,1.1,2,3.3,2,3.3l1.2,2.4l-1.2,2.4c0,0-1.3,1.8-1.2,2.4c0.2,0.6,0.1,2,0,3.6
			c-0.1,1.5-0.5,1.2-1.2,2.4s-1.3,3.5-2.4,3.6c-1.3,0-3.4-0.6-3.5,0c-0.2,0.6-1.2,1.2-1.2,1.2l1.2-5.9c0,0,2.2,0.1,1.1-1
			c-1.1-1.2-1.9-1.4-2.7-1.9c-0.6-0.5-1.2-1.1-1.6-0.8c-2.1,1.8-2.1,3.7-2.7,3.8c-0.6,0.1-1.7-0.1-3.1,0.3c-0.8,0.2-0.8,0.2-1.6,0.9
			s-1,2-1.9,1.5c-1-0.5-1.8-1-2.8-1.2c-0.7-0.2-2.2-0.8-2.6-1.8s-0.4-0.1-1.8-2.6c-1.5-2.7-1.6-2.7-1.5-3c0.5-1.5,1.1-2.1,2.4-3.6
			c1.2-1.4,1.3-1.7,2.4-2.4c1.1-0.7,1.7-1.2,1.2-2.4S-7.1,8.7-8,7.8c-0.9-0.8-5.9-3.6-5.9-3.6S-9.3,3-8,4.2s3.7,3.1,3.5,2.4
			s-0.4-1.5-1.2-2.4C-6.5,3.3-8,2.8-8.1,1.8c0-1-0.8-2.5-1.2-3.6S-10.2-6.4-10.2-6.4z"/>
		<path class="st2" d="M-19.6-2.8c0,0,0,1.4,1.2,2.4c1.2,0.9,2.4,1.2,2.4,1.2h3.5v-2.4c0,0-1.8-1.9-2.4-2.4s-3.5-1.2-3.5-1.2
			L-19.6-2.8z"/>
		<path class="st2" d="M-29-4c0,0-0.5,2.2,1.2,3.6S-24.3,2-24.3,2s0.7-0.4,1.2,0s0.7-0.3,1.2-1.2c0.4-0.9,1.5-2.4,1.2-3.6
			s-1.2-3.6-1.2-3.6s-0.6-2.4-1.2-2.4s-1.4-1.1-2.4-2.4c-0.9-1.2-3.5-2.4-3.5-2.4s-1.6,1.8-1.2,2.4S-29-7.6-29-7.6L-29-4L-29-4z"/>
		<path class="st2" d="M24-32.4c0,0,1.4-5.2,0-5.9c-1.4-0.8-2.7-1.7-2.4-2.4c0.3-0.7,0.4-1.9,0-3.6c-0.4-1.6,0.5-2.8-1.2-3.6
			c-1.6-0.8-5.7,1.5-5.7,1.5s-0.2,0.6-0.2,3.3c0,1.3,0,5.9,0,5.9l-5.7,2.6c0,0,0.3,0.3-0.3,1.3s-2.8,2.2-2.8,2.2l-3-0.3l1.2,3.6
			l-4.2,4.9l-1.1,3.3l-1.8,2.5l2.4-1.2l3-0.2c0,0,2,1.8,2.9,2.6c0.9,0.8,3.6-0.2,4.7,1.2s2.9,3.1,2.4,4.7c-0.6,1.6-1.9,8.4-2.4,8.3
			C9.4-1.8,7.4,1.9,7.4,1.9s1.7,1.9,2.4,2.4s3.5,3,3.5,3.6c0,0.5,2.1,3.1,2.4,3.6c0.6,1.2,1.2,2.4,1.2,2.4l1.2,2.4
			c0,0,1.8-3.2,2.4-3.2c0.6,0.1,1-0.7,1.6-0.2c0.5,0.5,1.9,2.2,1.9,2.2l2.3-3.7c0,0,6,1.4,7.1,1.3s3.3,2.6,3.5,2.4
			c0.2-0.3,1.6-2.4,2.4-2.4c1.2,0,2.6,0.8,2.2,0.3c-0.7-0.9-2.6-4.9-3.3-5s-2-1.7-2.4-2.4c-0.4-0.7-1.9-3.7-2.4-3.6
			c-0.5,0.2,0.7-2,0-2.4S30-4.6,29.9-6.3C29.8-8,29-8.5,28.7-11c-0.3-2.6-2.7-5.3-2.4-7.1c0.3-1.8-0.9-2-1.2-3.6
			C24.8-23.4,24-32.4,24-32.4z"/>
		<path class="st2" d="M-22-53.7c-0.4,0.3-0.7,4-1.2,4.7c-0.3,0.4-2.4,2.4-2.4,2.4s-0.5,1.6,1.2,1.2l4.7-1.2c0,0-0.8,2.1,0,3.6
			s2.1,1,2.4,2.4c0.2,1.4,0,3,0,3.6c0,0.5-2.5,3-2.4,3.6s-1.5,1.9-2.4,2.4c-0.9,0.4-2.4,2.4-2.4,2.4s2.1,1.5,2.4,2.4
			c0.2,0.9,0.4,3.1,0,3.6s-1.2,1.2-1.2,1.2v2.4l-1.2,2.4c0,0,1.2-0.4,2.4,0c1.1,0.4,2.8,1.3,3.5,1.2c0.7-0.1,2.4,0,2.4,0l2.9-0.3
			l3.7,0.8c0,0,2.3,1.3,2.8,0.7c1.3-1.5,3.5-2.4,3.5-2.4s0.5-0.6,1.6-2.2c0.6-0.9,0-1,0.8-2.6C-0.2-23,0.4-24,1.5-25
			c1.1-1,2.4-2.4,2.4-2.4L2.7-31c0,0,3.1,0.7,3.5,0s2.1-1.6,2.4-2.4c0.5-1.4,0.9-1.2,1.8-1.6c1.6-0.8,1.8-0.9,1.8-0.9l2.3-1.1v-4.7
			c0,0-0.1-3.4,0.2-4.4c0.2-0.5-3,0.9-3.8,0.9c-0.7,0-2.4-0.6-2.4-1.2c0.1-0.6,0-2.4,0-2.4s2.2-0.7,2.4-1.2c0.3-0.7,0-4.7,0-4.7
			s-0.1,0-1.2,0c-1.1,0-0.9,0.3-2.4-1.2c-1.4-1.5-2-2.5-3.5-3.6s-2.4,0-2.4,0L-1-60.7l-2.4-2.4c0,0-1.7-0.3-2.4,0
			c-0.5,0.3,2.6,5.2,2.4,4.7v-0.1c0,0,1.1,1.9,1.2,2.4c0.1,0.6,1.2,3.6,1.2,3.6v4.7c0,0-0.9,1-1.2,2.4s0,3.6,0,3.6h-4.7v3.6h1.2h2.4
			c0,0,0.4-0.9,1.2-1.2c0.8-0.3,1.2,1.2,1.2,1.2l1.2,2.4c0,0-1.8-0.3-2.4,1.2c-0.5,1.5-2.4,2.4-2.4,2.4l-2.4-1.2
			c0,0-1.4-5.2-1.2-5.9c0.2-0.7-1.2-2.4-1.2-2.4s-1.7,0.5-1.2-1.2s0.9-3,1.2-3.6c0.3-0.6-1.4-1,0-2.4s0.3-3.5,1.2-3.6
			c0.9-0.1,2.5-0.7,2.4-1.2s0.8-1.6,0-2.4s-4.1-1.6-4.7-1.2s-1.2,2.4-1.2,2.4s-0.3,2.9-1.2,2.4c-0.9-0.5-5.9-1.2-5.9-1.2
			S-21.6-54-22-53.7z"/>
	</g>
</symbol>
<use xlink:href="#日本地図_3"  width="91.2" height="127" id="XMLID_10_" x="-45.6" y="-63.5" transform="matrix(0.999 0 0 -0.999 228.8012 682.9268)" style="overflow:visible;"/>
</svg>
