<?xml version="1.0" encoding="utf-8"?>
<!-- Generator: Adobe Illustrator 21.0.2, SVG Export Plug-In . SVG Version: 6.00 Build 0)  -->
<svg version="1.1" id="レイヤー_1" xmlns="http://www.w3.org/2000/svg" xmlns:xlink="http://www.w3.org/1999/xlink" x="0px"
	 y="0px" viewBox="0 0 960 750" style="enable-background:new 0 0 960 750;" xml:space="preserve">
<style type="text/css">
	.st0{fill:#3ECCC8;stroke:#FFFFFF;stroke-width:0.6;}
	.st1{fill:#2A7F38;stroke:#FFFFFF;stroke-width:0.6;}
</style>
<symbol  id="日本地図_3" viewBox="-250.3 -218.3 134.5 80.5">
	<g id="中国_6_">
		<path class="st0" d="M-160.9-145.8c0,0,6.3-1.2,7.1,0c0.8,1.2,1.2,1.2,1.2,1.2h7.1c0,0,0.3-1,2.4-1.2c2-0.2,5.3-0.7,5.9,0
			c0.6,0.7-0.7,2.2,1.2,2.4c1.9,0.2,3.3-1.4,4.7-1.2s3.3,0.3,4.7,1.2c1.4,0.9,3.9,3.6,4.7,3.6s3.9,1.4,3.9,1.4
			c-1.1-2.6-1.2-2.5-1.6-3.8c-0.2-0.8-1.3-2.3,0-3.6c1.3-1.3,3.5-3.6,3.5-3.6s-0.8-3.1-1.2-3.6c-0.4-0.5-1.9-1.6-2.4-2.4
			s-2.7-1.2-4.7-2.4c-2-1.1-4.5-0.9-4.7,0c-0.2,0.9-0.7,2.9-2.4,3.6c-1.7,0.7-4,2.7-3.5,2.4c0,0-1.9-0.9-2.4-1.2
			c-0.5-0.3-1.8-2-2.4-2.4c-0.6-0.4-3.6-0.5-3.5,0c0,0.5-0.5,2.9-2.4,2.4c-1.9-0.5-2.5,0.1-3.5-1.2c-1-1.3-1.8-0.7-3.5-2.4
			c-1.8-1.7-3.5-2.4-3.5-2.4s-0.7-1.1-1.4-1.9c-0.5-0.6-2.3-1.8-2.3-1.8s-0.1-0.7-1-1c-1.2-0.5-6.4,0.2-5.9,0c0.5-0.2-0.1,0.9,0,2.4
			c0.1,1.5,0.4,1.6,2.4,3.6c2,2,3.5,1.5,3.5,3.6c0,2.1-0.4,2.3,0,3.6C-160.4-149.3-160.9-145.8-160.9-145.8z"/>
		<path class="st0" d="M-152.9-189l-2.7,5.5c0,0-0.4,0.9-1.8,3.4c-1.6,3.1-0.9,4.2-1,5.3c-0.1,1.1-1.3,3-1.3,3s-1.3,2.8-1.2,3.6
			c0.3,1.9,0,4.7,0,4.7l4.7,4.7c0,0,1.2,0.4,2.4,1.2c1.8,1.2,5,3.7,5.5,4c0.8,0.5,2.5,0.7,2.8,0.7c1.7,0.3,2.5-2.6,2.5-2.6l3,0
			l2.4,2.3l2.6,1.4l2.3-1.7c0,0,1.9-0.9,2.4-1.5c0.5-0.6,1-2,1.2-2.7c0.2-0.7,1-0.9,2.1-0.8c1.4,0.2,4,1.3,5,1.9
			c1,0.6,2.6,1.6,2.6,1.6c0-1.5-0.3-3.9-0.3-3.9s-1.7-3-2.4-3.6c-2.3-1.8-3.5-4.7-3.5-4.7s-0.5-0.8,0-3.1c0.5-2.4,0.7-3.2,1.2-4
			s-0.2,0.2,0.6-1.5c0.8-1.6,1.7-3.3,1.7-3.3s-2.5,1.2-3.5,0c-1.1-1.2-2.4-2.5-3.5-3.6c-1.1-1-1.9-1.2-3.5-2.4
			c-1.6-1.1-3.9-3-3.5-3.6s-0.7-2.4-3.5-2.4c-2.8,0-5.9,0-5.9,0l-1.2,2.4l-1.2-2.4l-2.6,0.6L-152.9-189z"/>
		<path class="st0" d="M-217.5-182c0,0,3.6,1.4,4.8,3.1c1.2,1.7,6,7.4,7.1,8.3c1.1,0.9,3.4,3.4,4.7,4.7c1.3,1.3,3.5,2.4,3.5,2.4
			l2.4,1.2c0,0,4.1,4.1,4.7,4.7c0.6,0.7,2.7,1.8,3.5,2.4c0.8,0.5,1.9,0.9,2.4,1.2s-0.7,4.3,0,4.7c0.7,0.5,2.4,2,2.4,2.4
			c-0.1,0.4,4.7,2.4,4.7,2.4s2,2.5,3.5,2.4c1.5-0.1,4.1-1.5,4.7,0c0.6,1.5,9.4,0,9.4,0l-1.2-3.6c0,0,0.4-2.9,0.1-4.4
			c-0.5-2.7,0.8-3.7-0.6-5.3c-1-1.2-3.2-2.3-3.6-2.7c-0.8-0.8-1.8-2.4-1.8-2.4s0.3-2.6-0.1-2.7c-1.6-0.3-5.8-0.1-7-0.3
			c-1.9-0.3-3.2,0.9-3.5,0c-0.3-0.9-1.3-2.2-2.4-3.6c-0.7-0.9-0.9-0.1-2.2-1.1c-1.2-1-1.1-1.5-1.1-1.5s3.2-1.6,2.7-2.7
			c-0.2-0.3-4.4-2.7-4.4-2.7s-1.6-1.1-3.8-1.5c-2.2-0.4-5.8,1-7.1,0.7c-0.7-0.2-1.9,0.2-2.9-0.7c-1-0.9-2.1-1.6-2.5-2.1
			c-0.3-0.4-0.6-0.1-1-1.4c-0.8-2.3,0-3-0.7-4.1c-0.9-1.2-2-2-3.1-3.6c-0.9-1.4,0-3.9-0.9-5.3c-0.7-1.2-1.4-3.3-2.4-3.6
			c-1.2-0.3-6.7,0.3-6.7,0.3s-2.3,0.6-1.6,1.5c0.7,0.9,1.2,2.1,1.2,2.1s-0.6,0.3-1.2,0.9c-0.5,0.6-1.1,1.1-1.7,2.4
			c-0.7,1.6-1,3-0.3,3.7C-218.9-185.2-217.5-182-217.5-182z"/>
		<path class="st0" d="M-201-201.1c0,0,3.2,2.6,3.6,3.2c0.5,0.6,3.5,3.6,3.5,3.6h2.4l2.4-2.4c0,0-0.7-4.6,0-4.7s2.5-1.4,3.5-1.2
			c1,0.2,5.1,2.3,4.7,2.4c-0.1,0-0.1,0-0.1,0c0,0,0.5,0.1,1.3,1.2c0.9,1.4,3.9,2.9,3.5,2.4c-0.4-0.6-0.6,0.6,1.2,0
			c1.8-0.6,4-0.3,4.7,0c0.7,0.3,1.8,1.9,2.4,2.4c0.6,0.4,1.2,1.2,1.2,1.2s3,1.1,3.5,1.2c0.6,0.1,1.5-0.2,2.4-1.2
			c0.9-1,1.4-1.6,2.4-1.2c1,0.4,2.7,2,3.5,2.4c0.8,0.3,2.4,2.8,2.4,2.8l-2,3.8c0,0-1.1,1.7-1.5,2.9c-0.2,0.8-1.1,1.5-1.2,2.4
			c-0.2,2.2-0.9,1.2-1.2,3.6c-0.1,0.5,0.4,1.3,0,2.4c-0.9,2.6-1.6,2.8-2,3.9c-0.5,1.3-0.5,2.2-0.4,3.2c0.1,0.9,0,3.6,0,3.6l-5.4,0
			l-1.4,0.3l-7.8-0.3c0,0-1.2,0.9-1.9,0c-0.8-0.9-1.5-3.1-2.4-3.6s-4-1.8-3.5-2.4c0.4-0.6,4.3-2.5,2.4-3.6s-3.5-1.9-4.7-2.4
			c-1.2-0.5-3.5-1.6-4.7-1.2s-3.4,0.8-3.4,0.8l-4.2-0.2c0,0-1-0.9-1.7-1.5s-1.6-1.2-2.5-2.7c-0.7-1.1-0.4-4.5-1.2-4.7
			c-0.8-0.2-1.7-1.8-2.4-2.4c-0.7-0.6-0.7-2.8-0.8-3.9c-0.1-1.3-0.2-1-0.1-2.2c0.2-1.7,3.4-2.4,3.2-3.4s-0.5-2.3,0-3.6
			C-202.6-202.1-201-201.1-201-201.1z"/>
		<path class="st0" d="M-246.9-201.4c0,0-3.1,4.8-2.4,4.7c0.8-0.1,2.2-0.7,3.5,1.2c1.3,1.9,1.6,4.1,2.4,3.6c0.7-0.6,4.7-2.4,4.7-2.4
			s0.4-2.8,2.4-1.2c1.9,1.6,2.2,1.5,3.5,2.4c1.3,0.8,2.6,2.9,3.5,3.6c0.9,0.7,2.4,2.4,2.4,2.4s2.3,0.2,2.4,1.2
			c0,0.9-0.4,1.9,1.2,3.6s5,0.7,4.7,1.2c-0.3,0.5,1.3-0.1,1.2-1.2c-0.1-1-2.6-3-2.4-4.7c0.2-1.7,0.8-2.7,1.2-3.6
			c0.4-0.9,2.5-1.2,2.4-2.4c-0.2-1.2-1.7-1.1-1.2-2.4c0.6-1.3,4.7-1.2,4.7-1.2l3.8,0.1l2.1,3.4c0,0,0.5-0.7,1.2-1.2
			c0.6-0.4,2.3-1.8,2.4-2.4c0.1-0.6-0.4-3.3,0-3.6c0.3-0.2,0.5-1.3,1.2-1.2c0.7,0.1,1,0.7,1.3-0.3c0.3-1.4,0.6-1.3-0.1-3.3
			c-0.7-2,1.5-2.2,1.2-3.6c-0.3-1.3,1.2-3.1,0-3.6c-1.2-0.5-1.9-0.5-2.4-1.2c-0.4-0.6-1.9-1.6-1.2-2.4s3.1-2.4,2.4-2.4
			c-0.7,0-4.7,2.4-4.7,2.4l-3.5,1.2c0,0,0.1-0.1-2.4,2.4c-2.4,2.4-4.9,2.9-5.9,3.6c-1,0.7-1.9,0.9-2.4,0s-1.4-0.4-2.4-1.2
			c-1-0.8-5.9,0-5.9,0s0.7-2.1,0-2.4c-0.7-0.2-3.5,2.4-3.5,2.4v-2.4c0,0-0.3-0.8-1.2-1.2c-0.9-0.4-3.4-1.4-4.7,0
			c-1.4,1.4-0.9,1.6-2.4,2.4s-1.7,2.3-2.4,2.4s-0.3-0.8-1.2-1.2c-0.8-0.4-2.5-0.2-2.4-1.2c0.2-1,0.7-2,0-2.4
			c-0.7-0.4-2.2,1.8-2.4,2.4c-0.2,0.6-0.2,2-1.2,3.6c-1,1.5-1,1.8,0,2.4C-248.2-204.5-247.1-201.3-246.9-201.4z"/>
	</g>
	<g id="中国_3_">
		<path class="st1" d="M-160.9-145.8c0,0,6.3-1.2,7.1,0c0.8,1.2,1.2,1.2,1.2,1.2h7.1c0,0,0.3-1,2.4-1.2c2-0.2,5.3-0.7,5.9,0
			c0.6,0.7-0.7,2.2,1.2,2.4c1.9,0.2,3.3-1.4,4.7-1.2s3.3,0.3,4.7,1.2c1.4,0.9,3.9,3.6,4.7,3.6s3.9,1.4,3.9,1.4
			c-1.1-2.6-1.2-2.5-1.6-3.8c-0.2-0.8-1.3-2.3,0-3.6c1.3-1.3,3.5-3.6,3.5-3.6s-0.8-3.1-1.2-3.6c-0.4-0.5-1.9-1.6-2.4-2.4
			s-2.7-1.2-4.7-2.4c-2-1.1-4.5-0.9-4.7,0c-0.2,0.9-0.7,2.9-2.4,3.6c-1.7,0.7-4,2.7-3.5,2.4c0,0-1.9-0.9-2.4-1.2
			c-0.5-0.3-1.8-2-2.4-2.4c-0.6-0.4-3.6-0.5-3.5,0c0,0.5-0.5,2.9-2.4,2.4c-1.9-0.5-2.5,0.1-3.5-1.2c-1-1.3-1.8-0.7-3.5-2.4
			c-1.8-1.7-3.5-2.4-3.5-2.4s-0.7-1.1-1.4-1.9c-0.5-0.6-2.3-1.8-2.3-1.8s-0.1-0.7-1-1c-1.2-0.5-6.4,0.2-5.9,0c0.5-0.2-0.1,0.9,0,2.4
			c0.1,1.5,0.4,1.6,2.4,3.6c2,2,3.5,1.5,3.5,3.6c0,2.1-0.4,2.3,0,3.6C-160.4-149.3-160.9-145.8-160.9-145.8z"/>
		<path class="st1" d="M-152.9-189l-2.7,5.5c0,0-0.4,0.9-1.8,3.4c-1.6,3.1-0.9,4.2-1,5.3c-0.1,1.1-1.3,3-1.3,3s-1.3,2.8-1.2,3.6
			c0.3,1.9,0,4.7,0,4.7l4.7,4.7c0,0,1.2,0.4,2.4,1.2c1.8,1.2,5,3.7,5.5,4c0.8,0.5,2.5,0.7,2.8,0.7c1.7,0.3,2.5-2.6,2.5-2.6l3,0
			l2.4,2.3l2.6,1.4l2.3-1.7c0,0,1.9-0.9,2.4-1.5c0.5-0.6,1-2,1.2-2.7c0.2-0.7,1-0.9,2.1-0.8c1.4,0.2,4,1.3,5,1.9
			c1,0.6,2.6,1.6,2.6,1.6c0-1.5-0.3-3.9-0.3-3.9s-1.7-3-2.4-3.6c-2.3-1.8-3.5-4.7-3.5-4.7s-0.5-0.8,0-3.1c0.5-2.4,0.7-3.2,1.2-4
			s-0.2,0.2,0.6-1.5c0.8-1.6,1.7-3.3,1.7-3.3s-2.5,1.2-3.5,0c-1.1-1.2-2.4-2.5-3.5-3.6c-1.1-1-1.9-1.2-3.5-2.4
			c-1.6-1.1-3.9-3-3.5-3.6s-0.7-2.4-3.5-2.4c-2.8,0-5.9,0-5.9,0l-1.2,2.4l-1.2-2.4l-2.6,0.6L-152.9-189z"/>
		<path class="st1" d="M-217.5-182c0,0,3.6,1.4,4.8,3.1c1.2,1.7,6,7.4,7.1,8.3c1.1,0.9,3.4,3.4,4.7,4.7c1.3,1.3,3.5,2.4,3.5,2.4
			l2.4,1.2c0,0,4.1,4.1,4.7,4.7c0.6,0.7,2.7,1.8,3.5,2.4c0.8,0.5,1.9,0.9,2.4,1.2s-0.7,4.3,0,4.7c0.7,0.5,2.4,2,2.4,2.4
			c-0.1,0.4,4.7,2.4,4.7,2.4s2,2.5,3.5,2.4c1.5-0.1,4.1-1.5,4.7,0c0.6,1.5,9.4,0,9.4,0l-1.2-3.6c0,0,0.4-2.9,0.1-4.4
			c-0.5-2.7,0.8-3.7-0.6-5.3c-1-1.2-3.2-2.3-3.6-2.7c-0.8-0.8-1.8-2.4-1.8-2.4s0.3-2.6-0.1-2.7c-1.6-0.3-5.8-0.1-7-0.3
			c-1.9-0.3-3.2,0.9-3.5,0c-0.3-0.9-1.3-2.2-2.4-3.6c-0.7-0.9-0.9-0.1-2.2-1.1c-1.2-1-1.1-1.5-1.1-1.5s3.2-1.6,2.7-2.7
			c-0.2-0.3-4.4-2.7-4.4-2.7s-1.6-1.1-3.8-1.5c-2.2-0.4-5.8,1-7.1,0.7c-0.7-0.2-1.9,0.2-2.9-0.7c-1-0.9-2.1-1.6-2.5-2.1
			c-0.3-0.4-0.6-0.1-1-1.4c-0.8-2.3,0-3-0.7-4.1c-0.9-1.2-2-2-3.1-3.6c-0.9-1.4,0-3.9-0.9-5.3c-0.7-1.2-1.4-3.3-2.4-3.6
			c-1.2-0.3-6.7,0.3-6.7,0.3s-2.3,0.6-1.6,1.5c0.7,0.9,1.2,2.1,1.2,2.1s-0.6,0.3-1.2,0.9c-0.5,0.6-1.1,1.1-1.7,2.4
			c-0.7,1.6-1,3-0.3,3.7C-218.9-185.2-217.5-182-217.5-182z"/>
		<path class="st1" d="M-201-201.1c0,0,3.2,2.6,3.6,3.2c0.5,0.6,3.5,3.6,3.5,3.6h2.4l2.4-2.4c0,0-0.7-4.6,0-4.7s2.5-1.4,3.5-1.2
			c1,0.2,5.1,2.3,4.7,2.4c-0.1,0-0.1,0-0.1,0c0,0,0.5,0.1,1.3,1.2c0.9,1.4,3.9,2.9,3.5,2.4c-0.4-0.6-0.6,0.6,1.2,0
			c1.8-0.6,4-0.3,4.7,0c0.7,0.3,1.8,1.9,2.4,2.4c0.6,0.4,1.2,1.2,1.2,1.2s3,1.1,3.5,1.2c0.6,0.1,1.5-0.2,2.4-1.2
			c0.9-1,1.4-1.6,2.4-1.2c1,0.4,2.7,2,3.5,2.4c0.8,0.3,2.4,2.8,2.4,2.8l-2,3.8c0,0-1.1,1.7-1.5,2.9c-0.2,0.8-1.1,1.5-1.2,2.4
			c-0.2,2.2-0.9,1.2-1.2,3.6c-0.1,0.5,0.4,1.3,0,2.4c-0.9,2.6-1.6,2.8-2,3.9c-0.5,1.3-0.5,2.2-0.4,3.2c0.1,0.9,0,3.6,0,3.6l-5.4,0
			l-1.4,0.3l-7.8-0.3c0,0-1.2,0.9-1.9,0c-0.8-0.9-1.5-3.1-2.4-3.6s-4-1.8-3.5-2.4c0.4-0.6,4.3-2.5,2.4-3.6s-3.5-1.9-4.7-2.4
			c-1.2-0.5-3.5-1.6-4.7-1.2s-3.4,0.8-3.4,0.8l-4.2-0.2c0,0-1-0.9-1.7-1.5s-1.6-1.2-2.5-2.7c-0.7-1.1-0.4-4.5-1.2-4.7
			c-0.8-0.2-1.7-1.8-2.4-2.4c-0.7-0.6-0.7-2.8-0.8-3.9c-0.1-1.3-0.2-1-0.1-2.2c0.2-1.7,3.4-2.4,3.2-3.4s-0.5-2.3,0-3.6
			C-202.6-202.1-201-201.1-201-201.1z"/>
		<path class="st1" d="M-246.9-201.4c0,0-3.1,4.8-2.4,4.7c0.8-0.1,2.2-0.7,3.5,1.2c1.3,1.9,1.6,4.1,2.4,3.6c0.7-0.6,4.7-2.4,4.7-2.4
			s0.4-2.8,2.4-1.2c1.9,1.6,2.2,1.5,3.5,2.4c1.3,0.8,2.6,2.9,3.5,3.6c0.9,0.7,2.4,2.4,2.4,2.4s2.3,0.2,2.4,1.2
			c0,0.9-0.4,1.9,1.2,3.6s5,0.7,4.7,1.2c-0.3,0.5,1.3-0.1,1.2-1.2c-0.1-1-2.6-3-2.4-4.7c0.2-1.7,0.8-2.7,1.2-3.6
			c0.4-0.9,2.5-1.2,2.4-2.4c-0.2-1.2-1.7-1.1-1.2-2.4c0.6-1.3,4.7-1.2,4.7-1.2l3.8,0.1l2.1,3.4c0,0,0.5-0.7,1.2-1.2
			c0.6-0.4,2.3-1.8,2.4-2.4c0.1-0.6-0.4-3.3,0-3.6c0.3-0.2,0.5-1.3,1.2-1.2c0.7,0.1,1,0.7,1.3-0.3c0.3-1.4,0.6-1.3-0.1-3.3
			c-0.7-2,1.5-2.2,1.2-3.6c-0.3-1.3,1.2-3.1,0-3.6c-1.2-0.5-1.9-0.5-2.4-1.2c-0.4-0.6-1.9-1.6-1.2-2.4s3.1-2.4,2.4-2.4
			c-0.7,0-4.7,2.4-4.7,2.4l-3.5,1.2c0,0,0.1-0.1-2.4,2.4c-2.4,2.4-4.9,2.9-5.9,3.6c-1,0.7-1.9,0.9-2.4,0s-1.4-0.4-2.4-1.2
			c-1-0.8-5.9,0-5.9,0s0.7-2.1,0-2.4c-0.7-0.2-3.5,2.4-3.5,2.4v-2.4c0,0-0.3-0.8-1.2-1.2c-0.9-0.4-3.4-1.4-4.7,0
			c-1.4,1.4-0.9,1.6-2.4,2.4s-1.7,2.3-2.4,2.4s-0.3-0.8-1.2-1.2c-0.8-0.4-2.5-0.2-2.4-1.2c0.2-1,0.7-2,0-2.4
			c-0.7-0.4-2.2,1.8-2.4,2.4c-0.2,0.6-0.2,2-1.2,3.6c-1,1.5-1,1.8,0,2.4C-248.2-204.5-247.1-201.3-246.9-201.4z"/>
	</g>
</symbol>
<use xlink:href="#日本地図_3"  width="134.5" height="80.5" id="XMLID_10_" x="-250.3" y="-218.3" transform="matrix(1 0 0 -1 481.0012 405.8768)" style="overflow:visible;"/>
</svg>
