<?xml version="1.0" encoding="utf-8"?>
<!-- Generator: Adobe Illustrator 21.0.2, SVG Export Plug-In . SVG Version: 6.00 Build 0)  -->
<svg version="1.1" id="レイヤー_1" xmlns="http://www.w3.org/2000/svg" xmlns:xlink="http://www.w3.org/1999/xlink" x="0px"
	 y="0px" viewBox="0 0 960 750" style="enable-background:new 0 0 960 750;" xml:space="preserve">
<style type="text/css">
	.st0{fill:#D1CB01;stroke:#FFFFFF;stroke-width:0.6;}
	.st1{fill:#349943;stroke:#FFFFFF;stroke-width:0.6;}
</style>
<symbol  id="日本地図_3" viewBox="-52.8 -111.1 105.6 222.3">
	<g id="東北_2_">
		<path class="st0" d="M-25.5,69.4c0,0,4,7.1,4.7,5.9s7.1,1.2,7.1,1.2l1.2,4.7c0,0,2.2,2.7,2.4,3.6s1.2,4.7,1.2,4.7l-2.4,4.7
			c0,0,1.9,2.6,2.4,3.6c0.4,0.9,3.5-2.4,3.5-2.4l4.7,2.4l1.2-4.7c0,0,1-4.5,1.2-5.9c0.2-1.5,0-8.3,0-8.3h5.9L10,86l4.7-1.2l4.7-3.6
			c0,0,2.5-0.5,2.4,2.4c-0.2,2.8,1.2,5.9,1.2,5.9l2.4,5.9L23,99c0,0-6.1-1.9-7.1-2.4s-6.5-0.4-7.1-1.2C8.2,94.6,6.4,99,6.4,99
			l1.2,4.7l3.5,7.1h3.5l3.5-1.2l3.5-5.9H24l5.9,3.6l-1.2-11.8c0,0-1.4-12-1.2-14.2s1.5-8.1,2.4-9.5c0.8-1.3,2-2.4,2.4-3.6
			c0.3-1.1,4.7-5.9,4.7-5.9l2.4-2.4L37,57.5l-5.9-1.2l-4.4-0.9l-7-4.4c0,0-3.2-0.1-3.9-0.7c-0.7-0.6-5.7-1.7-5.7-1.7l1.3,5.4
			l2.1,4.6c0,0-3.7-1-3.5,0c0.1,1.2-1.2,3.6-1.2,3.6l-5.1-4.8c0,0-1.6,1-3.1,1.2c-1.6,0.2-3.5-1.2-3.5-1.2L-6.4,61l-6.1-2.3
			c0,0-2.3,0.8-3.4,0.8c-1,0.1-4.9,1.5-4.9,1.5l-1.1-3.9l-2.4,4l-1.2,4.7l-2.4,1.2L-25.5,69.4z"/>
		<path class="st0" d="M35.8-10l-3.5,1.2l-1.2-5.9c0,0-2.6-3.9-2.8-3.9c-0.6-0.1-3.3,0.4-3.9,0.6c-0.6,0.2-3.9-1.5-3.9-1.5
			c0.1,0.1-0.7,1.1-0.9,1.5c-1,2.4-2.1,4.5-2.1,4.5s-0.4,0-1.7-0.1c-1-0.1-4.1-0.4-4.7,0s-2.4,2.4-2.4,2.4L7.5-10L6.7-9.2L6.4-5.3
			L5.2-2.9c0,0,1,3.6,0.6,4.4L5.2,4.2L2.8,7.8c0,0-0.6,1.7-0.3,3.4c0.2,1.1,1.1,4.1,1.1,4.1s0,3,0.4,3.2s2.4,2.4,2.4,2.4L7.3,24
			c0,0-0.9,1.2-0.9,2.8c0,2.2,0.7,3.2,1.2,4.7c0.3,1.1,1,1.8,1,2.6s0.2,1,0.2,3c0,1.2,0.2,2.3-0.1,3.7c-0.1,0.5,0,2.3,0.4,2.3
			s0.5,2.8,0.5,2.8S10,47,10,48.2c0,0.7,1.2,1.2,1.2,1.2l4.7,1.2c0,0,5.1,0.6,4.7,1.2s5,3.1,5,3.1l3.4,1.2l4.9,1l3.2,0.6l2.4,2.4
			c0,0,6.5-6.1,5.9-7.1s0.6-4.1,0-4.7s-0.6-5.3,0-4.7c0.6,0.6,0-1.2,0-1.2s2.4-3.6,3.5-5.9c1.2-2.4,1.2-9.7,1.2-11.8
			s1.4-3.8,1.2-4.7c-0.2-1,1.2-3.9,1.2-3.6s-0.4,0-1.2-1.2s-1.6-3-1.2-3.6c0.4-0.6-0.2-1.4-1.2-2.4s-1.4-2.8-1.2-3.6
			c0.2-0.8,1-2,1.2-2.4s0.4-1.2-1.2-2.4c-1.6-1.2-1-2.8-1.2-3.6c-0.2-0.8,1.4-2.4,0-2.4s-2-0.8-2.4-1.2c-0.4-0.4,0.2-2.8-1.2-2.4
			s-3.3,0.2-3.5-1.2S37-12.4,37-12.4L35.8-10z"/>
		<path class="st0" d="M-31.3,37.4c0,0,2-0.8,3.5,0c1.6,0.8,4.9,2.8,4.7,4.7c-0.2,2,0.6,3.2,1.2,4.7c0.6,1.6,1.2,4.7,1.2,4.7v2.4
			l-1.2,3.6l1.2,3.6l3.5-1.2l4.7-1.2l4.2,1.7l1.6,0.7l3.5-3.6l3.5,1.2c0,0,3.9-1.8,3.5-1.2c-0.4,0.6,2.2,1.6,2.4,2.4
			c0.2,0.8,2.4,2.4,2.4,2.4l1.2-3.6h3.5c0,0-0.6-1.5-0.9-2.1C12,55.8,11,54,11,54l-1-5.3l-0.2-1.8C9.2,46.3,8.6,41,8.6,41v-5.9
			c0,0-0.8-3.8-1.2-3.6c-0.4,0.2-1-2.4-1.2-3.6c-0.2-1.2,0.9-4.2,0.9-4.2S5.6,20.4,5.6,20s-1.3-1.8-1.7-1.6c-0.4,0.2,0.6-2.4,0-2.4
			s-0.4-3.4-1.2-3.6c-0.8-0.2,0-4.7,0-4.7s2.4-3,2.4-3.6s0.8-4.8,0.8-4.8L5.1-3l1.2-2.4l0.3-3.5l-4.5-3c0,0-0.2-1.1-1.1-1.5
			c-1.2-0.6-4.3-1.8-4.1-1.4c0.2,0.4-3.5,1.8-3.5,2.4S-9-7.7-9-7.7l-4.7,1.2l-3.8,0.3c-0.6,0-2.9,1.4-3.3,2.1
			c-0.4,0.6-3.5,0.3-3.5,0.3l-1.2,0.9l-1.2,1.2v3.6c0,0.8,1.8,4.9,2.4,4.7s2.7,2,2.4,2.4c-0.4,0.4,1.2,5.9,1.2,5.9V22
			c0,0,1.2,2.6,1.2,3.6s-1.2,3.6-1.2,3.6l-2.4,3.6l-2.4,1.2c0,0-3.7,0.4-3.5,0s0-2.4,0-2.4h-3.5l-1.2,1.2v2.4L-31.3,37.4z"/>
		<path class="st0" d="M-1-25.3c0,0-2.9-1.9-2.1-4.8c0.2-0.8,2.4-2.4,2.4-2.4l-1-3c0,0-0.6-1.1-0.9-1.3c-0.4-0.2-1.4-0.9-2-3
			c-0.6-2.4-0.6-5.9-0.8-6.9S-5.3-49-6.3-50c-1.3-1.3-2.3-1.9-3.2-2.3c-0.9-0.4-2.7-0.2-3-1.5c-0.4-1.6,0.2-3.6,0-3.6H-7
			c0,0,1.4-0.6,2-1.1c0.3-0.3,0.9-0.9,2.4-1.1c2.2-0.3,1.9,0.4,3.4-0.1C2-60.1,1.6-59.2,2-60.8c0.4-1.6,1.1-3.1,1.1-3.1l0.8-1.7
			l4.3,3.8l2.8,0.9v5.9c0,0.6,1.6,7.9,1.2,8.3c-0.4,0.4,1.8,5.5,2.4,5.9l3.5,2.4l3.5,2.4h3.5c0,0,0.4,2,2.4,0s5.9-7.1,5.9-7.1
			s1.8,1,1.2,2.4c-0.6,1.4-3.5,5.3-3.5,5.9s1,0.8,1.2,2.4c0.2,1.6,0,4.7,0,4.7l-1.2,1.2c0,0,1.8,2.2,1.2,2.4
			c-0.6,0.2,1.4,0.6,1.2,1.2s-1.2,2.4-1.2,2.4s2.6,3.6,2.4,3.6c-0.2,0,2.4,2.2,2.4,2.4s-0.2,1.6,0,2.4c0.2,0.8-1,2-1,2L33.7-9
			l-1.3,0.1l-0.7-3.3c0,0,0.3-1.2-0.5-2.3c-0.8-1.2-2-3.3-2.4-3.6c-0.3-0.2-1.6-0.4-2.4,0c-1.2,0.6-3.5,0-3.5,0l-2.4-1.2l-1.9,3.5
			l-1.1,2.6l-6.4-0.1c0,0-1.3,2.1-1.9,1.9s-2,2.9-2.8,2.7C5.6-8.9,4.8-10,4.8-10s-2.9-1.7-3.1-2.1c-0.6-1-3.8-2.8-4.4-2.4
			c-0.6,0.4,0.9-1.1,0.9-1.1s2.6-4.1,2.4-4.7s0-2.4,0-2.4L-1-25.3z"/>
		<path class="st0" d="M-38.4-30.1c-0.2,0.6-1.2,4.5,1.2,5.9c2.4,1.4,4.5,1,4.7,2.4c0.2,1.3,2.7,3.5,2.3,4.7s1.2,3.9,1.2,4.7
			s1,4.3,1.2,4.7c0.2,0.4,1.2,5.9,1.2,5.9s1-1.8,2.4-2.1c1-0.2,3,0,3,0l3-2.2l5.5-0.6l3.8-1l2.4-4.7l3.5-2.4l2.4-3.6l1.2-2.4
			c0,0-0.3-4.1-0.9-4.3s-2.4-2-2.6-2.8c-0.2-0.8,0-2.8,0-2.4c0,0.4,2.4-2.4,2.4-2.4l-1.2-3.6l-2.4-2.4c0,0-1.4-5.1-1.2-4.7
			c0.2,0.4,0-3.6,0-3.6v-2.4l-3-2.7l-2.4-1.2c0.2,0.1-1.7-0.1-1.7-0.9v-5.9v-4.7c0,0-2.4-2-2.4-2.4s-3.3-2-3.5-1.2
			c-0.2,0.8-5.9,3.6-5.9,3.6h-2.4h-4.7c0,0-3.3,1.8-3.5,2.4c-0.2,0.6-1.2,5.9-1.2,5.9l1.2,4.7l1.6,2.7c0,0,1.7,1.5,2.1,1.7
			c1,0.4,3.4,2.4,3.4,2.4s1.3,2.4,1.1,2.8c-0.2,0.4-1.2,3.6-1.2,3.6h-3.5c0,0-0.7,3.2-1.2,3.6c-0.9,0.7-1.9,1.9-1.9,1.9l-1.7,1.4
			C-36.1-31.6-38.2-30.7-38.4-30.1z"/>
		<path class="st0" d="M-50.2-81.1c0,0,2.9,0.9,4.1,1.1c0.8,0.1,5.8,2,5.4,1.8c-0.4-0.2,2.8,1.2,2.8,1.2s-1.2,2.9,0.1,5.3
			c0.4,0.7,1.7,3.6,1.7,3.6s1.2,1.5,1.5,2c0.5,0.9,2.1,2.1,2.1,1.5c0-0.4,4.7,0,4.7,0h3.5c0,0,4.5-2.1,4.7-2.4
			c1.2-1.4,2.1-1.4,3.1-1c1.2,0.5,3.3,2.8,3.3,2.8l0.7,0.8v6.9h5.9l3.5-2.4h4.7l1.2-3.6L4-65.9l2,1.8l2.8,2.2l2.3,0.8
			c0,0,3.3-5.1,3.5-5.9c0.2-0.8,0-6.7,0-7.1s1.8-9.3,1.2-11.8c-0.6-2.6-0.6-7.7-1.2-8.3c-0.6-0.6,0.6-5.3,0-5.9s-3.7-6.1-4.7-5.9
			s-3.3-2.8-3.5-2.4S2.9-106,2.9-106h-3.5l-3.5-3.6l-2.4-1.2c0,0-1.4,1.2-2.4,2.4c-1,1.2-3.5,4.7-3.5,4.7s-1.6,1.4-2.4,2.4
			s-3.7,4.9-3.5,4.7l0,0c0,0-2.2,2.6-3.5,2.4c-1.5-0.1-5.8-0.7-6-1.1s-1-3-3.5-3.6c-2.6-0.6-6.5-2.8-7.1-3.6
			c-0.6-0.8-4.7-2.4-4.7-2.4s-2.7-0.8-3.1-0.6c-1.3,0.5-3.9,3-3.9,3l-1.2,4.7l0.1,4.4l-1.3,3.8l2.4,2.4l0.2,2L-50.2-81.1z"/>
	</g>
	<g id="東北_1_">
		<path class="st1" d="M-25.5,69.4c0,0,4,7.1,4.7,5.9s7.1,1.2,7.1,1.2l1.2,4.7c0,0,2.2,2.7,2.4,3.6s1.2,4.7,1.2,4.7l-2.4,4.7
			c0,0,1.9,2.6,2.4,3.6c0.4,0.9,3.5-2.4,3.5-2.4l4.7,2.4l1.2-4.7c0,0,1-4.5,1.2-5.9c0.2-1.5,0-8.3,0-8.3h5.9L10,86l4.7-1.2l4.7-3.6
			c0,0,2.5-0.5,2.4,2.4c-0.2,2.8,1.2,5.9,1.2,5.9l2.4,5.9L23,99c0,0-6.1-1.9-7.1-2.4s-6.5-0.4-7.1-1.2C8.2,94.6,6.4,99,6.4,99
			l1.2,4.7l3.5,7.1h3.5l3.5-1.2l3.5-5.9H24l5.9,3.6l-1.2-11.8c0,0-1.4-12-1.2-14.2s1.5-8.1,2.4-9.5c0.8-1.3,2-2.4,2.4-3.6
			c0.3-1.1,4.7-5.9,4.7-5.9l2.4-2.4L37,57.5l-5.9-1.2l-4.4-0.9l-7-4.4c0,0-3.2-0.1-3.9-0.7c-0.7-0.6-5.7-1.7-5.7-1.7l1.3,5.4
			l2.1,4.6c0,0-3.7-1-3.5,0c0.1,1.2-1.2,3.6-1.2,3.6l-5.1-4.8c0,0-1.6,1-3.1,1.2c-1.6,0.2-3.5-1.2-3.5-1.2L-6.4,61l-6.1-2.3
			c0,0-2.3,0.8-3.4,0.8c-1,0.1-4.9,1.5-4.9,1.5l-1.1-3.9l-2.4,4l-1.2,4.7l-2.4,1.2L-25.5,69.4z"/>
		<path class="st1" d="M35.8-10l-3.5,1.2l-1.2-5.9c0,0-2.6-3.9-2.8-3.9c-0.6-0.1-3.3,0.4-3.9,0.6c-0.6,0.2-3.9-1.5-3.9-1.5
			c0.1,0.1-0.7,1.1-0.9,1.5c-1,2.4-2.1,4.5-2.1,4.5s-0.4,0-1.7-0.1c-1-0.1-4.1-0.4-4.7,0s-2.4,2.4-2.4,2.4L7.5-10L6.7-9.2L6.4-5.3
			L5.2-2.9c0,0,1,3.6,0.6,4.4L5.2,4.2L2.8,7.8c0,0-0.6,1.7-0.3,3.4c0.2,1.1,1.1,4.1,1.1,4.1s0,3,0.4,3.2s2.4,2.4,2.4,2.4L7.3,24
			c0,0-0.9,1.2-0.9,2.8c0,2.2,0.7,3.2,1.2,4.7c0.3,1.1,1,1.8,1,2.6s0.2,1,0.2,3c0,1.2,0.2,2.3-0.1,3.7c-0.1,0.5,0,2.3,0.4,2.3
			s0.5,2.8,0.5,2.8S10,47,10,48.2c0,0.7,1.2,1.2,1.2,1.2l4.7,1.2c0,0,5.1,0.6,4.7,1.2s5,3.1,5,3.1l3.4,1.2l4.9,1l3.2,0.6l2.4,2.4
			c0,0,6.5-6.1,5.9-7.1s0.6-4.1,0-4.7s-0.6-5.3,0-4.7c0.6,0.6,0-1.2,0-1.2s2.4-3.6,3.5-5.9c1.2-2.4,1.2-9.7,1.2-11.8
			s1.4-3.8,1.2-4.7c-0.2-1,1.2-3.9,1.2-3.6s-0.4,0-1.2-1.2s-1.6-3-1.2-3.6c0.4-0.6-0.2-1.4-1.2-2.4s-1.4-2.8-1.2-3.6
			c0.2-0.8,1-2,1.2-2.4s0.4-1.2-1.2-2.4c-1.6-1.2-1-2.8-1.2-3.6c-0.2-0.8,1.4-2.4,0-2.4s-2-0.8-2.4-1.2c-0.4-0.4,0.2-2.8-1.2-2.4
			s-3.3,0.2-3.5-1.2S37-12.4,37-12.4L35.8-10z"/>
		<path class="st1" d="M-31.3,37.4c0,0,2-0.8,3.5,0c1.6,0.8,4.9,2.8,4.7,4.7c-0.2,2,0.6,3.2,1.2,4.7c0.6,1.6,1.2,4.7,1.2,4.7v2.4
			l-1.2,3.6l1.2,3.6l3.5-1.2l4.7-1.2l4.2,1.7l1.6,0.7l3.5-3.6l3.5,1.2c0,0,3.9-1.8,3.5-1.2c-0.4,0.6,2.2,1.6,2.4,2.4
			c0.2,0.8,2.4,2.4,2.4,2.4l1.2-3.6h3.5c0,0-0.6-1.5-0.9-2.1C12,55.8,11,54,11,54l-1-5.3l-0.2-1.8C9.2,46.3,8.6,41,8.6,41v-5.9
			c0,0-0.8-3.8-1.2-3.6c-0.4,0.2-1-2.4-1.2-3.6c-0.2-1.2,0.9-4.2,0.9-4.2S5.6,20.4,5.6,20s-1.3-1.8-1.7-1.6c-0.4,0.2,0.6-2.4,0-2.4
			s-0.4-3.4-1.2-3.6c-0.8-0.2,0-4.7,0-4.7s2.4-3,2.4-3.6s0.8-4.8,0.8-4.8L5.1-3l1.2-2.4l0.3-3.5l-4.5-3c0,0-0.2-1.1-1.1-1.5
			c-1.2-0.6-4.3-1.8-4.1-1.4c0.2,0.4-3.5,1.8-3.5,2.4S-9-7.7-9-7.7l-4.7,1.2l-3.8,0.3c-0.6,0-2.9,1.4-3.3,2.1
			c-0.4,0.6-3.5,0.3-3.5,0.3l-1.2,0.9l-1.2,1.2v3.6c0,0.8,1.8,4.9,2.4,4.7s2.7,2,2.4,2.4c-0.4,0.4,1.2,5.9,1.2,5.9V22
			c0,0,1.2,2.6,1.2,3.6s-1.2,3.6-1.2,3.6l-2.4,3.6l-2.4,1.2c0,0-3.7,0.4-3.5,0s0-2.4,0-2.4h-3.5l-1.2,1.2v2.4L-31.3,37.4z"/>
		<path class="st1" d="M-1-25.3c0,0-2.9-1.9-2.1-4.8c0.2-0.8,2.4-2.4,2.4-2.4l-1-3c0,0-0.6-1.1-0.9-1.3c-0.4-0.2-1.4-0.9-2-3
			c-0.6-2.4-0.6-5.9-0.8-6.9S-5.3-49-6.3-50c-1.3-1.3-2.3-1.9-3.2-2.3c-0.9-0.4-2.7-0.2-3-1.5c-0.4-1.6,0.2-3.6,0-3.6H-7
			c0,0,1.4-0.6,2-1.1c0.3-0.3,0.9-0.9,2.4-1.1c2.2-0.3,1.9,0.4,3.4-0.1C2-60.1,1.6-59.2,2-60.8c0.4-1.6,1.1-3.1,1.1-3.1l0.8-1.7
			l4.3,3.8l2.8,0.9v5.9c0,0.6,1.6,7.9,1.2,8.3c-0.4,0.4,1.8,5.5,2.4,5.9l3.5,2.4l3.5,2.4h3.5c0,0,0.4,2,2.4,0s5.9-7.1,5.9-7.1
			s1.8,1,1.2,2.4c-0.6,1.4-3.5,5.3-3.5,5.9s1,0.8,1.2,2.4c0.2,1.6,0,4.7,0,4.7l-1.2,1.2c0,0,1.8,2.2,1.2,2.4
			c-0.6,0.2,1.4,0.6,1.2,1.2s-1.2,2.4-1.2,2.4s2.6,3.6,2.4,3.6c-0.2,0,2.4,2.2,2.4,2.4s-0.2,1.6,0,2.4c0.2,0.8-1,2-1,2L33.7-9
			l-1.3,0.1l-0.7-3.3c0,0,0.3-1.2-0.5-2.3c-0.8-1.2-2-3.3-2.4-3.6c-0.3-0.2-1.6-0.4-2.4,0c-1.2,0.6-3.5,0-3.5,0l-2.4-1.2l-1.9,3.5
			l-1.1,2.6l-6.4-0.1c0,0-1.3,2.1-1.9,1.9s-2,2.9-2.8,2.7C5.6-8.9,4.8-10,4.8-10s-2.9-1.7-3.1-2.1c-0.6-1-3.8-2.8-4.4-2.4
			c-0.6,0.4,0.9-1.1,0.9-1.1s2.6-4.1,2.4-4.7s0-2.4,0-2.4L-1-25.3z"/>
		<path class="st1" d="M-38.4-30.1c-0.2,0.6-1.2,4.5,1.2,5.9c2.4,1.4,4.5,1,4.7,2.4c0.2,1.3,2.7,3.5,2.3,4.7s1.2,3.9,1.2,4.7
			s1,4.3,1.2,4.7c0.2,0.4,1.2,5.9,1.2,5.9s1-1.8,2.4-2.1c1-0.2,3,0,3,0l3-2.2l5.5-0.6l3.8-1l2.4-4.7l3.5-2.4l2.4-3.6l1.2-2.4
			c0,0-0.3-4.1-0.9-4.3s-2.4-2-2.6-2.8c-0.2-0.8,0-2.8,0-2.4c0,0.4,2.4-2.4,2.4-2.4l-1.2-3.6l-2.4-2.4c0,0-1.4-5.1-1.2-4.7
			c0.2,0.4,0-3.6,0-3.6v-2.4l-3-2.7l-2.4-1.2c0.2,0.1-1.7-0.1-1.7-0.9v-5.9v-4.7c0,0-2.4-2-2.4-2.4s-3.3-2-3.5-1.2
			c-0.2,0.8-5.9,3.6-5.9,3.6h-2.4h-4.7c0,0-3.3,1.8-3.5,2.4c-0.2,0.6-1.2,5.9-1.2,5.9l1.2,4.7l1.6,2.7c0,0,1.7,1.5,2.1,1.7
			c1,0.4,3.4,2.4,3.4,2.4s1.3,2.4,1.1,2.8c-0.2,0.4-1.2,3.6-1.2,3.6h-3.5c0,0-0.7,3.2-1.2,3.6c-0.9,0.7-1.9,1.9-1.9,1.9l-1.7,1.4
			C-36.1-31.6-38.2-30.7-38.4-30.1z"/>
		<path class="st1" d="M-50.2-81.1c0,0,2.9,0.9,4.1,1.1c0.8,0.1,5.8,2,5.4,1.8c-0.4-0.2,2.8,1.2,2.8,1.2s-1.2,2.9,0.1,5.3
			c0.4,0.7,1.7,3.6,1.7,3.6s1.2,1.5,1.5,2c0.5,0.9,2.1,2.1,2.1,1.5c0-0.4,4.7,0,4.7,0h3.5c0,0,4.5-2.1,4.7-2.4
			c1.2-1.4,2.1-1.4,3.1-1c1.2,0.5,3.3,2.8,3.3,2.8l0.7,0.8v6.9h5.9l3.5-2.4h4.7l1.2-3.6L4-65.9l2,1.8l2.8,2.2l2.3,0.8
			c0,0,3.3-5.1,3.5-5.9c0.2-0.8,0-6.7,0-7.1s1.8-9.3,1.2-11.8c-0.6-2.6-0.6-7.7-1.2-8.3c-0.6-0.6,0.6-5.3,0-5.9s-3.7-6.1-4.7-5.9
			s-3.3-2.8-3.5-2.4S2.9-106,2.9-106h-3.5l-3.5-3.6l-2.4-1.2c0,0-1.4,1.2-2.4,2.4c-1,1.2-3.5,4.7-3.5,4.7s-1.6,1.4-2.4,2.4
			s-3.7,4.9-3.5,4.7l0,0c0,0-2.2,2.6-3.5,2.4c-1.5-0.1-5.8-0.7-6-1.1s-1-3-3.5-3.6c-2.6-0.6-6.5-2.8-7.1-3.6
			c-0.6-0.8-4.7-2.4-4.7-2.4s-2.7-0.8-3.1-0.6c-1.3,0.5-3.9,3-3.9,3l-1.2,4.7l0.1,4.4l-1.3,3.8l2.4,2.4l0.2,2L-50.2-81.1z"/>
	</g>
</symbol>
<use xlink:href="#日本地図_3"  width="105.6" height="222.3" id="XMLID_10_" x="-52.8" y="-111.1" transform="matrix(0.9986 0 0 -0.9986 588.1512 380.5268)" style="overflow:visible;"/>
</svg>
