<?xml version="1.0" encoding="utf-8"?>
<!-- Generator: Adobe Illustrator 21.0.2, SVG Export Plug-In . SVG Version: 6.00 Build 0)  -->
<svg version="1.1" id="レイヤー_1" xmlns="http://www.w3.org/2000/svg" xmlns:xlink="http://www.w3.org/1999/xlink" x="0px"
	 y="0px" viewBox="0 0 960 750" style="enable-background:new 0 0 960 750;" xml:space="preserve">
<style type="text/css">
	.st0{display:none;}
	.st1{display:inline;fill:#D1CB01;stroke:#FFFFFF;stroke-width:0.6;}
	.st2{display:none;fill:#349943;stroke:#FFFFFF;stroke-width:0.6;}
	.st3{fill:#349943;stroke:#FFFFFF;stroke-width:0.6;}
</style>
<symbol  id="日本地図_3" viewBox="-81.8 -90.4 163.6 180.9">
	<g id="中部_2_" class="st0">
		<path class="st1" d="M65.1,77c0.2-0.4,0.6,5.5,1.2,5.9s0.5,2.9,0.5,2.9l3,4.2c0,0,3.1-1.9,3.5-2.4c0.3-0.3,2.5-1.9,3.3-4.8
			c0.4-1.3,1-1.2,2.1-1.1c0.6,0.1,1.6,0,1.6,0l1.2-3.6c0,0-1.6-3.9-3.5-4.7c-1.9-0.8-3.5-2.6-3.5-2.4s-1.5-3.9-1.7-4.4
			c-1-2.7-0.4-4.1-0.4-4.1s0.3-3.9,0.9-4.5c0.7-0.6,3.6-2.3,3-2.1s-4.4-3.1-4.2-3.9c0.2-0.8-2.7-4.5-2.4-5.9c0.4-1.4,1.2-3.4,0-3.6
			c-1.2-0.2-7.1-2.4-7.1-2.4s-4.9-0.8-4.7-1.2s0.4-5.3,0-5.9c-0.4-0.6-2.5-1.8-2.4-2.4c0.3-1.8,0.4-2.4,1.2-3.6s0-4.3,0-4.7
			c0-0.4-0.8-0.8-1.2-1.2s-5.9-2.4-5.9-2.4L47.2,14c0,0,0-0.6-2.4-2.4S41.5,9,41.3,8s-5.1-1.4-4.7-1.2C37,7,36.1,8.5,36.2,10
			c0,0.3-0.4,1-0.4,1s-1,1.1-1.6,2.8s-1.2,2-1.2,3.6s-0.2,3-1.2,2.4c-1-0.6-4.3-1.2-4.7-2.4c-0.4-1.2-2.6-2.7-3.5-3.6
			c-1.7-1.7-2.8-3.8-3.5-3.6c-0.8,0.2-3.5,1.6-3.5,1.2c0-0.5-2.4-1.6-2.4-1.2S13,12.6,13,12.6l-2.1,1.7l-1.2,1.2L7,12.2l-3.2-5
			c0,0-0.6,0.8-1.2,2.4C1.6,12.3,2,15,2,15l-1.7,1.7l-1.2,1.2c0,0,3.7,2,4.7,2.4s6.9,1.6,7.1,2.4s3.5,3.6,3.5,3.6l3.5,1.2
			c0.6,0.2,5.1-1,5.9,0s2.4,3.8,4.7,5.9c2.4,2.2,5.7,2.4,5.9,3.6s0.4,2.8,2.4,4.7c2,2,2.6,4.1,3.5,4.7c1,0.6,1.6,3.2,1.2,3.6
			c-0.4,0.4,1.2,7.1,1.2,7.1s4.7,3.8,7.1,4.7c2.4,1,5.3,0.4,7.1,2.4c1.8,2,4.9,3.2,5.9,4.7c0.7,1.2,2.5,3.1,2.4,3.6
			C64.7,73.9,64.9,77.4,65.1,77z"/>
		<path class="st1" d="M21.5,69.9c0,0,3.5,2.4,3.5,3.6s2.2,2.6,2.4,3.6c0.2,1,2.4,3.6,2.4,3.6s1-4.9,0-7.1s-1.4-4.7-1.2-4.7
			s1.2-0.8,1.2-1.2s3.3,1.8,3.5,1.2s0-3.6,0-3.6s-2-0.2-2.4-1.2s-0.8-3.4-2.4-4.7c-1.6-1.4-3.9-3.9-4.7-3.6C23,56.2,20.3,57,20.3,57
			s2.2,2.4,2.4,3.6c0.2,1.2,0.6,1,1.2,2.4s-0.2,3.9,0,3.6c0.2-0.4-2.4-2.4-2.4-2.4s-0.6-1.2-1.2,0c-0.6,1.2,1.6,3.6,1.2,3.6
			C21.1,67.6,21.5,69.9,21.5,69.9z"/>
		<path class="st1" d="M3.8,7.2c0,0,2.5,3,2.4,3.6s3.5,4.7,3.5,4.7s4.1-2.7,4.4-3.9c0.4-1.8,2.2,0.5,3.8-0.2
			c0.8-0.4,2.7-0.6,2.7-0.6l3.7,3.9c0,0,1.9,0.9,2.6,2.5c0.9,2.2,4.7,2.8,4.7,2.8s1.6,0.9,1.5-0.5c-0.1-1.7,0.8-4,0.8-4
			s0.5-2.7,1.7-3.6c1.1-0.9,0.8-2.8,1.2-3.6s0.9-1.5,0-1.2s-3.7-1.6-5-2.8c-2.2-1.8-3.4-2.3-4.4-3.2c-0.9-0.8-0.3-1.9-0.9-4
			s-0.2-1.5,0.3-2.9c0.5-1.3,3.3-3,3.3-3s2.2-1.3,1.9-0.8c-0.3,0.5,0.4,2,1.2,2.4c1,0.5,2.4-2.4,2.4-2.4v-4.7c0,0-0.7-2.3-1.2-3.6
			c-0.5-1.2,0.8-0.4,1-2.9c0.2-3,0.2-4.5,0.2-4.5l2.6-2.1l0.3-1.5c0,0,0.8-1.7-0.9-2.2c-2-0.7-2.9-1.4-4.4,0.2
			c-1.5,1.6-1.1,1.5-2.4,1.2c-1.3-0.4-1.3,0.2-2.4,0S26-30.3,26-30.3s0,0.5-2.7-1.3c-2.4-1.6-2-1.6-2-1.6s0-3-1.2-4.7
			c-1.5-2.2-0.9-1-0.8-3.5c0.1-2.4-0.2-5.1-0.7-6.6c-0.5-1.3-1.2-3.2-1.7-5.4c-0.4-1.9-0.5-1.5-3.8-2.8c-1.7-0.7-1.5-2.3-3.3-3.7
			c-1.6-1.2-3.4-2-4.4-2.8c-1.2-0.9-4.9,1-5.4,1.1c-0.5,0-1.4-0.9-2.4-1.2s-2.3,2.9-2.3,2.9s0.4,3.4,1.1,4.2
			c3.5,3.5,3.5,2.2,1.8,5.5c-0.6,1.1-4.4,1.8-3.5,3.2c0.9,1.5,1.8,2.7,0.5,4.3c-0.6,0.7-1.2,0.4-2,2.6c-0.8,2.2-0.9,2.1-2.7,3.4
			c-1.9,1.2-1.2,3.2-1.2,3.2s0,0.9,0.3,1.6c0.4,0.9,1,0.3,2.7,1.2c1.2,0.6,3.8,2.9,3.8,2.9s1.5,2.2,1.2,3.2
			c-0.1,0.6-1.6,1.5-1.6,1.5s-0.6-0.3-0.7,1.6c-0.1,1.1,0.7,1.8,1.4,3.8s0.6,3.1,1.2,3.6c0.6,0.4,1.6,1.5,1.2,2.4s-1.2,2.4-1.2,2.4
			l-0.8,1.5l1.9,3.7l3.9,3c0,0,0.7,2.2,0.8,3.4C3.6,3.2,3.8,7.2,3.8,7.2z"/>
		<path class="st1" d="M26.1-57.7c0,0,0.1-3.4,1.3-5.1c1.2-1.6,2.9-1.2,3.5-1.2s1.3,6.4,1.2,7.1c-0.1,0.7,2.7,3.1,2.4,3.6
			c-0.3,0.4,0.7-2.1,1.2-2.4c0.5-0.2,3.7-0.8,3.7-0.8s0.7,1.3,1,2s3.5,0,3.5,0l5.5,0.2c0,0-3.5,1.7-2.8,2.4c0.9,0.9,2.7,2,3.6,2.3
			c4.6,1.3,3,1.6,3.9,3.3c0.2,0.4,0.2,4.2,0.2,4.2s-3.1,0.7-4,2c-1.7,2.4-2.8,3.5-2.8,3.5s0.7,3.3,0.1,2.9c-1.6-1-6,0.6-6,0.6
			l-2.5,2.7l-4.2-1.5l-1.6,1.2c0,0-0.6,1.6-2.4,1.2c-1.7-0.5-3.5,0-3.5,0l-4.7-2.4c0,0-1,0-1.2-1.2c-0.3-2.7-0.6-3.6-1.2-4.7
			c-0.2-0.4-1.3-1.7-1.2-2.4c0.1-0.7,0-1.9,0.5-2.3c0.4-0.5,2-2.3,2-2.3s-1.1-2.6-0.1-4.9c1-2.3,1.4-6.2,1.8-6.8
			C24.4-58.3,26.1-57.7,26.1-57.7z"/>
		<path class="st1" d="M-29.2,10.7l0.1,3.3c0,0,0.2,0.7,2.2,2.7c2,1.9,4.7,1.2,4.7,1.2l-1.2-4.7c0,0-0.2-1.2,0-2.4s2.6-2.7,3.5-3.6
			c1-0.9,3.3-1.5,4.7-1.2c1.4,0.3,2.6,1,3.5,2.4s2.3,1.8,2.4,3.6s-0.3,3,1.2,3.6S-4.6,18-4.6,18h3.5c0,0,1.5-1.9,2.4-2.4
			c0.7-0.5,0.6-2.8,0.6-2.8S1.6,11,2.6,9.5C3.7,8,3.8,7.2,3.8,5.9c0-3.9-1.2-7.2-1.6-7.5C1.7-1.9-1.2-4.3-1.7-5.9s-0.6-2.6-2.7-2.4
			c-2,0.2-3.9-0.1-5.1,0.9c-1.2,0.9-2.9,1.3-4.3,1.5c-1.5,0.2-4,0.9-4.4,0.2c-0.3-0.7-1.1-0.7-1.2-1.3s-1.1-4.1-3.2-6.5
			c-1.1-1.3-1.4-1.4-3,0.6c-1.1,1.4-2.4,2.4-2.4,2.4s-3.5-4-3.5-3.6s-0.3,4.6-0.3,5.1c-0.4,4.3-1.1,7.9-0.9,9.1s0.8,3.3,0.8,3.3
			c0.4,0.5,1.1,3.1,1.1,3.1l1.6,1.3V10.7z"/>
		<path class="st1" d="M-2-49.6c1.3-2,2.3-2.8,1.1-3.6c-1.3-0.9-1.3-1.5-1.9-2.1c-0.8-0.9-1.3-2.7-1.5-3.9s-0.3-0.7-1.9-1.4
			c-2.5-1.1-1.8-0.7-3.6-0.6c-1.1,0.1-0.7,1-2.9,0.9s-4.1-2.2-4.8-1.6c-0.7,0.7-1.1,1.2-2.3,2.7s-2.2,4.4-3.5,4.7s-5.3-0.5-6.3-1.2
			c-1.2-0.7-2.6,0.1-3.1-1.2c-0.5-1.1-3.1-1.8-2.7-3.4c1-3.7-0.8-4.9-0.8-4.9s-1,0.3-2.4,1.2s-2.4,2.4-2.4,2.4s-1.8,2.1-2.4,1.2
			c-0.5-0.9-2.4-2.4-2.4-2.4s-2,3.5-1.2,4.7c0.8,1.3,2.6,2.4,2.4,3.6c-0.2,1.2,0.3,2.2,0,2.9c-0.3,0.8-1.2,0.8-1.2,1.8
			c0.1,1-0.5,1.7-0.5,1.7s-1.5,1-1.9,1.9s-1.2,3.6-1.2,3.6s-0.6,1.8,0.5,2.8c0.5,0.5,0.7,0.7,1.9,1.9c1.4,1.4,1.3,1.9,3.8,1.6
			c2.5-0.3,2.5-0.7,4.1-0.2c1.3,0.5,1.7,0.7,3.9,1c2.2,0.2,3.1,0.4,3.5,1.2c0.4,0.8,1.7,1.1,1.2,2.4c-0.5,1.3-2.4,3.6-2.4,3.6
			s-2.4,1.2-1.8,1.4c0.5,0.2-0.9,3.2-0.5,3.3c0.4,0.1,1.4,0.5,1.4,0.5s1.3,2.4,1,3.1s1.2,5.9,1.2,5.9l3.5,3.6c0,0,0.9-1.1,2.4-2.4
			c0.8-0.7,0.9-2.7,2.4-1.2s1.6,1.5,2.4,3.6c0.9,2.6,1.7,4.1,2.4,4.7c0.6,0.6,3.5,0,3.5,0s2.8-0.4,4.7-1.2C-8.4-7.8-8-7.9-6.8-8.2
			c1.2-0.3,4,0.4,4,0.4l2.2-4.3l-0.9-1.5c0,0-1.2-0.2-1.2-1.6s0-1.7-0.9-3.1c-0.8-1.3-1.5-3.2-0.9-4s2.1-2.1,2.1-2.1L-3.3-27
			c0,0-0.4-1-2.4-2.4c-1.9-1.3-4.5-1.9-4.5-1.9s0,0-0.2-1.7s0.2-2.8,1.2-3.6c1-0.7,1.8-1,2.4-2.4c0.5-1.4,0.5-1.9,2-3.1
			c2.1-1.7,0.6-3.6,0.6-3.6s-1.6-1.7-0.2-2.3L-2-49.6z"/>
		<path class="st1" d="M-51.6-13c0,0,6.6,5.2,7.1,5.9c0.4,0.7,3.2,4,3.5,4.7c0.4,0.8,3,7.2,3.5,7.1c0.5,0,1.2,2.4,2.4,4.7
			c1.2,2.4,2.7,2.8,2.4,3.6s-1.2,5.9-1.2,5.9s0.2,1.2,0,2.4c-0.2,1.2-2.7,4.2-2.4,4.7c0.4,0.6,1.1,3.9,1.2,4.7
			c0.1,0.8,1.4,3.9,1.2,3.6c0-0.1-0.1-0.1-0.1-0.1s0.4,0.6,2.5,1.3c2.6,0.9,2.5,0.4,4.7,1.2s3.3,1.8,4.7,2.4
			c1.4,0.6,4.3,3.1,5.9,3.6c1.5,0.5,2.9,1.6,3.5,1.2c0.6-0.5,2.4-2.4,2.4-2.4s0-1.6-1.2-2.4c-1.2-0.7-3.5-2.4-3.5-2.4s0.3-1.6,0-2.4
			c-0.3-0.8-1.6-2-2.4-2.4c-0.7-0.4-2.4,0-2.4,0s0.4-1.8-1.2-2.4c-1.5-0.6-2.4-2.4-2.4-2.4h-3.5l-1.2-1.2l-1.2-2.4l1.2-1.2
			c0,0,4.1-0.7,3.5,0s0,2.4,0,2.4l2.4-1.2v-2.4l1.2-2.4l-1.2-1.2h-2.4c0,0-2.4-0.6-3.5-2.4c-1.2-1.8-1-2.3-1.2-3.6s0-4.2,0-4.2
			s0,0-1.2-0.5c-0.5-0.2-2.7-6.1-2.4-7.1s1.2-13,1.2-13s0-1.4-0.2-1.9c-0.2-0.5-1.3-4-1-4.7s0-3.3,0-3.3l-2.3-0.8c0,0-2.6-1-3.5,1.2
			s-1.2,2.4-1.2,2.4s-7.3,0.6-7.1,0s-1.4,0.1-2.4,1.2c-1,1.2-2.4,3.6-2.4,3.6L-51.6-13z"/>
		<path class="st1" d="M2.6-69.8c0-1.7,0.5,7,1,7s1.8,0,3.7,1.3c0.4,0.3,3.5,2.4,3.5,2.4s1.9,3.4,3.5,3.6c1.6,0.2,2,0.2,2.4,1.2
			s1.2,3.1,1.2,3.6s1.2,3.6,1.2,3.6s0.4,4.9,0.9,4.4c0.4-0.5,1.6-1.8,1.3-2.9c-0.9-2.9,0.3-3.7,0.6-5.2c0.4-1.5,0.9-3.9,1-4.4
			c0.3-1.2,1-2,1.5-2.2c0.9-0.3,1.6,0.5,1.8-0.5c0.2-0.9,0.1-4,0.8-4.3c0.7-0.3,0.2-1.1,1.7-1.5c1.2-0.3,1.4-0.8,2.4,0.3
			c0.9,0.9,0.9,6.7,0.9,6.7l2.4,3.6c0,0,0.1-1.7,1.2-2.4c1.1-0.7,1.5-0.4,3.1-0.7c1-0.2,1.1,1.4,1.6,1.9s3.1-0.1,3.5,0s3-0.3,3.5,0
			c0.6,0.3,2,0.2,2,0.2s1.1-2.8,0.4-3.8c-0.7-0.9-0.5-1.7-0.5-2.4s0.6-3.9,0.6-3.9l1-1.4c0,0,1.3-0.5,2.5-5.3
			c0.2-0.8,2.4-3.6,2.4-3.6s-0.5-3.2-1.2-3.6c-0.7-0.3-1.7-2-2.4-2.4s-1.2-2.8-2.4-3.6c-1.1-0.7-1.2-1-2.4-2.4s-2.9-4.2-3.5-3.6
			c-0.6,0.7-3.8,3.2-3.5,3.6s-1.8,4.1-1.2,4.7s1.1,5.4,1.2,5.9c0.1,0.6,1.2,3.6,1.2,3.6l2.4,1.2v3.6c0,0,2.2,1-1.2,1.2
			c-3.3,0.2-7.1,0-7.1,0s-2.4-0.4-2.4-1.2S31.3-68,32-69.9c0.8-1.9-1.2-3.6-1.2-3.6l-4.7-1.2l-1.2-2.4c0,0,0.4-0.6-1.2-2.4
			s-3.6-2.3-3.5-4.7s2.1-4,1.2-4.7c-0.9-0.8-2.9,0.9-3.5,1.2c-0.6,0.2-5.7,0.6-7.1,1.2s-3.1-1.6-4.7-1.2s-3.7,0.8-4.7,1.2
			S-1-85.3-1-85.3s-1.3,1.2-1.2,2.4c0.2,1.1,0,2.4,0,2.4s-3.1-0.1-2.4-1.2c0.8-1.1-0.3-6.1-1.2-4.7C-6.7-84.8-7.3-83-7.3-83l0.6,5.2
			c0,0,1.4,0.3,4.5,2c3,1.7,4.7,2.9,4.7,3.6C2.6-71.5,2.6-69.4,2.6-69.8z"/>
		<path class="st1" d="M-32.7-69.8c0,0-0.6-0.2-1.2,1.2c-0.6,1.4-2.9,3.7-2.4,3.6s1.2,1.8,1.2,2.4s-0.7,3.3,0.1,3.8
			c0.8,0.6,1,1.2,2.3,2.1c1.4,1,3.3,1.3,3.5,1.2c0.3-0.1,2.3,1.2,2.4,1.2c0,0,1.8,0.4,2.4,0s1.6,0.2,2.2-0.8s3.5-6.1,4-5.9
			c0.5,0.2,0.6-1.4,2.1-0.4s3.8,1.2,4.7,1.2s1.7-1.2,2.4-1.2c0.6,0.1,4.2,1.2,4.8,1.7c0.5,0.5,1.8-3.3,2.3-2.9
			c0.5,0.4,1.5,1.1,2.4,1.2c0.7,0.1,3.3-1.3,3.3-1.3l-0.3-0.7c-0.3-3-0.2-2.3-0.3-3c-0.3-3-0.2-3.1-0.4-5.8c0-0.2-1.6-1.1-2.3-1.7
			c-1.6-1.3-2.6-1.8-3.4-2.4s-3.8-1-3.7-1.6s0.2-1.3,0-2.4s-0.6-2.6,0-3.6s1.4-2.6,1.4-2.6s-3.7,0.8-5,0.2c-1.3-0.5-4.4-1.9-5.9-2.4
			s-5.9-1.2-5.9-1.2s0.4,1.8,1.2,2.4c0.8,0.6,5.5,1.9,5.9,2.4c0.4,0.4,2.4-0.2,2.4,1.2s1.4,1.5,0,2.4s-2.4,2.4-2.4,2.4
			s-2.6-0.6-2.4-1.2s-0.3-3.1-2.4-2.4s-4.7-0.1-4.7,1.2s-1,4-1.2,3.6s-1.2-1.2-1.2-1.2s-0.6-1.1,0-2.4c0.6-1.2,2.9-1.1,2.4-2.4
			s-2.1-1.4-2.4-1.2c-0.2,0.2-2.3,1.5-2.4,2.4s-1.3,2.8-1.2,3.6c0.1,0.8,1.7,1.8,1.2,2.4s-2.7,3.3-2.4,3.6c0.4,0.3,1,0.1,1.2,1.2
			s1.2,2.4,1.2,2.4L-32.7-69.8L-32.7-69.8z"/>
		<path class="st1" d="M-57.5-18.9c0,0,0,1.3,1.2,2.4c1.1,1.1,4.7,3.6,4.7,3.6s-0.2-1.3,0-2.4c0.2-1,1.5-2.6,2.4-3.6
			c1.5-1.7,1.6-1.1,3.5-1.2c2-0.1,4.7,0,4.7,0s1.1,0.4,1.7-0.9c0.7-1.5,1.8-2.7,1.8-2.7h2.4l0.5-3.3l2.4-2.1c0,0,0.4-1.3,1.3-1.8
			s0.4-1.9,0.4-1.9s0-1.8-2-2.3c-1.5-0.4-5.4-0.9-5.4-0.9s-2-1.2-2.9-0.7c-1,0.5-4.4,0.6-4.7,0s-2.9-2.3-2.4-2.4c0.1,0,0.1,0,0.1,0
			s-1,0.2-1.3-1.2c-0.3-1.6,0.8-5,0.2-3.2c-0.2,0.6-3.3,2.3-3.5,3s-2.6-1-2.6-1s1.4-1.9,1.2-2.4c-0.5-1-1.8-2.8-3.5-3.6
			s-3.8-0.5-3.5-1.2c0.2-0.7-0.4-0.5-1.2-1.2s-1.7-1.4-2.4-2.4c-0.7-1-1.6-1.7-2.4-2.4s-1.4-1.7-1.6-1.3s-3.7-2.1-4.3-1.1
			c-0.5,1-0.6,2.8-2.4,2.4s-2.4,0-2.4,0l-2.4,2.4c0,0-1.8,1.9-1.4,2.8c0.5,0.9-0.8,1.2,0.2,2s2.9-2.6,3.5-2.4s2.1,2.9,2.4,2.4
			c0.3-0.6,3.5-1.2,3.5-1.2s-0.9-0.5,1.2,1.2s2.5,0.7,3.5,1.2s-1.1,2.4,1.2,2.4c2.3-0.1,3.2-1.1,3.5,0s-0.8,5,0,4.7s3.4-0.3,3.5-1.2
			s0.7-3.7,1.2-1.2s1.2,3.8,1.2,4.7s-2,3-2.4,3.6c-0.3,0.5-2.2-1.1-2.4,1.2s-0.4,2.6-1.2,3.6s-1.6,1.7,0,2.4
			c1.7,0.6,2.7,0.7,3.5,2.4C-57.9-22-57.5-18.9-57.5-18.9z"/>
	</g>
	<g id="中部_1_">
		<path class="st2" d="M65.1,77c0.2-0.4,0.6,5.5,1.2,5.9s0.5,2.9,0.5,2.9l3,4.2c0,0,3.1-1.9,3.5-2.4c0.3-0.3,2.5-1.9,3.3-4.8
			c0.4-1.3,1-1.2,2.1-1.1c0.6,0.1,1.6,0,1.6,0l1.2-3.6c0,0-1.6-3.9-3.5-4.7c-1.9-0.8-3.5-2.6-3.5-2.4s-1.5-3.9-1.7-4.4
			c-1-2.7-0.4-4.1-0.4-4.1s0.3-3.9,0.9-4.5c0.7-0.6,3.6-2.3,3-2.1s-4.4-3.1-4.2-3.9c0.2-0.8-2.7-4.5-2.4-5.9c0.4-1.4,1.2-3.4,0-3.6
			c-1.2-0.2-7.1-2.4-7.1-2.4s-4.9-0.8-4.7-1.2s0.4-5.3,0-5.9c-0.4-0.6-2.5-1.8-2.4-2.4c0.3-1.8,0.4-2.4,1.2-3.6s0-4.3,0-4.7
			c0-0.4-0.8-0.8-1.2-1.2s-5.9-2.4-5.9-2.4L47.2,14c0,0,0-0.6-2.4-2.4S41.5,9,41.3,8s-5.1-1.4-4.7-1.2C37,7,36.1,8.5,36.2,10
			c0,0.3-0.4,1-0.4,1s-1,1.1-1.6,2.8s-1.2,2-1.2,3.6s-0.2,3-1.2,2.4c-1-0.6-4.3-1.2-4.7-2.4c-0.4-1.2-2.6-2.7-3.5-3.6
			c-1.7-1.7-2.8-3.8-3.5-3.6c-0.8,0.2-3.5,1.6-3.5,1.2c0-0.5-2.4-1.6-2.4-1.2S13,12.6,13,12.6l-2.1,1.7l-1.2,1.2L7,12.2l-3.2-5
			c0,0-0.6,0.8-1.2,2.4C1.6,12.3,2,15,2,15l-1.7,1.7l-1.2,1.2c0,0,3.7,2,4.7,2.4s6.9,1.6,7.1,2.4s3.5,3.6,3.5,3.6l3.5,1.2
			c0.6,0.2,5.1-1,5.9,0s2.4,3.8,4.7,5.9c2.4,2.2,5.7,2.4,5.9,3.6s0.4,2.8,2.4,4.7c2,2,2.6,4.1,3.5,4.7c1,0.6,1.6,3.2,1.2,3.6
			c-0.4,0.4,1.2,7.1,1.2,7.1s4.7,3.8,7.1,4.7c2.4,1,5.3,0.4,7.1,2.4c1.8,2,4.9,3.2,5.9,4.7c0.7,1.2,2.5,3.1,2.4,3.6
			C64.7,73.9,64.9,77.4,65.1,77z"/>
		<path class="st2" d="M21.5,69.9c0,0,3.5,2.4,3.5,3.6s2.2,2.6,2.4,3.6c0.2,1,2.4,3.6,2.4,3.6s1-4.9,0-7.1s-1.4-4.7-1.2-4.7
			s1.2-0.8,1.2-1.2s3.3,1.8,3.5,1.2s0-3.6,0-3.6s-2-0.2-2.4-1.2s-0.8-3.4-2.4-4.7c-1.6-1.4-3.9-3.9-4.7-3.6C23,56.2,20.3,57,20.3,57
			s2.2,2.4,2.4,3.6c0.2,1.2,0.6,1,1.2,2.4s-0.2,3.9,0,3.6c0.2-0.4-2.4-2.4-2.4-2.4s-0.6-1.2-1.2,0c-0.6,1.2,1.6,3.6,1.2,3.6
			C21.1,67.6,21.5,69.9,21.5,69.9z"/>
		<path class="st3" d="M3.8,7.2c0,0,2.5,3,2.4,3.6s3.5,4.7,3.5,4.7s4.1-2.7,4.4-3.9c0.4-1.8,2.2,0.5,3.8-0.2
			c0.8-0.4,2.7-0.6,2.7-0.6l3.7,3.9c0,0,1.9,0.9,2.6,2.5c0.9,2.2,4.7,2.8,4.7,2.8s1.6,0.9,1.5-0.5c-0.1-1.7,0.8-4,0.8-4
			s0.5-2.7,1.7-3.6c1.1-0.9,0.8-2.8,1.2-3.6s0.9-1.5,0-1.2s-3.7-1.6-5-2.8c-2.2-1.8-3.4-2.3-4.4-3.2c-0.9-0.8-0.3-1.9-0.9-4
			s-0.2-1.5,0.3-2.9c0.5-1.3,3.3-3,3.3-3s2.2-1.3,1.9-0.8c-0.3,0.5,0.4,2,1.2,2.4c1,0.5,2.4-2.4,2.4-2.4v-4.7c0,0-0.7-2.3-1.2-3.6
			c-0.5-1.2,0.8-0.4,1-2.9c0.2-3,0.2-4.5,0.2-4.5l2.6-2.1l0.3-1.5c0,0,0.8-1.7-0.9-2.2c-2-0.7-2.9-1.4-4.4,0.2
			c-1.5,1.6-1.1,1.5-2.4,1.2c-1.3-0.4-1.3,0.2-2.4,0S26-30.3,26-30.3s0,0.5-2.7-1.3c-2.4-1.6-2-1.6-2-1.6s0-3-1.2-4.7
			c-1.5-2.2-0.9-1-0.8-3.5c0.1-2.4-0.2-5.1-0.7-6.6c-0.5-1.3-1.2-3.2-1.7-5.4c-0.4-1.9-0.5-1.5-3.8-2.8c-1.7-0.7-1.5-2.3-3.3-3.7
			c-1.6-1.2-3.4-2-4.4-2.8c-1.2-0.9-4.9,1-5.4,1.1c-0.5,0-1.4-0.9-2.4-1.2s-2.3,2.9-2.3,2.9s0.4,3.4,1.1,4.2
			c3.5,3.5,3.5,2.2,1.8,5.5c-0.6,1.1-4.4,1.8-3.5,3.2c0.9,1.5,1.8,2.7,0.5,4.3c-0.6,0.7-1.2,0.4-2,2.6c-0.8,2.2-0.9,2.1-2.7,3.4
			c-1.9,1.2-1.2,3.2-1.2,3.2s0,0.9,0.3,1.6c0.4,0.9,1,0.3,2.7,1.2c1.2,0.6,3.8,2.9,3.8,2.9s1.5,2.2,1.2,3.2
			c-0.1,0.6-1.6,1.5-1.6,1.5s-0.6-0.3-0.7,1.6c-0.1,1.1,0.7,1.8,1.4,3.8s0.6,3.1,1.2,3.6c0.6,0.4,1.6,1.5,1.2,2.4s-1.2,2.4-1.2,2.4
			l-0.8,1.5l1.9,3.7l3.9,3c0,0,0.7,2.2,0.8,3.4C3.6,3.2,3.8,7.2,3.8,7.2z"/>
		<path class="st3" d="M26.1-57.7c0,0,0.1-3.4,1.3-5.1c1.2-1.6,2.9-1.2,3.5-1.2s1.3,6.4,1.2,7.1c-0.1,0.7,2.7,3.1,2.4,3.6
			c-0.3,0.4,0.7-2.1,1.2-2.4c0.5-0.2,3.7-0.8,3.7-0.8s0.7,1.3,1,2s3.5,0,3.5,0l5.5,0.2c0,0-3.5,1.7-2.8,2.4c0.9,0.9,2.7,2,3.6,2.3
			c4.6,1.3,3,1.6,3.9,3.3c0.2,0.4,0.2,4.2,0.2,4.2s-3.1,0.7-4,2c-1.7,2.4-2.8,3.5-2.8,3.5s0.7,3.3,0.1,2.9c-1.6-1-6,0.6-6,0.6
			l-2.5,2.7l-4.2-1.5l-1.6,1.2c0,0-0.6,1.6-2.4,1.2c-1.7-0.5-3.5,0-3.5,0l-4.7-2.4c0,0-1,0-1.2-1.2c-0.3-2.7-0.6-3.6-1.2-4.7
			c-0.2-0.4-1.3-1.7-1.2-2.4c0.1-0.7,0-1.9,0.5-2.3c0.4-0.5,2-2.3,2-2.3s-1.1-2.6-0.1-4.9c1-2.3,1.4-6.2,1.8-6.8
			C24.4-58.3,26.1-57.7,26.1-57.7z"/>
		<path class="st2" d="M-29.2,10.7l0.1,3.3c0,0,0.2,0.7,2.2,2.7c2,1.9,4.7,1.2,4.7,1.2l-1.2-4.7c0,0-0.2-1.2,0-2.4s2.6-2.7,3.5-3.6
			c1-0.9,3.3-1.5,4.7-1.2c1.4,0.3,2.6,1,3.5,2.4s2.3,1.8,2.4,3.6s-0.3,3,1.2,3.6S-4.6,18-4.6,18h3.5c0,0,1.5-1.9,2.4-2.4
			c0.7-0.5,0.6-2.8,0.6-2.8S1.6,11,2.6,9.5C3.7,8,3.8,7.2,3.8,5.9c0-3.9-1.2-7.2-1.6-7.5C1.7-1.9-1.2-4.3-1.7-5.9s-0.6-2.6-2.7-2.4
			c-2,0.2-3.9-0.1-5.1,0.9c-1.2,0.9-2.9,1.3-4.3,1.5c-1.5,0.2-4,0.9-4.4,0.2c-0.3-0.7-1.1-0.7-1.2-1.3s-1.1-4.1-3.2-6.5
			c-1.1-1.3-1.4-1.4-3,0.6c-1.1,1.4-2.4,2.4-2.4,2.4s-3.5-4-3.5-3.6s-0.3,4.6-0.3,5.1c-0.4,4.3-1.1,7.9-0.9,9.1s0.8,3.3,0.8,3.3
			c0.4,0.5,1.1,3.1,1.1,3.1l1.6,1.3V10.7z"/>
		<path class="st3" d="M-2-49.6c1.3-2,2.3-2.8,1.1-3.6c-1.3-0.9-1.3-1.5-1.9-2.1c-0.8-0.9-1.3-2.7-1.5-3.9s-0.3-0.7-1.9-1.4
			c-2.5-1.1-1.8-0.7-3.6-0.6c-1.1,0.1-0.7,1-2.9,0.9s-4.1-2.2-4.8-1.6c-0.7,0.7-1.1,1.2-2.3,2.7s-2.2,4.4-3.5,4.7s-5.3-0.5-6.3-1.2
			c-1.2-0.7-2.6,0.1-3.1-1.2c-0.5-1.1-3.1-1.8-2.7-3.4c1-3.7-0.8-4.9-0.8-4.9s-1,0.3-2.4,1.2s-2.4,2.4-2.4,2.4s-1.8,2.1-2.4,1.2
			c-0.5-0.9-2.4-2.4-2.4-2.4s-2,3.5-1.2,4.7c0.8,1.3,2.6,2.4,2.4,3.6c-0.2,1.2,0.3,2.2,0,2.9c-0.3,0.8-1.2,0.8-1.2,1.8
			c0.1,1-0.5,1.7-0.5,1.7s-1.5,1-1.9,1.9s-1.2,3.6-1.2,3.6s-0.6,1.8,0.5,2.8c0.5,0.5,0.7,0.7,1.9,1.9c1.4,1.4,1.3,1.9,3.8,1.6
			c2.5-0.3,2.5-0.7,4.1-0.2c1.3,0.5,1.7,0.7,3.9,1c2.2,0.2,3.1,0.4,3.5,1.2c0.4,0.8,1.7,1.1,1.2,2.4c-0.5,1.3-2.4,3.6-2.4,3.6
			s-2.4,1.2-1.8,1.4c0.5,0.2-0.9,3.2-0.5,3.3c0.4,0.1,1.4,0.5,1.4,0.5s1.3,2.4,1,3.1s1.2,5.9,1.2,5.9l3.5,3.6c0,0,0.9-1.1,2.4-2.4
			c0.8-0.7,0.9-2.7,2.4-1.2s1.6,1.5,2.4,3.6c0.9,2.6,1.7,4.1,2.4,4.7c0.6,0.6,3.5,0,3.5,0s2.8-0.4,4.7-1.2C-8.4-7.8-8-7.9-6.8-8.2
			c1.2-0.3,4,0.4,4,0.4l2.2-4.3l-0.9-1.5c0,0-1.2-0.2-1.2-1.6s0-1.7-0.9-3.1c-0.8-1.3-1.5-3.2-0.9-4s2.1-2.1,2.1-2.1L-3.3-27
			c0,0-0.4-1-2.4-2.4c-1.9-1.3-4.5-1.9-4.5-1.9s0,0-0.2-1.7s0.2-2.8,1.2-3.6c1-0.7,1.8-1,2.4-2.4c0.5-1.4,0.5-1.9,2-3.1
			c2.1-1.7,0.6-3.6,0.6-3.6s-1.6-1.7-0.2-2.3L-2-49.6z"/>
		<path class="st2" d="M-51.6-13c0,0,6.6,5.2,7.1,5.9c0.4,0.7,3.2,4,3.5,4.7c0.4,0.8,3,7.2,3.5,7.1c0.5,0,1.2,2.4,2.4,4.7
			c1.2,2.4,2.7,2.8,2.4,3.6s-1.2,5.9-1.2,5.9s0.2,1.2,0,2.4c-0.2,1.2-2.7,4.2-2.4,4.7c0.4,0.6,1.1,3.9,1.2,4.7
			c0.1,0.8,1.4,3.9,1.2,3.6c0-0.1-0.1-0.1-0.1-0.1s0.4,0.6,2.5,1.3c2.6,0.9,2.5,0.4,4.7,1.2s3.3,1.8,4.7,2.4
			c1.4,0.6,4.3,3.1,5.9,3.6c1.5,0.5,2.9,1.6,3.5,1.2c0.6-0.5,2.4-2.4,2.4-2.4s0-1.6-1.2-2.4c-1.2-0.7-3.5-2.4-3.5-2.4s0.3-1.6,0-2.4
			c-0.3-0.8-1.6-2-2.4-2.4c-0.7-0.4-2.4,0-2.4,0s0.4-1.8-1.2-2.4c-1.5-0.6-2.4-2.4-2.4-2.4h-3.5l-1.2-1.2l-1.2-2.4l1.2-1.2
			c0,0,4.1-0.7,3.5,0s0,2.4,0,2.4l2.4-1.2v-2.4l1.2-2.4l-1.2-1.2h-2.4c0,0-2.4-0.6-3.5-2.4c-1.2-1.8-1-2.3-1.2-3.6s0-4.2,0-4.2
			s0,0-1.2-0.5c-0.5-0.2-2.7-6.1-2.4-7.1s1.2-13,1.2-13s0-1.4-0.2-1.9c-0.2-0.5-1.3-4-1-4.7s0-3.3,0-3.3l-2.3-0.8c0,0-2.6-1-3.5,1.2
			s-1.2,2.4-1.2,2.4s-7.3,0.6-7.1,0s-1.4,0.1-2.4,1.2c-1,1.2-2.4,3.6-2.4,3.6L-51.6-13z"/>
		<path class="st3" d="M2.6-69.8c0-1.7,0.5,7,1,7s1.8,0,3.7,1.3c0.4,0.3,3.5,2.4,3.5,2.4s1.9,3.4,3.5,3.6c1.6,0.2,2,0.2,2.4,1.2
			s1.2,3.1,1.2,3.6s1.2,3.6,1.2,3.6s0.4,4.9,0.9,4.4c0.4-0.5,1.6-1.8,1.3-2.9c-0.9-2.9,0.3-3.7,0.6-5.2c0.4-1.5,0.9-3.9,1-4.4
			c0.3-1.2,1-2,1.5-2.2c0.9-0.3,1.6,0.5,1.8-0.5c0.2-0.9,0.1-4,0.8-4.3c0.7-0.3,0.2-1.1,1.7-1.5c1.2-0.3,1.4-0.8,2.4,0.3
			c0.9,0.9,0.9,6.7,0.9,6.7l2.4,3.6c0,0,0.1-1.7,1.2-2.4c1.1-0.7,1.5-0.4,3.1-0.7c1-0.2,1.1,1.4,1.6,1.9s3.1-0.1,3.5,0s3-0.3,3.5,0
			c0.6,0.3,2,0.2,2,0.2s1.1-2.8,0.4-3.8c-0.7-0.9-0.5-1.7-0.5-2.4s0.6-3.9,0.6-3.9l1-1.4c0,0,1.3-0.5,2.5-5.3
			c0.2-0.8,2.4-3.6,2.4-3.6s-0.5-3.2-1.2-3.6c-0.7-0.3-1.7-2-2.4-2.4s-1.2-2.8-2.4-3.6c-1.1-0.7-1.2-1-2.4-2.4s-2.9-4.2-3.5-3.6
			c-0.6,0.7-3.8,3.2-3.5,3.6s-1.8,4.1-1.2,4.7s1.1,5.4,1.2,5.9c0.1,0.6,1.2,3.6,1.2,3.6l2.4,1.2v3.6c0,0,2.2,1-1.2,1.2
			c-3.3,0.2-7.1,0-7.1,0s-2.4-0.4-2.4-1.2S31.3-68,32-69.9c0.8-1.9-1.2-3.6-1.2-3.6l-4.7-1.2l-1.2-2.4c0,0,0.4-0.6-1.2-2.4
			s-3.6-2.3-3.5-4.7s2.1-4,1.2-4.7c-0.9-0.8-2.9,0.9-3.5,1.2c-0.6,0.2-5.7,0.6-7.1,1.2s-3.1-1.6-4.7-1.2s-3.7,0.8-4.7,1.2
			S-1-85.3-1-85.3s-1.3,1.2-1.2,2.4c0.2,1.1,0,2.4,0,2.4s-3.1-0.1-2.4-1.2c0.8-1.1-0.3-6.1-1.2-4.7C-6.7-84.8-7.3-83-7.3-83l0.6,5.2
			c0,0,1.4,0.3,4.5,2c3,1.7,4.7,2.9,4.7,3.6C2.6-71.5,2.6-69.4,2.6-69.8z"/>
		<path class="st3" d="M-32.7-69.8c0,0-0.6-0.2-1.2,1.2c-0.6,1.4-2.9,3.7-2.4,3.6s1.2,1.8,1.2,2.4s-0.7,3.3,0.1,3.8
			c0.8,0.6,1,1.2,2.3,2.1c1.4,1,3.3,1.3,3.5,1.2c0.3-0.1,2.3,1.2,2.4,1.2c0,0,1.8,0.4,2.4,0s1.6,0.2,2.2-0.8s3.5-6.1,4-5.9
			c0.5,0.2,0.6-1.4,2.1-0.4s3.8,1.2,4.7,1.2s1.7-1.2,2.4-1.2c0.6,0.1,4.2,1.2,4.8,1.7c0.5,0.5,1.8-3.3,2.3-2.9
			c0.5,0.4,1.5,1.1,2.4,1.2c0.7,0.1,3.3-1.3,3.3-1.3l-0.3-0.7c-0.3-3-0.2-2.3-0.3-3c-0.3-3-0.2-3.1-0.4-5.8c0-0.2-1.6-1.1-2.3-1.7
			c-1.6-1.3-2.6-1.8-3.4-2.4s-3.8-1-3.7-1.6s0.2-1.3,0-2.4s-0.6-2.6,0-3.6s1.4-2.6,1.4-2.6s-3.7,0.8-5,0.2c-1.3-0.5-4.4-1.9-5.9-2.4
			s-5.9-1.2-5.9-1.2s0.4,1.8,1.2,2.4c0.8,0.6,5.5,1.9,5.9,2.4c0.4,0.4,2.4-0.2,2.4,1.2s1.4,1.5,0,2.4s-2.4,2.4-2.4,2.4
			s-2.6-0.6-2.4-1.2s-0.3-3.1-2.4-2.4s-4.7-0.1-4.7,1.2s-1,4-1.2,3.6s-1.2-1.2-1.2-1.2s-0.6-1.1,0-2.4c0.6-1.2,2.9-1.1,2.4-2.4
			s-2.1-1.4-2.4-1.2c-0.2,0.2-2.3,1.5-2.4,2.4s-1.3,2.8-1.2,3.6c0.1,0.8,1.7,1.8,1.2,2.4s-2.7,3.3-2.4,3.6c0.4,0.3,1,0.1,1.2,1.2
			s1.2,2.4,1.2,2.4L-32.7-69.8L-32.7-69.8z"/>
		<path class="st3" d="M-57.5-18.9c0,0,0,1.3,1.2,2.4c1.1,1.1,4.7,3.6,4.7,3.6s-0.2-1.3,0-2.4c0.2-1,1.5-2.6,2.4-3.6
			c1.5-1.7,1.6-1.1,3.5-1.2c2-0.1,4.7,0,4.7,0s1.1,0.4,1.7-0.9c0.7-1.5,1.8-2.7,1.8-2.7h2.4l0.5-3.3l2.4-2.1c0,0,0.4-1.3,1.3-1.8
			s0.4-1.9,0.4-1.9s0-1.8-2-2.3c-1.5-0.4-5.4-0.9-5.4-0.9s-2-1.2-2.9-0.7c-1,0.5-4.4,0.6-4.7,0s-2.9-2.3-2.4-2.4c0.1,0,0.1,0,0.1,0
			s-1,0.2-1.3-1.2c-0.3-1.6,0.8-5,0.2-3.2c-0.2,0.6-3.3,2.3-3.5,3s-2.6-1-2.6-1s1.4-1.9,1.2-2.4c-0.5-1-1.8-2.8-3.5-3.6
			s-3.8-0.5-3.5-1.2c0.2-0.7-0.4-0.5-1.2-1.2s-1.7-1.4-2.4-2.4c-0.7-1-1.6-1.7-2.4-2.4s-1.4-1.7-1.6-1.3s-3.7-2.1-4.3-1.1
			c-0.5,1-0.6,2.8-2.4,2.4s-2.4,0-2.4,0l-2.4,2.4c0,0-1.8,1.9-1.4,2.8c0.5,0.9-0.8,1.2,0.2,2s2.9-2.6,3.5-2.4s2.1,2.9,2.4,2.4
			c0.3-0.6,3.5-1.2,3.5-1.2s-0.9-0.5,1.2,1.2s2.5,0.7,3.5,1.2s-1.1,2.4,1.2,2.4c2.3-0.1,3.2-1.1,3.5,0s-0.8,5,0,4.7s3.4-0.3,3.5-1.2
			s0.7-3.7,1.2-1.2s1.2,3.8,1.2,4.7s-2,3-2.4,3.6c-0.3,0.5-2.2-1.1-2.4,1.2s-0.4,2.6-1.2,3.6s-1.6,1.7,0,2.4
			c1.7,0.6,2.7,0.7,3.5,2.4C-57.9-22-57.5-18.9-57.5-18.9z"/>
	</g>
</symbol>
<use xlink:href="#日本地図_3"  width="163.6" height="180.9" id="XMLID_10_" x="-81.8" y="-90.4" transform="matrix(0.9994 0 0 -0.9994 480.2012 500.7268)" style="overflow:visible;"/>
</svg>
