<?xml version="1.0" encoding="utf-8"?>
<!-- Generator: Adobe Illustrator 16.0.4, SVG Export Plug-In . SVG Version: 6.00 Build 0)  -->
<!DOCTYPE svg PUBLIC "-//W3C//DTD SVG 1.1//EN" "http://www.w3.org/Graphics/SVG/1.1/DTD/svg11.dtd">
<svg version="1.1" id="レイヤー_1" xmlns="http://www.w3.org/2000/svg" xmlns:xlink="http://www.w3.org/1999/xlink" x="0px"
	 y="0px" width="960px" height="750px" viewBox="0 0 960 750" enable-background="new 0 0 960 750" xml:space="preserve">
<symbol  id="日本地図_3" viewBox="-299.726 -340.618 595.722 680.959">
	<path id="北海道_20_" fill-rule="evenodd" clip-rule="evenodd" fill="#B4B4B5" stroke="#FFFFFF" stroke-width="0.6" d="
		M84.691,148.994c0,0,3.006,5.069,3.535,7.106c0.529,2.038,1.685,4.596,0,5.922c-1.684,1.326-2.179,0.935-4.711,3.553
		c-2.535,2.617-2.674,1.883-3.535,3.554c-0.861,1.669-2.135,2.32-3.534,2.369c-1.401,0.047-1.179,4.737-1.179,4.737
		s1.968,1.362,2.355,3.553c0.391,2.191,0,14.213,0,14.213s1.862,0.971,3.534,1.185c1.674,0.212,4.714,0,4.714,0l2.355,3.552
		c0,0,2.463,3.613,3.534,2.37c1.074-1.244,2.358-1.186,2.358-1.186l3.534,7.107c0,0,3.358,1.468,3.534,2.369
		c0.178,0.899,0,3.553,0,3.553s-3.534,3.186-3.534,4.736c0,1.552-2.356,7.106-2.356,7.106s1.614,2.843,2.356,2.37
		c0.742-0.474,4.712,0,4.712,0l4.713-4.738c0,0,1.295-2.428,3.534-3.553c2.238-1.126,8.247,1.185,8.247,1.185
		s3.568,0.308,4.712-1.185c1.144-1.493,5.453-1.48,5.891,0c0.436,1.48,5.042,7.65,5.892,8.291c0.849,0.638,1.177,7.105,1.177,7.105
		s-2.534,4.524-2.355,5.922c0.177,1.397-2.355,7.106-2.355,7.106s2.684,4.003,3.534,4.737c0.849,0.735,7.067,3.553,7.067,3.553
		s2.781,6.218,2.357,7.106c-0.423,0.888-2.31,13.384-1.177,14.213c1.13,0.829,2.979,3.801,3.534,4.738
		c0.555,0.936,1.177,9.475,1.177,9.475v10.66c0,0-4.122,10.363-5.891,14.212c-1.766,3.849-2.203,5.152-2.355,7.106
		c-0.153,1.954,3.535,7.106,3.535,7.106l1.177,5.922l2.356-1.184h4.712l2.355,4.738c0,0,2.462-4.679,3.536-5.923
		c1.072-1.243,5.277-4.264,7.068-5.922c1.79-1.658,8.294-13.241,10.604-16.581c2.31-3.341,4.652-7.794,5.89-9.475
		c1.237-1.683,10.97-13.325,12.959-14.213c1.989-0.889,9.425-8.292,9.425-8.292s8.87-3.091,9.424-4.737
		c0.553-1.647,4.797-2.476,4.712-3.553c-0.083-1.079,1.18-3.554,1.18-3.554l5.889-1.184c0,0,1.484-1.055,2.357,0
		c0.872,1.054,3.535,2.368,3.535,2.368l3.534-2.368l-1.177-3.554c0,0,3.193-3.754,3.534-2.369c0.342,1.386,2.355,5.922,2.355,5.922
		s3.157-5.082,3.534-5.922c0.377-0.841,6.846-4.026,8.248-3.553c1.399,0.474,7.069,1.184,7.069,1.184l8.246,8.291
		c0,0,6.057,2.701,5.892,3.553c-0.166,0.853,7.069,7.106,7.069,7.106s1.801-1.101,1.178-2.369c-0.624-1.268-4.713-9.476-4.713-9.476
		l-2.355-7.106l-4.712-7.105l1.177-3.554l3.535-4.738l2.355-2.368l3.535-2.369l-4.713-1.185l1.179-4.737l1.178-3.553l2.356-3.554
		l2.355-1.184l7.069,5.921h5.892l1.177-2.368l-7.069-2.37l-2.357-5.921c0,0-5.159-0.877-8.247-1.186
		c-3.086-0.308-5.89-1.184-5.89-1.184l-2.356-3.552c0,0-5.95-2.961-7.069-3.553c-1.12-0.593-3.534,2.368-3.534,2.368
		s-3.429,0.463-2.356-2.368c1.072-2.832,1.52-1.907,0-2.369c-1.52-0.462-9.06-1.777-11.781,0c-2.723,1.776-3.535,3.553-3.535,3.553
		s-6.939-1.469-8.246-2.368c-1.309-0.9-8.401-6.74-10.604-8.292c-2.205-1.551-15.963-17.718-16.494-18.95
		c-0.531-1.231-1.177-9.475-1.177-9.475v-8.291l-3.535-2.369v-3.553c0,0-10.674,9.783-10.638,10.541
		c0.024,0.746-11.641,2.997-15.576,6.325c-3.921,3.34-8.387,5.448-10.307,6.822c-1.919,1.374-8.246,3.553-8.246,3.553l-4.713,4.738
		c0,0-8.398,2.333-9.425,2.368c-1.024,0.035-6.196-2.665-8.246-3.553c-2.051-0.889-7.397-3.008-8.247-4.738
		c-0.85-1.729-4.712-4.738-4.712-4.738l-1.179-2.369c0,0-1.367,2.617-3.536,4.737c-2.167,2.12-2.672,3.625-3.534,4.738
		c-0.859,1.113-2.355,3.554-2.355,3.554s-5.124,0.947-5.892,0c-0.766-0.948-3.534,1.184-3.534,1.184l-5.89-7.106
		c0,0-2.12-5.022-1.177-7.106c0.941-2.084,2.415-2.926,3.534-4.737c1.12-1.812,3.864-3.057,4.712-3.554
		c0.85-0.498,3.759-1.503,4.713-1.185c0.955,0.319,5.889-2.368,5.889-2.368s2.369-2.842,3.534-4.738
		c1.167-1.895,3.536-3.553,3.536-3.553l4.712-2.369c0,0,2.262-5.437,0-5.922s-5.573-3.506-7.069-2.369
		c-1.496,1.137-7.069,4.737-7.069,4.737l-2.355,2.369l-3.536-3.554c0,0-5.09-4.832-5.89-4.737c-0.801,0.094,1.673-4.856,1.18-5.922
		c-0.496-1.066-8.249-4.737-8.249-4.737l-2.355-2.369l-4.713,2.369c0,0-2.483,3.564-2.354,4.737c0.128,1.173-0.862,5.46,0,5.922
		C83.198,144.718,84.691,148.994,84.691,148.994z"/>
	<g id="東北_25_">
		<path fill-rule="evenodd" clip-rule="evenodd" fill="#B4B4B5" stroke="#FFFFFF" stroke-width="0.6" d="M79.981,94.511
			c0,0,3.981,7.096,4.71,5.923c0.73-1.174,7.069,1.184,7.069,1.184l1.178,4.737c0,0,2.216,2.653,2.357,3.553
			c0.142,0.9,1.179,4.737,1.179,4.737l-2.356,4.738c0,0,1.92,2.642,2.356,3.553c0.435,0.913,3.534-2.368,3.534-2.368l4.71,2.368
			l1.178-4.738c0,0,0.967-4.453,1.18-5.922c0.21-1.469,0-8.291,0-8.291h5.889l2.357,7.106l4.713-1.185l4.712-3.553
			c0,0,2.521-0.462,2.355,2.369c-0.165,2.832,1.179,5.922,1.179,5.922l2.354,5.923l-2.354,3.553c0,0-6.115-1.859-7.068-2.369
			c-0.955-0.509-6.516-0.366-7.069-1.184c-0.556-0.817-2.357,3.553-2.357,3.553l1.177,4.737l3.534,7.106h3.536l3.534-1.184
			l3.534-5.922h2.356l5.892,3.554l-1.178-11.844c0,0-1.415-11.963-1.178-14.213c0.235-2.25,1.507-8.125,2.356-9.475
			c0.849-1.35,2.014-2.404,2.355-3.553c0.342-1.149,4.712-5.923,4.712-5.923l2.357-2.368l-2.357-2.368l-5.89-1.185l-4.419-0.888
			l-6.998-4.357c0,0-3.156-0.076-3.897-0.676c-0.709-0.574-5.678-1.724-5.678-1.724l1.259,5.375l2.062,4.639c0,0-3.658-1-3.535,0
			c0.148,1.185-1.177,3.553-1.177,3.553l-5.109-4.8c0,0-1.571,1.046-3.14,1.247c-1.566,0.202-3.534-1.183-3.534-1.183l-3.535,3.553
			l-5.891-2.37c0,0-2.35,0.774-3.363,0.845c-1.012,0.073-4.884,1.524-4.884,1.524l-1.062-3.9l-2.472,3.9l-1.176,4.737l-2.358,1.185
			L79.981,94.511z"/>
		<path fill-rule="evenodd" clip-rule="evenodd" fill="#B4B4B5" stroke="#FFFFFF" stroke-width="0.6" d="M141.241,15.157
			l-3.534,1.184l-1.178-5.921c0,0-2.62-3.859-2.812-3.903c-0.606-0.139-3.312,0.435-3.901,0.636c-0.586,0.202-3.89-1.471-3.89-1.471
			c0.111,0.087-0.65,1.053-0.852,1.547c-0.979,2.369-2.146,4.499-2.146,4.499s-0.438,0.042-1.713-0.124
			c-1.043-0.135-4.125-0.391-4.715,0c-0.587,0.391-2.354,2.369-2.354,2.369l-1.18,1.185l-0.841,0.846l-0.336,3.892l-1.178,2.369
			c0,0,1.02,3.57,0.628,4.363l-0.628,2.744l-2.355,3.553c0,0-0.627,1.727-0.35,3.405c0.186,1.107,1.147,4.062,1.147,4.062
			s-0.007,2.992,0.38,3.193c0.388,0.201,2.356,2.369,2.356,2.369l0.905,3.117c0,0-0.869,1.182-0.905,2.805
			c-0.049,2.221,0.75,3.244,1.177,4.737c0.329,1.138,0.956,1.779,0.956,2.573s0.224,0.98,0.166,3.001
			c-0.033,1.248,0.235,2.326-0.089,3.654c-0.131,0.537,0.021,2.288,0.41,2.288c0.389,0,0.503,2.788,0.503,2.788
			s0.411,1.093,0.411,2.278c0,0.709,1.177,1.184,1.177,1.184l4.715,1.185c0,0,5.1,0.592,4.712,1.184
			c-0.39,0.592,5.003,3.115,5.003,3.115l3.362,1.173l4.938,0.992l3.189,0.643l2.357,2.368c0,0,6.48-6.124,5.89-7.106
			c-0.588-0.984,0.59-4.146,0-4.737c-0.588-0.592-0.588-5.33,0-4.738c0.59,0.592,0-1.185,0-1.185s2.356-3.553,3.534-5.922
			c1.18-2.369,1.18-9.676,1.18-11.844s1.378-3.754,1.178-4.737c-0.201-0.984,1.178-3.944,1.178-3.554s-0.391,0-1.178-1.185
			c-0.79-1.184-1.568-2.961-1.178-3.553c0.388-0.592-0.201-1.385-1.18-2.369c-0.976-0.983-1.376-2.76-1.177-3.553
			c0.201-0.793,0.978-1.978,1.177-2.369c0.202-0.392,0.391-1.185-1.177-2.369c-1.566-1.184-0.978-2.759-1.178-3.553
			c-0.201-0.793,1.379-2.369,0-2.369c-1.378,0-1.968-0.793-2.355-1.184c-0.389-0.391,0.2-2.76-1.179-2.369
			c-1.377,0.391-3.334,0.201-3.534-1.184c-0.201-1.386-2.357-2.369-2.357-2.369L141.241,15.157z"/>
		<path fill-rule="evenodd" clip-rule="evenodd" fill="#B4B4B5" stroke="#FFFFFF" stroke-width="0.6" d="M74.089,62.533
			c0,0,1.967-0.793,3.534,0c1.566,0.793,4.914,2.759,4.714,4.737c-0.202,1.978,0.587,3.162,1.178,4.738
			c0.588,1.576,1.176,4.738,1.176,4.738v2.368l-1.176,3.554l1.176,3.553l3.535-1.185l4.712-1.185l4.245,1.707l1.646,0.663
			l3.535-3.553l3.534,1.183c0,0,3.923-1.776,3.535-1.183c-0.387,0.592,2.157,1.574,2.356,2.368c0.2,0.793,2.357,2.368,2.357,2.368
			l1.177-3.553h3.535c0,0-0.619-1.483-0.933-2.099c-0.429-0.84-1.425-2.638-1.425-2.638l-0.963-5.276l-0.214-1.83
			c-0.589-0.592-1.177-5.922-1.177-5.922v-5.922c0,0-0.79-3.754-1.18-3.553c-0.387,0.201-0.978-2.369-1.177-3.553
			c-0.199-1.185,0.85-4.18,0.85-4.18s-1.535-3.276-1.535-3.667s-1.284-1.83-1.672-1.629c-0.387,0.201,0.589-2.369,0-2.369
			s-0.387-3.352-1.177-3.553c-0.79-0.201,0-4.738,0-4.738s2.355-2.961,2.355-3.553c0-0.592,0.784-4.836,0.784-4.836l-0.784-2.27
			l1.178-2.369l0.306-3.542l-4.525-3.011c0,0-0.244-1.102-1.104-1.543c-1.242-0.635-4.302-1.769-4.102-1.378
			c0.201,0.39-3.535,1.776-3.535,2.368c0,0.593-2.354,4.738-2.354,4.738L91.76,18.71l-3.766,0.311c-0.589,0-2.9,1.379-3.303,2.058
			c-0.358,0.61-3.535,0.295-3.535,0.295l-1.176,0.889l-1.18,1.185v3.553c0,0.793,1.769,4.939,2.355,4.738
			c0.591-0.201,2.747,1.978,2.359,2.369c-0.391,0.391,1.176,5.922,1.176,5.922v7.106c0,0,1.18,2.57,1.18,3.553
			s-1.18,3.553-1.18,3.553l-2.354,3.554l-2.356,1.184c0,0-3.735,0.391-3.534,0c0.2-0.392,0-2.369,0-2.369h-3.535l-1.179,1.185v2.368
			L74.089,62.533z"/>
		<path fill-rule="evenodd" clip-rule="evenodd" fill="#B4B4B5" stroke="#FFFFFF" stroke-width="0.6" d="M104.461-0.175
			c0,0-2.884-1.94-2.098-4.804c0.218-0.788,2.355-2.37,2.355-2.37l-0.991-2.992c0,0-0.558-1.125-0.947-1.328
			c-0.39-0.201-1.419-0.871-1.966-3.003c-0.621-2.409-0.607-5.906-0.806-6.89c-0.2-0.983,0.101-2.269-0.883-3.257
			c-1.253-1.258-2.309-1.9-3.202-2.349c-0.884-0.444-2.691-0.185-2.985-1.5c-0.351-1.583,0.202-3.554,0-3.554h5.547
			c0,0,1.41-0.605,1.953-1.078c0.295-0.254,0.888-0.898,2.416-1.142c2.161-0.345,1.865,0.396,3.437-0.147
			c1.189-0.413,0.786,0.543,1.154-1.11c0.353-1.583,1.144-3.115,1.144-3.115l0.844-1.698l4.315,3.814l2.752,0.923v5.922
			c0,0.593,1.568,7.9,1.18,8.291c-0.39,0.39,1.768,5.531,2.356,5.922l3.534,2.369l3.534,2.369h3.534c0,0,0.391,1.978,2.358,0
			c1.967-1.979,5.89-7.108,5.89-7.108s1.768,0.984,1.178,2.37c-0.589,1.386-3.535,5.329-3.535,5.922
			c0,0.592,0.979,0.794,1.178,2.369c0.2,1.576,0,4.74,0,4.74l-1.178,1.183c0,0,1.767,2.168,1.178,2.369
			c-0.588,0.202,1.379,0.592,1.178,1.184c-0.2,0.593-1.178,2.369-1.178,2.369s2.557,3.553,2.356,3.553s2.355,2.167,2.355,2.369
			c0,0.201-0.199,1.575,0,2.368c0.202,0.793-1.011,2.033-1.011,2.033l-2.42,1.092l-1.342,0.116l-0.651-3.264
			c0,0,0.324-1.16-0.466-2.344c-0.79-1.185-2.035-3.254-2.355-3.554c-0.266-0.248-1.575-0.407-2.355,0c-1.229,0.642-3.535,0-3.535,0
			l-2.356-1.185l-1.924,3.49l-1.075,2.556l-6.428-0.124c0,0-1.343,2.105-1.932,1.904c-0.59-0.201-1.968,2.856-2.757,2.655
			c-0.79-0.202-1.647-1.278-1.647-1.278s-2.857-1.722-3.087-2.096c-0.612-0.99-3.819-2.812-4.41-2.422
			c-0.589,0.392,0.875-1.131,0.875-1.131s2.556-4.146,2.355-4.737c-0.199-0.593,0-2.369,0-2.369L104.461-0.175z"/>
		<path fill-rule="evenodd" clip-rule="evenodd" fill="#B4B4B5" stroke="#FFFFFF" stroke-width="0.6" d="M67.02-4.979
			c-0.199,0.592-1.176,4.537,1.179,5.923c2.356,1.385,4.514,0.983,4.713,2.369c0.201,1.386,2.744,3.553,2.355,4.738
			c-0.387,1.184,1.179,3.944,1.179,4.737s0.977,4.347,1.176,4.738c0.199,0.391,1.178,5.922,1.178,5.922s1.032-1.776,2.355-2.073
			c1.03-0.229,2.979-0.021,2.979-0.021l2.969-2.229l5.534-0.635l3.836-0.963l2.354-4.738l3.535-2.368l2.355-3.554l1.178-2.369
			c0,0-0.303-4.131-0.89-4.332c-0.589-0.201-2.443-1.982-2.644-2.774c-0.201-0.793,0-2.762,0-2.371c0,0.391,2.355-2.37,2.355-2.37
			l-1.177-3.553l-2.357-2.369c0,0-1.376-5.129-1.177-4.739c0.199,0.392,0-3.552,0-3.552v-2.369l-2.984-2.684l-2.358-1.184
			c0.24,0.114-1.728-0.076-1.728-0.87v-5.921v-4.738c0,0-2.355-1.978-2.355-2.369c0-0.391-3.334-1.978-3.535-1.185
			c-0.199,0.794-5.892,3.554-5.892,3.554h-2.355h-4.712c0,0-3.334,1.776-3.534,2.369c-0.201,0.591-1.177,5.922-1.177,5.922
			l1.177,4.737l1.592,2.66c0,0,1.736,1.524,2.142,1.687c0.979,0.391,3.405,2.371,3.405,2.371s1.31,2.367,1.108,2.757
			c-0.2,0.392-1.178,3.554-1.178,3.554h-3.534c0,0-0.684,3.171-1.177,3.553c-0.88,0.681-1.944,1.855-1.944,1.855L69.315-6.43
			C69.315-6.43,67.221-5.571,67.02-4.979z"/>
		<path fill-rule="evenodd" clip-rule="evenodd" fill="#B4B4B5" stroke="#FFFFFF" stroke-width="0.6" d="M55.243-55.909
			c0,0,2.929,0.868,4.132,1.088c0.819,0.148,5.815,2.009,5.427,1.808c-0.388-0.203,2.806,1.238,2.806,1.238
			s-1.175,2.923,0.075,5.315c0.388,0.741,1.695,3.579,1.695,3.579s1.175,1.471,1.477,2.017c0.493,0.888,2.057,2.074,2.057,1.537
			c0-0.392,4.723,0,4.723,0h3.522c0,0,4.456-2.077,4.714-2.369c1.237-1.403,2.136-1.403,3.094-1.004
			c1.25,0.521,3.257,2.754,3.257,2.754l0.716,0.831v6.894h5.891l3.535-2.367h4.713l1.178-3.554l1.177-2.369l1.991,1.759l2.795,2.213
			l2.281,0.765c0,0,3.334-5.129,3.536-5.922c0.2-0.794,0-6.716,0-7.105c0-0.392,1.767-9.275,1.179-11.845
			c-0.591-2.57-0.591-7.699-1.179-8.291c-0.589-0.592,0.588-5.331,0-5.921c-0.589-0.593-3.736-6.124-4.713-5.922
			c-0.978,0.2-3.334-2.761-3.534-2.37c-0.199,0.391-3.534,2.37-3.534,2.37h-3.536l-3.534-3.554l-2.356-1.183
			c0,0-1.377,1.183-2.354,2.368c-0.98,1.185-3.536,4.736-3.536,4.736s-1.566,1.388-2.355,2.37c-0.79,0.983-3.733,4.938-3.535,4.737
			c0.011-0.012,0.011-0.012,0.011-0.012c0.013,0.012-2.224,2.571-3.543,2.381c-1.38-0.2-5.693-0.794-5.893-1.185
			c-0.2-0.39-0.977-2.961-3.534-3.553c-2.556-0.593-6.478-2.761-7.069-3.554c-0.587-0.793-4.71-2.369-4.71-2.369
			s-2.691-0.782-3.124-0.604c-1.281,0.531-3.942,2.974-3.942,2.974l-1.178,4.739l0.146,4.44l-1.324,3.848l2.356,2.37l0.223,1.975
			L55.243-55.909z"/>
	</g>
	<g id="首都_9_">
		<path fill-rule="evenodd" clip-rule="evenodd" fill="#B4B4B5" stroke="#FFFFFF" stroke-width="0.6" d="M62.31-106.837
			c0,0-1.768,2.166-1.18,3.553c0.589,1.386,0.789,5.721,1.18,5.922c0.387,0.2,0,2.369,0,2.369l-3.173,3.955v2.321l0.816,2.015v3.553
			l0.015,2.987l4.698,1.75c0,0,5.102,3.353,5.89,3.555c0.792,0.2,4.046,1.302,4.438,1.504c0.387,0.201,1.832,1.662,1.832,1.662
			l0.798,1.571l5.893,1.185l1.622-0.61l7.801-8.867c0,0-0.319-0.625-0.149-2.821c0.223-2.882-0.03-4.283-1.029-5.468
			c-0.282-0.336-1.177-1.185-1.177-1.185v-2.37v-3.553c0,0,0.904-4.535,0.844-5.741c-0.041-0.836-0.844-3.733-0.844-3.733
			s-3.739-1.044-4.712-1.185c-1.205-0.174-3.326-1.519-4.714-2.368c-0.597-0.368-2.988-2.627-3.733-2.963
			c-0.356-0.159,0,0-0.977-0.59c-0.979-0.593-4.674-1.818-4.713-2.369c-0.027-0.381-1.024,0.996-2.012,1.687
			c-2.326,1.625-4.668,1.866-5.056,1.866C64.276-109.206,62.31-106.837,62.31-106.837z"/>
		<path fill-rule="evenodd" clip-rule="evenodd" fill="#B4B4B5" stroke="#FFFFFF" stroke-width="0.6" d="M43.985-81.698
			c0,0,1.375,2.064,1.963,3.639c0.591,1.576,0.511,1.77,2.929,2.707c1.57,0.609,5.257,2.584,5.257,2.584l0.742-2.989l0.779-1.77
			l4.297-3.253c0,0,0.39-4.347,0-5.922c-0.389-1.576-1.017-2.785-0.816-3.766c0.198-0.983,1.398-2.315,1.398-2.315l1.845-2.667
			c0,0-0.22-4.061-0.699-5.256c-0.327-0.82-1.306-3.61-0.121-4.984c0.929-1.077,2.332-2.399,2.51-3.084
			c0.179-0.688,1.773-0.43,1.773-0.43l4.866-2.557c0,0-5.256-0.795-6.044-0.996c-0.789-0.203-2.355-0.794-3.535,0
			c-1.177,0.793-3.717,2.275-4.711,2.369c-1.76,0.161-1.723,0.271-4.709,1.184c0,0-1.101-2.604-1.688-3.398
			c-0.588-0.794-1.417-4.733-3.023-4.893c-1.875-0.187-2.946-0.984-3.535-1.185c-0.588-0.202-4.124-1.777-4.714-2.368
			c-0.589-0.593-3.536-1.186-3.536-1.186s-2.558,1.575-2.357,2.369c0.2,0.794-0.361,3.795-0.16,4.186
			c0.2,0.393-0.962,1.927-0.962,2.129c0,0.201,0.734,4.346,1.123,5.529c0.389,1.186-0.388,2.963,0,3.554
			c0.389,0.593-2.356,2.368-2.356,2.368l-1.435-2.412c0,0-0.923,0.246-2.101,1.229c-1.179,0.982-2.946,2.321-3.535,3.554
			c-0.191,0.396,1.178,5.92,1.178,5.92s4.514,2.963,4.714,3.553c0.2,0.594,5.103,2.571,4.715,2.37
			c-0.389-0.202,1.565-0.27,1.956,0.119c0.389,0.392,2.481,0.723,2.481,0.723l1.537,2.098l1.977,1.572L43.985-81.698z"/>
		<path fill-rule="evenodd" clip-rule="evenodd" fill="#B4B4B5" stroke="#FFFFFF" stroke-width="0.6" d="M103.542-103.284
			c0,0-0.2-8.883,0-9.475c0.2-0.594,0.589-4.146,1.177-4.738c0.59-0.592,1.178-3.553,1.178-3.553s1.967-4.738,2.358-4.738
			c0.389,0,2.556-5.33,3.534-5.922c0.978-0.591,3.198-2.856,3.198-2.856l-5.555,4.041l-5.513,4.362l-2.734,1.561
			c0,0-2.836-1.353-4.303-3.215c-0.85-1.078-6.499-0.73-7.478-0.34c-0.979,0.392-8.448,1.979-8.248,2.37
			c0.202,0.392-1.585,1.929-2.355,3.552c-0.514,1.086-3.534,3.554-3.534,3.554s-3.921,0.39-3.534,1.185c0.389,0.793,0,2.368,0,2.368
			v2.371c0,0.591,6.436,3.294,6.436,3.294s2.353,2.084,1.877,1.735c-0.596-0.445,2.428,1.175,2.815,1.769
			c0.39,0.59,4.246,1.462,4.246,1.462l3.475,1.215l0.654,2.494l-0.006,3.29c0,0-0.648,2.708-0.648,4.876
			c0,2.166-0.589,4.535,0,4.737c0.589,0.201,2.081,1.846,2.355,3.553c0.142,0.875,0,5.921,0,5.921s3.706-5.116,4.18-5.465
			c1.217-0.891,1.71-1.639,1.71-1.639s1.851,0.572,3.179,2.009c1.495,1.618,2.711,2.729,3.302,2.729c0.588,0,2.744,0.39,2.946,0
			c0.2-0.392,3.534-2.37,3.534-2.37s0-4.537-1.178-5.92c-1.178-1.388-3.334-5.129-3.534-5.923c-0.201-0.794-0.589-4.939-1.18-4.737
			C105.31-99.53,103.542-103.284,103.542-103.284z"/>
		<path fill-rule="evenodd" clip-rule="evenodd" fill="#B4B4B5" stroke="#FFFFFF" stroke-width="0.6" d="M35.785-122.236
			c0.591,0,4.142,1.777,5.321,2.369c1.178,0.594,4.324,2.571,4.713,2.37c0.39-0.201,1.378-0.794,2.358,1.183l2.354,4.738
			c0.589,1.186,0.388,2.57,1.178,2.37c0.788-0.201,5.856-1.108,6.444-1.7c0.589-0.593,2.965-2.114,3.795-2.19
			c2.137-0.192,3.449,0.273,5.305,0.584c0.43,0.072,2.369,0.845,2.758,0.644c0.387-0.201,1.722-0.89,1.722-0.89v-4.738
			c0,0-0.253-0.861,1.502-0.861c2.355,0,3.475-1.972,3.014-2.392c-0.484-0.442-0.594-1.283,0.197-2.668
			c0.789-1.387,2.463-4.295,2.074-4.888c-0.389-0.591,0.669-3.012,0.281-3.403c-0.389-0.391-4.671,0.562-5.579,0.178
			c-2.767-1.166-4.927,0.876-6.893-0.698c-1.968-1.575-3.82-1.256-5.2-0.665c-1.378,0.594-4.321,2.962-5.887,3.553
			c-1.567,0.594-5.453,2.363-5.889,2.37c-2.289,0.032-3.924-1.978-3.535-1.185l-1.588-0.982c0.715,0.059-3.715-0.35-5.482,0.982
			c-1.199,0.906-2.357,2.37-2.357,2.37S35.196-122.236,35.785-122.236z"/>
		<path fill-rule="evenodd" clip-rule="evenodd" fill="#B4B4B5" stroke="#FFFFFF" stroke-width="0.6" d="M105.897-136.447
			c0,0-4.512-4.939-5.889-5.922c-1.379-0.985-2.157-3.162-2.357-3.554c-0.2-0.391-0.59-2.571,0-3.553
			c0.589-0.982,0.389-8.492,0-8.291c-0.388,0.202-0.2-1.185-2.356-2.369c-2.155-1.184-8.046-2.368-8.247-2.368
			c-0.199,0-2.156-1.576-3.533-3.555c-1.38-1.978-2.359-3.553-2.359-3.553l-2.355-2.368l-3.534,2.368c0,0-1.453,2.093-1.179,2.369
			c0.491,0.494,1.567,0.593,2.358,1.184c0.789,0.593,1.768,3.163,1.176,5.923c-0.588,2.76-0.789,2.168,0,3.554
			c0.79,1.384,0,2.368,0,2.368s-2.743,0.984-2.355,1.185c0.388,0.202,1.379,1.576,2.355,2.371c0.979,0.792,1.767,3.161,2.358,3.552
			c0.589,0.39,2.154,1.184,3.535,2.368c1.376,1.185,3.922,1.978,3.533,3.553c-0.389,1.576-3.533,3.554-3.533,3.554h-2.359
			l-1.176-2.369l-1.18,5.922c-0.2,0.985,0.503,2.902,0.114,2.703c-0.389-0.202-0.646,5.08-0.646,5.08l0.216-0.928
			c0,0-0.077,1.566-1.644,3.142l-1.077,2.89l1.164,1.061l4.227-5.656c0,0,5.465-1.755,6.893-1.984
			c0.695-0.11,1.825-1.115,3.792-0.724c1.967,0.389,3.253-0.846,4.633,0.338c1.377,1.185,4.711,3.555,4.711,3.555l2.357-1.186
			c-0.389,0.201,5.689-4.939,5.89-4.737c0.2,0.201,4.713-3.554,4.713-3.554v-1.184h-1.18c-1.177,0-4.511-1.777-4.711-1.185
			C108.054-135.856,105.897-136.447,105.897-136.447z"/>
		<path fill-rule="evenodd" clip-rule="evenodd" fill="#B4B4B5" stroke="#FFFFFF" stroke-width="0.6" d="M45.035-128.642
			c0,0,3.046,1.931,4.319,1.669c1.272-0.261,5.11-1.871,5.889-2.37c0.777-0.497,3.52-2.128,3.928-2.388
			c1.236-0.783,2.297-1.295,2.991-1.651c0.889-0.453,1.854,0.25,2.502,0.486c0.647,0.238,1.909,0.617,2.354,1.185
			c0.449,0.569,4.419-1.007,5.893,0c1.472,1.007,3.535,0,3.535,0h2.354c0,0-0.098-3.448,0.457-4.656
			c0.554-1.208-2.811-2.45-2.811-2.45s-0.731-0.924-1.179-1.186c-0.447-0.261-0.177-4.956-1.179-4.492
			c-1,0.464-0.815,1.805-2.699,2.727c-1.885,0.923-3.191,1.765-3.191,1.765s-4.805-0.391-4.713,0
			c0.096,0.392,0.114-1.268-0.439-1.765c-0.556-0.497-0.05-1.395-1.916-0.603c-1.893,0.803-1.718,0.262-4.711,1.184
			c-2.991,0.924-4.486,2.488-4.709,3.554c-0.224,1.065-0.814-0.213-2.355,1.185c-1.544,1.397-1.699,0.597-2.289,1.881
			c-0.498,1.087-2.424,2.856-2.424,2.856L45.035-128.642z"/>
		<path fill-rule="evenodd" clip-rule="evenodd" fill="#B4B4B5" stroke="#FFFFFF" stroke-width="0.6" d="M50.531-143.554
			l1.178,3.553l-0.265,2.813c0,0,0.705-2.419,5.417-4.196c0.434-0.164,3.162-0.382,3.162-0.382l2.417-1.136l1.045,2.901
			c0,0,3.534,0,3.983-0.261c0.447-0.262,1.637,0.546,3.087-0.924l2.373-1.897l1.161-1.655c0,0-3.039-0.545-3.534-1.185
			c-0.493-0.638-2.085-2.772-1.177-3.553c0.906-0.783,0.799-3.921,1.177-4.738c0.376-0.815,2.357-2.368,2.357-2.368
			s-1.026-0.011-1.179-1.185c-0.153-1.174-0.26-3.317-1.178-3.553c-0.917-0.238-2.356,2.368-2.356,2.368s-0.978,2.535-1.179,3.553
			c-0.199,1.018-2.354,2.369-2.354,2.369s-1.896-0.166-2.355,0c-0.461,0.166-3.568-0.142-4.713-1.185
			c-1.143-1.043-4.168-1.527-4.709-2.368c-0.542-0.84-1.177-3.554-1.177-3.554l-2.355-1.184c0,0-2.309,0.403-2.356,2.368
			c-0.047,1.966-1.085,4.231-0.165,5.7c0.919,1.469,0.165,2.593,0.165,2.593s-0.64,1.747-1.452,1.959c-0.812,0.212-1.8,1.6-1.8,1.6
			l3.252,2.361L50.531-143.554z"/>
	</g>
	<g id="中部_22_">
		<path fill-rule="evenodd" clip-rule="evenodd" fill="#B4B4B5" stroke="#FFFFFF" stroke-width="0.6" d="M62.31-18.009
			c0.2-0.39,0.588,5.532,1.176,5.923c0.592,0.391,0.542,2.911,0.542,2.911l2.993,4.196c0,0,3.089-1.871,3.536-2.37
			c0.293-0.326,2.455-1.875,3.312-4.823c0.383-1.324,0.979-1.227,2.109-1.099c0.617,0.069,1.647,0,1.647,0l1.178-3.554
			c0,0-1.565-3.943-3.534-4.737c-1.967-0.793-3.534-2.57-3.534-2.369c0,0.2-1.508-3.926-1.694-4.448
			c-0.979-2.733-0.391-4.12-0.391-4.12s0.318-3.896,0.907-4.46c0.674-0.647,3.571-2.268,2.983-2.066
			c-0.59,0.202-4.361-3.062-4.16-3.856c0.199-0.793-2.747-4.537-2.359-5.92c0.392-1.388,1.179-3.352,0-3.555
			c-1.176-0.201-7.067-2.368-7.067-2.368s-4.91-0.794-4.709-1.185c0.2-0.391,0.387-5.33,0-5.922c-0.391-0.592-2.46-1.753-2.356-2.37
			c0.301-1.784,0.389-2.367,1.178-3.553c0.788-1.184,0-4.346,0-4.736c0-0.392-0.789-0.793-1.178-1.185
			c-0.39-0.39-5.889-2.369-5.889-2.369l-2.356-4.737c0,0,0-0.592-2.357-2.37c-2.358-1.777-3.335-2.57-3.536-3.553
			c-0.2-0.984-5.103-1.386-4.713-1.185c0.388,0.201-0.501,1.658-0.371,3.242c0.024,0.294-0.383,1.022-0.383,1.022
			s-1.014,1.067-1.604,2.843c-0.59,1.777-1.178,1.977-1.178,3.552c0,1.576-0.2,2.96-1.179,2.37c-0.978-0.593-4.325-1.185-4.714-2.37
			c-0.389-1.186-2.638-2.692-3.535-3.552c-1.729-1.658-2.799-3.8-3.536-3.554c-0.75,0.25-3.536,1.575-3.536,1.185
			c0-0.457-2.357-1.64-2.357-1.185c0,0.392-1.178,2.369-1.178,2.369L8.106-80.78l-1.178,1.183l-2.704-3.314l-3.189-4.976
			c0,0-0.601,0.771-1.178,2.37c-0.98,2.714-0.611,5.391-0.611,5.391L-2.5-78.414l-1.178,1.186c0,0,3.736,1.978,4.714,2.37
			c0.979,0.39,6.871,1.576,7.071,2.369c0.201,0.793,3.536,3.552,3.536,3.552l3.535,1.184c0.59,0.202,5.103-0.983,5.894,0
			c0.789,0.984,2.357,3.756,4.713,5.923c2.357,2.168,5.692,2.369,5.893,3.553c0.201,1.185,0.39,2.76,2.358,4.737
			s2.556,4.146,3.536,4.74c0.977,0.59,1.567,3.161,1.177,3.552c-0.39,0.39,1.178,7.106,1.178,7.106s4.715,3.754,7.071,4.737
			s5.3,0.391,7.067,2.369c1.766,1.977,4.912,3.162,5.888,4.737c0.717,1.162,2.462,3.139,2.357,3.554
			C61.919-21.171,62.11-17.617,62.31-18.009z"/>
		<path fill-rule="evenodd" clip-rule="evenodd" fill="#B4B4B5" stroke="#FFFFFF" stroke-width="0.6" d="M18.712-25.114
			c0,0,3.536,2.369,3.536,3.553c0,1.183,2.157,2.57,2.357,3.552c0.201,0.984,2.357,3.553,2.357,3.553s0.978-4.937,0-7.105
			c-0.979-2.169-1.379-4.737-1.179-4.737s1.179-0.794,1.179-1.185s3.335,1.777,3.536,1.185s0-3.554,0-3.554
			s-1.968-0.201-2.358-1.184c-0.39-0.984-0.79-3.352-2.357-4.738c-1.567-1.385-3.924-3.944-4.713-3.553
			c-0.791,0.391-3.536,1.185-3.536,1.185s2.157,2.368,2.357,3.554c0.201,1.184,0.588,0.983,1.179,2.367
			c0.589,1.385-0.201,3.945,0,3.554c0.2-0.392-2.358-2.368-2.358-2.368s-0.588-1.186-1.177,0c-0.59,1.184,1.567,3.553,1.177,3.553
			C18.325-27.483,18.712-25.114,18.712-25.114z"/>
		<path fill-rule="evenodd" clip-rule="evenodd" fill="#B4B4B5" stroke="#FFFFFF" stroke-width="0.6" d="M1.035-87.887
			c0,0,2.463,3.009,2.357,3.553c-0.106,0.545,3.536,4.737,3.536,4.737s4.094-2.743,4.36-3.854c0.443-1.843,2.172,0.548,3.824-0.237
			c0.764-0.363,2.695-0.638,2.695-0.638l3.697,3.931c0,0,1.904,0.898,2.597,2.5c0.942,2.173,4.725,2.801,4.725,2.801
			s1.631,0.949,1.538-0.453c-0.11-1.674,0.829-4.046,0.829-4.046s0.543-2.703,1.663-3.558c1.12-0.853,0.802-2.771,1.18-3.553
			c0.377-0.782,0.917-1.469,0-1.185c-0.919,0.285-3.697-1.645-5.048-2.759c-2.224-1.834-3.444-2.255-4.381-3.164
			c-0.859-0.832-0.345-1.899-0.912-3.96c-0.567-2.062-0.17-1.534,0.347-2.874c0.519-1.336,3.341-3.001,3.341-3.001
			s2.244-1.309,1.938-0.824c-0.306,0.485,0.44,1.985,1.179,2.368c0.983,0.513,2.356-2.368,2.356-2.368v-4.737
			c0,0-0.67-2.334-1.178-3.553c-0.507-1.221,0.843-0.382,1.018-2.922c0.204-2.999,0.2-4.5,0.2-4.5l2.564-2.056l0.34-1.493
			c0,0,0.793-1.678-0.902-2.246c-2.04-0.685-2.913-1.413-4.398,0.187s-1.062,1.54-2.358,1.186c-1.295-0.355-1.26,0.235-2.357,0
			c-1.095-0.239-2.375-0.602-2.375-0.602s0,0.451-2.674-1.344c-2.446-1.642-2.023-1.609-2.023-1.609s0.03-2.954-1.177-4.737
			c-1.474-2.172-0.875-1.04-0.754-3.536c0.116-2.416-0.177-5.12-0.716-6.601c-0.479-1.314-1.18-3.157-1.677-5.358
			c-0.437-1.926-0.476-1.5-3.781-2.759c-1.736-0.661-1.468-2.276-3.284-3.694c-1.593-1.246-3.425-2.033-4.438-2.806
			c-1.151-0.877-4.902,1.044-5.385,1.067c-0.483,0.023-1.425-0.877-2.356-1.185c-0.931-0.308-2.311,2.892-2.311,2.892
			s0.365,3.444,1.132,4.216c3.523,3.538,3.51,2.191,1.808,5.469c-0.589,1.132-4.363,1.779-3.479,3.235
			c0.886,1.463,1.818,2.692,0.492,4.323c-0.564,0.693-1.243,0.404-1.997,2.571c-0.756,2.167-0.855,2.132-2.718,3.351
			c-1.862,1.219-1.218,3.193-1.218,3.193s-0.048,0.865,0.278,1.638c0.399,0.942,0.99,0.35,2.729,1.243
			c1.229,0.632,3.765,2.865,3.765,2.865s1.467,2.212,1.223,3.163c-0.146,0.562-1.554,1.496-1.554,1.496s-0.607-0.274-0.736,1.552
			c-0.081,1.119,0.721,1.761,1.405,3.801c0.684,2.038,0.6,3.114,1.179,3.553c0.578,0.437,1.555,1.468,1.178,2.369
			c-0.377,0.9-1.178,2.368-1.178,2.368l-0.755,1.536l1.933,3.696l3.536,3.06c0,0,0.712,2.239,0.838,3.43
			C0.789-91.878,1.035-87.887,1.035-87.887z"/>
		<path fill-rule="evenodd" clip-rule="evenodd" fill="#B4B4B5" stroke="#FFFFFF" stroke-width="0.6" d="M23.298-152.706
			c0,0,0.142-3.451,1.308-5.061c1.167-1.611,2.888-1.196,3.535-1.185c0.647,0.011,1.273,6.384,1.179,7.105
			c-0.094,0.724,2.651,3.129,2.357,3.555c-0.294,0.425,0.708-2.121,1.178-2.368c0.472-0.25,3.729-0.823,3.729-0.823
			s0.68,1.259,0.987,2.006c0.305,0.746,3.535,0,3.535,0l5.495,0.213c0,0-3.483,1.72-2.833,2.359c0.874,0.86,2.689,2.025,3.568,2.278
			c4.57,1.315,3,1.564,3.937,3.274c0.226,0.41,0.172,4.164,0.172,4.164s-3.056,0.663-4.024,2.023
			c-1.676,2.351-2.779,3.454-2.779,3.454s0.696,3.257,0.149,2.917c-1.604-0.994-6.042,0.635-6.042,0.635l-2.453,2.664l-4.226-1.455
			l-1.57,1.161c0,0-0.637,1.634-2.358,1.186c-1.721-0.452-3.535,0-3.535,0l-4.714-2.37c0,0-1.027,0.04-1.18-1.185
			c-0.34-2.727-0.589-3.552-1.177-4.737c-0.219-0.44-1.296-1.718-1.178-2.368c0.117-0.652,0.022-1.878,0.47-2.34
			c0.448-0.462,2.001-2.259,2.001-2.259s-1.117-2.615-0.116-4.876c1.002-2.262,1.423-6.231,1.798-6.821
			C21.658-153.376,23.298-152.706,23.298-152.706z"/>
		<path fill-rule="evenodd" clip-rule="evenodd" fill="#B4B4B5" stroke="#FFFFFF" stroke-width="0.6" d="M-31.962-84.334
			l0.144,3.257c0,0,0.163,0.74,2.212,2.664c2.023,1.903,4.713,1.186,4.713,1.186l-1.178-4.737c0,0-0.176-1.173,0-2.369
			c0.177-1.196,2.569-2.654,3.536-3.553c0.966-0.899,3.275-1.469,4.713-1.183c1.439,0.284,2.605,0.971,3.536,2.368
			c0.931,1.397,2.274,1.8,2.356,3.553c0.083,1.754-0.317,2.961,1.179,3.553c1.496,0.594,3.535,2.369,3.535,2.369h3.536
			c0,0,1.501-1.898,2.357-2.369c0.549-0.302,0.474-2.616,0.474-2.616s-0.346-1.778,0.705-3.305c1.05-1.53,1.178-2.32,1.178-3.553
			c0.005-3.853-1.187-7.184-1.646-7.514c-0.461-0.331-3.432-2.744-3.926-4.295c-0.495-1.554-0.638-2.572-2.677-2.405
			c-2.039,0.166-3.895-0.075-5.11,0.861c-1.212,0.935-2.855,1.319-4.318,1.508c-1.461,0.188-4.047,0.869-4.352,0.181
			c-0.307-0.687-1.105-0.727-1.224-1.307c-0.118-0.582-1.127-4.056-3.218-6.541c-1.087-1.29-1.443-1.357-2.991,0.559
			c-1.145,1.42-2.357,2.369-2.357,2.369s-3.536-3.991-3.536-3.552c0,0.437-0.251,4.615-0.293,5.113
			c-0.353,4.343-1.097,7.88-0.884,9.1c0.213,1.218,0.787,3.313,0.787,3.313c0.435,0.484,1.099,3.056,1.099,3.056l1.623,1.253
			L-31.962-84.334z"/>
		<path fill-rule="evenodd" clip-rule="evenodd" fill="#B4B4B5" stroke="#FFFFFF" stroke-width="0.6" d="M-4.772-144.641
			c1.348-2.023,2.343-2.773,1.093-3.65c-1.25-0.878-1.315-1.453-1.915-2.122c-0.836-0.931-1.342-2.705-1.515-3.896
			c-0.178-1.235-0.327-0.723-1.933-1.407c-2.494-1.063-1.782-0.747-3.556-0.592c-1.116,0.097-0.651,0.981-2.867,0.91
			c-2.216-0.071-4.057-2.232-4.798-1.556c-0.744,0.675-1.083,1.178-2.273,2.741s-2.204,4.43-3.536,4.738
			c-1.333,0.307-5.27-0.541-6.331-1.171c-1.182-0.704-2.557,0.085-3.097-1.199c-0.48-1.138-3.149-1.783-2.732-3.407
			c0.964-3.746-0.803-4.882-0.803-4.882s-1.003,0.308-2.359,1.185c-1.354,0.877-2.356,2.369-2.356,2.369s-1.826,2.119-2.355,1.184
			c-0.532-0.935-2.357-2.368-2.357-2.368s-2.015,3.482-1.177,4.737c0.835,1.255,2.579,2.381,2.356,3.554
			c-0.225,1.172,0.315,2.168-0.026,2.927c-0.342,0.759-1.246,0.817-1.152,1.811c0.095,0.995-0.461,1.66-0.461,1.66
			s-1.53,0.971-1.896,1.893c-0.365,0.924-1.178,3.554-1.178,3.554s-0.588,1.785,0.457,2.821c0.456,0.453,0.721,0.732,1.9,1.916
			c1.408,1.417,1.275,1.879,3.761,1.585c2.486-0.296,2.52-0.749,4.082-0.17c1.266,0.468,1.701,0.705,3.939,0.955
			c2.24,0.249,3.1,0.379,3.536,1.183c0.437,0.806,1.71,1.102,1.18,2.37c-0.531,1.269-2.357,3.554-2.357,3.554
			s-2.358,1.183-1.85,1.398c0.506,0.211-0.921,3.197-0.509,3.339c0.413,0.142,1.405,0.493,1.405,0.493s1.282,2.351,0.954,3.06
			c-0.331,0.711,1.177,5.923,1.177,5.923l3.536,3.552c0,0,0.854-1.136,2.357-2.369c0.831-0.679,0.885-2.711,2.358-1.183
			c1.473,1.527,1.637,1.542,2.356,3.552c0.945,2.635,1.71,4.123,2.358,4.739c0.648,0.615,3.535,0,3.535,0s2.806-0.38,4.714-1.186
			c1.911-0.805,2.346-0.911,3.536-1.183c1.19-0.273,3.959,0.351,3.959,0.351l2.228-4.349l-0.851-1.461c0,0-1.196-0.178-1.161-1.598
			c0.035-1.421-0.001-1.728-0.897-3.116c-0.842-1.303-1.485-3.211-0.921-4.04c0.566-0.829,2.063-2.111,2.063-2.111l-0.885-2.628
			c0,0-0.424-1.042-2.357-2.367c-1.933-1.329-4.467-1.873-4.467-1.873s0,0-0.248-1.682c-0.247-1.682,0.226-2.817,1.179-3.552
			c0.955-0.735,1.816-0.96,2.357-2.369c0.543-1.408,0.526-1.933,1.975-3.138c2.066-1.719,0.588-3.572,0.588-3.572
			s-1.578-1.745-0.202-2.348L-4.772-144.641z"/>
		<path fill-rule="evenodd" clip-rule="evenodd" fill="#B4B4B5" stroke="#FFFFFF" stroke-width="0.6" d="M-54.352-108.023
			c0,0,6.645,5.201,7.069,5.922c0.424,0.723,3.182,3.979,3.534,4.739c0.353,0.758,3.041,7.153,3.536,7.105
			c0.495-0.046,1.202,2.358,2.356,4.74c1.156,2.379,2.687,2.771,2.358,3.552c-0.331,0.782-1.179,5.922-1.179,5.922
			s0.235,1.185,0,2.369c-0.235,1.185-2.747,4.168-2.356,4.737c0.388,0.568,1.095,3.907,1.176,4.736
			c0.083,0.831,1.415,3.885,1.18,3.555c-0.048-0.072-0.083-0.095-0.095-0.083c-0.035,0.024,0.39,0.567,2.451,1.268
			c2.595,0.877,2.511,0.415,4.715,1.184c2.203,0.77,3.335,1.789,4.713,2.369c1.379,0.581,4.349,3.055,5.894,3.553
			c1.543,0.499,2.934,1.647,3.536,1.186c0.601-0.464,2.356-2.371,2.356-2.371s0.048-1.647-1.178-2.368
			c-1.226-0.722-3.536-2.369-3.536-2.369s0.284-1.597,0-2.368c-0.282-0.77-1.614-2.013-2.357-2.368c-0.741-0.356-2.356,0-2.356,0
			s0.353-1.777-1.18-2.371c-1.531-0.592-2.356-2.369-2.356-2.369h-3.536l-1.179-1.184l-1.177-2.369l1.177-1.183
			c0,0,4.125-0.651,3.536,0c-0.589,0.651,0,2.368,0,2.368l2.356-1.185v-2.368l1.178-2.369l-1.178-1.185h-2.356
			c0,0-2.38-0.568-3.536-2.369c-1.155-1.798-0.978-2.262-1.177-3.553c-0.2-1.292-0.027-4.22-0.027-4.22s0,0-1.151-0.517
			c-0.512-0.229-2.676-6.146-2.357-7.106c0.318-0.96,1.177-13.03,1.177-13.03s0.008-1.371-0.204-1.916
			c-0.211-0.545-1.33-3.969-1.011-4.654c0.319-0.688,0-3.273,0-3.273l-2.321-0.815c0,0-2.604-1.031-3.536,1.185
			c-0.93,2.215-1.176,2.368-1.176,2.368s-7.259,0.594-7.07,0c0.188-0.591-1.431,0.077-2.357,1.186
			c-1.044,1.25-2.356,3.554-2.356,3.554V-108.023z"/>
		<path fill-rule="evenodd" clip-rule="evenodd" fill="#B4B4B5" stroke="#FFFFFF" stroke-width="0.6" d="M-0.143-164.873
			c0.023-1.689,0.465,6.985,0.983,6.996c0.519,0.011,1.816,0,3.731,1.295c0.403,0.273,3.535,2.368,3.535,2.368
			s1.946,3.364,3.536,3.555c1.59,0.187,2.041,0.223,2.357,1.183c0.317,0.96,1.178,3.104,1.178,3.553s1.18,3.554,1.18,3.554
			s0.438,4.885,0.886,4.422c0.447-0.464,1.615-1.807,1.285-2.858c-0.914-2.91,0.28-3.663,0.634-5.167
			c0.354-1.504,0.861-3.871,1.007-4.386c0.342-1.201,1.014-2.038,1.489-2.216c0.871-0.324,1.592,0.469,1.771-0.455
			c0.176-0.923,0.097-3.99,0.829-4.296c0.731-0.309,0.248-1.069,1.702-1.485c1.18-0.336,1.396-0.785,2.438,0.309
			c0.883,0.929,0.922,6.656,0.922,6.656l2.357,3.555c0,0,0.059-1.681,1.178-2.368c1.12-0.688,1.51-0.413,3.129-0.715
			c0.955-0.179,1.067,1.377,1.586,1.898c0.517,0.521,3.098-0.083,3.535,0c0.436,0.083,2.957-0.309,3.535,0
			c0.578,0.307,1.959,0.213,1.959,0.213s1.092-2.843,0.397-3.767c-0.695-0.923-0.549-1.704-0.503-2.426
			c0.047-0.721,0.555-3.927,0.555-3.927l0.995-1.394c0,0,1.31-0.543,2.487-5.283c0.192-0.769,2.355-3.553,2.355-3.553
			s-0.518-3.222-1.177-3.553c-0.661-0.33-1.684-2.014-2.355-2.368c-0.671-0.355-1.225-2.844-2.356-3.554
			c-1.132-0.711-1.203-0.984-2.356-2.369c-1.157-1.384-2.899-4.204-3.535-3.553c-0.638,0.652-3.842,3.198-3.535,3.553
			c0.305,0.355-1.792,4.122-1.18,4.737c0.613,0.616,1.097,5.366,1.18,5.923c0.083,0.557,1.177,3.553,1.177,3.553l2.358,1.184v3.555
			c0,0,2.168,0.983-1.18,1.185c-3.347,0.201-7.071,0-7.071,0s-2.379-0.402-2.356-1.185s-1.945-0.476-1.179-2.369
			c0.767-1.895-1.179-3.553-1.179-3.553l-4.713-1.186l-1.18-2.368c0,0,0.389-0.615-1.178-2.368c-1.568-1.754-3.56-2.287-3.536-4.739
			s2.121-3.98,1.177-4.738c-0.941-0.759-2.886,0.947-3.535,1.186c-0.647,0.236-5.714,0.614-7.071,1.183
			c-1.354,0.569-3.099-1.634-4.713-1.183c-1.614,0.448-3.703,0.829-4.714,1.183c-1.014,0.355-2.357,1.185-2.357,1.185
			s-1.331,1.22-1.178,2.368c0.153,1.151,0,2.37,0,2.37s-3.135-0.06-2.357-1.186c0.777-1.125-0.349-6.146-1.178-4.737
			c-0.914,1.554-1.488,3.406-1.488,3.406l0.572,5.238c0,0,1.417,0.306,4.452,2.016c2.995,1.687,4.737,2.854,4.714,3.553
			C-0.167-166.543-0.149-164.429-0.143-164.873z"/>
		<path fill-rule="evenodd" clip-rule="evenodd" fill="#B4B4B5" stroke="#FFFFFF" stroke-width="0.6" d="M-35.498-164.873
			c0,0-0.565-0.178-1.179,1.185c-0.614,1.363-2.887,3.683-2.356,3.553c0.529-0.13,1.176,1.777,1.176,2.369s-0.652,3.277,0.07,3.828
			c0.779,0.596,1.005,1.209,2.288,2.093c1.395,0.962,3.276,1.329,3.536,1.188c0.259-0.143,2.31,1.205,2.356,1.183
			c0.048-0.022,1.779,0.392,2.357,0c0.578-0.392,1.581,0.22,2.228-0.776c0.649-0.995,3.51-6.133,3.971-5.885
			c0.46,0.248,0.588-1.442,2.051-0.446c1.462,0.994,3.771,1.184,4.714,1.184s1.721-1.242,2.356-1.184
			c0.637,0.059,4.217,1.233,4.761,1.708c0.54,0.473,1.792-3.294,2.311-2.892c0.519,0.404,1.51,1.106,2.356,1.185
			c0.73,0.067,3.34-1.295,3.34-1.295l-0.312-0.715c-0.265-3.047-0.198-2.325-0.265-3.047c-0.267-2.954-0.18-3.109-0.428-5.846
			c-0.023-0.243-1.57-1.07-2.288-1.652c-1.585-1.284-2.61-1.762-3.4-2.376c-0.79-0.616-3.765-0.976-3.718-1.651s0.236-1.255,0-2.368
			c-0.235-1.114-0.601-2.619,0-3.554c0.601-0.936,1.418-2.604,1.418-2.604s-3.693,0.768-4.955,0.234
			c-1.26-0.532-4.372-1.86-5.892-2.369c-1.52-0.508-5.894-1.184-5.894-1.184s0.414,1.812,1.178,2.37
			c0.766,0.556,5.517,1.929,5.893,2.368c0.377,0.438,2.381-0.225,2.358,1.185c-0.024,1.408,1.426,1.458,0,2.368
			c-1.426,0.913-2.358,2.371-2.358,2.371s-2.569-0.627-2.357-1.185c0.212-0.557-0.271-3.056-2.356-2.37
			c-2.086,0.687-4.737-0.094-4.714,1.185c0.024,1.279-0.979,3.955-1.179,3.554c-0.199-0.402-1.178-1.183-1.178-1.183
			s-0.601-1.126,0-2.371c0.601-1.244,2.899-1.054,2.357-2.368c-0.542-1.315-2.121-1.433-2.357-1.185
			c-0.235,0.249-2.251,1.491-2.356,2.368c-0.107,0.877-1.32,2.773-1.179,3.555c0.141,0.781,1.663,1.798,1.179,2.368
			c-0.485,0.569-2.734,3.256-2.358,3.554c0.378,0.296,0.956,0.106,1.18,1.184c0.224,1.078,1.179,2.369,1.179,2.369H-35.498z"/>
		<path fill-rule="evenodd" clip-rule="evenodd" fill="#B4B4B5" stroke="#FFFFFF" stroke-width="0.6" d="M-60.242-113.943
			c0,0,0.035,1.302,1.179,2.368c1.143,1.066,4.712,3.553,4.712,3.553s-0.236-1.349,0-2.367c0.236-1.019,1.464-2.573,2.356-3.554
			c1.546-1.703,1.579-1.079,3.534-1.186c1.957-0.104,4.713,0,4.713,0s1.138,0.364,1.696-0.889c0.661-1.479,1.84-2.664,1.84-2.664
			h2.356l0.509-3.339l2.364-2.066c0,0,0.44-1.327,1.253-1.801c0.813-0.474,0.384-1.901,0.384-1.901s-0.016-1.758-2.031-2.34
			c-1.547-0.447-5.439-0.864-5.439-0.864s-1.965-1.203-2.932-0.717c-0.966,0.486-4.43,0.639-4.713,0
			c-0.283-0.641-2.863-2.298-2.356-2.369c0.083-0.012,0.106-0.012,0.106,0c0.013,0.024-1.001,0.154-1.284-1.184
			c-0.329-1.587,0.842-4.984,0.181-3.25c-0.242,0.635-3.302,2.309-3.455,3.03c-0.154,0.722-2.617-0.965-2.617-0.965
			s1.409-1.898,1.178-2.368c-0.476-0.972-1.813-2.773-3.534-3.554c-1.72-0.782-3.782-0.464-3.534-1.185
			c0.247-0.722-0.366-0.521-1.178-1.185c-0.812-0.663-1.661-1.375-2.356-2.368c-0.696-0.995-1.556-1.719-2.357-2.369
			c-0.801-0.652-1.403-1.669-1.64-1.3c-0.235,0.368-3.743-2.111-4.251-1.071c-0.506,1.044-0.623,2.796-2.355,2.371
			c-1.732-0.425-2.356,0-2.356,0l-2.357,2.369c0,0-1.776,1.948-1.351,2.76c0.491,0.937-0.839,1.184,0.174,1.978
			c1.013,0.792,2.91-2.607,3.534-2.369s2.073,2.925,2.356,2.369c0.283-0.558,3.534-1.185,3.534-1.185s-0.884-0.508,1.178,1.185
			c2.062,1.694,2.545,0.675,3.534,1.184c0.99,0.51-1.096,2.429,1.178,2.37c2.275-0.06,3.229-1.067,3.535,0
			c0.305,1.064-0.754,5.033,0,4.736c0.754-0.296,3.405-0.273,3.534-1.184c0.129-0.912,0.661-3.707,1.178-1.185
			c0.518,2.522,1.167,3.801,1.179,4.737c0.011,0.935-2.038,3.009-2.357,3.552c-0.318,0.546-2.156-1.1-2.356,1.185
			c-0.2,2.287-0.366,2.571-1.178,3.554c-0.812,0.981-1.649,1.729,0,2.369c1.65,0.639,2.733,0.721,3.534,2.368
			C-60.619-117.035-60.242-113.943-60.242-113.943z"/>
	</g>
	<g id="近畿_25_">
		<path fill-rule="evenodd" clip-rule="evenodd" fill="#B4B4B5" stroke="#FFFFFF" stroke-width="0.6" d="M-41.392-173.164
			c0,0-2.474-2.867-2.356-3.554c0.118-0.687,0.436-2.96,0-3.553c-0.435-0.591-0.587-2.084,0-2.368
			c0.589-0.285,0.873-0.615,2.356-2.37c1.485-1.754,1.663-0.829,3.536-2.369c1.875-1.539,2.687-2.357,3.536-2.369
			c0.849-0.011,3.89-0.295,3.536-1.185c-0.354-0.888,0.637-1.135,0-2.368c-0.636-1.231-2.864-2.877-2.356-3.552
			c0.507-0.676,0.141-2.464,0-2.37c-0.142,0.095-1.498,0.675-2.357,1.185c-0.861,0.509-3.323,2.049-3.535,1.185
			c-0.213-0.866-2.971-2.594-4.716-3.553c-1.744-0.961-2.839-0.096-4.713-1.186c-1.873-1.088-3.428-1.396-3.534-2.369
			c-0.106-0.971-1.319-2.084-1.178-2.368c0.141-0.285,0.047-3.08,0-3.554c-0.047-0.473,0.118-3.637-1.178-3.554
			c-1.296,0.084-3.452-0.294-3.535-1.183c-0.082-0.888-1.648-2-2.356-3.553s-0.813-3.115-1.178-3.554c-0.366-0.437,0-2.368,0-2.368
			s-2.077-0.915-2.356-0.926c-0.553-0.025,0.439,1.505-1.488,3.449c-2.23,2.25-3.005,1.807-3.226,2.214
			c-0.493,0.92,0.012,1.457,0,2.368c-0.011,0.912,1.83,3.193,2.357,3.553c1.141,0.778,0.736-0.332,2.356,1.187
			c1.349,1.262,1.331,2.377,2.356,2.367c1.025-0.012,2.475,0.604,2.357,1.186c-0.119,0.579-2.051,5.363-1.179,5.92
			s2.721,1.931,2.356,2.371c-0.365,0.436-0.872,1.395-1.177,2.368c-0.307,0.972-1.059,2.654-1.179,3.553
			c-0.124,0.924-0.219,2.791,0.405,2.519c0.624-0.274,4.696-0.042,4.308,1.034c-0.39,1.079,0.766,1.694,0,2.369
			c-0.766,0.676-3.438,1.946-3.907,2.218c-0.661,0.383-2.455,0.187-1.984,1.336c1.656,4.041,0.512,3.704,1.178,3.553
			c-0.518,0.118-2.311,1.709-2.1,2.113c0.25,0.478-0.424,1.549-0.256,2.624c0.246,1.581,2.126,2.84,2.503,3.009
			c0.982,0.445,2.328,0.547,3.044,1.04c0.275,0.19-0.723,1.79,3.597,0.752c1.62-0.388,4.551,4.132,4.551,4.132
			s0.686,1.167,0.667,1.93c-0.03,1.229,0.513,2.519,0.536,3.265c0.024,0.746,0.3,3.734,0.417,3.639s-0.371,0.958-0.901,1.074
			c-0.531,0.118,2.566,2.704,2.566,2.704l0.69-0.226l2.762-2.96c0,0,0.467-0.031,2.076-1.333c1.891-1.529,1.929-1.817,1.929-1.817
			s1.166-1.671,1.484-2.18c0.318-0.508,0-2.37,0-2.37s-1.862-1.419-2.356-1.184c-0.497,0.237-0.838-0.545-1.18-1.184
			C-40.554-169.066-41.392-173.164-41.392-173.164z"/>
		<path fill-rule="evenodd" clip-rule="evenodd" fill="#B4B4B5" stroke="#FFFFFF" stroke-width="0.6" d="M-70.845-164.873
			c0.153,0.782,0.86,2.843,1.178,4.737c0.318,1.896,0,3.554,0,3.554l-2.356,1.184l1.178,2.369c0,0-0.153,1.836,0,2.371
			c0.153,0.531,2.317,1.923,3.535,3.552c1.193,1.596,3.534,3.109,3.534,3.109s-0.277,0.733,2.275,1.227
			c1.669,0.321,3.118,1.69,3.118,1.69s2.707,1.671,0.79,4.719c-0.315,0.5,2.064,1.098,2.064,1.098s3.291-3.095,3.534-3.553
			c0.489-0.925,1.119-1.303,1.178-2.37c0.06-1.064,0.06-0.627,1.179-1.184c1.119-0.558,1.398-3.535,1.398-3.535
			s1.299-0.657,0.958-1.203s0-2.369,0-2.369s0-1.375-1.179-2.371c-1.177-0.994-1.153-0.218-1.376-1.994
			c-0.224-1.777,0.764-3.678,1.376-3.926c0.613-0.249,1.521-0.438,1.179-2.369c-0.342-1.93-1.179-7.106-1.179-7.106l-2.138-2.782
			l-2.574-1.955c0,0-3.216,0.888-3.535,0c-0.317-0.888-2.907-1.579-2.907-1.579s-1.494-0.094-2.201-0.638
			c-0.223-0.171-2.302,0.505-3.284,0.317c-1.769-0.34-2.319,1.362-2.319,1.362s-1.895,0.075-2.248,0.537
			c-0.353,0.463,0.636,0.916,0.223,2.611c-0.413,1.691-0.223,3.31-0.223,3.31S-70.999-165.655-70.845-164.873z"/>
		<path fill-rule="evenodd" clip-rule="evenodd" fill="#B4B4B5" stroke="#FFFFFF" stroke-width="0.6" d="M-102.901-150.282
			c0,0,0.527,0.495,1.694,1.808c1.167,1.314,3.561,1.925,3.266,3.735c-0.295,1.812-0.38,2.613-1.676,2.056
			c-1.296-0.557-3.44-2.162-3.44-2.162l-0.774,2.475c0,0,0.31,4.144,0.086,4.085c-0.224-0.059-0.388,0.914,0.896,1.245
			c1.284,0.331,3.188,0.663,4.909,1.777c1.72,1.111,2.438,0.58,3.534,1.184c1.096,0.604,3.535,2.369,3.535,2.369
			s-0.13-1.397,1.178-2.369c1.307-0.971,3.627-1.514,2.355-2.368c-1.273-0.853-3.558,0.96-3.534-1.185
			c0.023-2.144-0.919-3.957,0-4.737c0.918-0.782,1.778-1.813,2.355-1.185c0.578,0.627,1.897,1.86,2.357,2.368
			c0.459,0.51,2.356,0,2.356,0s-0.6-1.144-0.259-2.093c0.18-0.499-0.377-1.944,1.722-4.115c0.917-0.949,0.795-1.688,2.071-2.082
			c1.239-0.382,2.863-0.022,3.535,0c0.671,0.021,1.472-2.627,1.472-2.627l4.418,1.444l-0.021-2.076l-1.157-2.664l2.356-1.184
			c0,0,0.206-1.096,0.074-3.018c-0.205-2.96-1.414-4.23-1.447-4.978c-0.05-1.083,0.697-0.544,1.374-1.481
			c0.432-0.594-0.541-1.301,0-2.367c0.542-1.068,0-3.554,0-3.554s1.106-0.203,2.502-1.038c2.555-1.528-0.28-0.25,0.753-0.735
			l5.653-0.545c0,0-1.581-1.081-1.84-2.419c-0.259-1.337,1.261-3.398-1.178-2.368c-2.438,1.031-4.866-1.374-5.891-1.185
			c-1.024,0.19-1.673,0.38-2.356,1.185c-0.684,0.806-1.79,0.889-2.356,3.554c-0.566,2.665-1.461,3.66-2.356,4.737
			c-0.896,1.078-1.782,1.127-1.782,1.127s-2.036-0.227-2.931,0.057c-0.895,0.285-3.506,3.369-4.271,3.851
			c-0.567,0.357,0.093,2.177-0.441,3.257c-0.721,1.455-1.367,1.824-2.357,2.368c-0.989,0.545-2.944,1.151-3.534,1.185
			c-0.588,0.035-0.294,0.394-1.687,0.9c-1.895,0.688-2.547,0.942-3.479,1.478c-3.179,1.831-5.611,4.977-5.611,4.977
			L-102.901-150.282z"/>
		<path fill-rule="evenodd" clip-rule="evenodd" fill="#B4B4B5" stroke="#FFFFFF" stroke-width="0.6" d="M-74.379-187.377
			c0,0,0.081,0.592,0.166,1.447c0.105,1.313,0.176,3.233-0.166,4.475c-0.566,2.051-0.182,4.335-0.182,4.335l0.182,1.588
			c0,0,0.871-3.019,2.817-4.009c2.521-1.285,2.359-0.672,3.636-0.134c1.387,0.584,2.58,0.832,2.58,0.832s2.682,0.189,3.005-0.499
			c0.318-0.68,0.318-0.68,0.551-0.938c1.04-1.155,1.549-1.175,1.549-1.175l-1.095-4.259c0,0,0.174-0.192,1.197-0.411
			c2.001-0.428,4.838-2.752,4.838-2.752l-0.228-2.053c0,0-0.491-1.133-2.357-1.185c-1.617-0.042-2.426,0.901-2.356-1.184
			c0.071-2.084,0.784-2.888,0.795-3.669c0.012-0.782,1.231-2.961,1.231-2.961s0.493-0.857-0.227-1.47
			c-0.693-0.588-2.09-1.079-2.02-2.191c0.071-1.113,1.371-4.336,1.398-5.105c0.036-1.037-2.515-0.169-3.273-1.531
			c-1.109-1.986-2.869-3.057-3.796-3.209c-0.818-0.131-2.173-2.882-2.173-2.882l-6.074,0.514c0,0-1.909,0.415-2.356,1.185
			c-0.448,0.77-0.79,2.179-1.178,4.737c-0.389,2.559-1.736,5.362-1.179,5.922c1.215,1.223,1.381,2.437,2.25,2.658
			c2.239,0.569,3.641,0.897,3.641,0.897s-2.521,3.776-2.357,4.736c0.166,0.96,0.474,2.03,0.474,2.03s0.848,1.118,1.035,1.854
			C-73.87-191.072-74.379-187.377-74.379-187.377z"/>
		<path fill-rule="evenodd" clip-rule="evenodd" fill="#B4B4B5" stroke="#FFFFFF" stroke-width="0.6" d="M-94.408-195.668
			c0,0,1.944-0.166,3.535,1.185c1.59,1.351,2.344,0.805,3.534,3.553c1.189,2.749,2.404,1.66,2.356,3.554
			c-0.047,1.895,0.047,3.53,0,4.739c-0.047,1.206,0,3.552,0,3.552s-0.758,2.185-0.357,3.723c0.4,1.539,0.463,2.697,0.357,3.383
			c-0.106,0.688,0.15,1.814-0.025,3.145c-0.25,1.887-1.017,3.173-1.017,3.173l1.042-0.396c0,0,2.626-3.669,3.534-3.553
			c0.908,0.118,3.535,0,3.535,0s2.501-2.523,2.89-3.8c0.39-1.281,0.392-4.296,0.392-4.296s-0.215-1.978,0.089-3.009
			c0.256-0.873,0.52-0.846,0.402-2.562c-0.119-1.719-0.286-3.292-0.239-4.097c0.046-0.805,0.33-4.407,0.33-4.407l-1.509-2.7
			c0,0-4.189,0.025-4.711,0c-1.002-0.045-2.06-0.296-2.06-0.296s-2.186-1.95-3.077-1.921c-0.607,0.021-2.676-0.266-2.676-0.266
			s-2.187-0.196-3.381,0.021c-1.729,0.315-2.985-0.766-3.456-1.039c-0.472-0.274-1.843,1.133-1.843,1.133L-94.408-195.668z"/>
		<path fill-rule="evenodd" clip-rule="evenodd" fill="#B4B4B5" stroke="#FFFFFF" stroke-width="0.6" d="M-89.694-220.54
			c0,0,2.85-1.528,3.534-2.368c0.684-0.842-0.46-4.124,0-4.74c0.459-0.614,3.25-1.647,3.533-2.368
			c0.284-0.721,1.733-2.665,2.357-2.368c0.624,0.295,0.507-1.091,2.356-1.185c1.849-0.096,4.218-1.15,4.712-1.185
			c0.494-0.034,0.86-0.072,2.356,1.185c1.496,1.256,2.438,1.004,3.535,2.368c1.096,1.364,1.825,0.901,2.356,2.37
			c0.53,1.469,0.957,4.705,0.957,4.705l-1.266,2.557l-3.347,2.49l0.085,2.763c0,0-6.774,0.181-7.974,1.42
			c-0.763,0.789-0.8,1.795-0.8,1.795l-0.68,3.606l-0.918,3.379l-0.411,1.935c0,0,0.633,0.589,1.453,2.049
			c0.773,1.376,4.656,1.728,4.656,1.728s-0.558,1.017-1.071,1.716c-2.022,2.763-1.287,4.205-1.287,4.205l-4.127,0.172
			c-3.25,0-5.149-2.669-4.987-2.456c0,0-1.84,0.246-2.666-0.084c-0.825-0.332-5.891,0-5.891,0l-3.534-2.37
			c0,0,0.694-2.487,1.178-2.369c0.482,0.118,0.306-0.461,1.178-1.185c0.872-0.721,2.946-2.439,2.356-2.368
			c-0.588,0.072-2.356-1.185-2.356-1.185s-0.872-1.717,0-2.368c0.872-0.652,1.178-2.369,1.178-2.369s-1.496-0.936-2.356-1.184
			c-0.86-0.25-1.272,0.354-1.178-1.187c0.094-1.539,2.379-3.09,2.355-3.553c-0.023-0.462,2.498-1.575,2.356-2.368
			C-92.193-220.149-89.694-220.54-89.694-220.54z"/>
		<path fill-rule="evenodd" clip-rule="evenodd" fill="#B4B4B5" d="M-64.955-155.398c0,0,3.853,2.512,3.534,3.552
			c-0.318,1.044,0,1.188,0,1.188s-0.353,1.728,0,2.368c0.354,0.639,2.121,0.603,2.357,1.185c0.234,0.581,1.177,1.184,1.177,1.184
			s1.838,0.262,2.357-1.184c0.518-1.448,0.494-2.168,1.178-2.369c0.684-0.202,1.672-1.375,1.178-2.371
			c-0.495-0.994,0.152-1.941-1.178-2.368c-1.332-0.425-3.052-1.836-3.535-2.368c-0.483-0.533-1.979-1.504-2.356-2.369
			c-0.377-0.865-2.356-2.368-2.356-2.368h-2.356v-2.369l-1.178-3.554l-1.178,1.184l-0.248,3.766l1.426,4.526L-64.955-155.398z"/>
		<path fill-rule="evenodd" clip-rule="evenodd" fill="#B4B4B5" stroke="#FFFFFF" stroke-width="0.6" d="M-121.504-141.186
			c0,0,1.826,3.223,2.355,3.554c0.531,0.332,2.392-0.782,2.357,0c-0.036,0.782,10.721-0.331,10.602,0
			c-0.118,0.332,2.132,0.568,2.357,0c0.223-0.568,0-3.957,0-4.737c0-0.782,0.342-3.056,1.178-2.369
			c0.836,0.687,3.534,2.369,3.534,2.369s1.129-0.74,1.179-2.369c0.018-0.618,0.176-1.375-1.179-2.368
			c-1.355-0.995-2.903-1.658-2.962-2.309c-0.059-0.652-1.856-0.759-0.572-2.431c1.284-1.668,2.427-2.959,3.534-3.552
			c1.108-0.591,2.121-1.484,3.517-1.939c1.169-0.385,2.574-1.201,3.552-1.614c0.978-0.415,2.957-0.829,3.534-1.185
			c0.578-0.354,1.897-1.682,2.357-2.368c0.459-0.687-0.012-1.352,0-2.369c0.011-1.018,1.178-3.553,1.178-3.553s-0.177-2.441,0-3.554
			c0.176-1.114-0.518-4.867-1.178-5.923c-0.66-1.054-0.472-1.881-2.357-2.368c-1.885-0.487-4.405,0.142-4.712-1.185
			c-0.306-1.325-2.733-2.737-3.534-2.369c-0.802,0.369-2.911,0.652-3.535,1.186c-0.624,0.532-2.414,0.603-3.534,2.368
			c-1.12,1.765-3.535,3.553-3.535,3.553h-4.713c0,0-6.821-0.58-8.247-1.185c-1.425-0.603-2.509-2.665-3.534-1.184
			c-1.025,1.48-2.357,4.739-2.357,4.739s-1.11,1.736-1.283,5.286c-0.074,1.544,0.477,3.486,2.461,5.373
			c1.726,1.64,3.319,3.618,3.535,4.737c0.323,1.677-0.007,2.954,0.68,4.208c0.5,0.912,1.359,1.022,1.921,2.225
			c0.657,1.403,1.403,2.548-0.246,4.227c-1.487,1.514-3.2,3.167-3,3.854C-121.949-143.75-121.504-141.186-121.504-141.186z"/>
		<path fill-rule="evenodd" clip-rule="evenodd" fill="#B4B4B5" stroke="#FFFFFF" stroke-width="0.6" d="M-112.08-196.851
			c0,0,1.179,2.038,2.357,3.552c1.178,1.515,2.073,2.44,3.534,3.553c1.461,1.114,4.712,3.555,4.712,3.555l2.356,1.183
			c0,0-2.015-2.582-2.356-3.554c-0.341-0.971-2.355-3.554-2.355-3.554v-2.368c0-0.9,0.117-1.811,1.178-2.368
			c1.061-0.558,1.178-2.37,1.178-2.37s-1.235-0.343-2.355-1.183c-1.12-0.841-2.699-0.627-2.357-1.186
			c0.341-0.557-1.685-2.038-2.356-1.185c-0.671,0.854-2.355,3.554-2.355,3.554h-1.179V-196.851z"/>
	</g>
	<g id="中国_13_">
		<path fill-rule="evenodd" clip-rule="evenodd" fill="#B4B4B5" stroke="#FFFFFF" stroke-width="0.6" d="M-162.738-145.923
			c0,0,6.303-1.197,7.069,0c0.766,1.195,1.179,1.185,1.179,1.185h7.069c0,0,0.318-1.03,2.355-1.185c2.038-0.154,5.267-0.746,5.89,0
			c0.625,0.746-0.729,2.191,1.178,2.369c1.909,0.178,3.264-1.422,4.713-1.185s3.263,0.33,4.713,1.185
			c1.449,0.853,3.946,3.553,4.712,3.553c0.766,0,3.944,1.419,3.944,1.419c-1.146-2.571-1.165-2.451-1.588-3.787
			c-0.247-0.782-1.32-2.273,0-3.554c1.319-1.279,3.534-3.553,3.534-3.553s-0.812-3.068-1.178-3.554
			c-0.365-0.485-1.884-1.552-2.355-2.369s-2.687-1.218-4.713-2.368c-2.026-1.15-4.476-0.877-4.712,0
			c-0.235,0.876-0.671,2.854-2.356,3.553c-1.685,0.699-4.041,2.689-3.535,2.368c0,0-1.86-0.921-2.356-1.183
			c-0.494-0.261-1.755-2-2.355-2.369c-0.601-0.367-3.559-0.534-3.535,0c0.024,0.535-0.483,2.854-2.355,2.369
			c-1.874-0.485-2.51,0.143-3.535-1.185c-1.025-1.327-1.779-0.71-3.534-2.368c-1.756-1.658-3.535-2.369-3.535-2.369
			s-0.659-1.057-1.355-1.88c-0.543-0.644-2.32-1.815-2.32-1.815s-0.128-0.669-1.038-1.042c-1.249-0.511-6.408,0.178-5.891,0
			c0.519-0.179-0.07,0.865,0,2.369c0.071,1.503,0.389,1.551,2.357,3.553c1.967,2.001,3.534,1.504,3.534,3.553
			c0,2.051-0.447,2.346,0,3.555C-162.291-149.454-162.738-145.923-162.738-145.923z"/>
		<path fill-rule="evenodd" clip-rule="evenodd" fill="#B4B4B5" stroke="#FFFFFF" stroke-width="0.6" d="M-154.747-189.174
			l-2.657,5.482c0,0-0.442,0.86-1.799,3.421c-1.621,3.059-0.925,4.179-1.042,5.269c-0.118,1.088-1.314,3.022-1.314,3.022
			s-1.28,2.828-1.178,3.554c0.266,1.864,0,4.737,0,4.737l4.713,4.737c0,0,1.247,0.436,2.356,1.185
			c1.847,1.247,5.03,3.75,5.478,4.026c0.766,0.476,2.477,0.662,2.77,0.711c1.717,0.294,2.516-2.554,2.516-2.554l3.041,0.012
			l2.437,2.348l2.608,1.378l2.274-1.703c0,0,1.942-0.949,2.437-1.542c0.496-0.591,0.969-1.978,1.181-2.676
			c0.213-0.699,1.031-0.917,2.068-0.751c1.355,0.22,4.011,1.343,5.001,1.936c0.989,0.592,2.636,1.568,2.636,1.568
			c-0.023-1.492-0.28-3.937-0.28-3.937s-1.706-3.026-2.356-3.553c-2.258-1.827-3.534-4.738-3.534-4.738s-0.484-0.794,0.011-3.15
			c0.495-2.358,0.73-3.187,1.166-3.955c0.436-0.771-0.192,0.161,0.633-1.463c0.825-1.624,1.724-3.275,1.724-3.275
			s-2.463,1.22-3.534,0c-1.073-1.218-2.404-2.511-3.535-3.552c-1.131-1.044-1.908-1.22-3.534-2.37
			c-1.626-1.149-3.877-3.034-3.535-3.554s-0.695-2.415-3.534-2.369c-2.84,0.048-5.89,0-5.89,0l-1.178,2.369l-1.179-2.369
			l-2.612,0.573L-154.747-189.174z"/>
		<path fill-rule="evenodd" clip-rule="evenodd" fill="#B4B4B5" stroke="#FFFFFF" stroke-width="0.6" d="M-219.357-182.164
			c0,0,3.557,1.374,4.782,3.078c1.225,1.705,5.974,7.438,7.069,8.291c1.096,0.853,3.393,3.446,4.713,4.736
			c1.319,1.292,3.534,2.37,3.534,2.37l2.356,1.185c0,0,4.147,4.085,4.712,4.737c0.565,0.651,2.697,1.834,3.534,2.368
			c0.836,0.535,1.861,0.936,2.356,1.185c0.495,0.249-0.718,4.264,0,4.738c0.719,0.475,2.427,2.014,2.356,2.369
			c-0.071,0.354,4.713,2.368,4.713,2.368s1.99,2.475,3.534,2.369c1.543-0.108,4.076-1.469,4.713,0c0.635,1.468,9.424,0,9.424,0
			l-1.178-3.554c0,0,0.358-2.921,0.093-4.383c-0.485-2.674,0.753-3.72-0.553-5.272c-1.012-1.204-3.223-2.341-3.589-2.707
			c-0.838-0.837-1.772-2.379-1.772-2.379s0.328-2.646-0.105-2.731c-1.632-0.317-5.801-0.104-7.032-0.294
			c-1.914-0.296-3.228,0.853-3.534,0c-0.307-0.854-1.276-2.179-2.357-3.554c-0.712-0.906-0.908-0.085-2.158-1.092
			c-1.248-1.005-1.148-1.485-1.148-1.485s3.159-1.569,2.654-2.701c-0.153-0.345-4.428-2.663-4.428-2.663s-1.577-1.055-3.816-1.493
			c-2.238-0.438-5.75,1.017-7.055,0.688c-0.723-0.184-1.861,0.159-2.899-0.73c-1.036-0.888-2.111-1.588-2.489-2.137
			c-0.309-0.45-0.583-0.085-1.044-1.416c-0.813-2.345-0.007-3.032-0.745-4.054c-0.881-1.221-2.018-1.966-3.093-3.63
			c-0.919-1.421-0.01-3.936-0.875-5.344c-0.733-1.193-1.375-3.322-2.357-3.552c-1.227-0.29-6.652,0.276-6.652,0.276
			s-2.253,0.576-1.597,1.492c0.652,0.91,1.165,2.092,1.165,2.092s-0.622,0.304-1.162,0.876c-0.54,0.572-1.13,1.061-1.736,2.411
			c-0.718,1.599-0.966,2.981-0.343,3.691C-220.74-185.302-219.357-182.164-219.357-182.164z"/>
		<path fill-rule="evenodd" clip-rule="evenodd" fill="#B4B4B5" stroke="#FFFFFF" stroke-width="0.6" d="M-202.893-201.247
			c0,0,3.162,2.584,3.633,3.211c0.471,0.627,3.534,3.553,3.534,3.553h2.356l2.356-2.368c0,0-0.73-4.633,0-4.739
			c0.73-0.105,2.533-1.361,3.534-1.185c1.002,0.179,5.065,2.311,4.712,2.371c-0.07,0.011-0.105,0.011-0.105,0.011
			c0,0.023,0.529,0.083,1.284,1.172c0.931,1.363,3.899,2.927,3.535,2.37c-0.366-0.558-0.649,0.557,1.177,0
			c1.826-0.558,4.018-0.345,4.713,0c0.694,0.342,1.778,1.918,2.355,2.368c0.578,0.45,1.178,1.185,1.178,1.185
			s2.969,1.078,3.535,1.184c0.564,0.108,1.461-0.224,2.355-1.184c0.895-0.96,1.354-1.634,2.356-1.185
			c1.001,0.45,2.709,2.038,3.534,2.368c0.826,0.332,2.357,2.813,2.357,2.813l-2.013,3.752c0,0-1.139,1.667-1.521,2.911
			c-0.232,0.752-1.079,1.466-1.178,2.368c-0.246,2.219-0.874,1.179-1.179,3.553c-0.06,0.472,0.374,1.263,0,2.371
			c-0.896,2.648-1.572,2.841-1.973,3.937c-0.486,1.332-0.529,2.229-0.383,3.168c0.144,0.917,0,3.554,0,3.554l-5.4-0.03l-1.424,0.294
			l-7.755-0.294c0,0-1.16,0.883-1.914,0.03c-0.755-0.854-1.497-3.102-2.357-3.554c-0.86-0.451-3.97-1.812-3.534-2.369
			c0.435-0.556,4.275-2.498,2.355-3.553c-1.92-1.055-3.475-1.871-4.712-2.368c-1.236-0.499-3.487-1.647-4.712-1.186
			c-1.225,0.462-3.38,0.813-3.38,0.813l-4.203-0.224c0,0-0.952-0.866-1.718-1.469c-0.766-0.604-1.597-1.194-2.48-2.673
			c-0.654-1.096-0.366-4.488-1.178-4.737c-0.812-0.249-1.661-1.788-2.356-2.369c-0.694-0.582-0.651-2.81-0.762-3.901
			c-0.131-1.293-0.236-0.986-0.122-2.17c0.164-1.694,3.382-2.398,3.24-3.403c-0.142-1.007-0.488-2.259,0-3.553
			C-204.462-202.232-202.915-201.25-202.893-201.247z"/>
		<path fill-rule="evenodd" clip-rule="evenodd" fill="#B4B4B5" stroke="#FFFFFF" stroke-width="0.6" d="M-248.741-201.59
			c0,0-3.145,4.844-2.356,4.739c0.79-0.107,2.239-0.676,3.535,1.183c1.295,1.86,1.625,4.122,2.355,3.553
			c0.73-0.567,4.713-2.368,4.713-2.368s0.412-2.82,2.355-1.185c1.944,1.634,2.215,1.53,3.535,2.369
			c1.319,0.841,2.615,2.89,3.534,3.553c0.918,0.665,2.357,2.369,2.357,2.369s2.343,0.249,2.355,1.186
			c0.011,0.935-0.354,1.895,1.178,3.553c1.532,1.658,4.984,0.71,4.713,1.183c-0.271,0.475,1.284-0.142,1.178-1.183
			c-0.106-1.044-2.592-3.034-2.356-4.739c0.235-1.705,0.777-2.699,1.178-3.554c0.4-0.853,2.521-1.185,2.356-2.368
			c-0.165-1.185-1.743-1.078-1.178-2.369c0.565-1.29,4.712-1.183,4.712-1.183l3.774,0.108l2.117,3.444c0,0,0.53-0.735,1.178-1.185
			c0.647-0.449,2.274-1.811,2.356-2.368c0.082-0.558-0.443-3.256,0-3.553c0.339-0.231,0.483-1.304,1.178-1.186
			c0.694,0.118,1.018,0.694,1.256-0.301c0.33-1.38,0.629-1.298-0.077-3.251c-0.708-1.955,1.495-2.228,1.177-3.553
			c-0.318-1.328,1.213-3.081,0-3.553c-1.213-0.476-1.932-0.545-2.356-1.187c-0.423-0.639-1.933-1.622-1.178-2.368
			c0.755-0.746,3.063-2.417,2.357-2.368c-0.708,0.048-4.713,2.368-4.713,2.368l-3.535,1.185c0,0,0.06-0.083-2.356,2.37
			c-2.415,2.45-4.889,2.852-5.89,3.553c-1.001,0.698-1.92,0.876-2.356,0c-0.436-0.877-1.367-0.37-2.357-1.186
			c-0.989-0.817-5.891,0-5.891,0s0.708-2.119,0-2.367c-0.707-0.25-3.534,2.367-3.534,2.367v-2.367c0,0-0.259-0.771-1.178-1.187
			c-0.919-0.413-3.358-1.384-4.713,0c-1.354,1.388-0.896,1.554-2.356,2.371c-1.461,0.816-1.684,2.345-2.356,2.369
			c-0.672,0.023-0.342-0.817-1.178-1.186c-0.836-0.367-2.532-0.202-2.355-1.183c0.176-0.983,0.718-1.955,0-2.371
			c-0.719-0.413-2.192,1.777-2.356,2.371c-0.165,0.592-0.177,2.012-1.179,3.552c-1,1.54-1.013,1.848,0,2.37
			C-250.083-204.622-248.976-201.484-248.741-201.59z"/>
	</g>
	<g id="四国_7_">
		<path fill-rule="evenodd" clip-rule="evenodd" fill="#B4B4B5" stroke="#FFFFFF" stroke-width="0.6" d="M-206.328-238.307
			l5.89,4.739l4.713,1.185c0,0,2.627,2.865,2.356,2.368c-0.271-0.498,1.402,2.309,2.356,2.368c0.954,0.06,2.309,0.286,3.534,1.186
			s3.605,0.9,3.535,2.369c-0.071,1.468-0.825,8.136,0,8.29c0.825,0.155,2.545-0.261,2.356,1.185
			c-0.188,1.445,1.202,3.186,1.178,3.554c-0.022,0.366,2.357,1.183,2.357,1.183l2.355,4.739c0,0,0.142-0.19,1.178-1.185
			c1.037-0.995,4.583-5.224,4.712-5.921c0.13-0.701,1.344-2.464,3.535-2.37c2.191,0.095,4.1,2.618,4.712,2.37
			c0.613-0.25,4.902-1.447,5.891-1.187c0.989,0.262,4.712,3.554,4.712,3.554l2.204-1.107c0.784-3.665,1.055-3.62,1.657-5.396
			c0.384-1.136-3.202-0.604-3.202-0.604s-3.657,0.242-6.619-0.825c-2.86-1.03-6.565-1.463-8.397-1.545
			c-1.506-0.068-1.146-0.776-2.137-2.367c-1.208-1.941-2.547-4.808-2.807-6.1c-0.259-1.29-0.75-1.956-1.541-3.009
			c-1.239-1.653-2.108-1.81-2.72-2.734c-0.549-0.832-1.404-1.487-2.665-1.239s-2.047,0.054-2.047,0.054s0.655-2.587,0.992-3.281
			c0.393-0.804,0.885-2.737,0.186-3.827c-0.712-1.104-2.254-0.494-2.726-1.464c-0.471-0.971-0.6-0.72-1.429-2.11
			c-0.869-1.456-3.409-2.062-4.093-2.346s-0.946-3.346-0.556-4.152c0.52-1.079,2.735-0.086,2.888-0.702
			c0.152-0.615-1.153-4.622-1.153-4.622s-2.922-0.627-4.713,0c-1.791,0.627-3.534,3.552-3.534,3.552s-0.4,0.57,0,1.185
			c0.401,0.616-1.178,3.554-1.178,3.554l1.178,2.369l2.356,2.369l-1.178,2.367c0,0-1.921-2.912-2.357-1.184
			c-0.436,1.729-1.178,3.553-1.178,3.553v2.371l1.178,2.368h-1.178c0,0-1.425,1.161-2.356,0c-0.931-1.162-2.992-3.921-3.534-3.554
			c-0.542,0.369-3.534-1.185-3.534-1.185L-206.328-238.307z"/>
		<path fill-rule="evenodd" clip-rule="evenodd" fill="#B4B4B5" stroke="#FFFFFF" stroke-width="0.6" d="M-183.944-264.363h-3.535
			l2.357,3.554v3.553c0,0,0.495,1.129,0.762,2.033c0.149,0.502,0.416,2.705,0.416,2.705s-3.229-0.193-3.155,0.951
			c0.081,1.271,0.081,4.072,0.799,3.787c0.719-0.285,3.534,1.185,3.534,1.185s1.26,2.948,2.356,3.552
			c1.097,0.604,1.591,0.64,2.357,1.184c0.765,0.545,0.141,3.863,0,3.554c-0.143-0.308-1.178,3.554-1.178,3.554h3.534l2.356,2.369
			l2.356,2.368l1.177,3.554c0,0,1.897,3.837,2.356,4.737c0.46,0.9,1.344,2.486,2.357,2.37c1.013-0.118,6.632,0.687,7.068,1.185
			c0.436,0.496,7.068,1.183,7.068,1.183h3.535c0,0,2.898-0.105,3.534-1.183c0.636-1.079,4.712-3.554,4.712-3.554l2.356,2.37h2.357
			c0,0-0.271-3.944,1.178-4.737s3.818-0.451,3.534-1.185c-0.283-0.735-0.228-2.518-0.314-3.893
			c-0.085-1.333-0.708-1.747,1.787-1.783c3.026-0.045,4.553-0.238,4.553-0.238s-1.809-2.401-2.492-3.562
			c-0.683-1.162-1.791-3.814-2.355-4.739c-0.567-0.921-1.343-2.806-1.179-3.553c0.165-0.746-1.178-1.183-1.178-1.183
			s-0.671-0.427-2.356,2.367c-1.685,2.796-0.565,2.856-2.356,4.74c-1.791,1.881-3.04,1.729-3.535,2.368
			c-0.494,0.64-1.201,2.523-3.534,2.369c-2.332-0.155-4.711,1.183-4.711,1.183s-3.405-1.48-3.535-1.183
			c-0.129,0.295-2.002-0.191-3.534-1.185c-1.531-0.995-2.509-1.718-2.357-2.369c0.153-0.65-0.718-0.592-1.178-1.184
			c-0.46-0.593-4.713-1.186-4.713-1.186s-0.789-1.728-1.178-2.368c-0.212-0.355-0.353-0.024-0.341-0.011
			c0.013,0,0.119-0.214,0.341-1.175c0.507-2.154,0.048-3.031-1.177-4.736c-1.226-1.705-2.935-2.475-3.535-3.553
			c-0.6-1.08-1.083,0.508-1.178-1.186c-0.094-1.693,0.648-3.387-1.177-3.553c-1.826-0.167-2.663-1.195-2.356-2.369
			c0.306-1.173,0.365-1.765,0-2.368c-0.366-0.603-1.178-1.185-1.178-1.185s-0.812-1.718,0-2.368
			c0.812-0.652,4.688-3.306,3.535-3.554c-1.155-0.249-6.374,1.042-5.891,1.184c0,0-1.826-0.261-2.355-1.184
			c-0.531-0.923-3.535,0-3.535,0L-183.944-264.363z"/>
		<path fill-rule="evenodd" clip-rule="evenodd" fill="#B4B4B5" stroke="#FFFFFF" stroke-width="0.6" d="M-150.957-200.404
			c0,0,4.182,0.496,4.713,1.183c0.531,0.688,3.523,1.693,4.712,3.553c1.19,1.86,1.401-0.059,3.534,0
			c2.133,0.059,3.711-1.183,4.713,0c1.001,1.185,2.356,1.185,2.356,1.185s4.276-3.055,4.712-3.553
			c0.436-0.497,2.604-2.202,3.535-2.368c0.931-0.169,3.534-1.186,3.534-1.186l-1.178-3.552c0,0-0.771,1-2.254,2.266
			c-0.395,0.338-4.399-0.898-5.708-0.988c-2.076-0.142-2.469,0.103-3.38-1.477c-0.669-1.16-1.618-2.171-1.618-2.171l-3.085,0.802
			l-1.242,0.731l-4.658-0.559c0,0-0.974-1.147-2.138-1.787c-1.028-0.563-3.488-1.822-3.488-1.822l-0.704-0.918l-2.357,1.183
			c0,0-1.438,2.297,0,3.554c1.438,1.256,2.828,3.601,2.357,3.552C-149.072-202.82-150.957-200.404-150.957-200.404z"/>
		<path fill-rule="evenodd" clip-rule="evenodd" fill="#B4B4B5" stroke="#FFFFFF" stroke-width="0.6" d="M-113.257-203.959
			c-0.436-1.337-3.381-3.411-2.356-4.736c1.025-1.328,1.672-1.388,2.356-2.369c0.684-0.983,1.002-2.748,1.178-3.554
			c0.177-0.805,0.613-3.602,1.179-3.553c0.564,0.048,1.178-1.185,1.178-1.185s-4.902-0.794-5.891-2.37
			c-0.99-1.575-1.037-3.269-2.357-3.552c-1.319-0.285-2.839-1.978-3.534-2.371c-0.695-0.389-1.779-3.789-2.356-3.553
			c-0.578,0.238-6.229,0.271-6.229,0.271c0.019,0.958,0.026,0.938,0.032,3.132c0.005,1.691,0.24,2.809,0.24,2.809
			s-3.042,0.487-3.468,0.896c-0.695,0.667-0.993,4.29-1.193,4.383c-1.071,0.499-2.342,0.354-2.342,0.354s-1.86-2.535-2.356-2.37
			c-0.494,0.167-3.597,2.079-4.163,2.938c-0.282,0.428-1.502,1.31-1.502,1.31l-2.249,0.874l-1.678,5.504c0,0,1.44,1.254,3.702,2.405
			c2.262,1.148,2.12,2.237,3.535,2.368c1.414,0.129,4.206,0.77,4.711,0c0.507-0.771,2.98-1.151,3.535-1.185
			c0.555-0.035,2.356,3.553,2.356,3.553s2.064-0.11,2.357,0c0.867,0.333,5.89,1.185,5.89,1.185l2.356-2.368l1.178,3.552l1.178,1.186
			l4.713-2.371C-113.257-202.774-112.822-202.621-113.257-203.959z"/>
	</g>
	<g id="九州_14_">
		<path fill-rule="evenodd" clip-rule="evenodd" fill="#B4B4B5" stroke="#FFFFFF" stroke-width="0.6" d="M-279.371-232.383
			c0,0-0.4,0.841,0,2.368c0.401,1.528,4.712,3.554,4.712,3.554s2.191-4.408,3.534-3.554c1.343,0.853,1.804,2.428,2.356,3.554
			c0.554,1.125,0,2.369,0,2.369l2.356,3.552c0,0-0.436,0.403,0,1.185c0.436,0.781-0.425,1.48,2.356,2.368
			c2.78,0.889,3.734-0.888,4.713,0c0.977,0.889,1.719,1.599,2.355,2.37c0.637,0.77,3.864,0.806,4.712,0
			c0.849-0.805,3.076-2.24,3.534-1.185c0.46,1.056,0.778,0.521,1.179,0c0.4-0.52,0.836-3.552,1.178-4.737
			c0.341-1.185,1.236-2.084,2.355-3.552c1.12-1.469,0.684-3.614,2.356-3.555c1.674,0.06,2.356-1.183,2.356-1.183
			s-0.024-1.766-0.327-2.635c-0.229-0.651,0.419-1.089-2.161-0.958c-2.58,0.128-3.335,0.421-4.112-0.124
			c-0.778-0.544-1.257-2.513-2.825-3.39c-1.566-0.877-2.619-1.627-2.725-2.611c-0.106-0.983,0.699-1.486,0.369-2.126
			c-0.33-0.641-1.351-1.594-1.233-2.612c0.118-1.018,0.891-1.663,1.233-2.126c0.342-0.461,0.279-4.619,0-5.922
			c-0.101-0.472-3.723,0.012-4.712,1.186c-0.989,1.171-2.156,2.095-2.356,1.184c-0.2-0.912-3.629-0.451-4.712-2.369
			c-1.083-1.917-3.97-5.2-3.534-5.922c0.436-0.721-1.178,3.552-1.178,3.552s-1.508,2.833-1.178,3.555
			c0.33,0.721-1.178,1.184-1.178,1.184l-1.179,1.185c0,0,0.789,1.872,1.179,2.368c0.388,0.499,1.414,2.441,2.356,2.369
			c0.942-0.07,0.636-0.033,2.356,1.184c1.721,1.221,2.097,0.817,2.356,2.369c0.26,1.554-1.178,3.554-1.178,3.554
			s-1.449,0.877-2.356,0c-0.908-0.877-2.356-2.37-2.356-2.37l-2.356,2.37l-1.177,1.185c0,0-2.521,1.73-2.357,1.185
			c0.165-0.544-1.178-1.185-1.178-1.185l-2.355-1.185c0,0-1.579,0.545-1.179,1.185C-278.97-234.112-279.371-232.383-279.371-232.383
			z"/>
		<path fill-rule="evenodd" clip-rule="evenodd" fill="#B4B4B5" stroke="#FFFFFF" stroke-width="0.6" d="M-232.247-230.015
			c0,0,4.642,1.408,4.713,2.368c0.07,0.96,1.496,3.897,2.355,3.555c0.86-0.345,3.299-1.693,3.535-2.369
			c0.235-0.675,1.001-2.605,1.178-3.554c0.177-0.947-0.401-2.783,0-3.553c0.4-0.771,1.837-2.737,0-3.553
			c-1.838-0.817-3.535-1.186-3.535-1.186s-0.236-1.162-1.178-1.185c-0.942-0.021-3.322-3.031-2.355-3.553
			c0.965-0.521,3.534-1.183,3.534-1.183l3.535,1.183c0,0,0.613-0.722,1.178-1.183c0.565-0.464,1.909-0.665,2.356,0
			c0.447,0.662,0.118,3.172,1.179,2.367c1.06-0.804,2.309-1.905,2.355-2.367c0.046-0.464-2.297-2.132-2.355-3.554
			c-0.059-1.421-0.271-1.743,1.177-2.368c1.45-0.627,1.92,0.959,2.356-1.186c0.436-2.144-0.883-2.038,0-3.553
			c0.884-1.515,1.591-3.115,2.357-3.553c0.766-0.439,0.918-0.582,1.178-1.185s-1.614-3.127-2.357-3.553
			c-0.742-0.426-1.147-0.657-1.996-1.025c-0.849-0.367-2.211-0.12-2.717,0.579c-0.508,0.698-0.909,1.753-1.473,1.51
			c-0.685-0.292-3.239-2.25-3.239-2.25s-4.029-0.573-5.891-1.185c-1.274-0.417-1.217,0.084-2.006,1.153
			c-0.321,0.435-1.493,2.886-1.529,2.401c-0.034-0.486-2.356-2.37-2.356-2.37s-1.885,0.485-2.356,1.186
			c-0.472,0.698-0.268-0.073-1.178,2.368c-1.031,2.763-1.915,1.974-2.357,4.738c-0.449,2.807,0.688,3.552-1.178,5.922
			c-1.03,1.307-1.347,3.362-1.894,3.493c-0.784,0.19-3.997,0.06-3.997,0.06s-1.294,2.057-1.176,0.352
			c0.118-1.705,1.176-5.09,1.176-5.09s1.932-0.238,1.319-0.69c-0.612-0.449-4.08-3.781-4.854-2.863
			c-0.751,0.893-2.356,3.553-2.356,3.553v2.369v3.553c0,0-1.578,1.315-1.178,2.369c0.4,1.054,1.298,3.09,1.298,3.09
			s-1.476,1.437,0.619,2.969c2.691,1.968,0.927,0.354,2.883,2.212c1.202,1.141,1.826,2.695,2.557,2.54
			c0.731-0.153,4.426-0.15,4.426-0.15l0.781,0.375l0.396,3.178h4.713L-232.247-230.015z"/>
		<path fill-rule="evenodd" clip-rule="evenodd" fill="#B4B4B5" stroke="#FFFFFF" stroke-width="0.6" d="M-291.152-240.674
			c0.765,0.035,2.156-0.592,2.356,1.183c0.201,1.777-1.662,3.306-1.178,3.554c0.483,0.25-1.604,0.664,0,2.369
			c1.603,1.705,3.451,4.05,3.534,3.553c0.083-0.498,2.839-0.521,2.356-1.185c-0.483-0.663,0.825-2.841,1.178-3.552
			c0.354-0.71,0.212-2.109,1.178-1.185c0.966,0.924,2.178,0.939,2.178,0.939s0.567-0.678,1.357-0.939
			c0.788-0.262,2.911,1.509,2.911,1.509l0.873,0.92c0,0,2.896-1.328,3.284-2.429c0.389-1.101,1.741-2.207,2.356-2.37
			c0.572-0.15,2.725,2.624,2.725,2.624s1.987-0.254,2.65-1.399c0.635-1.096,0.48-1.258,0.516-2.409
			c0.036-1.148-1.689-1.501-2.863-2.631c-1.211-1.168-2.586-0.888-3.426-2.149c-0.817-1.227-1.377-2.223-1.377-2.223
			s-0.146-1.09-0.876-1.375c-0.731-0.285-0.592,0.104-1.428,0.271c-0.837,0.166-1.811,1.002-1.811,1.002s0.165,0.011-1.178-1.185
			c-1.342-1.197-2.474,0.402-2.355-1.185c0.118-1.587-0.79-1.8,0-2.369c0.788-0.568,1.908-0.793,2.355-2.37
			c0.448-1.575,0-2.367,0-2.367s-1.402,1.449-3.24,1.283c-1.838-0.166-1.226-0.43-2.651,1.083c-1.567,1.668-1.944,2.682-2.356,3.555
			c-0.434,0.92-1.459,2.552-1.459,2.552s-1.821,0.333-2.663,0.704c-1.713,0.758-3.286,3.404-3.286,3.404
			S-291.918-240.709-291.152-240.674z"/>
		<path fill-rule="evenodd" clip-rule="evenodd" fill="#B4B4B5" stroke="#FFFFFF" stroke-width="0.6" d="M-277.015-260.809
			c0.73,0.354,4.324-0.248,5.89-1.184c1.567-0.937,1.578-2.001,2.356-2.37c0.778-0.368,1.013-2.463,0-3.554
			c-1.013-1.09-5.891-3.553-5.891-3.553s-4.323-0.318-3.534,1.186c0.788,1.503,2.58,0.983,2.355,2.367
			c-0.223,1.388-1.178,3.554-1.178,3.554s-0.625,1.611-1.178,1.186c-0.554-0.426-0.131-1.835-2.357-2.37
			c-2.226-0.532-3.275-0.484-3.534-1.184s-3.004-4.728-3.534-4.738c-0.531-0.012-3.404-4.725-3.535-2.368
			c-0.13,2.356,1.143,3.291,1.179,4.737c0.036,1.446,1.083,3.079,0,4.737c-1.084,1.659-2.628,2.523-3.535,3.554
			c-0.907,1.03-4.147,3.376-3.534,3.553c0.612,0.178,2.355,3.552,2.355,3.552v2.37c0,0,1.756-1.917,2.356-2.37
			c0.601-0.448-0.258-0.235,1.178-2.367c1.438-2.134,2.827-2.951,2.356-3.554c-0.472-0.603,1.037-0.415,1.178-1.185
			s1.662-1.824,2.356-1.184c0.695,0.638,3.346,0.047,2.356,2.368c-0.989,2.32-2.827,2.76-2.356,3.554
			c0.472,0.792-1.178,2.367-1.178,2.367s-0.542,2.264-2.356,2.37c-1.814,0.105-2.356,1.186-2.356,1.186s-1.449,0.971-2.356,1.184
			c-0.907,0.212-2.356,1.185-2.356,1.185s-0.436-0.615-1.177,0c-0.743,0.615-2.628,1.872-2.357,2.368
			c0.271,0.499,1.19,3.008,1.179,3.552c-0.011,0.545,1.179,3.554,1.179,3.554l2.355-1.185l3.534-1.183c0,0-0.989-2.19,0-3.553
			c0.99-1.364,2.356-2.369,2.356-2.369l2.326-0.809c0,0,0.738,0.144,1.208-0.376c0.472-0.52,0.924-1.973,1.501-3.441
			c0.579-1.468,3.211-3.666,3.211-3.666s1.791,0.166,2.357,0c0.565-0.167,2.355-1.184,2.355-1.184s-0.448-0.463,0-1.186
			C-275.389-257.978-277.746-261.165-277.015-260.809z"/>
		<path fill-rule="evenodd" clip-rule="evenodd" fill="#B4B4B5" stroke="#FFFFFF" stroke-width="0.6" d="M-264.056-283.313
			c0,0,0.236-2.274-1.178-3.552c-1.414-1.281-3.192-0.983-3.534-2.371c-0.342-1.384-1.178-3.553-1.178-3.553
			c2.775-0.34,2.615-0.448,4.712,0c1.721,0.369,2.438,0.652,3.534,1.185c1.096,0.534,1.716-0.777,2.357-1.185
			c0.35-0.222-0.59-0.344,2.355-1.183c1.919-0.547,4.194-2.346,5.89-1.185c1.697,1.162,1.286,2.59,3.538,2.71
			c2.213,0.115,3.255,0.505,3.926,1.038c0.671,0.534,1.974,3.26,1.974,3.26s-0.5,2.45-0.561,3.304
			c-0.059,0.853-0.428,1.767-0.99,4.033c-0.364,1.466-1.278,2.617-1.914,3.551c-0.448,0.661-1.261,2.238-1.261,2.238l2.938,2.839
			c0,0,1.146,1.169,2.537,2.617c1.391,1.445,1.381,2.086,1.942,3.093c0.607,1.086,2.007,3.296,2.007,3.296l1.178,2.368l-1.178,2.369
			c0,0-1.331,1.799-1.179,2.369c0.154,0.568,0.071,2.037,0,3.552c-0.07,1.517-0.494,1.196-1.178,2.37
			c-0.683,1.171-1.288,3.519-2.356,3.553c-1.324,0.042-3.369-0.558-3.534,0c-0.165,0.556-1.177,1.184-1.177,1.184l1.177-5.922
			c0,0,2.176,0.119,1.13-1.036c-1.095-1.207-1.925-1.352-2.727-1.939c-0.641-0.469-1.231-1.134-1.626-0.8
			c-2.065,1.75-2.114,3.669-2.668,3.775c-0.554,0.105-1.729-0.082-3.103,0.262c-0.819,0.207-0.844,0.202-1.61,0.924
			c-0.766,0.721-0.969,1.956-1.852,1.533c-1.043-0.496-1.771-0.989-2.755-1.212c-0.737-0.168-2.229-0.794-2.642-1.812
			c-0.413-1.018-0.404-0.114-1.804-2.605c-1.523-2.715-1.646-2.731-1.55-3.012c0.511-1.504,1.143-2.107,2.356-3.553
			c1.214-1.447,1.26-1.718,2.356-2.368c1.096-0.652,1.708-1.162,1.178-2.37c-0.53-1.208-0.26-2.748-1.178-3.553
			c-0.918-0.805-5.89-3.553-5.89-3.553s4.571-1.173,5.89,0c1.32,1.171,3.735,3.115,3.535,2.369s-0.366-1.504-1.177-2.369
			c-0.813-0.866-2.333-1.398-2.357-2.369c-0.022-0.972-0.765-2.536-1.178-3.554S-264.056-283.313-264.056-283.313z"/>
		<path fill-rule="evenodd" clip-rule="evenodd" fill="#B4B4B5" stroke="#FFFFFF" stroke-width="0.6" d="M-273.48-279.76
			c0,0,0,1.422,1.179,2.369c1.177,0.948,2.356,1.185,2.356,1.185h3.534v-2.369c0,0-1.792-1.918-2.356-2.368
			c-0.565-0.451-3.534-1.185-3.534-1.185L-273.48-279.76z"/>
		<path fill-rule="evenodd" clip-rule="evenodd" fill="#B4B4B5" stroke="#FFFFFF" stroke-width="0.6" d="M-282.906-280.944
			c0,0-0.459,2.157,1.178,3.553c1.637,1.397,3.535,2.369,3.535,2.369s0.671-0.378,1.178,0c0.507,0.378,0.73-0.273,1.178-1.185
			c0.448-0.911,1.461-2.369,1.178-3.554c-0.283-1.184-1.178-3.553-1.178-3.553s-0.564-2.381-1.178-2.369
			c-0.612,0.012-1.415-1.148-2.356-2.367c-0.942-1.221-3.535-2.371-3.535-2.371s-1.59,1.788-1.178,2.371
			c0.413,0.579,1.178,3.553,1.178,3.553V-280.944z"/>
		<path fill-rule="evenodd" clip-rule="evenodd" fill="#B4B4B5" stroke="#FFFFFF" stroke-width="0.6" d="M-229.891-309.37
			c0,0,1.378-5.152,0-5.923c-1.377-0.77-2.663-1.717-2.356-2.368c0.306-0.651,0.365-1.944,0-3.553
			c-0.366-1.611,0.47-2.795-1.178-3.553c-1.65-0.759-5.662,1.482-5.662,1.482s-0.179,0.589-0.229,3.255
			c-0.023,1.266,0,5.922,0,5.922l-5.678,2.644c0,0,0.255,0.279-0.298,1.296c-0.554,1.019-2.76,2.233-2.76,2.233l-3.045-0.252
			l1.179,3.552l-4.224,4.912l-1.095,3.272l-1.75,2.477l2.356-1.185l3.026-0.243c0,0,1.958,1.794,2.864,2.611
			c0.908,0.817,3.593-0.248,4.713,1.185c1.12,1.433,2.922,3.091,2.356,4.739c-0.565,1.647-1.908,8.409-2.356,8.29
			c-0.448-0.117-2.355,3.554-2.355,3.554s1.684,1.883,2.355,2.369c0.672,0.484,3.487,3.007,3.535,3.553
			c0.046,0.545,2.096,3.083,2.355,3.553c0.65,1.176,1.179,2.37,1.179,2.37l1.178,2.368c0,0,1.789-3.24,2.377-3.156
			c0.589,0.083,1.003-0.744,1.648-0.199c0.537,0.452,1.865,2.172,1.865,2.172l2.327-3.653c0,0,6.026,1.426,7.098,1.283
			c1.072-0.142,3.31,2.631,3.534,2.37c0.224-0.263,1.59-2.37,2.356-2.37c1.178,0,2.551,0.758,2.159,0.282
			c-0.72-0.876-2.606-4.89-3.336-5.02c-0.731-0.13-1.968-1.671-2.357-2.369c-0.389-0.699-1.861-3.707-2.356-3.553
			c-0.494,0.154,0.718-1.965,0-2.369c-0.719-0.401-3.44-4.24-3.535-5.922c-0.095-1.682-0.918-2.167-1.178-4.736
			c-0.259-2.571-2.651-5.331-2.355-7.107c0.294-1.777-0.86-1.955-1.178-3.553C-229.031-300.31-229.891-309.37-229.891-309.37z"/>
		<path fill-rule="evenodd" clip-rule="evenodd" fill="#B4B4B5" stroke="#FFFFFF" stroke-width="0.6" d="M-275.837-330.688
			c-0.358,0.269-0.736,3.998-1.178,4.737c-0.261,0.438-2.356,2.37-2.356,2.37s-0.506,1.61,1.179,1.185l4.712-1.185
			c0,0-0.789,2.062,0,3.554c0.79,1.491,2.132,0.994,2.356,2.368c0.224,1.374,0,3.032,0,3.554c0,0.519-2.474,2.983-2.356,3.552
			c0.118,0.57-1.461,1.92-2.356,2.37c-0.895,0.449-2.355,2.368-2.355,2.368s2.133,1.48,2.355,2.368c0.224,0.889,0.448,3.068,0,3.555
			c-0.448,0.485-1.178,1.185-1.178,1.185v2.368l-1.178,2.37c0,0,1.236-0.425,2.355,0c1.12,0.424,2.804,1.267,3.535,1.183
			c0.73-0.083,2.356,0,2.356,0l2.944-0.289l3.666,0.786c0,0,2.278,1.318,2.814,0.687c1.26-1.48,3.535-2.368,3.535-2.368
			s0.486-0.558,1.571-2.171c0.618-0.918,0.043-0.968,0.785-2.566c0.743-1.601,1.284-2.582,2.356-3.554
			c1.073-0.971,2.357-2.369,2.357-2.369l-1.179-3.552c0,0,3.134,0.674,3.535,0c0.4-0.677,2.097-1.614,2.355-2.37
			c0.491-1.431,0.882-1.175,1.763-1.631c1.629-0.846,1.835-0.854,1.835-0.854l2.293-1.066v-4.739c0,0-0.147-3.405,0.229-4.438
			c0.179-0.494-3.032,0.863-3.763,0.886c-0.73,0.024-2.415-0.593-2.356-1.185c0.059-0.592,0-2.37,0-2.37s2.176-0.729,2.356-1.185
			c0.295-0.74,0-4.736,0-4.736s-0.059-0.049-1.178,0c-1.12,0.047-0.907,0.284-2.355-1.186c-1.45-1.469-2.027-2.487-3.535-3.552
			c-1.508-1.066-2.357,0-2.357,0l-2.356-1.185l-2.356-2.369c0,0-1.718-0.345-2.355,0c-0.504,0.271,2.615,5.188,2.355,4.738
			c-0.024-0.036-0.035-0.059-0.035-0.059s1.096,1.919,1.213,2.427c0.129,0.558,1.178,3.553,1.178,3.553v4.74
			c0,0-0.86,0.994-1.178,2.368c-0.318,1.373,0,3.552,0,3.552h-4.712v3.553h1.179h2.355c0,0,0.377-0.921,1.178-1.183
			c0.802-0.262,1.178,1.183,1.178,1.183l1.179,2.371c0,0-1.815-0.344-2.357,1.183c-0.541,1.528-2.356,2.369-2.356,2.369
			l-2.356-1.185c0,0-1.378-5.211-1.178-5.921c0.2-0.711-1.178-2.37-1.178-2.37s-1.72,0.487-1.178-1.183
			c0.542-1.671,0.919-2.962,1.178-3.554c0.26-0.592-1.378-0.996,0-2.37c1.378-1.375,0.306-3.481,1.178-3.554
			c0.873-0.071,2.499-0.721,2.357-1.183c-0.143-0.464,0.812-1.575,0-2.37c-0.813-0.792-4.136-1.575-4.713-1.183
			c-0.577,0.391-1.178,2.369-1.178,2.369s-0.271,2.888-1.178,2.367c-0.908-0.519-5.89-1.183-5.89-1.183
			S-275.444-330.984-275.837-330.688z"/>
	</g>
	<g id="沖縄_2_">
		<g>
			<path fill="#B4B4B5" stroke="#FFFFFF" stroke-width="0.6" d="M235.438-305.335c-0.65-1.369-2.101-1.814-3.288-2.495
				c-1.568-0.899-2.188-2.668-3.409-3.968c-0.635-0.688-1.361-1.035-2.003-0.257c-0.662,0.779-0.166,3.084-1.259,3.22
				c-0.479,0.045-0.963-0.098-1.447-0.098c-0.521,0-1.021,0.204-1.538,0.234c-1.319,0.098-2.15-1.89-1.553-3.016
				c0.835-1.61,3.031-1.497,3.613-3.454c0.416-1.42-0.507-1.859-1.648-1.723c-1.353,0.167-1.988,0.091-3.008-0.959
				c-1.425-1.437-2.842-2.706-4.452-3.945c-1.149-0.854-0.869-2.2-0.454-3.484c0.189-0.567,0.612-1.149,0.469-1.776
				c-0.167-0.718-0.726-1.308-1.232-1.784c-0.915-0.832-2.154-1.096-2.713-2.305c-0.578-1.194-0.491-2.532-0.166-3.794
				c0.85-3.401,3.438-1.965,5.117-0.083c0.476,0.529,1.134,0.832,1.61,1.383c0.782,0.899,0.159,2.472,0.125,3.598
				c-0.072,1.792,1.092,3.189,1.913,4.731c0.143,0.242,0.631,0.816,0.446,1.081c-0.801,1.134-1.606,2.071-0.48,3.311
				c0.635,0.703,1.198,0.506,2.093,0.575c0.624,0.045,1.308,0.098,1.882,0.416c0.763,0.416,1.315,1.194,2.135,1.481
				c0.707,0.257,1.357,0.71,1.992,1.096c0.736,0.423,1.632,0.688,2.293,1.232c0.465,0.363,0.797,0.877,1.024,1.436
				c0.034,0.121,0.185,0.824,0.279,0.832c0.998,0.151,2.199,0.053,3.152,0.34c0.945,0.294,1.678,1.881,2.124,2.69
				c0.56,1.013,3.439,7.399,0.639,7.293C236.727-303.545,235.846-304.459,235.438-305.335"/>
			<path fill="#B4B4B5" stroke="#FFFFFF" stroke-width="0.6" d="M265.345-261.733c-0.778,0.832-1.104,2.32-2.067,2.91
				c-1.047,0.65-1.78-0.544-1.697-1.52c0.099-1.028,0.681-2.018,0.681-3.038c0-1.065-0.903-2.88-0.147-3.802
				c0.571-0.695,1.145-1.398,1.723-2.094c0.446-0.537,0.729-0.045,1.225,0.378c1.001,0.809,2.177,1.996,2.385,3.378
				C267.688-263.917,266.29-262.738,265.345-261.733"/>
			<path fill="#B4B4B5" stroke="#FFFFFF" stroke-width="0.6" d="M250.241-280.1c-0.352-0.362-0.612-0.242-0.949,0.038
				c-0.552,0.469-1.073,0.121-1.523-0.363c-0.994-1.065-0.934-2.683-0.306-3.93c2.025,1.64,4.074,3.355,5.801,5.351
				c0.182,0.211,1.701,2.426,0.506,1.904C252.437-277.666,251.234-279.034,250.241-280.1"/>
			<path fill="#B4B4B5" stroke="#FFFFFF" stroke-width="0.6" d="M293.099-232.242c-0.703-0.733-1.357-1.927-2.374-1.973
				c-1.553-0.083-3.031-0.317-4.263-1.398c-1.357-1.179-2.453-2.305-4.097-3.053c-1.277-0.59-2.43-1.315-3.658-1.988
				c-1.24-0.688-2.691-1.413-4.119-1.413c-1.209,0-1.051-1.481-0.635-2.268c0.461-0.847,1.137-0.401,1.628-1.058
				c0.586-0.786,0.888-1.852,1.145-2.812c0.151-0.567,1.142-0.982,1.625-1.073c1.383-0.272,2.495,1.103,3.673,1.685
				c1.194,0.597,2.985,0.854,1.429,2.441c-0.318,0.317-0.979,0.582-0.768,1.156c0.261,0.733,1.126,1.225,1.724,1.587
				c1.356,0.809,2.725,1.217,3.314,2.91c0.393,1.134,0.28,2.29,1.648,2.51c0.714,0.121,1.458-0.03,2.104-0.355
				c0.496-0.25,0.548-0.552,1.04-0.31c1.171,0.567,2.706,1.753,3.031,3.152C295.8-233.345,294.225-231.033,293.099-232.242"/>
		</g>
		<polyline fill="#FFFFFF" stroke="#B4B4B5" stroke-width="0.6" points="295.575,-218.469 203.404,-244.764 180.654,-336.995 		"/>
	</g>
</symbol>
<rect display="none" fill="#F4B8FF" width="960" height="750"/>
<use xlink:href="#日本地図_3"  width="595.722" height="680.959" id="XMLID_10_" x="-299.726" y="-340.618" transform="matrix(1 0 0 -1 482.8652 405.7383)" overflow="visible"/>
</svg>
