<?xml version="1.0" encoding="utf-8"?>
<!-- Generator: Adobe Illustrator 21.0.2, SVG Export Plug-In . SVG Version: 6.00 Build 0)  -->
<svg version="1.1" id="レイヤー_1" xmlns="http://www.w3.org/2000/svg" xmlns:xlink="http://www.w3.org/1999/xlink" x="0px"
	 y="0px" viewBox="0 0 960 750" style="enable-background:new 0 0 960 750;" xml:space="preserve">
<style type="text/css">
	.st0{fill:#3ECCC8;stroke:#FFFFFF;stroke-width:0.6;}
	.st1{fill:#2A7F38;stroke:#FFFFFF;stroke-width:0.6;}
</style>
<symbol  id="日本地図_3" viewBox="-46 -52.1 91.9 104.2">
	<g id="首都_2_">
		<path class="st0" d="M-6.9,13.7c0,0-1.8,2.2-1.2,3.6s0.8,5.7,1.2,5.9c0.4,0.2,0,2.4,0,2.4l-3.2,4v2.3l0.8,2v3.6v3l4.7,1.7
			c0,0,5.1,3.4,5.9,3.6s4,1.3,4.4,1.5S7.5,49,7.5,49l0.8,1.6l5.9,1.2l1.6-0.6l7.8-8.9c0,0-0.3-0.6-0.1-2.8c0.2-2.9,0-4.3-1-5.5
			c-0.3-0.3-1.2-1.2-1.2-1.2v-2.4v-3.6c0,0,0.9-4.5,0.8-5.7c0-0.8-0.8-3.7-0.8-3.7s-3.7-1-4.7-1.2c-1.2-0.2-3.3-1.5-4.7-2.4
			c-0.6-0.4-3-2.6-3.7-3c-0.4-0.2,0,0-1-0.6S2.5,8.4,2.5,7.8c0-0.4-1,1-2,1.7c-2.3,1.6-4.7,1.9-5.1,1.9S-6.9,13.7-6.9,13.7z"/>
		<path class="st0" d="M-25.2,38.8c0,0,1.4,2.1,2,3.6c0.6,1.6,0.5,1.8,2.9,2.7c1.6,0.6,5.3,2.6,5.3,2.6l0.7-3l0.8-1.8l4.3-3.3
			c0,0,0.4-4.3,0-5.9s-1-2.8-0.8-3.8s1.4-2.3,1.4-2.3l1.8-2.7c0,0-0.2-4.1-0.7-5.3c-0.3-0.8-1.3-3.6-0.1-5c0.9-1.1,2.3-2.4,2.5-3.1
			s1.8-0.4,1.8-0.4l4.9-2.6c0,0-5.3-0.8-6-1c-0.8-0.2-2.4-0.8-3.5,0c-1.2,0.8-3.7,2.3-4.7,2.4c-1.8,0.2-1.7,0.3-4.7,1.2
			c0,0-1.1-2.6-1.7-3.4c-0.6-0.8-1.4-4.7-3-4.9c-1.9-0.2-2.9-1-3.5-1.2s-4.1-1.8-4.7-2.4C-30.8-1.4-33.7-2-33.7-2s-2.6,1.6-2.4,2.4
			c0.2,0.8-0.4,3.8-0.2,4.2c0.2,0.4-1,1.9-1,2.1s0.7,4.3,1.1,5.5c0.4,1.2-0.4,3,0,3.6s-2.4,2.4-2.4,2.4l-1.4-2.4
			c0,0-0.9,0.2-2.1,1.2s-2.9,2.3-3.5,3.6c-0.2,0.4,1.2,5.9,1.2,5.9s4.5,3,4.7,3.6s5.1,2.6,4.7,2.4c-0.4-0.2,1.6-0.3,2,0.1
			s2.5,0.7,2.5,0.7l1.5,2.1l2,1.6L-25.2,38.8z"/>
		<path class="st0" d="M34.3,17.3c0,0-0.2-8.9,0-9.5s0.6-4.1,1.2-4.7s1.2-3.6,1.2-3.6s2-4.7,2.4-4.7s2.6-5.3,3.5-5.9
			c1-0.6,3.2-2.9,3.2-2.9l-5.6,4l-5.5,4.4L32-4c0,0-2.8-1.4-4.3-3.2c-0.8-1.1-6.5-0.7-7.5-0.3c-1,0.4-8.4,2-8.2,2.4
			c0.2,0.4-1.6,1.9-2.4,3.6C9.1-0.4,6.1,2.1,6.1,2.1S2.2,2.5,2.6,3.3c0.4,0.8,0,2.4,0,2.4v2.4c0,0.6,6.4,3.3,6.4,3.3
			s2.4,2.1,1.9,1.7c-0.6-0.4,2.4,1.2,2.8,1.8c0.4,0.6,4.2,1.5,4.2,1.5l3.5,1.2l0.7,2.5v3.3c0,0-0.6,2.7-0.6,4.9c0,2.2-0.6,4.5,0,4.7
			s2.1,1.8,2.4,3.6c0.1,0.9,0,5.9,0,5.9s3.7-5.1,4.2-5.5c1.2-0.9,1.7-1.6,1.7-1.6s1.9,0.6,3.2,2c1.5,1.6,2.7,2.7,3.3,2.7
			c0.6,0,2.7,0.4,2.9,0c0.2-0.4,3.5-2.4,3.5-2.4s0-4.5-1.2-5.9c-1.2-1.4-3.3-5.1-3.5-5.9s-0.6-4.9-1.2-4.7
			C36.1,21,34.3,17.3,34.3,17.3z"/>
		<path class="st0" d="M-33.4-1.7c0.6,0,4.1,1.8,5.3,2.4s4.3,2.6,4.7,2.4S-22,2.3-21,4.3l2.4,4.7c0.6,1.2,0.4,2.6,1.2,2.4
			s5.9-1.1,6.4-1.7c0.6-0.6,3-2.1,3.8-2.2c2.1-0.2,3.4,0.3,5.3,0.6c0.4,0.1,2.4,0.8,2.8,0.6c0.4-0.2,1.7-0.9,1.7-0.9V3.1
			c0,0-0.3-0.9,1.5-0.9c2.4,0,3.5-2,3-2.4S6.5-1.5,7.3-2.9c0.8-1.4,2.5-4.3,2.1-4.9c-0.4-0.6,0.7-3,0.3-3.4C9.3-11.6,5-10.6,4.1-11
			c-2.8-1.2-4.9,0.9-6.9-0.7c-2-1.6-3.8-1.3-5.2-0.7c-1.4,0.6-4.3,3-5.9,3.6c-1.6,0.6-5.5,2.4-5.9,2.4c-2.3,0-3.9-2-3.5-1.2l-1.6-1
			c0.7,0.1-3.7-0.4-5.5,1c-1.2,0.9-2.4,2.4-2.4,2.4S-34-1.7-33.4-1.7z"/>
		<path class="st0" d="M36.7-15.9c0,0-4.5-4.9-5.9-5.9s-2.2-3.2-2.4-3.6c-0.2-0.4-0.6-2.6,0-3.6s0.4-8.5,0-8.3s-0.2-1.2-2.4-2.4
			c-2.2-1.2-8-2.4-8.2-2.4s-2.2-1.6-3.5-3.6c-1.4-2-2.4-3.6-2.4-3.6l-2.4-2.4L6-49.3c0,0-1.5,2.1-1.2,2.4c0.5,0.5,1.6,0.6,2.4,1.2
			C8-45.1,9-42.5,8.4-39.8c-0.6,2.8-0.8,2.2,0,3.6c0.8,1.4,0,2.4,0,2.4s-2.7,1-2.4,1.2s1.4,1.6,2.4,2.4c1,0.8,1.8,3.2,2.4,3.6
			c0.6,0.4,2.2,1.2,3.5,2.4c1.4,1.2,3.9,2,3.5,3.6S14.3-17,14.3-17h-2.4l-1.2-2.4l-1.2,5.9c-0.2,1,0.5,2.9,0.1,2.7S9-5.7,9-5.7
			l0.2-0.9c0,0-0.1,1.6-1.6,3.1L6.5-0.6l1.2,1.1l4.2-5.7c0,0,5.5-1.8,6.9-2c0.7-0.1,1.8-1.1,3.8-0.7c2,0.4,3.3-0.8,4.6,0.3
			C28.6-6.4,31.9-4,31.9-4l2.4-1.2C33.9-5,40-10.1,40.2-9.9c0.2,0.2,4.7-3.6,4.7-3.6v-1.2h-1.2c-1.2,0-4.5-1.8-4.7-1.2
			C38.8-15.3,36.7-15.9,36.7-15.9z"/>
		<path class="st0" d="M-24.2-8.1c0,0,3,1.9,4.3,1.7c1.3-0.3,5.1-1.9,5.9-2.4c0.8-0.5,3.5-2.1,3.9-2.4c1.2-0.8,2.3-1.3,3-1.6
			c0.9-0.5,1.9,0.2,2.5,0.5c0.6,0.2,1.9,0.6,2.4,1.2c0.4,0.6,4.4-1,5.9,0s3.5,0,3.5,0h2.4c0,0-0.1-3.4,0.5-4.7
			c0.6-1.2-2.8-2.4-2.8-2.4s-0.7-0.9-1.2-1.2c-0.4-0.3-0.2-5-1.2-4.5s-0.8,1.8-2.7,2.7C0.3-20.3-1-19.4-1-19.4s-4.8-0.4-4.7,0
			c0.1,0.4,0.1-1.3-0.4-1.8c-0.6-0.5-0.1-1.4-1.9-0.6c-1.9,0.8-1.7,0.3-4.7,1.2s-4.5,2.5-4.7,3.6s-0.8-0.2-2.4,1.2
			c-1.5,1.4-1.7,0.6-2.3,1.9c-0.5,1.1-2.4,2.9-2.4,2.9L-24.2-8.1z"/>
		<path class="st0" d="M-18.7-23l1.2,3.6l-0.3,2.8c0,0,0.7-2.4,5.4-4.2c0.4-0.2,3.2-0.4,3.2-0.4l2.4-1.1l1,2.9c0,0,3.5,0,4-0.3
			c0.4-0.3,1.6,0.5,3.1-0.9l2.4-1.9l1.2-1.7c0,0-3-0.5-3.5-1.2C0.9-26-0.7-28.2,0.2-29s0.8-3.9,1.2-4.7c0.4-0.8,2.4-2.4,2.4-2.4
			s-1,0-1.2-1.2s-0.3-3.3-1.2-3.6C0.5-41.1-1-38.5-1-38.5s-1,2.5-1.2,3.6c-0.2,1-2.4,2.4-2.4,2.4s-1.9-0.2-2.4,0s-3.6-0.1-4.7-1.2
			c-1.1-1-4.2-1.5-4.7-2.4c-0.5-0.8-1.2-3.6-1.2-3.6l-2.4-1.2c0,0-2.3,0.4-2.4,2.4c0,2-1.1,4.2-0.2,5.7c0.9,1.5,0.2,2.6,0.2,2.6
			s-0.6,1.7-1.5,2s-1.8,1.6-1.8,1.6l3.3,2.4L-18.7-23z"/>
	</g>
	<g id="首都_1_">
		<path class="st1" d="M-6.9,13.7c0,0-1.8,2.2-1.2,3.6s0.8,5.7,1.2,5.9c0.4,0.2,0,2.4,0,2.4l-3.2,4v2.3l0.8,2v3.6v3l4.7,1.7
			c0,0,5.1,3.4,5.9,3.6s4,1.3,4.4,1.5S7.5,49,7.5,49l0.8,1.6l5.9,1.2l1.6-0.6l7.8-8.9c0,0-0.3-0.6-0.1-2.8c0.2-2.9,0-4.3-1-5.5
			c-0.3-0.3-1.2-1.2-1.2-1.2v-2.4v-3.6c0,0,0.9-4.5,0.8-5.7c0-0.8-0.8-3.7-0.8-3.7s-3.7-1-4.7-1.2c-1.2-0.2-3.3-1.5-4.7-2.4
			c-0.6-0.4-3-2.6-3.7-3c-0.4-0.2,0,0-1-0.6S2.5,8.4,2.5,7.8c0-0.4-1,1-2,1.7c-2.3,1.6-4.7,1.9-5.1,1.9S-6.9,13.7-6.9,13.7z"/>
		<path class="st1" d="M-25.2,38.8c0,0,1.4,2.1,2,3.6c0.6,1.6,0.5,1.8,2.9,2.7c1.6,0.6,5.3,2.6,5.3,2.6l0.7-3l0.8-1.8l4.3-3.3
			c0,0,0.4-4.3,0-5.9s-1-2.8-0.8-3.8s1.4-2.3,1.4-2.3l1.8-2.7c0,0-0.2-4.1-0.7-5.3c-0.3-0.8-1.3-3.6-0.1-5c0.9-1.1,2.3-2.4,2.5-3.1
			s1.8-0.4,1.8-0.4l4.9-2.6c0,0-5.3-0.8-6-1c-0.8-0.2-2.4-0.8-3.5,0c-1.2,0.8-3.7,2.3-4.7,2.4c-1.8,0.2-1.7,0.3-4.7,1.2
			c0,0-1.1-2.6-1.7-3.4c-0.6-0.8-1.4-4.7-3-4.9c-1.9-0.2-2.9-1-3.5-1.2s-4.1-1.8-4.7-2.4C-30.8-1.4-33.7-2-33.7-2s-2.6,1.6-2.4,2.4
			c0.2,0.8-0.4,3.8-0.2,4.2c0.2,0.4-1,1.9-1,2.1s0.7,4.3,1.1,5.5c0.4,1.2-0.4,3,0,3.6s-2.4,2.4-2.4,2.4l-1.4-2.4
			c0,0-0.9,0.2-2.1,1.2s-2.9,2.3-3.5,3.6c-0.2,0.4,1.2,5.9,1.2,5.9s4.5,3,4.7,3.6s5.1,2.6,4.7,2.4c-0.4-0.2,1.6-0.3,2,0.1
			s2.5,0.7,2.5,0.7l1.5,2.1l2,1.6L-25.2,38.8z"/>
		<path class="st1" d="M34.3,17.3c0,0-0.2-8.9,0-9.5s0.6-4.1,1.2-4.7s1.2-3.6,1.2-3.6s2-4.7,2.4-4.7s2.6-5.3,3.5-5.9
			c1-0.6,3.2-2.9,3.2-2.9l-5.6,4l-5.5,4.4L32-4c0,0-2.8-1.4-4.3-3.2c-0.8-1.1-6.5-0.7-7.5-0.3c-1,0.4-8.4,2-8.2,2.4
			c0.2,0.4-1.6,1.9-2.4,3.6C9.1-0.4,6.1,2.1,6.1,2.1S2.2,2.5,2.6,3.3c0.4,0.8,0,2.4,0,2.4v2.4c0,0.6,6.4,3.3,6.4,3.3
			s2.4,2.1,1.9,1.7c-0.6-0.4,2.4,1.2,2.8,1.8c0.4,0.6,4.2,1.5,4.2,1.5l3.5,1.2l0.7,2.5v3.3c0,0-0.6,2.7-0.6,4.9c0,2.2-0.6,4.5,0,4.7
			s2.1,1.8,2.4,3.6c0.1,0.9,0,5.9,0,5.9s3.7-5.1,4.2-5.5c1.2-0.9,1.7-1.6,1.7-1.6s1.9,0.6,3.2,2c1.5,1.6,2.7,2.7,3.3,2.7
			c0.6,0,2.7,0.4,2.9,0c0.2-0.4,3.5-2.4,3.5-2.4s0-4.5-1.2-5.9c-1.2-1.4-3.3-5.1-3.5-5.9s-0.6-4.9-1.2-4.7
			C36.1,21,34.3,17.3,34.3,17.3z"/>
		<path class="st1" d="M-33.4-1.7c0.6,0,4.1,1.8,5.3,2.4s4.3,2.6,4.7,2.4S-22,2.3-21,4.3l2.4,4.7c0.6,1.2,0.4,2.6,1.2,2.4
			s5.9-1.1,6.4-1.7c0.6-0.6,3-2.1,3.8-2.2c2.1-0.2,3.4,0.3,5.3,0.6c0.4,0.1,2.4,0.8,2.8,0.6c0.4-0.2,1.7-0.9,1.7-0.9V3.1
			c0,0-0.3-0.9,1.5-0.9c2.4,0,3.5-2,3-2.4S6.5-1.5,7.3-2.9c0.8-1.4,2.5-4.3,2.1-4.9c-0.4-0.6,0.7-3,0.3-3.4C9.3-11.6,5-10.6,4.1-11
			c-2.8-1.2-4.9,0.9-6.9-0.7c-2-1.6-3.8-1.3-5.2-0.7c-1.4,0.6-4.3,3-5.9,3.6c-1.6,0.6-5.5,2.4-5.9,2.4c-2.3,0-3.9-2-3.5-1.2l-1.6-1
			c0.7,0.1-3.7-0.4-5.5,1c-1.2,0.9-2.4,2.4-2.4,2.4S-34-1.7-33.4-1.7z"/>
		<path class="st1" d="M36.7-15.9c0,0-4.5-4.9-5.9-5.9s-2.2-3.2-2.4-3.6c-0.2-0.4-0.6-2.6,0-3.6s0.4-8.5,0-8.3s-0.2-1.2-2.4-2.4
			c-2.2-1.2-8-2.4-8.2-2.4s-2.2-1.6-3.5-3.6c-1.4-2-2.4-3.6-2.4-3.6l-2.4-2.4L6-49.3c0,0-1.5,2.1-1.2,2.4c0.5,0.5,1.6,0.6,2.4,1.2
			C8-45.1,9-42.5,8.4-39.8c-0.6,2.8-0.8,2.2,0,3.6c0.8,1.4,0,2.4,0,2.4s-2.7,1-2.4,1.2s1.4,1.6,2.4,2.4c1,0.8,1.8,3.2,2.4,3.6
			c0.6,0.4,2.2,1.2,3.5,2.4c1.4,1.2,3.9,2,3.5,3.6S14.3-17,14.3-17h-2.4l-1.2-2.4l-1.2,5.9c-0.2,1,0.5,2.9,0.1,2.7S9-5.7,9-5.7
			l0.2-0.9c0,0-0.1,1.6-1.6,3.1L6.5-0.6l1.2,1.1l4.2-5.7c0,0,5.5-1.8,6.9-2c0.7-0.1,1.8-1.1,3.8-0.7c2,0.4,3.3-0.8,4.6,0.3
			C28.6-6.4,31.9-4,31.9-4l2.4-1.2C33.9-5,40-10.1,40.2-9.9c0.2,0.2,4.7-3.6,4.7-3.6v-1.2h-1.2c-1.2,0-4.5-1.8-4.7-1.2
			C38.8-15.3,36.7-15.9,36.7-15.9z"/>
		<path class="st1" d="M-24.2-8.1c0,0,3,1.9,4.3,1.7c1.3-0.3,5.1-1.9,5.9-2.4c0.8-0.5,3.5-2.1,3.9-2.4c1.2-0.8,2.3-1.3,3-1.6
			c0.9-0.5,1.9,0.2,2.5,0.5c0.6,0.2,1.9,0.6,2.4,1.2c0.4,0.6,4.4-1,5.9,0s3.5,0,3.5,0h2.4c0,0-0.1-3.4,0.5-4.7
			c0.6-1.2-2.8-2.4-2.8-2.4s-0.7-0.9-1.2-1.2c-0.4-0.3-0.2-5-1.2-4.5s-0.8,1.8-2.7,2.7C0.3-20.3-1-19.4-1-19.4s-4.8-0.4-4.7,0
			c0.1,0.4,0.1-1.3-0.4-1.8c-0.6-0.5-0.1-1.4-1.9-0.6c-1.9,0.8-1.7,0.3-4.7,1.2s-4.5,2.5-4.7,3.6s-0.8-0.2-2.4,1.2
			c-1.5,1.4-1.7,0.6-2.3,1.9c-0.5,1.1-2.4,2.9-2.4,2.9L-24.2-8.1z"/>
		<path class="st1" d="M-18.7-23l1.2,3.6l-0.3,2.8c0,0,0.7-2.4,5.4-4.2c0.4-0.2,3.2-0.4,3.2-0.4l2.4-1.1l1,2.9c0,0,3.5,0,4-0.3
			c0.4-0.3,1.6,0.5,3.1-0.9l2.4-1.9l1.2-1.7c0,0-3-0.5-3.5-1.2C0.9-26-0.7-28.2,0.2-29s0.8-3.9,1.2-4.7c0.4-0.8,2.4-2.4,2.4-2.4
			s-1,0-1.2-1.2s-0.3-3.3-1.2-3.6C0.5-41.1-1-38.5-1-38.5s-1,2.5-1.2,3.6c-0.2,1-2.4,2.4-2.4,2.4s-1.9-0.2-2.4,0s-3.6-0.1-4.7-1.2
			c-1.1-1-4.2-1.5-4.7-2.4c-0.5-0.8-1.2-3.6-1.2-3.6l-2.4-1.2c0,0-2.3,0.4-2.4,2.4c0,2-1.1,4.2-0.2,5.7c0.9,1.5,0.2,2.6,0.2,2.6
			s-0.6,1.7-1.5,2s-1.8,1.6-1.8,1.6l3.3,2.4L-18.7-23z"/>
	</g>
</symbol>
<use xlink:href="#日本地図_3"  width="91.9" height="104.2" id="XMLID_10_" x="-46" y="-52.1" transform="matrix(0.9952 0 0 -0.9952 552.0512 526.2268)" style="overflow:visible;"/>
</svg>
