<?xml version="1.0" encoding="utf-8"?>
<!-- Generator: Adobe Illustrator 21.0.2, SVG Export Plug-In . SVG Version: 6.00 Build 0)  -->
<svg version="1.1" id="レイヤー_1" xmlns="http://www.w3.org/2000/svg" xmlns:xlink="http://www.w3.org/1999/xlink" x="0px"
	 y="0px" viewBox="0 0 960 750" style="enable-background:new 0 0 960 750;" xml:space="preserve">
<style type="text/css">
	.st0{fill:#E38FEF;stroke:#FFFFFF;stroke-width:0.6;}
	.st1{display:none;fill:#F4B8FF;}
</style>
<symbol  id="日本地図_3" viewBox="-67 -57.5 133.9 114.9">
	<g>
		<path class="st0" d="M50.2,44.1c0.2-0.4,0.6,5.5,1.2,5.9c0.6,0.4,0.5,2.9,0.5,2.9l3,4.2c0,0,3.1-1.9,3.5-2.4
			c0.3-0.3,2.5-1.9,3.3-4.8c0.4-1.3,1-1.2,2.1-1.1c0.6,0.1,1.6,0,1.6,0l1.2-3.6c0,0-1.6-3.9-3.5-4.7s-3.5-2.6-3.5-2.4
			s-1.5-3.9-1.7-4.4c-1-2.7-0.4-4.1-0.4-4.1s0.3-3.9,0.9-4.5c0.7-0.6,3.6-2.3,3-2.1s-4.4-3.1-4.2-3.9c0.2-0.8-2.7-4.5-2.4-5.9
			c0.4-1.4,1.2-3.4,0-3.6c-1.2-0.2-7.1-2.4-7.1-2.4S42.8,6.4,43,6s0.4-5.3,0-5.9c-0.4-0.6-2.5-1.8-2.4-2.4c0.3-1.8,0.4-2.4,1.2-3.6
			s0-4.3,0-4.7c0-0.4-0.8-0.8-1.2-1.2s-5.9-2.4-5.9-2.4l-2.4-4.7c0,0,0-0.6-2.4-2.4s-3.3-2.6-3.5-3.6s-5.1-1.4-4.7-1.2
			c0.4,0.2-0.5,1.7-0.4,3.2c0,0.3-0.4,1-0.4,1s-1,1.1-1.6,2.8s-1.2,2-1.2,3.6s-0.2,3-1.2,2.4s-4.3-1.2-4.7-2.4
			c-0.4-1.2-2.6-2.7-3.5-3.6c-1.7-1.7-2.8-3.8-3.5-3.6c-0.8,0.2-3.5,1.6-3.5,1.2c0-0.5-2.4-1.6-2.4-1.2s-1.2,2.4-1.2,2.4L-4-18.6
			l-1.2,1.2l-2.7-3.3l-3.2-5c0,0-0.6,0.8-1.2,2.4c-1,2.7-0.6,5.4-0.6,5.4l-1.7,1.7l-1.2,1.2c0,0,3.7,2,4.7,2.4S-4.2-11-4-10.2
			s3.5,3.6,3.5,3.6L3-5.4c0.6,0.2,5.1-1,5.9,0s2.4,3.8,4.7,5.9c2.4,2.2,5.7,2.4,5.9,3.6s0.4,2.8,2.4,4.7c2,2,2.6,4.1,3.5,4.7
			c1,0.6,1.6,3.2,1.2,3.6c-0.4,0.4,1.2,7.1,1.2,7.1s4.7,3.8,7.1,4.7c2.4,1,5.3,0.4,7.1,2.4s4.9,3.2,5.9,4.7c0.7,1.2,2.5,3.1,2.4,3.6
			C49.8,41,50,44.5,50.2,44.1z"/>
		<path class="st0" d="M6.6,37c0,0,3.5,2.4,3.5,3.6s2.2,2.6,2.4,3.6c0.2,1,2.4,3.6,2.4,3.6s1-4.9,0-7.1S13.5,36,13.7,36
			s1.2-0.8,1.2-1.2s3.3,1.8,3.5,1.2s0-3.6,0-3.6s-2-0.2-2.4-1.2c-0.4-1-0.8-3.4-2.4-4.7c-1.6-1.4-3.9-3.9-4.7-3.6
			c-0.8,0.4-3.5,1.2-3.5,1.2s2.2,2.4,2.4,3.6c0.2,1.2,0.6,1,1.2,2.4S8.8,34,9,33.7c0.2-0.4-2.4-2.4-2.4-2.4s-0.6-1.2-1.2,0
			s1.6,3.6,1.2,3.6C6.2,34.7,6.6,37,6.6,37z"/>
		<path class="st0" d="M-44.1-22.2l0.1,3.3c0,0,0.2,0.7,2.2,2.7c2,1.9,4.7,1.2,4.7,1.2l-1.2-4.7c0,0-0.2-1.2,0-2.4
			c0.2-1.2,2.6-2.7,3.5-3.6c1-0.9,3.3-1.5,4.7-1.2c1.4,0.3,2.6,1,3.5,2.4s2.3,1.8,2.4,3.6c0.1,1.8-0.3,3,1.2,3.6s3.5,2.4,3.5,2.4
			h3.5c0,0,1.5-1.9,2.4-2.4c0.7-0.5,0.6-2.8,0.6-2.8s-0.3-1.8,0.7-3.3c1.1-1.5,1.2-2.3,1.2-3.6c0-3.9-1.2-7.2-1.6-7.5
			c-0.5-0.3-3.4-2.7-3.9-4.3c-0.5-1.6-0.6-2.6-2.7-2.4c-2,0.2-3.9-0.1-5.1,0.9c-1.2,0.9-2.9,1.3-4.3,1.5c-1.5,0.2-4,0.9-4.4,0.2
			c-0.3-0.7-1.1-0.7-1.2-1.3c-0.1-0.6-1.1-4.1-3.2-6.5c-1.1-1.3-1.4-1.4-3,0.6c-1.1,1.4-2.4,2.4-2.4,2.4s-3.5-4-3.5-3.6
			s-0.3,4.6-0.3,5.1c-0.4,4.3-1.1,7.9-0.9,9.1c0.2,1.2,0.8,3.3,0.8,3.3c0.4,0.5,1.1,3.1,1.1,3.1l1.6,1.3L-44.1-22.2z"/>
		<path class="st0" d="M-66.5-45.9c0,0,6.6,5.2,7.1,5.9c0.4,0.7,3.2,4,3.5,4.7c0.4,0.8,3,7.2,3.5,7.1c0.5,0,1.2,2.4,2.4,4.7
			c1.2,2.4,2.7,2.8,2.4,3.6c-0.3,0.8-1.2,5.9-1.2,5.9s0.2,1.2,0,2.4c-0.2,1.2-2.7,4.2-2.4,4.7c0.4,0.6,1.1,3.9,1.2,4.7
			c0.1,0.8,1.4,3.9,1.2,3.6c0-0.1-0.1-0.1-0.1-0.1s0.4,0.6,2.5,1.3c2.6,0.9,2.5,0.4,4.7,1.2s3.3,1.8,4.7,2.4
			c1.4,0.6,4.3,3.1,5.9,3.6c1.5,0.5,2.9,1.6,3.5,1.2c0.6-0.5,2.4-2.4,2.4-2.4s0-1.6-1.2-2.4c-1.2-0.7-3.5-2.4-3.5-2.4s0.3-1.6,0-2.4
			c-0.3-0.8-1.6-2-2.4-2.4c-0.7-0.4-2.4,0-2.4,0s0.4-1.8-1.2-2.4c-1.5-0.6-2.4-2.4-2.4-2.4h-3.5L-43-7l-1.2-2.4l1.2-1.2
			c0,0,4.1-0.7,3.5,0c-0.6,0.7,0,2.4,0,2.4l2.4-1.2v-2.4l1.2-2.4l-1.2-1.2h-2.4c0,0-2.4-0.6-3.5-2.4c-1.2-1.8-1-2.3-1.2-3.6
			c-0.2-1.3,0-4.2,0-4.2s0,0-1.2-0.5c-0.5-0.2-2.7-6.1-2.4-7.1s1.2-13,1.2-13s0-1.4-0.2-1.9s-1.3-4-1-4.7s0-3.3,0-3.3l-2.3-0.8
			c0,0-2.6-1-3.5,1.2s-1.2,2.4-1.2,2.4s-7.3,0.6-7.1,0s-1.4,0.1-2.4,1.2c-1,1.2-2.4,3.6-2.4,3.6L-66.5-45.9z"/>
	</g>
</symbol>
<rect class="st1" width="960" height="750"/>
<use xlink:href="#日本地図_3"  width="133.9" height="114.9" id="XMLID_10_" x="-67" y="-57.5" transform="matrix(0.9971 0 0 -0.9971 495.1012 467.6768)" style="overflow:visible;"/>
</svg>
